<?xml version="1.0" encoding="UTF-8"?>
<svg width="254px" height="153px" viewBox="0 0 254 153" version="1.1" xmlns="http://www.w3.org/2000/svg" xmlns:xlink="http://www.w3.org/1999/xlink">
    <!-- Generator: Sketch 43.2 (39069) - http://www.bohemiancoding.com/sketch -->
    <title>bonniers</title>
    <desc>Created with Sketch.</desc>
    <defs></defs>
    <g id="Page-1" stroke="none" stroke-width="1" fill="none" fill-rule="evenodd">
        <g id="bonniers" fill-rule="nonzero" fill="#000000">
            <g>
                <path d="M71.8,66.9 L88.4,66.9 L104.9,66.9 C103.3,69.8 102,72.3 100.5,74.7 C100.2,75.2 99,75.2 98.2,75.2 C89.2,75.2 80.1,75.3 71.1,75.2 C69.2,75.2 68.1,75.8 67.5,77.6 C65.2,84 62.6,90.4 60.3,96.8 C59.1,100.3 58.5,104 59.9,107.6 C60.6,109.5 61.8,111.1 62.8,112.9 L35.5,112.9 C36.5,112.1 37.4,111.3 38.4,110.6 C45.9,105.1 50,97.1 53.6,88.8 C61.8,70.2 69.9,51.6 78.1,33 C82.5,22.9 86.9,12.8 91.3,2.8 C91.6,2.1 92,1.4 92.4,0.5 C103.8,25.4 115.1,50.1 126.4,74.7 C126.7,74.6 126.9,74.6 127.2,74.5 C127.3,73.9 127.3,73.2 127.3,72.6 C127.3,54.3 127.5,36 127.2,17.7 C127.1,10.8 126.6,8.8 119.2,3.5 C120,3.5 120.6,3.4 121.2,3.4 C133.7,3.4 146.2,3.3 158.7,3.5 C165.9,3.6 172.9,4.8 179.2,8.5 C186.7,13 189.6,19.8 188.9,28.2 C188,39.2 181.5,45.8 171.7,49.7 C170.7,50.1 169.7,50.5 168.2,51.2 C171.5,51.9 174.2,52.4 176.8,53.1 C185.5,55.5 192.8,59.9 196.2,68.7 C202,83.6 197.9,104.8 176.5,110.8 C168.3,113.1 160.1,113.1 151.7,112.9 C142.3,112.6 132.9,112.9 123.5,112.9 C121.6,112.9 119.8,112.9 117.7,112.4 C118.2,112 118.8,111.7 119.3,111.3 C124.9,107.9 126.6,103.8 123.6,97 C114.9,77.7 105.8,58.6 96.8,39.4 C94.9,35.3 93,31.2 91.1,27.1 C90.8,26.6 90.5,26.1 89.8,25 C83.9,39 78,52.6 71.8,66.9 Z M145,56.1 C145.6,54.8 146.1,54.1 146.5,53.2 C147.9,49.8 149.8,47.1 154.1,48 C155.1,48.2 156.2,47.8 157.3,47.8 C171.4,47 180.3,30.9 173.5,18.5 C170.2,12.6 164.7,10.2 158.5,9.6 C153.5,9.1 148.4,9.4 143.3,9.5 C140.4,9.5 140.4,9.7 140.4,12.7 L140.4,91.8 C140.4,93.4 140.5,95.1 140.6,96.7 C141.1,101.8 143.3,104.5 148.3,105.5 C151.2,106.1 154.2,106.4 157.1,106.5 C165.9,106.7 173.9,104.6 179.4,97.1 C183.9,90.9 184.8,83.7 184.1,76.3 C183.6,71.4 182,67 178.5,63.4 C174,58.8 168.3,56.6 162,56.3 C156.4,55.9 150.9,56.1 145,56.1 Z" id="Shape"></path>
                <g id="Group" transform="translate(0.000000, 137.000000)">
                    <path d="M2.7,15.6 L0.3,15.6 L5.8,3.3 L7.8,3.3 L13.1,15.6 L10.7,15.6 L9.4,12.7 L4,12.7 L2.7,15.6 Z M4.9,10.8 L8.6,10.8 L6.8,6.5 L4.9,10.8 Z" id="Shape"></path>
                    <polygon id="Shape" points="17.7 13.7 24 13.7 24 15.6 15.4 15.6 15.4 3.3 17.7 3.3"></polygon>
                    <path d="M31.3,15.6 L27,15.6 L27,3.3 L29.6,3.3 C33.3,3.3 34.9,4.5 34.9,6.4 C34.9,7.3 34.5,8.2 33.6,8.6 C35.3,9.3 35.8,10.4 35.8,11.6 C35.7,14 33.8,15.6 31.3,15.6 Z M29.3,8 L30.2,8 C31.5,8 32.7,7.7 32.7,6.6 C32.7,5.6 31.7,5.2 30.1,5.2 L29.3,5.2 L29.3,8 L29.3,8 Z M30.5,13.7 C32.2,13.7 33.6,13.2 33.6,11.8 C33.6,10.3 32.4,9.9 30.3,9.9 L29.3,9.9 L29.3,13.7 L30.5,13.7 Z" id="Shape"></path>
                    <polygon id="Shape" points="39 15.6 39 3.3 47.5 3.3 47.5 5.2 41.3 5.2 41.3 8.5 47.2 8.5 47.2 10.4 41.3 10.4 41.3 13.7 47.5 13.7 47.5 15.6 39 15.6"></polygon>
                    <path d="M52.5,10.7 L52.5,15.6 L50.3,15.6 L50.3,3.3 L53,3.3 C53,3.3 54,3.3 54.4,3.4 C56.7,3.6 58.4,4.6 58.4,7 C58.4,8.6 57,9.9 55.2,10.4 L59.5,15.6 L56.7,15.6 L52.5,10.7 Z M53.3,8.8 C54.9,8.8 56,8.2 56.1,7 C56.1,5.6 55,5.3 52.5,5.3 L52.5,8.8 L53.3,8.8 Z" id="Shape"></path>
                    <polygon id="Shape" points="67.1 5.2 67.1 15.6 64.8 15.6 64.8 5.2 61.2 5.2 61.2 3.3 70.6 3.3 70.6 5.2"></polygon>
                    <path d="M82.7,15.6 L78.4,15.6 L78.4,3.3 L81,3.3 C84.7,3.3 86.3,4.5 86.3,6.4 C86.3,7.3 85.9,8.2 85,8.6 C86.7,9.3 87.2,10.4 87.2,11.6 C87.1,14 85.2,15.6 82.7,15.6 Z M80.7,8 L81.6,8 C82.9,8 84.1,7.7 84.1,6.6 C84.1,5.6 83.1,5.2 81.5,5.2 L80.7,5.2 L80.7,8 Z M81.9,13.7 C83.6,13.7 85,13.2 85,11.8 C85,10.3 83.8,9.9 81.7,9.9 L80.7,9.9 L80.7,13.7 L81.9,13.7 Z" id="Shape"></path>
                    <path d="M103.2,9.4 C103.2,13.9 99.3,15.8 96.4,15.8 C93.4,15.8 89.5,13.8 89.5,9.4 C89.5,6 92,3.2 96.4,3.2 C100.3,3.1 103.2,6 103.2,9.4 Z M100.8,9.4 C100.8,6.8 98.6,5.1 96.3,5.1 C93.6,5.1 91.8,6.8 91.8,9.4 C91.8,11.9 93.8,13.9 96.4,13.9 C98.9,13.8 100.8,11.8 100.8,9.4 Z" id="Shape"></path>
                    <polygon id="Shape" points="115.2 3.3 117.5 3.3 117.5 15.6 115.2 15.6 108 6.6 108 15.7 105.7 15.6 105.7 3.3 108 3.3 115.2 12.4"></polygon>
                    <polygon id="Shape" points="130.3 3.3 132.6 3.3 132.6 15.6 130.3 15.6 123.1 6.6 123.1 15.7 120.8 15.6 120.8 3.3 123.1 3.3 130.3 12.4"></polygon>
                    <polygon id="Shape" points="138.2 15.6 135.9 15.6 135.9 3.3 138.2 3.3"></polygon>
                    <polygon id="Shape" points="141.9 15.6 141.9 3.3 150.4 3.3 150.4 5.2 144.2 5.2 144.2 8.5 150.1 8.5 150.1 10.4 144.2 10.4 144.2 13.7 150.4 13.7 150.4 15.6 141.9 15.6"></polygon>
                    <path d="M155.3,10.7 L155.3,15.6 L153.1,15.6 L153.1,3.3 L155.8,3.3 C155.8,3.3 156.8,3.3 157.2,3.4 C159.5,3.6 161.2,4.6 161.2,7 C161.2,8.6 159.8,9.9 158,10.4 L162.3,15.6 L159.5,15.6 L155.3,10.7 Z M156.2,8.8 C157.8,8.8 158.9,8.2 159,7 C159,5.6 157.9,5.3 155.4,5.3 L155.4,8.8 L156.2,8.8 Z" id="Shape"></path>
                    <path d="M172.7,13.8 C172,15.1 170.5,15.8 168.4,15.8 C166.1,15.8 164.2,14.6 163.7,12.9 L165.8,12.1 C166.1,12.7 166.7,13.8 168.5,13.8 C169.7,13.8 170.7,13.1 170.7,12.2 C170.7,11.4 169.9,10.5 168.3,10.2 C166.9,9.9 165.2,9.5 164.3,8.1 C163.9,7.6 163.8,6.9 163.9,6.3 C163.9,5.6 164.4,4.7 164.9,4.3 C165.9,3.4 167.2,3.2 168.4,3.2 C170.5,3.2 172.4,4.3 172.8,6.2 L170.7,6.8 C170.4,5.4 169.5,5.1 168.4,5.1 C166.7,5.1 165.9,6.4 166.5,7.2 C167.2,8.2 169.5,8.2 171.6,9.5 C173.1,10.3 173.6,12.3 172.7,13.8 Z" id="Shape"></path>
                    <polygon id="Shape" points="180.1 15.6 180.1 3.3 188.3 3.3 188.3 5.2 182.3 5.2 182.3 8.6 187.8 8.6 187.8 10.5 182.3 10.5 182.3 15.6"></polygon>
                    <path d="M203.9,9.4 C203.9,13.9 200,15.8 197.1,15.8 C194.1,15.8 190.2,13.8 190.2,9.4 C190.2,6 192.7,3.2 197.1,3.2 C201,3.1 203.9,6 203.9,9.4 Z M201.5,9.4 C201.5,6.8 199.3,5.1 197,5.1 C194.3,5.1 192.5,6.8 192.5,9.4 C192.5,11.9 194.5,13.9 197.1,13.9 C199.6,13.8 201.5,11.8 201.5,9.4 Z M193.7,2.5 L193.7,0.3 L196,0.3 L196,2.5 L193.7,2.5 Z M197.9,2.5 L197.9,0.3 L200.2,0.3 L200.2,2.5 L197.9,2.5 Z" id="Shape"></path>
                    <path d="M208,10.7 L208,15.6 L205.8,15.6 L205.8,3.3 L208.5,3.3 C208.5,3.3 209.5,3.3 209.9,3.4 C212.2,3.6 213.9,4.6 213.9,7 C213.9,8.6 212.5,9.9 210.7,10.4 L215,15.6 L212.2,15.6 L208,10.7 Z M208.9,8.8 C210.5,8.8 211.6,8.2 211.7,7 C211.7,5.6 210.6,5.3 208.1,5.3 L208.1,8.8 L208.9,8.8 Z" id="Shape"></path>
                    <polygon id="Shape" points="219.4 13.7 225.6 13.7 225.6 15.6 217 15.6 217 3.3 219.3 3.3 219.3 13.7"></polygon>
                    <path d="M229.8,15.6 L227.4,15.6 L232.9,3.3 L234.9,3.3 L240.2,15.6 L237.8,15.6 L236.5,12.7 L231.1,12.7 L229.8,15.6 Z M232,10.8 L235.7,10.8 L233.9,6.5 L232,10.8 Z" id="Shape"></path>
                    <path d="M251.7,9.7 L253.6,9.7 L253.6,13.3 C253.6,13.3 251.4,15.9 248.2,15.9 C246.2,15.9 244.2,15 243.1,13.5 C242.3,12.4 241.9,10.9 241.9,9.5 C242,7.5 243,5.4 245,4.3 C245.9,3.8 247.1,3.4 248.2,3.4 C249.4,3.4 250.2,3.5 251.1,4 C251.8,4.4 252,4.5 252.6,5 L251.2,6.6 C250.9,6.3 250.7,6 250.3,5.8 C248.8,5.1 247.3,5.2 246.2,6 C245,6.8 244.3,8.2 244.3,9.6 C244.3,10.6 244.6,11.8 245.2,12.5 C245.9,13.4 247.1,13.9 248.3,13.9 C250.5,13.9 251.8,12.2 251.8,12.2 L251.7,9.7 Z" id="Shape"></path>
                </g>
            </g>
        </g>
    </g>
</svg>