<?xml version="1.0" encoding="UTF-8"?>
<svg width="211px" height="238px" viewBox="0 0 211 238" version="1.1" xmlns="http://www.w3.org/2000/svg" xmlns:xlink="http://www.w3.org/1999/xlink">
    <!-- Generator: Sketch 43.2 (39069) - http://www.bohemiancoding.com/sketch -->
    <title>kkh</title>
    <desc>Created with Sketch.</desc>
    <defs></defs>
    <g id="Page-1" stroke="none" stroke-width="1" fill="none" fill-rule="evenodd">
        <g id="kkh" fill-rule="nonzero" fill="#231F20">
            <g id="Shape">
                <path d="M104.3,0.8 C73.5,0.8 47.5,10.2 29.1,29.7 C10.7,49.2 0.2,78.7 0.2,118.8 C0.2,162.9 11.7,192.5 30.6,211.1 C49.4,229.7 75.6,237.2 104.5,237.2 L104.5,237.2 C133.5,237.2 160,229.7 179.2,211.1 C198.5,192.5 210.4,162.9 210.4,118.8 C210.4,74.7 198.4,45.2 179.1,26.7 C159.8,8.2 133.3,0.8 104.3,0.8 L104.3,0.8 Z M209.7,118.8 C209.7,135.3 208,149.7 204.9,162.3 L204.9,162.3 C203.6,167.5 202.1,172.4 200.3,177 C189.9,204.3 171.5,220.8 148.7,229.2 C135.2,234.2 120.2,236.5 104.5,236.5 L104.5,236.5 L104.5,236.5 C75.9,236.5 50.3,229.1 31.6,211.1 C31.4,210.9 31.2,210.8 31,210.6 C30.9,210.5 30.9,210.5 30.8,210.4 C12.2,191.9 0.8,162.6 0.8,118.8 L0.8,118.8 L0.8,118.8 L0.8,116.9 C1.6,38.2 43.5,1.5 104.3,1.5 C113.4,1.5 122.3,2.3 130.8,3.8 C175.9,12.3 209.6,44.8 209.7,118.8 L209.7,118.8 L209.7,118.8 L209.7,118.8 Z"></path>
                <path d="M178.5,53.6 C175.2,55.3 173.3,59.2 175.5,63.4 C176.5,65.3 177.9,66.6 180,67.3 C182.3,67.9 184.2,67.3 185.3,66.7 C188.9,64.8 190.6,60.7 188.6,56.8 C186.7,53.2 182.4,51.5 178.5,53.6 M187.5,57 C189.3,60.4 187.2,63.5 184.4,65 C180.8,66.9 177.7,65.7 176.4,63.1 C174.7,59.9 176.6,56.6 179.5,55 C182.9,53.2 186.1,54.3 187.5,57"></path>
                <path d="M104.3,4.3 C74.4,4.3 49.2,13.4 31.3,32.3 C13.5,51.2 3.2,79.8 3.2,118.7 C3.2,161.5 14.4,190.2 32.7,208.3 C51,226.3 76.3,233.7 104.4,233.7 L104.4,233.7 C132.5,233.7 158.2,226.4 176.9,208.3 C195.6,190.3 207.2,161.5 207.2,118.7 C207.2,75.9 195.6,47.3 176.9,29.4 C158.2,11.5 132.4,4.3 104.3,4.3 M104.5,233.1 C48.5,233 3.9,204.1 3.9,118.8 C3.9,41.2 44.8,5 104.3,5 C160.4,5 206.6,33.5 206.7,118.8 C206.6,204.1 160.5,233 104.5,233.1"></path>
                <path d="M209.7,118.8 L209.7,118.8 C209.7,135.3 208,149.7 204.9,162.3 C208,149.6 209.7,135.2 209.7,118.8"></path>
                <path d="M183.3,81.3 L183.1,81.4 L183.8,84.7 L184,84.7 C184,84.1 184.2,83.8 184.7,83.7 C185,83.6 185.6,83.8 186,83.9 L188.9,84.5 L189.9,89.4 L187.3,91.2 C187.1,91.4 186.6,91.7 186.4,91.8 C185.8,91.9 185.5,91.4 185.3,91 L185.1,91.1 L186,95.2 L186.2,95.2 C186.4,94.2 186.8,93.9 188,93.1 L198.4,85.9 L198.4,85.7 L185.5,82.9 C184.2,82.3 183.6,82.1 183.3,81.3 L183.3,81.3 Z M195,85.7 L190.7,88.6 L189.9,84.6 L195,85.7 L195,85.7 Z"></path>
                <path d="M179.8,70.8 L179.6,70.9 L182.8,80.3 L184.9,79.6 L184.8,79.4 C183.6,79.5 183.4,79 183,77.8 L182.1,75.2 C181.9,74.5 181.7,74 182,73.5 C182.2,73.2 182.7,73 183.3,72.8 L191.3,70.1 C192.7,69.6 193.1,69.5 193.8,70.5 L194,70.4 L192.6,66.4 L192.4,66.5 C192.5,67.7 192.2,67.9 190.7,68.4 L182.7,71.1 C180.9,71.8 180.4,71.9 179.8,70.8"></path>
                <path d="M178,41.9 L178.2,41.8 L175.6,38.6 L175.4,38.7 C175.7,39.3 175.9,39.9 175.1,40.5 L167.4,46.6 C166.4,47.3 166,47.8 165,47 L164.8,47.2 L167.4,50.5 L167.6,50.3 C167.1,49.2 167.5,48.8 168.6,48 L172.2,45.1 L171.4,52.5 C171.2,54.5 171.2,55.1 172.2,56.5 L172.7,57 L172.9,56.9 C172.7,56.1 172.7,55.8 173,53.8 L173.9,46.2 L180,47 C181.3,47.1 182,47.2 182.6,47.7 L182.8,47.6 L180.5,44.7 L180.3,44.8 C180.4,45 180.7,45.4 180.3,45.7 C180,45.9 179.6,45.8 178.8,45.7 L172.4,44.8 L175.9,42 C176.7,41.5 177.2,41.1 178,41.9"></path>
                <path d="M157.7,212.3 C157.9,213.5 157.8,213.6 156.4,214.4 L154.8,215.3 C153.7,215.9 153.2,216.1 152.8,216.1 C152.3,216 152,215.4 151.6,214.7 L149.7,211.2 L152.5,209.7 C153.2,209.3 153.7,209.1 154.5,209.9 L154.7,209.8 L153.1,206.9 L153,207 C153.4,208 153,208.4 152.2,208.8 L149.4,210.4 L147,206 L150.1,204.3 C151.1,203.8 151.5,203.8 152.1,204.5 L152.3,204.4 L151.3,202.5 L143.9,206.5 L144,206.7 C144.3,206.6 144.8,206.4 145.2,206.7 C145.4,206.9 145.5,207.1 146,207.9 L150.8,216.7 C151,217.2 151.3,217.7 150.4,218.4 L150.5,218.6 L158.9,214.1 L157.9,212.2 L157.7,212.3 L157.7,212.3 Z"></path>
                <path d="M84.1,215.2 L84.3,215.2 C84.6,214.3 85,214.1 86.2,214.2 L89,214.5 L87.6,225.4 C87.4,226.7 86.9,226.8 86.2,226.9 L86.2,227.1 L90.4,227.6 L90.4,227.3 C89.8,227.1 89.2,226.8 89.3,225.6 L90.7,214.6 L93.7,215 C94.5,215.1 95.1,215.2 95.1,216.3 L95.3,216.3 L95.6,214.2 L84.3,212.8 L84.1,215.2 L84.1,215.2 Z"></path>
                <path d="M74.6,213.8 C74.1,215.7 75.1,216.9 76.1,217.9 L77.1,218.9 C77.8,219.6 78.8,220.6 78.4,222.2 C78,223.8 76.5,224.7 74.7,224.2 C72.6,223.6 72.5,222.1 72.4,221.5 L72.2,221.5 L71.6,223.7 C72.3,224.3 73,224.8 74.5,225.2 C75.3,225.4 76.7,225.7 78,225 C78.9,224.6 79.8,223.7 80.2,222.4 C80.7,220.3 79.5,219 78.5,217.9 L77.6,217 C76.7,216.2 76,215.3 76.3,214.1 C76.7,212.6 78.1,212.2 79.4,212.5 C80.2,212.7 80.7,213.1 81,213.4 C81.4,213.9 81.5,214.5 81.6,215.1 L81.8,215.1 L82.4,212.9 C81.7,212.4 80.9,211.8 79.5,211.4 C76.7,210.7 75,212.1 74.6,213.8"></path>
                <path d="M97.9,214.7 C99.2,214.9 99.2,215.6 99.1,216.9 L98.9,225.9 C98.9,227.4 98.8,227.8 97.6,228.1 L97.6,228.3 L101.8,228.4 L101.8,228.2 C100.7,227.8 100.6,227.5 100.6,226 L100.8,217 C100.8,215.6 100.8,215.1 102,214.9 L102,214.7 L97.9,214.6 L97.9,214.7 L97.9,214.7 Z"></path>
                <path d="M142.1,220.2 L138.4,209.8 L141.2,208.8 C142,208.5 142.6,208.4 143,209.3 L143.2,209.2 L142.5,207.2 L131.7,211 L132.4,213 L132.6,212.9 C132.4,212 132.7,211.6 133.9,211.2 L136.5,210.3 L140.2,220.7 C140.6,221.9 140.2,222.3 139.6,222.7 L139.7,222.9 L143.7,221.5 L143.6,221.3 C143.1,221.2 142.4,221.3 142.1,220.2"></path>
                <path d="M196.9,124.2 C196.9,122.8 195.7,121.6 194.3,121.6 C192.9,121.6 191.7,122.8 191.7,124.2 C191.7,125.6 192.9,126.8 194.3,126.8 C195.7,126.8 196.9,125.6 196.9,124.2"></path>
                <path d="M129.8,213.6 C129.6,212.5 129.5,212.1 130.6,211.6 L130.6,211.4 L127.3,212 L127.3,212.2 C128.4,212.2 128.6,212.7 128.8,213.8 L130,220.1 C130.2,221 130.4,222.5 129.8,223.7 C129.4,224.5 128.4,225.3 126.9,225.5 C124.3,226 122.5,224.8 121.9,222 L120.7,215.4 C120.5,214.4 120.4,213.8 121.5,213.3 L121.4,213.1 L117.4,213.9 L117.5,214.2 C118.7,214.3 118.7,214.6 119,215.9 L120.2,222.4 C120.8,225.9 123.2,227.4 126.8,226.7 C127.6,226.6 129.4,226.2 130.5,224.6 C131.6,223.1 131.2,221.4 131,220 L129.8,213.6 L129.8,213.6 Z"></path>
                <path d="M104.5,214.7 L104.6,216.8 L104.8,216.8 C104.9,215.9 105.3,215.6 106.5,215.5 L109.3,215.3 L110,226.3 C110.1,227.6 109.5,227.8 108.9,228 L108.9,228.2 L113.1,227.9 L113.1,227.7 C112.5,227.6 111.8,227.4 111.8,226.2 L111.1,215.1 L114.1,214.9 C115,214.9 115.5,214.9 115.7,215.9 L115.9,215.9 L115.8,213.8 L104.5,214.7 L104.5,214.7 Z"></path>
                <path d="M105.3,33.6 C64.4,33.6 31.3,56.8 31.3,119 C31.3,181.2 63,204.4 103.9,204.4 C144.8,204.4 179.4,181.2 179.4,119 C179.3,56.8 146.2,33.6 105.3,33.6 L105.3,33.6 Z M130.8,61.4 C130.8,62 130.3,62.4 129.8,62.4 C129.3,62.4 128.8,61.9 128.8,61.4 C128.8,60.8 129.3,60.4 129.8,60.4 C130.3,60.4 130.8,60.8 130.8,61.4 L130.8,61.4 Z M129.6,58 C129.6,58.6 129.1,59 128.6,59 C128,59 127.6,58.5 127.6,58 C127.6,57.5 128,57 128.6,57 C129.2,57 129.6,57.5 129.6,58 L129.6,58 Z M127,53.9 C127.6,53.9 128,54.4 128,54.9 C128,55.4 127.6,55.9 127,55.9 C126.4,55.9 126,55.4 126,54.9 C126,54.4 126.4,53.9 127,53.9 L127,53.9 Z M116.3,60.1 C116.9,60.1 117.3,60.6 117.3,61.1 C117.3,61.7 116.9,62.1 116.3,62.1 C115.8,62.1 115.3,61.7 115.3,61.1 C115.3,60.6 115.8,60.1 116.3,60.1 L116.3,60.1 Z M114.9,57.9 C114.9,57.3 115.4,56.9 115.9,56.9 C116.5,56.9 116.9,57.3 116.9,57.9 C116.9,58.5 116.5,58.9 115.9,58.9 C115.3,58.9 114.9,58.5 114.9,57.9 L114.9,57.9 Z M116.5,52.9 L116.5,51.9 C121.8,51.9 126.8,57.5 127,62.3 L126,62.3 C126,58.2 121.2,52.8 116.5,52.9 L116.5,52.9 Z M124.3,51.5 C124.9,51.5 125.3,51.9 125.3,52.5 C125.3,53.1 124.9,53.5 124.3,53.5 C123.7,53.5 123.3,53 123.3,52.5 C123.3,52 123.7,51.5 124.3,51.5 L124.3,51.5 Z M120.9,49.8 C121.5,49.8 121.9,50.2 121.9,50.8 C121.9,51.4 121.5,51.8 120.9,51.8 C120.4,51.8 119.9,51.3 119.9,50.8 C119.9,50.3 120.4,49.8 120.9,49.8 L120.9,49.8 Z M117,48.8 C117.6,48.8 118,49.3 118,49.8 C118,50.4 117.5,50.8 117,50.8 C116.4,50.8 116,50.3 116,49.8 C116,49.2 116.5,48.8 117,48.8 L117,48.8 Z M115,53.9 C115.6,53.9 116,54.4 116,54.9 C116,55.5 115.5,55.9 115,55.9 C114.4,55.9 114,55.4 114,54.9 C114,54.4 114.5,53.9 115,53.9 L115,53.9 Z M113.2,50.9 C113.8,50.9 114.2,51.3 114.2,51.9 C114.2,52.4 113.7,52.9 113.2,52.9 C112.6,52.9 112.2,52.4 112.2,51.9 C112.2,51.3 112.6,50.9 113.2,50.9 L113.2,50.9 Z M110.5,48.7 C111.1,48.7 111.5,49.2 111.5,49.7 C111.5,50.3 111,50.7 110.5,50.7 C109.9,50.7 109.5,50.2 109.5,49.7 C109.5,49.1 110,48.7 110.5,48.7 L110.5,48.7 Z M108.8,51.6 C113.3,53.4 113.7,59.9 113.8,62.2 L112.8,62.2 C112.8,60 112.1,53.9 108.4,52.5 L108.8,51.6 L108.8,51.6 Z M108.6,58.6 C108.6,60.1 108.4,61.3 108.2,61.9 L107.3,61.6 C107.4,61.2 107.6,60 107.6,58.6 C107.6,57.3 107.5,55.8 107,54.8 L107.9,54.4 C108.4,55.6 108.6,57.2 108.6,58.6 L108.6,58.6 Z M102.6,45.2 L102.6,43.7 L104.4,43.7 L104.4,41.9 L106,41.9 L106,43.7 L107.9,43.7 L107.9,45.2 L106,45.2 L106,46.9 C107.1,47.2 108,48.3 108,49.6 C108,51.1 106.8,52.4 105.2,52.4 C103.7,52.4 102.4,51.2 102.4,49.6 C102.4,48.3 103.2,47.3 104.4,46.9 L104.4,45.2 L102.6,45.2 L102.6,45.2 Z M105.1,59.2 C104.5,59.2 104.1,58.7 104.1,58.2 C104.1,57.6 104.6,57.2 105.1,57.2 C105.7,57.2 106.1,57.7 106.1,58.2 C106.1,58.8 105.7,59.2 105.1,59.2 L105.1,59.2 Z M106.1,61.3 C106.1,61.9 105.6,62.3 105.1,62.3 C104.5,62.3 104.1,61.9 104.1,61.3 C104.1,60.8 104.6,60.3 105.1,60.3 C105.7,60.3 106.1,60.8 106.1,61.3 L106.1,61.3 Z M105.2,56.1 C104.6,56.1 104.2,55.7 104.2,55.1 C104.2,54.5 104.6,54.1 105.2,54.1 C105.7,54.1 106.2,54.6 106.2,55.1 C106.2,55.7 105.7,56.1 105.2,56.1 L105.2,56.1 Z M103,54.7 C102.6,55.7 102.4,57.2 102.4,58.5 C102.4,59.9 102.6,61.1 102.7,61.5 L101.8,61.8 C101.6,61.2 101.4,60 101.4,58.5 C101.4,57.1 101.6,55.6 102.1,54.3 L103,54.7 L103,54.7 Z M101.6,52.5 C97.9,53.9 97.2,60 97.2,62.2 L96.2,62.2 C96.3,59.9 96.7,53.5 101.2,51.6 L101.6,52.5 L101.6,52.5 Z M99.9,48.8 C100.5,48.8 100.9,49.3 100.9,49.8 C100.9,50.4 100.4,50.8 99.9,50.8 C99.3,50.8 98.9,50.3 98.9,49.8 C98.9,49.2 99.4,48.8 99.9,48.8 L99.9,48.8 Z M97.3,51 C97.9,51 98.3,51.5 98.3,52 C98.3,52.6 97.8,53 97.3,53 C96.7,53 96.3,52.6 96.3,52 C96.2,51.4 96.7,51 97.3,51 L97.3,51 Z M95.4,54 C96,54 96.4,54.5 96.4,55 C96.4,55.5 95.9,56 95.4,56 C94.8,56 94.4,55.5 94.4,55 C94.4,54.5 94.9,54 95.4,54 L95.4,54 Z M94.1,60.2 C94.7,60.2 95.1,60.7 95.1,61.2 C95.1,61.8 94.6,62.2 94.1,62.2 C93.6,62.2 93.1,61.7 93.1,61.2 C93.1,60.7 93.6,60.2 94.1,60.2 L94.1,60.2 Z M84,62.3 L83,62.3 C83.2,57.5 88.2,52 93.5,51.9 L93.5,52.9 C88.9,52.8 84.1,58.2 84,62.3 L84,62.3 Z M94.6,59 C94.1,59 93.6,58.6 93.6,58 C93.6,57.4 94.1,57 94.6,57 C95.2,57 95.6,57.4 95.6,58 C95.6,58.6 95.1,59 94.6,59 L94.6,59 Z M93.6,48.8 C94.2,48.8 94.6,49.3 94.6,49.8 C94.6,50.4 94.2,50.8 93.6,50.8 C93,50.8 92.6,50.3 92.6,49.8 C92.6,49.2 93.1,48.8 93.6,48.8 L93.6,48.8 Z M89.7,49.8 C90.3,49.8 90.7,50.2 90.7,50.8 C90.7,51.4 90.3,51.8 89.7,51.8 C89.1,51.8 88.7,51.3 88.7,50.8 C88.7,50.3 89.2,49.8 89.7,49.8 L89.7,49.8 Z M86.4,51.5 C87,51.5 87.4,51.9 87.4,52.5 C87.4,53.1 87,53.5 86.4,53.5 C85.8,53.5 85.4,53 85.4,52.5 C85.3,52 85.8,51.5 86.4,51.5 L86.4,51.5 Z M83.7,53.9 C84.3,53.9 84.7,54.4 84.7,54.9 C84.7,55.4 84.2,55.9 83.7,55.9 C83.1,55.9 82.7,55.4 82.7,54.9 C82.7,54.4 83.1,53.9 83.7,53.9 L83.7,53.9 Z M82.1,57 C82.6,57 83.1,57.5 83.1,58 C83.1,58.6 82.6,59 82.1,59 C81.5,59 81.1,58.5 81.1,58 C81,57.5 81.5,57 82.1,57 L82.1,57 Z M80.9,60.4 C81.4,60.4 81.9,60.8 81.9,61.4 C81.9,62 81.4,62.4 80.9,62.4 C80.3,62.4 79.9,61.9 79.9,61.4 C79.9,60.8 80.3,60.4 80.9,60.4 L80.9,60.4 Z M83,65.5 C83.1,65.8 83.1,66.1 83.1,66.4 L83.2,66.4 C84.7,66 86,67.2 86.3,68.2 C86.7,69.6 85.6,71.1 84.3,71.5 C84.7,72.4 85.6,73 86.6,73 C87.7,73 88.6,72.3 89,71.4 C89.4,72.4 90.3,73 91.4,73 C92.8,73 93.9,71.8 93.9,70.5 L93.9,70.4 L93.7,70.5 C93.3,70.9 92.9,71.1 92.3,71.1 C91.1,71.1 90,70.1 90,68.8 C90,67.6 91,66.6 92.2,66.5 C92.1,66.3 92.1,66 92.1,65.7 C92.1,64.5 93.1,63.4 94.4,63.4 C95.7,63.4 96.7,64.4 96.7,65.7 C96.7,66 96.6,66.2 96.6,66.5 L96.7,66.5 C98,66.5 99,67.5 99,68.8 C99,70 98,71.1 96.7,71.1 C96.3,71.1 95.9,71 95.6,70.8 C95.4,70.7 95.1,70.4 95.1,70.4 C95.1,71.8 96.2,72.9 97.7,72.9 C98.8,72.9 99.7,72.2 100,71.3 C100.4,72.3 101.3,72.9 102.4,72.9 C103.8,72.9 105,71.7 105,70.3 L105,70.4 C104.6,70.8 104,71 103.4,71 C102.1,71 101.1,70 101.1,68.7 C101.1,67.5 102.1,66.5 103.2,66.4 C103.1,66.2 103.1,65.9 103.1,65.6 C103.1,64.3 104.1,63.3 105.4,63.3 C106.7,63.3 107.7,64.3 107.7,65.6 C107.7,65.9 107.7,66.1 107.6,66.4 L107.7,66.4 C109,66.4 110,67.4 110,68.7 C110,70 109,71 107.7,71 C107.3,71 106.6,70.7 106.6,70.7 C106.3,70.6 106.1,70.4 106,70.2 L106,70.3 C106,71.7 107.2,72.9 108.6,72.9 C109.7,72.9 110.6,72.2 111,71.3 C111.4,72.3 112.3,72.9 113.4,72.9 C114.8,72.9 116,71.6 116,70.2 C115.6,70.6 115,71 114.4,71 C113.1,71 112.1,70 112.1,68.7 C112.1,67.5 113,66.5 114.2,66.4 C114.1,66.2 114.1,65.9 114.1,65.6 C114.1,64.3 115.1,63.3 116.4,63.3 C117.7,63.3 118.7,64.3 118.7,65.6 C118.7,65.9 118.6,66.1 118.6,66.4 L118.7,66.4 C120,66.4 121,67.4 121,68.7 C121,70 120,71 118.7,71 C118.3,71 117.9,70.9 117.6,70.7 L117.6,70.7 C117.4,70.6 117.2,70.4 117,70.2 L117,70.2 C117,71.6 118.1,72.7 119.5,72.7 C120.6,72.7 121.5,72 121.9,71.1 C122.3,72 123.2,72.7 124.3,72.7 C125.3,72.7 126.2,72.1 126.6,71.3 C125.3,70.9 124.3,69.4 124.7,68.1 C125,67.1 126.3,65.9 127.8,66.3 L127.9,66.3 C127.9,66 127.9,65.7 128,65.4 C128.4,64 129.7,63.2 131.8,63.8 L131.9,63.8 C126.9,66.9 127.4,74.7 127.4,74.7 L84.2,74.7 C84.2,74.7 84.7,66.9 79.7,63.8 L79.6,63.8 C81.3,63.3 82.6,64.2 83,65.5 L83,65.5 Z M126.9,80.8 L127.1,82.5 L83.4,82.5 L83.6,80.8 L126.9,80.8 L126.9,80.8 Z M84.8,77.7 C84.8,77.1 85.3,76.7 85.8,76.7 C86.4,76.7 86.8,77.2 86.8,77.7 C86.8,78.3 86.4,78.7 85.8,78.7 C85.3,78.8 84.8,78.3 84.8,77.7 L84.8,77.7 Z M88.4,77.7 C88.4,77.1 88.9,76.7 89.4,76.7 C90,76.7 90.4,77.2 90.4,77.7 C90.4,78.3 89.9,78.7 89.4,78.7 C88.8,78.8 88.4,78.3 88.4,77.7 L88.4,77.7 Z M91.9,77.7 C91.9,77.1 92.4,76.7 92.9,76.7 C93.5,76.7 93.9,77.2 93.9,77.7 C93.9,78.3 93.4,78.7 92.9,78.7 C92.4,78.8 91.9,78.3 91.9,77.7 L91.9,77.7 Z M95.4,77.7 C95.4,77.1 95.9,76.7 96.4,76.7 C96.9,76.7 97.4,77.2 97.4,77.7 C97.4,78.3 96.9,78.7 96.4,78.7 C95.8,78.8 95.4,78.3 95.4,77.7 L95.4,77.7 Z M98.9,77.7 C98.9,77.1 99.4,76.7 99.9,76.7 C100.5,76.7 100.9,77.2 100.9,77.7 C100.9,78.3 100.4,78.7 99.9,78.7 C99.4,78.8 98.9,78.3 98.9,77.7 L98.9,77.7 Z M102.4,77.7 C102.4,77.1 102.9,76.7 103.4,76.7 C104,76.7 104.4,77.2 104.4,77.7 C104.4,78.3 103.9,78.7 103.4,78.7 C102.9,78.8 102.4,78.3 102.4,77.7 L102.4,77.7 Z M106,77.7 C106,77.1 106.4,76.7 107,76.7 C107.6,76.7 108,77.2 108,77.7 C108,78.3 107.5,78.7 107,78.7 C106.4,78.8 106,78.3 106,77.7 L106,77.7 Z M109.5,77.7 C109.5,77.1 110,76.7 110.5,76.7 C111.1,76.7 111.5,77.2 111.5,77.7 C111.5,78.3 111.1,78.7 110.5,78.7 C109.9,78.8 109.5,78.3 109.5,77.7 L109.5,77.7 Z M113,77.7 C113,77.1 113.5,76.7 114,76.7 C114.6,76.7 115,77.2 115,77.7 C115,78.3 114.6,78.7 114,78.7 C113.4,78.8 113,78.3 113,77.7 L113,77.7 Z M116.5,77.7 C116.5,77.1 117,76.7 117.5,76.7 C118.1,76.7 118.5,77.2 118.5,77.7 C118.5,78.3 118,78.7 117.5,78.7 C117,78.8 116.5,78.3 116.5,77.7 L116.5,77.7 Z M120,77.7 C120,77.1 120.5,76.7 121,76.7 C121.5,76.7 122,77.2 122,77.7 C122,78.3 121.5,78.7 121,78.7 C120.5,78.8 120,78.3 120,77.7 L120,77.7 Z M123.5,77.7 C123.5,77.1 124,76.7 124.5,76.7 C125.1,76.7 125.5,77.2 125.5,77.7 C125.5,78.3 125.1,78.7 124.5,78.7 C124,78.8 123.5,78.3 123.5,77.7 L123.5,77.7 Z M87.2,189.9 L82.1,189.9 L82.1,189.3 L82.3,189.2 C83.3,189 83.5,188.8 83.5,187.2 L83.5,177.2 C83.5,176.5 83.5,176 83.4,175.7 C83.3,175.4 83.2,175.4 82.8,175.4 C82.6,175.4 82.4,175.5 82.2,175.6 L82,175.7 L81.9,175.5 L81.6,175.1 L85.1,172.2 L85.7,172.2 L85.7,187.1 C85.7,188.3 85.7,188.9 86.9,189.1 L87,189.1 L87,189.9 L87.2,189.9 Z M103.2,173 L94.4,190 L92.7,190 L100.6,174.7 L94.2,174.7 C92.8,174.7 92.4,174.6 92,176 L91.9,176.2 L91.3,176.2 L91.3,172.5 L103.1,172.5 L103.1,173 L103.2,173 Z M109.2,189.9 L109.2,189.9 C106.7,189.9 105.3,188.7 104.6,188.1 L104.4,188 L104.5,187.9 L104.8,187.4 L105,187.5 C105.6,187.9 106.7,188.5 108.2,188.5 C110.8,188.5 112.7,186.8 112.7,184.4 C112.7,183.1 112.2,182.3 111.4,181.6 C110.3,180.6 109.2,180.6 108,180.6 L107.9,180.6 L107.9,180.5 L107.8,180 L108,179.9 C108.6,179.7 109.2,179.5 109.7,179.3 C110.5,178.8 111.8,177.7 111.8,176 C111.8,174.8 111.1,173.7 109.5,173.7 C107.7,173.7 106.8,174.9 106.3,175.7 L106.2,175.8 L106.1,175.7 L105.7,175.6 L105.5,175.5 L105.6,175.3 C106.1,174.2 106.5,173.3 107.4,172.6 C108.2,172 109.2,171.7 110.1,171.7 C112.4,171.7 114.1,173.3 114.1,175.4 C114.1,175.9 114,176.4 113.9,176.9 C113.5,178.1 112.7,178.8 112,179.3 C112.5,179.5 112.9,179.7 113.3,180 C114.1,180.6 115.4,182 115.4,184.2 C115.3,187.2 112.8,189.9 109.2,189.9 L109.2,189.9 Z M122.7,189.9 C120.5,189.9 119.1,188.9 118.4,188.3 L118.3,188.2 L118.8,187.5 L119,187.6 C120.1,188.2 120.7,188.5 122,188.5 C125,188.5 126.4,186.6 126.4,184.6 C126.4,183.4 126,182.4 125.1,181.6 C123.7,180.2 121.7,179.8 119.4,179.5 L119.2,179.5 L120.6,172.1 L128.5,172.1 L128.5,174.1 L121.7,174.1 L121.1,177.6 C121.9,177.7 122.5,177.9 123.2,178 C124.1,178.2 125.4,178.7 126.5,179.5 C128.1,180.7 128.8,182.5 128.8,184.2 C128.8,187 126.7,189.9 122.7,189.9 L122.7,189.9 Z M155.5,158.1 C147.2,159.9 142.4,155.1 138.3,150.6 C138.1,150.4 137.9,150.1 137.7,149.9 L137.2,149.4 L131.6,143 L118,127.5 L118,156.9 L122.5,156.9 L122.5,158.8 L107.3,158.8 L107.3,156.9 L110,156.9 L110,127.4 L100.5,127.4 L100.5,156.9 L103.3,156.9 L103.3,158.8 L88.1,158.8 L88.1,156.9 L92.6,156.9 L92.6,127.5 L78.9,143 L73.3,149.4 L72.8,149.9 C72.6,150.1 72.4,150.4 72.2,150.6 C68.1,155.1 63.4,159.9 55.1,158.1 C51.6,157.4 48.3,155.3 46.3,152 C44,148.4 43.9,145 43.9,141.9 L45,142 C45.1,145.4 45.4,152.9 52.3,154.4 C57.9,155.6 61.3,151.6 65.3,147 L88.4,120.4 L73.6,99.5 C71.3,96.1 68.8,92.8 64.6,91.9 C59.9,90.9 58.4,93.9 57.8,95.4 C58.9,94.8 60,94.2 61.7,94.5 C64.3,95 65.6,97.3 65.1,99.6 C64.6,101.9 62.3,103.7 59.8,103.1 C57.2,102.5 55.1,99.5 55.8,96 C56.5,92.5 59.9,89.2 65,90.2 C69.5,91.1 72.1,94.6 73.2,96.2 L92.4,123.2 L92.3,94.5 L87.9,94.5 L87.9,92.6 L103.1,92.6 L103.1,94.5 L100.3,94.5 L100.3,122 L109.8,122 L109.8,94.5 L107,94.5 L107,92.6 L122.2,92.6 L122.2,94.5 L117.8,94.5 L117.7,123.2 L136.9,96.2 C138.1,94.5 140.6,91.1 145.1,90.2 C150.2,89.1 153.5,92.4 154.3,96 C155.1,99.5 153,102.5 150.3,103.1 C147.8,103.6 145.5,101.9 145,99.6 C144.5,97.3 145.8,95 148.4,94.5 C150.1,94.2 151.2,94.8 152.3,95.4 C151.6,93.9 150.2,90.9 145.5,91.9 C141.3,92.8 138.9,96.2 136.6,99.5 L121.9,120.4 L145,147 C149,151.6 152.4,155.6 158,154.4 C164.9,152.9 165.3,145.4 165.3,142 L166.5,141.9 C166.4,145 166.4,148.4 164.1,152 C162.2,155.4 159,157.4 155.5,158.1 L155.5,158.1 Z"></path>
                <path d="M192.6,166.5 L179.9,166.7 L179.8,166.9 L188.9,176.4 C189.7,177.2 190.1,177.7 189.9,178.5 L190.1,178.6 L191.4,175.5 L191.2,175.4 C190.9,175.9 190.5,176 190.1,175.9 C189.8,175.8 189.4,175.4 189.1,175.1 L187,173 L188.9,168.4 L192.1,168.4 C192.4,168.4 193,168.4 193.2,168.5 C193.8,168.7 193.8,169.3 193.6,169.8 L193.8,169.9 L195.4,166 L195.2,165.9 C194.6,166.4 194.1,166.5 192.6,166.5 L192.6,166.5 Z M186.4,172.1 L182.8,168.3 L188,168.3 L186.4,172.1 L186.4,172.1 Z"></path>
                <path d="M160,50.1 C146,35.9 126.6,29.8 105.3,29.8 C84,29.8 64.6,35.9 50.6,50.1 C36.6,64.3 28,86.6 28,119 C28,151.4 36.3,173.7 49.9,187.9 C63.5,202.1 82.5,208.2 103.8,208.2 C125.1,208.2 144.9,202.1 159.3,187.9 C173.7,173.7 182.7,151.4 182.7,118.9 C182.6,86.6 174,64.3 160,50.1 M103.7,207.5 C61.3,207.5 28.6,183.6 28.6,119 C28.6,54.4 62.8,30.6 105.2,30.5 C147.6,30.5 181.8,54.4 181.9,119 C181.9,183.5 146.1,207.5 103.7,207.5"></path>
                <path d="M199,142 L188,140.3 L188.4,137.3 C188.5,136.4 188.7,135.9 189.7,135.9 L189.7,135.7 L187.6,135.4 L185.9,146.7 L188,147 L188,146.8 C187.1,146.5 186.9,146.1 187.1,144.9 L187.5,142.1 L198.4,143.7 C199.7,143.9 199.8,144.5 199.8,145.2 L200,145.2 L200.6,141 L200.4,141 C200.4,141.6 200.2,142.2 199,142"></path>
                <path d="M196.8,152 L191.2,153.4 C191.1,152.7 190.7,150.8 188.7,150.3 C187.7,150 186.7,150.3 186,150.8 C185,151.6 184.6,152.9 184.3,154.1 L183.1,158.8 L183.3,158.9 C183.8,157.8 184.3,157.9 185.5,158.2 L194.6,160.5 C195.9,160.8 196.3,161 196.3,162.1 L196.5,162.2 L197.6,158.1 L197.3,158 C196.7,159.1 196.4,159.1 195,158.7 L190.8,157.6 L191.2,156.2 C191.4,155.6 191.4,155.3 191.4,155 L196.6,153.7 C198.2,153.2 198.9,153.1 199.3,151.5 L199.5,150.8 L199.3,150.7 C198.7,151.4 198.6,151.6 196.8,152 M190.2,156.1 L189.8,157.5 L184.7,156.2 L185.2,154.3 C185.4,153.7 185.6,152.9 186.4,152.3 C186.8,152 187.5,151.8 188.5,152 C189.4,152.2 189.9,152.7 190.1,153.2 C190.6,154.3 190.3,155.5 190.2,156.1"></path>
                <path d="M164.5,192.1 C161.6,194.8 161.1,199.4 164.1,202.7 C166.7,205.4 170.9,206.2 174.4,202.9 C176,201.4 176.9,199.7 176.9,197.6 C176.9,195.2 175.8,193.6 174.9,192.7 C172.1,189.6 167.7,189.1 164.5,192.1 M173.9,202 C171.3,204.4 167.5,203.6 165.3,201.2 C162.7,198.4 162.9,195 165.1,192.9 C167.9,190.3 171.4,191.5 173.5,193.8 C176.4,196.8 176,200.1 173.9,202"></path>
                <path d="M182,190.9 L177.9,187.9 L179.8,185.3 C180.3,184.6 180.7,184.2 181.7,184.7 L181.8,184.5 L179.1,182.5 L179,182.7 C179.8,183.5 179.6,183.9 179,184.7 L177.1,187.3 L173.1,184.4 L175.2,181.5 C175.9,180.6 176.3,180.5 177.2,180.8 L177.4,180.6 L175.7,179.3 L170.7,186.2 L170.9,186.3 C171.7,185.5 172.2,185.8 173.1,186.5 L180.6,191.9 C181.9,192.8 182.2,193 181.7,194.2 L181.9,194.3 L184.4,190.9 L184.2,190.8 C183.4,191.4 183,191.7 182,190.9"></path>
                <path d="M188.1,97 C187,97.1 186.5,97 186.3,96 L186.1,96 L186.4,99.4 L186.6,99.4 C186.7,98.5 187,98.2 188.3,98.1 L198.2,97.2 L187,108.9 L187,109.1 L198.9,108 C200.2,107.9 200.6,108.1 200.8,109 L201,109 L200.7,105.6 L200.5,105.6 C200.4,106.8 199.8,106.9 198.7,107 L190.3,107.8 L199.9,97.6 L199.6,94.8 L199.4,94.8 C199.3,95.9 198.9,96 197.9,96.1 L188.1,97 L188.1,97 Z"></path>
                <path d="M95.6,18.4 L96.9,19 C97.9,19.5 99.1,20.1 99.2,21.7 C99.3,23.3 98.2,24.6 96.3,24.8 C94.1,25 93.5,23.5 93.2,23 L93,23 L93.2,25.3 C94.1,25.6 94.9,25.9 96.4,25.8 C97.3,25.7 98.6,25.6 99.6,24.5 C100.3,23.8 100.9,22.7 100.8,21.3 C100.6,19.1 99,18.3 97.7,17.6 L96.5,17 C95.4,16.5 94.4,15.9 94.3,14.6 C94.2,13.1 95.3,12.2 96.7,12.1 C97.5,12 98.1,12.2 98.5,12.5 C99,12.8 99.3,13.3 99.6,13.9 L99.8,13.9 L99.6,11.6 C98.8,11.3 97.8,11.1 96.4,11.2 C93.6,11.4 92.5,13.3 92.7,15.1 C92.9,17 94.3,17.8 95.6,18.4"></path>
                <path d="M46.4,44.8 C46,45.2 46,45.8 46.4,46.2 C46.8,46.6 47.4,46.6 47.8,46.2 C48.2,45.8 48.2,45.2 47.8,44.8 C47.4,44.5 46.7,44.5 46.4,44.8"></path>
                <path d="M31.6,211.1 C31.4,210.9 31.2,210.8 31,210.6 C31.2,210.7 31.4,210.9 31.6,211.1"></path>
                <path d="M104.4,12.1 L107.2,12.1 L107,23.1 C107,24.4 106.4,24.6 105.8,24.7 L105.8,25 L110,25.1 L110,24.8 C109.4,24.6 108.8,24.4 108.8,23.3 L109,12.2 L112,12.3 C112.9,12.3 113.4,12.4 113.5,13.4 L113.7,13.4 L113.7,11.3 L102.3,11.1 L102.3,13.3 L102.5,13.3 C102.8,12.3 103.2,12.1 104.4,12.1"></path>
                <path d="M47.3,30.7 L52.8,38.9 C53.5,39.9 53.9,40.4 53,41.3 L53.1,41.5 L56.6,39.1 L56.5,38.9 C55.3,39.3 55,38.9 54.2,37.8 L51.6,34 L58.9,35.4 C60.9,35.8 61.5,35.8 62.9,34.9 L63.5,34.5 L63.4,34.3 C62.6,34.5 62.3,34.4 60.3,34 L52.8,32.5 L54.2,26.3 C54.4,25 54.6,24.3 55.1,23.8 L55,23.6 L51.9,25.7 L52,25.9 C52.2,25.8 52.7,25.6 52.9,26 C53.1,26.3 53,26.7 52.8,27.5 L51.4,33.8 L49,30.1 C48.3,29.2 48,28.7 48.9,27.9 L48.8,27.7 L45.4,30 L45.6,30.2 C46.1,29.9 46.7,29.8 47.3,30.7"></path>
                <path d="M76.7,16.5 L78.7,26.3 C78.9,27.4 78.9,27.9 77.9,28.3 L78,28.5 L81.3,27.8 L81.2,27.6 C80.3,27.6 80,27.3 79.7,26.1 L77.7,16.4 L90.6,26 L90.8,26 L88.4,14.3 C88.1,13 88.3,12.6 89.2,12.3 L89.1,12.1 L85.8,12.8 L85.9,13 C87.1,13 87.2,13.6 87.5,14.6 L89.2,22.8 L78,14.3 L75.3,14.9 L75.4,15.1 C76.4,15.1 76.5,15.5 76.7,16.5"></path>
                <path d="M70.1,32.1 C72.1,31.2 73.5,30 74.3,27.9 C75.1,25.6 74.6,23.7 74.1,22.6 C72.5,18.8 68.5,16.8 64.6,18.5 C60.9,20 58.8,24.1 60.6,28.3 C62,31.7 65.7,33.9 70.1,32.1 M64.8,19.5 C68.3,18 71.2,20.4 72.4,23.2 C74,27 72.5,29.9 69.9,31.1 C66.6,32.5 63.4,30.4 62.1,27.3 C60.6,23.8 62,20.7 64.8,19.5"></path>
                <path d="M118.7,25.5 C117.6,25 117.7,24.6 117.9,23.2 L118.5,18.8 L126.1,19.9 L125.4,24.5 C125.2,25.8 125.1,26.3 124,26.3 L124,26.5 L128,27.1 L128,26.9 C126.9,26.4 126.9,26 127.1,24.6 L128.5,15.6 C128.7,14.3 128.8,13.8 130,13.7 L130,13.5 L126,12.9 L126,13.1 C127.1,13.4 127,13.9 126.8,15.3 L126.2,19 L118.6,17.9 L119.2,14 C119.4,12.8 119.5,12.3 120.6,12.3 L120.6,12.1 L116.6,11.5 L116.5,11.7 C117.6,12.1 117.5,12.7 117.4,13.6 L116,22.9 C115.8,24.4 115.7,24.8 114.5,24.9 L114.5,25.1 L118.5,25.7 L118.7,25.5 L118.7,25.5 Z"></path>
                <path d="M0.9,118.8 C0.9,162.6 12.3,192 30.9,210.4 C12.3,191.9 0.9,162.6 0.9,118.8 L0.9,118.8 L0.9,118.8 Z"></path>
                <path d="M104.3,1.5 C113.4,1.5 122.3,2.3 130.8,3.8 C122.3,2.3 113.4,1.5 104.3,1.5 C43.5,1.5 1.6,38.2 0.9,116.8 C1.6,38.2 43.5,1.5 104.3,1.5"></path>
                <path d="M136.1,30 C138.1,30.7 140.1,30.7 142,29.7 C144.1,28.5 145,26.8 145.4,25.6 C146.7,21.7 145.1,17.6 140.9,16.2 C137.1,14.9 132.9,16.6 131.4,20.9 C130.2,24.4 131.6,28.5 136.1,30 M133.2,21.2 C134.4,17.5 137.5,16.1 140.4,17.1 C144,18.3 144.6,22 143.6,25 C142.3,28.9 139.2,30.1 136.5,29.2 C133.1,28 132.1,24.4 133.2,21.2"></path>
                <path d="M165,37.8 C165.3,38.8 165.7,40.1 164.5,41.3 C163.4,42.5 161.6,42.5 160.3,41.2 C158.7,39.7 159.3,38.3 159.6,37.7 L159.4,37.5 L157.8,39.2 C158.2,40.1 158.5,40.9 159.6,41.9 C160.3,42.5 161.2,43.4 162.7,43.4 C163.7,43.5 164.9,43.2 165.9,42.1 C167.4,40.5 166.9,38.8 166.5,37.3 L166.1,36.1 C165.7,34.9 165.5,33.8 166.4,32.9 C167.5,31.8 168.9,32.1 169.9,33 C170.5,33.5 170.7,34.1 170.8,34.6 C170.9,35.2 170.7,35.7 170.5,36.3 L170.7,36.4 L172.3,34.7 C171.9,33.9 171.5,33 170.5,32.1 C168.5,30.2 166.4,30.6 165.1,31.9 C163.7,33.4 164.1,34.9 164.5,36.3 L165,37.8 L165,37.8 Z"></path>
                <path d="M139.5,13.9 C140.1,14.1 140.7,13.8 140.9,13.2 C141.1,12.6 140.8,12 140.2,11.8 C139.6,11.6 139,11.9 138.8,12.5 C138.6,13.1 139,13.7 139.5,13.9"></path>
                <path d="M150.5,35.4 C152.4,36.7 154.4,37.2 155.5,37.5 L156.8,35.7 C157.4,34.8 157.8,34.4 158.8,34.9 L158.9,34.7 L155.6,32.4 L155.5,32.6 C156.2,33.4 156.2,33.8 155.6,34.7 L154.7,36 C153.6,36 152.6,35.6 151.7,34.9 C149.7,33.5 149.3,31.8 149.2,30.7 C149,28.9 149.6,27.5 150.5,26.2 C151.1,25.4 152.4,23.6 155,23.4 C157,23.2 158.6,24.2 159.4,24.7 C159.8,25 160.1,25.2 160.5,25.6 C161.9,27 161.7,28 161.6,28.8 L161.8,28.9 L163.2,27.1 C162.5,26.2 161.7,25.1 160.1,24 C156.1,21.2 151.6,21.7 148.9,25.5 C146.5,29 147.9,32.1 148.8,33.4 C149.1,34.3 149.9,35 150.5,35.4"></path>
                <path d="M143.2,15.2 C143.8,15.4 144.4,15.1 144.6,14.5 C144.8,13.9 144.5,13.3 143.9,13.1 C143.3,12.9 142.7,13.2 142.5,13.8 C142.3,14.4 142.6,15 143.2,15.2"></path>
                <path d="M22,149.3 C23,149.1 23.9,148.4 24.3,147.7 C24.9,146.6 24.6,145.2 24.4,144.1 L23.5,139.3 L23.3,139.3 C23.3,140.5 22.8,140.6 21.6,140.8 L12.3,142.5 C11,142.7 10.6,142.8 10.1,141.7 L9.9,141.8 L10.7,145.9 L10.9,145.9 C11,144.7 11.3,144.5 12.7,144.2 L17,143.4 L17.3,144.8 C17.4,145.4 17.5,145.7 17.6,146 L13.4,149.4 C12.2,150.4 11.6,150.9 11.9,152.5 L12,153.3 L12.2,153.3 C12.4,152.6 12.4,152.4 13.9,151.3 L18.3,147.7 C18.8,148.1 19.9,149.7 22,149.3 L22,149.3 Z M17.9,143.3 L23,142.3 L23.3,144.2 C23.4,144.8 23.6,145.6 23,146.5 C22.8,146.9 22.2,147.4 21.3,147.6 C20.4,147.8 19.7,147.5 19.3,147.2 C18.4,146.5 18.2,145.3 18.1,144.7 L17.9,143.3 L17.9,143.3 Z"></path>
                <path d="M31,48.1 L37.7,53.4 C39.1,54.5 39.5,54.8 39,56 L39.2,56.2 L45.3,48.4 L43.6,47 L43.5,47.2 C44.2,48.1 44,48.6 43.2,49.6 L41.5,51.7 C41,52.3 40.7,52.7 40.1,52.7 C39.7,52.7 39.3,52.3 38.8,51.9 L32.1,46.6 C30.9,45.7 30.6,45.4 31.1,44.3 L30.9,44.2 L28.3,47.5 L28.5,47.6 C29.4,46.9 29.8,47.1 31,48.1"></path>
                <path d="M23.3,168.1 C27.2,166.9 29.6,163.2 28.4,159 C27.3,155.2 23.4,152.7 19.1,154 C15.5,155.1 12.9,158.5 14.3,163.1 C14.9,165.2 16,166.7 18,167.7 C20.1,168.8 22,168.5 23.3,168.1 M15.2,163 C14.2,159.6 16.6,156.6 19.8,155.7 C23.5,154.6 26.4,156.3 27.3,159.2 C28.4,162.8 25.7,165.5 22.8,166.4 C18.9,167.5 16.1,165.8 15.2,163"></path>
                <path d="M73.7,210.7 L73.8,210.5 L70.7,209 L70.6,209.2 C71.6,209.9 71.4,210.4 70.9,211.4 L67.4,219.1 L63.4,205.6 L60.9,204.4 L60.8,204.6 C61.7,205.2 61.6,205.6 61.1,206.5 L56.9,215.5 C56.4,216.5 56.1,216.9 55.1,216.6 L55,217 L58.1,218.4 L58.2,218.2 C57.4,217.6 57.4,217.2 57.9,216.1 L62.1,207.1 L66.7,222.6 L66.9,222.7 L72,211.8 C72.4,210.7 72.7,210.5 73.7,210.7"></path>
                <path d="M204.9,162.2 C203.6,167.4 202.1,172.3 200.3,176.9 C202.1,172.3 203.6,167.5 204.9,162.2"></path>
                <path d="M38.8,183 L38.7,182.9 L25.6,184.8 C24.5,185 23.9,185 23.3,184.4 L23.1,184.5 L25,187.4 L25.2,187.3 C25,186.8 25.1,186.3 25.5,186.1 C25.8,185.9 26.4,185.8 26.8,185.8 L29.7,185.3 L32.4,189.5 L30.6,192.1 C30.4,192.4 30.1,192.8 29.9,193 C29.4,193.3 28.9,193 28.6,192.6 L28.4,192.7 L30.6,196.2 L30.8,196.1 C30.6,195.1 30.9,194.7 31.7,193.5 L38.8,183 L38.8,183 Z M30.7,185.1 L35.9,184.3 L33,188.6 L30.7,185.1 L30.7,185.1 Z"></path>
                <path d="M57.3,204.6 C58.1,203.4 58.4,203 59.4,203.5 L59.5,203.3 L56.2,201 L56.1,201.2 C57,202 56.6,202.6 55.9,203.7 L50.8,211.1 C49.9,212.3 49.7,212.6 48.5,212.2 L48.4,212.4 L51.8,214.7 L51.9,214.5 C51.2,213.6 51.3,213.2 52.1,212 L57.3,204.6 L57.3,204.6 Z"></path>
                <path d="M42.8,189.6 C43.4,190.7 43.2,191 42,192 L35.8,197.8 C34.5,199.1 34.1,199.4 33,198.7 L32.8,198.9 L39.5,206.1 L41.1,204.6 L40.9,204.4 C39.9,205 39.4,204.6 38.6,203.7 L36.8,201.7 C36.3,201.2 35.9,200.8 36,200.2 C36.1,199.8 36.5,199.5 36.9,199 L43.1,193.2 C44.2,192.2 44.5,191.9 45.5,192.6 L45.7,192.4 L42.8,189.3 L42.8,189.6 L42.8,189.6 Z"></path>
                <path d="M33.4,177.1 C34.3,177.2 34.6,177.2 35.1,177.9 L35.3,177.8 L33.9,174.7 L33.7,174.8 C33.9,175.4 33.8,175.7 33.4,175.9 C33.1,176 32.8,176 32.2,175.9 L26.9,175.2 L29.9,170.7 C30.2,170.2 30.5,169.9 30.8,169.7 C31.4,169.5 31.7,170 31.8,170.2 L32,170.1 L30.3,166.3 L30.1,166.4 C30.2,167 30.1,167.3 29.4,168.3 L25.5,174.4 L21.7,176.1 C20.8,176.5 20.1,176.7 19.6,175.7 L19.4,175.8 L21.1,179.6 L21.3,179.5 C21.1,178.6 21.3,178.2 22.5,177.6 L26,176 L33.4,177.1 L33.4,177.1 Z"></path>
                <path d="M16.1,78.3 L25.6,81.5 C26.7,81.9 27.1,82.1 26.9,83.2 L27.1,83.3 L28.2,80.1 L28,80 C27.5,80.8 27.1,80.9 26,80.5 L16.6,77.3 L31.5,71.1 L31.6,70.9 L20.2,67 C19,66.6 18.7,66.2 18.8,65.3 L18.6,65.2 L17.5,68.4 L17.7,68.5 C18.3,67.5 18.8,67.6 19.9,68 L27.9,70.7 L14.9,76.1 L14,78.8 L14.2,78.9 C14.7,77.8 15.2,77.9 16.1,78.3"></path>
                <path d="M26.4,65.6 C30.2,67.6 33.1,65.8 34.2,64.8 C35.1,64 35.6,63.1 35.9,62.5 C37,60.4 37.2,58.4 37.4,57.2 L35.5,56.2 C34.5,55.7 34.1,55.4 34.5,54.4 L34.3,54.3 L32.4,57.9 L32.6,58 C33.3,57.2 33.7,57.2 34.7,57.7 L36.1,58.4 C36.3,59.5 35.9,60.6 35.4,61.5 C34.2,63.7 32.6,64.3 31.6,64.5 C29.8,64.9 28.4,64.5 27,63.7 C26.1,63.2 24.2,62.1 23.7,59.6 C23.3,57.6 24,56 24.5,55.1 C24.7,54.7 25,54.3 25.2,53.9 C26.4,52.4 27.4,52.4 28.2,52.5 L28.3,52.3 L26.3,51.2 C25.5,52 24.5,53 23.6,54.7 C21.2,59 22.3,63.4 26.4,65.6"></path>
                <path d="M13.1,124.2 C13.1,125.6 14.3,126.8 15.7,126.8 C17.1,126.8 18.3,125.6 18.3,124.2 C18.3,122.8 17.1,121.6 15.7,121.6 C14.3,121.6 13.1,122.7 13.1,124.2"></path>
                <path d="M104.5,236.5 C120.3,236.5 135.2,234.2 148.7,229.2 C135.2,234.2 120.2,236.5 104.5,236.5 L104.5,236.5 L104.5,236.5 Z"></path>
                <path d="M20.7,108.8 C21.9,108.9 22.6,108.9 22.7,110.2 L22.9,110.2 L23.3,106 L23.1,106 C22.7,107.2 22.1,107.2 20.8,107 L16.2,106.5 L22,101.8 C23.6,100.6 24,100.1 24.2,98.4 L24.3,97.7 L24.1,97.7 C23.7,98.4 23.5,98.6 21.9,99.9 L15.9,104.7 L12,99.6 C11.2,98.6 10.8,98 10.6,97.3 L10.4,97.3 L10,101 L10.2,101 C10.3,100.8 10.4,100.3 10.9,100.4 C11.3,100.4 11.5,100.8 12,101.4 L15.9,106.5 L11.5,106 C10.4,105.9 9.8,105.8 9.8,104.7 L9.6,104.7 L9.2,108.8 L9.4,108.8 C9.6,108.1 9.8,107.6 10.9,107.7 L20.7,108.8 L20.7,108.8 Z"></path>
                <path d="M13,94 L19.5,95.3 C22.9,96 25.2,94.4 25.9,90.8 C26.1,90 26.4,88.1 25.4,86.6 C24.4,85 22.7,84.7 21.3,84.4 L15.1,83.1 C14,82.9 13.5,82.8 13.5,81.6 L13.3,81.6 L12.6,84.9 L12.8,84.9 C13.2,83.8 13.8,83.9 14.9,84.1 L21.2,85.3 C22.1,85.5 23.6,85.8 24.4,86.9 C25,87.6 25.3,88.8 25,90.3 C24.5,92.9 22.7,94.1 19.9,93.6 L13.4,92.3 C12.4,92.1 11.8,92 11.7,90.8 L11.4,90.8 L10.6,94.8 L10.8,94.8 C11.4,93.7 11.7,93.8 13,94"></path>
                <path d="M104.3,0.8 C73.5,0.8 47.5,10.2 29.1,29.7 C10.7,49.2 0.2,78.7 0.2,118.8 C0.2,162.9 11.7,192.5 30.6,211.1 C49.4,229.7 75.6,237.2 104.5,237.2 L104.5,237.2 C133.5,237.2 160,229.7 179.2,211.1 C198.5,192.5 210.4,162.9 210.4,118.8 C210.4,74.7 198.4,45.2 179.1,26.7 C159.8,8.2 133.3,0.8 104.3,0.8 L104.3,0.8 Z M209.7,118.8 C209.7,135.3 208,149.7 204.9,162.3 L204.9,162.3 C203.6,167.5 202.1,172.4 200.3,177 C189.9,204.3 171.5,220.8 148.7,229.2 C135.2,234.2 120.2,236.5 104.5,236.5 L104.5,236.5 L104.5,236.5 C75.9,236.5 50.3,229.1 31.6,211.1 C31.4,210.9 31.2,210.8 31,210.6 C30.9,210.5 30.9,210.5 30.8,210.4 C12.2,191.9 0.8,162.6 0.8,118.8 L0.8,118.8 L0.8,118.8 L0.8,116.9 C1.6,38.2 43.5,1.5 104.3,1.5 C113.4,1.5 122.3,2.3 130.8,3.8 C175.9,12.3 209.6,44.8 209.7,118.8 L209.7,118.8 L209.7,118.8 L209.7,118.8 Z"></path>
                <path d="M178.5,53.6 C175.2,55.3 173.3,59.2 175.5,63.4 C176.5,65.3 177.9,66.6 180,67.3 C182.3,67.9 184.2,67.3 185.3,66.7 C188.9,64.8 190.6,60.7 188.6,56.8 C186.7,53.2 182.4,51.5 178.5,53.6 M187.5,57 C189.3,60.4 187.2,63.5 184.4,65 C180.8,66.9 177.7,65.7 176.4,63.1 C174.7,59.9 176.6,56.6 179.5,55 C182.9,53.2 186.1,54.3 187.5,57"></path>
                <path d="M104.3,4.3 C74.4,4.3 49.2,13.4 31.3,32.3 C13.5,51.2 3.2,79.8 3.2,118.7 C3.2,161.5 14.4,190.2 32.7,208.3 C51,226.3 76.3,233.7 104.4,233.7 L104.4,233.7 C132.5,233.7 158.2,226.4 176.9,208.3 C195.6,190.3 207.2,161.5 207.2,118.7 C207.2,75.9 195.6,47.3 176.9,29.4 C158.2,11.5 132.4,4.3 104.3,4.3 M104.5,233.1 C48.5,233 3.9,204.1 3.9,118.8 C3.9,41.2 44.8,5 104.3,5 C160.4,5 206.6,33.5 206.7,118.8 C206.6,204.1 160.5,233 104.5,233.1"></path>
                <path d="M209.7,118.8 L209.7,118.8 C209.7,135.3 208,149.7 204.9,162.3 C208,149.6 209.7,135.2 209.7,118.8"></path>
                <path d="M183.3,81.3 L183.1,81.4 L183.8,84.7 L184,84.7 C184,84.1 184.2,83.8 184.7,83.7 C185,83.6 185.6,83.8 186,83.9 L188.9,84.5 L189.9,89.4 L187.3,91.2 C187.1,91.4 186.6,91.7 186.4,91.8 C185.8,91.9 185.5,91.4 185.3,91 L185.1,91.1 L186,95.2 L186.2,95.2 C186.4,94.2 186.8,93.9 188,93.1 L198.4,85.9 L198.4,85.7 L185.5,82.9 C184.2,82.3 183.6,82.1 183.3,81.3 L183.3,81.3 Z M195,85.7 L190.7,88.6 L189.9,84.6 L195,85.7 L195,85.7 Z"></path>
                <path d="M179.8,70.8 L179.6,70.9 L182.8,80.3 L184.9,79.6 L184.8,79.4 C183.6,79.5 183.4,79 183,77.8 L182.1,75.2 C181.9,74.5 181.7,74 182,73.5 C182.2,73.2 182.7,73 183.3,72.8 L191.3,70.1 C192.7,69.6 193.1,69.5 193.8,70.5 L194,70.4 L192.6,66.4 L192.4,66.5 C192.5,67.7 192.2,67.9 190.7,68.4 L182.7,71.1 C180.9,71.8 180.4,71.9 179.8,70.8"></path>
                <path d="M178,41.9 L178.2,41.8 L175.6,38.6 L175.4,38.7 C175.7,39.3 175.9,39.9 175.1,40.5 L167.4,46.6 C166.4,47.3 166,47.8 165,47 L164.8,47.2 L167.4,50.5 L167.6,50.3 C167.1,49.2 167.5,48.8 168.6,48 L172.2,45.1 L171.4,52.5 C171.2,54.5 171.2,55.1 172.2,56.5 L172.7,57 L172.9,56.9 C172.7,56.1 172.7,55.8 173,53.8 L173.9,46.2 L180,47 C181.3,47.1 182,47.2 182.6,47.7 L182.8,47.6 L180.5,44.7 L180.3,44.8 C180.4,45 180.7,45.4 180.3,45.7 C180,45.9 179.6,45.8 178.8,45.7 L172.4,44.8 L175.9,42 C176.7,41.5 177.2,41.1 178,41.9"></path>
                <path d="M157.7,212.3 C157.9,213.5 157.8,213.6 156.4,214.4 L154.8,215.3 C153.7,215.9 153.2,216.1 152.8,216.1 C152.3,216 152,215.4 151.6,214.7 L149.7,211.2 L152.5,209.7 C153.2,209.3 153.7,209.1 154.5,209.9 L154.7,209.8 L153.1,206.9 L153,207 C153.4,208 153,208.4 152.2,208.8 L149.4,210.4 L147,206 L150.1,204.3 C151.1,203.8 151.5,203.8 152.1,204.5 L152.3,204.4 L151.3,202.5 L143.9,206.5 L144,206.7 C144.3,206.6 144.8,206.4 145.2,206.7 C145.4,206.9 145.5,207.1 146,207.9 L150.8,216.7 C151,217.2 151.3,217.7 150.4,218.4 L150.5,218.6 L158.9,214.1 L157.9,212.2 L157.7,212.3 L157.7,212.3 Z"></path>
                <path d="M84.1,215.2 L84.3,215.2 C84.6,214.3 85,214.1 86.2,214.2 L89,214.5 L87.6,225.4 C87.4,226.7 86.9,226.8 86.2,226.9 L86.2,227.1 L90.4,227.6 L90.4,227.3 C89.8,227.1 89.2,226.8 89.3,225.6 L90.7,214.6 L93.7,215 C94.5,215.1 95.1,215.2 95.1,216.3 L95.3,216.3 L95.6,214.2 L84.3,212.8 L84.1,215.2 L84.1,215.2 Z"></path>
                <path d="M74.6,213.8 C74.1,215.7 75.1,216.9 76.1,217.9 L77.1,218.9 C77.8,219.6 78.8,220.6 78.4,222.2 C78,223.8 76.5,224.7 74.7,224.2 C72.6,223.6 72.5,222.1 72.4,221.5 L72.2,221.5 L71.6,223.7 C72.3,224.3 73,224.8 74.5,225.2 C75.3,225.4 76.7,225.7 78,225 C78.9,224.6 79.8,223.7 80.2,222.4 C80.7,220.3 79.5,219 78.5,217.9 L77.6,217 C76.7,216.2 76,215.3 76.3,214.1 C76.7,212.6 78.1,212.2 79.4,212.5 C80.2,212.7 80.7,213.1 81,213.4 C81.4,213.9 81.5,214.5 81.6,215.1 L81.8,215.1 L82.4,212.9 C81.7,212.4 80.9,211.8 79.5,211.4 C76.7,210.7 75,212.1 74.6,213.8"></path>
                <path d="M97.9,214.7 C99.2,214.9 99.2,215.6 99.1,216.9 L98.9,225.9 C98.9,227.4 98.8,227.8 97.6,228.1 L97.6,228.3 L101.8,228.4 L101.8,228.2 C100.7,227.8 100.6,227.5 100.6,226 L100.8,217 C100.8,215.6 100.8,215.1 102,214.9 L102,214.7 L97.9,214.6 L97.9,214.7 L97.9,214.7 Z"></path>
                <path d="M142.1,220.2 L138.4,209.8 L141.2,208.8 C142,208.5 142.6,208.4 143,209.3 L143.2,209.2 L142.5,207.2 L131.7,211 L132.4,213 L132.6,212.9 C132.4,212 132.7,211.6 133.9,211.2 L136.5,210.3 L140.2,220.7 C140.6,221.9 140.2,222.3 139.6,222.7 L139.7,222.9 L143.7,221.5 L143.6,221.3 C143.1,221.2 142.4,221.3 142.1,220.2"></path>
                <path d="M196.9,124.2 C196.9,122.8 195.7,121.6 194.3,121.6 C192.9,121.6 191.7,122.8 191.7,124.2 C191.7,125.6 192.9,126.8 194.3,126.8 C195.7,126.8 196.9,125.6 196.9,124.2"></path>
                <path d="M129.8,213.6 C129.6,212.5 129.5,212.1 130.6,211.6 L130.6,211.4 L127.3,212 L127.3,212.2 C128.4,212.2 128.6,212.7 128.8,213.8 L130,220.1 C130.2,221 130.4,222.5 129.8,223.7 C129.4,224.5 128.4,225.3 126.9,225.5 C124.3,226 122.5,224.8 121.9,222 L120.7,215.4 C120.5,214.4 120.4,213.8 121.5,213.3 L121.4,213.1 L117.4,213.9 L117.5,214.2 C118.7,214.3 118.7,214.6 119,215.9 L120.2,222.4 C120.8,225.9 123.2,227.4 126.8,226.7 C127.6,226.6 129.4,226.2 130.5,224.6 C131.6,223.1 131.2,221.4 131,220 L129.8,213.6 L129.8,213.6 Z"></path>
                <path d="M104.5,214.7 L104.6,216.8 L104.8,216.8 C104.9,215.9 105.3,215.6 106.5,215.5 L109.3,215.3 L110,226.3 C110.1,227.6 109.5,227.8 108.9,228 L108.9,228.2 L113.1,227.9 L113.1,227.7 C112.5,227.6 111.8,227.4 111.8,226.2 L111.1,215.1 L114.1,214.9 C115,214.9 115.5,214.9 115.7,215.9 L115.9,215.9 L115.8,213.8 L104.5,214.7 L104.5,214.7 Z"></path>
                <path d="M105.3,33.6 C64.4,33.6 31.3,56.8 31.3,119 C31.3,181.2 63,204.4 103.9,204.4 C144.8,204.4 179.4,181.2 179.4,119 C179.3,56.8 146.2,33.6 105.3,33.6 L105.3,33.6 Z M130.8,61.4 C130.8,62 130.3,62.4 129.8,62.4 C129.3,62.4 128.8,61.9 128.8,61.4 C128.8,60.8 129.3,60.4 129.8,60.4 C130.3,60.4 130.8,60.8 130.8,61.4 L130.8,61.4 Z M129.6,58 C129.6,58.6 129.1,59 128.6,59 C128,59 127.6,58.5 127.6,58 C127.6,57.5 128,57 128.6,57 C129.2,57 129.6,57.5 129.6,58 L129.6,58 Z M127,53.9 C127.6,53.9 128,54.4 128,54.9 C128,55.4 127.6,55.9 127,55.9 C126.4,55.9 126,55.4 126,54.9 C126,54.4 126.4,53.9 127,53.9 L127,53.9 Z M116.3,60.1 C116.9,60.1 117.3,60.6 117.3,61.1 C117.3,61.7 116.9,62.1 116.3,62.1 C115.8,62.1 115.3,61.7 115.3,61.1 C115.3,60.6 115.8,60.1 116.3,60.1 L116.3,60.1 Z M114.9,57.9 C114.9,57.3 115.4,56.9 115.9,56.9 C116.5,56.9 116.9,57.3 116.9,57.9 C116.9,58.5 116.5,58.9 115.9,58.9 C115.3,58.9 114.9,58.5 114.9,57.9 L114.9,57.9 Z M116.5,52.9 L116.5,51.9 C121.8,51.9 126.8,57.5 127,62.3 L126,62.3 C126,58.2 121.2,52.8 116.5,52.9 L116.5,52.9 Z M124.3,51.5 C124.9,51.5 125.3,51.9 125.3,52.5 C125.3,53.1 124.9,53.5 124.3,53.5 C123.7,53.5 123.3,53 123.3,52.5 C123.3,52 123.7,51.5 124.3,51.5 L124.3,51.5 Z M120.9,49.8 C121.5,49.8 121.9,50.2 121.9,50.8 C121.9,51.4 121.5,51.8 120.9,51.8 C120.4,51.8 119.9,51.3 119.9,50.8 C119.9,50.3 120.4,49.8 120.9,49.8 L120.9,49.8 Z M117,48.8 C117.6,48.8 118,49.3 118,49.8 C118,50.4 117.5,50.8 117,50.8 C116.4,50.8 116,50.3 116,49.8 C116,49.2 116.5,48.8 117,48.8 L117,48.8 Z M115,53.9 C115.6,53.9 116,54.4 116,54.9 C116,55.5 115.5,55.9 115,55.9 C114.4,55.9 114,55.4 114,54.9 C114,54.4 114.5,53.9 115,53.9 L115,53.9 Z M113.2,50.9 C113.8,50.9 114.2,51.3 114.2,51.9 C114.2,52.4 113.7,52.9 113.2,52.9 C112.6,52.9 112.2,52.4 112.2,51.9 C112.2,51.3 112.6,50.9 113.2,50.9 L113.2,50.9 Z M110.5,48.7 C111.1,48.7 111.5,49.2 111.5,49.7 C111.5,50.3 111,50.7 110.5,50.7 C109.9,50.7 109.5,50.2 109.5,49.7 C109.5,49.1 110,48.7 110.5,48.7 L110.5,48.7 Z M108.8,51.6 C113.3,53.4 113.7,59.9 113.8,62.2 L112.8,62.2 C112.8,60 112.1,53.9 108.4,52.5 L108.8,51.6 L108.8,51.6 Z M108.6,58.6 C108.6,60.1 108.4,61.3 108.2,61.9 L107.3,61.6 C107.4,61.2 107.6,60 107.6,58.6 C107.6,57.3 107.5,55.8 107,54.8 L107.9,54.4 C108.4,55.6 108.6,57.2 108.6,58.6 L108.6,58.6 Z M102.6,45.2 L102.6,43.7 L104.4,43.7 L104.4,41.9 L106,41.9 L106,43.7 L107.9,43.7 L107.9,45.2 L106,45.2 L106,46.9 C107.1,47.2 108,48.3 108,49.6 C108,51.1 106.8,52.4 105.2,52.4 C103.7,52.4 102.4,51.2 102.4,49.6 C102.4,48.3 103.2,47.3 104.4,46.9 L104.4,45.2 L102.6,45.2 L102.6,45.2 Z M105.1,59.2 C104.5,59.2 104.1,58.7 104.1,58.2 C104.1,57.6 104.6,57.2 105.1,57.2 C105.7,57.2 106.1,57.7 106.1,58.2 C106.1,58.8 105.7,59.2 105.1,59.2 L105.1,59.2 Z M106.1,61.3 C106.1,61.9 105.6,62.3 105.1,62.3 C104.5,62.3 104.1,61.9 104.1,61.3 C104.1,60.8 104.6,60.3 105.1,60.3 C105.7,60.3 106.1,60.8 106.1,61.3 L106.1,61.3 Z M105.2,56.1 C104.6,56.1 104.2,55.7 104.2,55.1 C104.2,54.5 104.6,54.1 105.2,54.1 C105.7,54.1 106.2,54.6 106.2,55.1 C106.2,55.7 105.7,56.1 105.2,56.1 L105.2,56.1 Z M103,54.7 C102.6,55.7 102.4,57.2 102.4,58.5 C102.4,59.9 102.6,61.1 102.7,61.5 L101.8,61.8 C101.6,61.2 101.4,60 101.4,58.5 C101.4,57.1 101.6,55.6 102.1,54.3 L103,54.7 L103,54.7 Z M101.6,52.5 C97.9,53.9 97.2,60 97.2,62.2 L96.2,62.2 C96.3,59.9 96.7,53.5 101.2,51.6 L101.6,52.5 L101.6,52.5 Z M99.9,48.8 C100.5,48.8 100.9,49.3 100.9,49.8 C100.9,50.4 100.4,50.8 99.9,50.8 C99.3,50.8 98.9,50.3 98.9,49.8 C98.9,49.2 99.4,48.8 99.9,48.8 L99.9,48.8 Z M97.3,51 C97.9,51 98.3,51.5 98.3,52 C98.3,52.6 97.8,53 97.3,53 C96.7,53 96.3,52.6 96.3,52 C96.2,51.4 96.7,51 97.3,51 L97.3,51 Z M95.4,54 C96,54 96.4,54.5 96.4,55 C96.4,55.5 95.9,56 95.4,56 C94.8,56 94.4,55.5 94.4,55 C94.4,54.5 94.9,54 95.4,54 L95.4,54 Z M94.1,60.2 C94.7,60.2 95.1,60.7 95.1,61.2 C95.1,61.8 94.6,62.2 94.1,62.2 C93.6,62.2 93.1,61.7 93.1,61.2 C93.1,60.7 93.6,60.2 94.1,60.2 L94.1,60.2 Z M84,62.3 L83,62.3 C83.2,57.5 88.2,52 93.5,51.9 L93.5,52.9 C88.9,52.8 84.1,58.2 84,62.3 L84,62.3 Z M94.6,59 C94.1,59 93.6,58.6 93.6,58 C93.6,57.4 94.1,57 94.6,57 C95.2,57 95.6,57.4 95.6,58 C95.6,58.6 95.1,59 94.6,59 L94.6,59 Z M93.6,48.8 C94.2,48.8 94.6,49.3 94.6,49.8 C94.6,50.4 94.2,50.8 93.6,50.8 C93,50.8 92.6,50.3 92.6,49.8 C92.6,49.2 93.1,48.8 93.6,48.8 L93.6,48.8 Z M89.7,49.8 C90.3,49.8 90.7,50.2 90.7,50.8 C90.7,51.4 90.3,51.8 89.7,51.8 C89.1,51.8 88.7,51.3 88.7,50.8 C88.7,50.3 89.2,49.8 89.7,49.8 L89.7,49.8 Z M86.4,51.5 C87,51.5 87.4,51.9 87.4,52.5 C87.4,53.1 87,53.5 86.4,53.5 C85.8,53.5 85.4,53 85.4,52.5 C85.3,52 85.8,51.5 86.4,51.5 L86.4,51.5 Z M83.7,53.9 C84.3,53.9 84.7,54.4 84.7,54.9 C84.7,55.4 84.2,55.9 83.7,55.9 C83.1,55.9 82.7,55.4 82.7,54.9 C82.7,54.4 83.1,53.9 83.7,53.9 L83.7,53.9 Z M82.1,57 C82.6,57 83.1,57.5 83.1,58 C83.1,58.6 82.6,59 82.1,59 C81.5,59 81.1,58.5 81.1,58 C81,57.5 81.5,57 82.1,57 L82.1,57 Z M80.9,60.4 C81.4,60.4 81.9,60.8 81.9,61.4 C81.9,62 81.4,62.4 80.9,62.4 C80.3,62.4 79.9,61.9 79.9,61.4 C79.9,60.8 80.3,60.4 80.9,60.4 L80.9,60.4 Z M83,65.5 C83.1,65.8 83.1,66.1 83.1,66.4 L83.2,66.4 C84.7,66 86,67.2 86.3,68.2 C86.7,69.6 85.6,71.1 84.3,71.5 C84.7,72.4 85.6,73 86.6,73 C87.7,73 88.6,72.3 89,71.4 C89.4,72.4 90.3,73 91.4,73 C92.8,73 93.9,71.8 93.9,70.5 L93.9,70.4 L93.7,70.5 C93.3,70.9 92.9,71.1 92.3,71.1 C91.1,71.1 90,70.1 90,68.8 C90,67.6 91,66.6 92.2,66.5 C92.1,66.3 92.1,66 92.1,65.7 C92.1,64.5 93.1,63.4 94.4,63.4 C95.7,63.4 96.7,64.4 96.7,65.7 C96.7,66 96.6,66.2 96.6,66.5 L96.7,66.5 C98,66.5 99,67.5 99,68.8 C99,70 98,71.1 96.7,71.1 C96.3,71.1 95.9,71 95.6,70.8 C95.4,70.7 95.1,70.4 95.1,70.4 C95.1,71.8 96.2,72.9 97.7,72.9 C98.8,72.9 99.7,72.2 100,71.3 C100.4,72.3 101.3,72.9 102.4,72.9 C103.8,72.9 105,71.7 105,70.3 L105,70.4 C104.6,70.8 104,71 103.4,71 C102.1,71 101.1,70 101.1,68.7 C101.1,67.5 102.1,66.5 103.2,66.4 C103.1,66.2 103.1,65.9 103.1,65.6 C103.1,64.3 104.1,63.3 105.4,63.3 C106.7,63.3 107.7,64.3 107.7,65.6 C107.7,65.9 107.7,66.1 107.6,66.4 L107.7,66.4 C109,66.4 110,67.4 110,68.7 C110,70 109,71 107.7,71 C107.3,71 106.6,70.7 106.6,70.7 C106.3,70.6 106.1,70.4 106,70.2 L106,70.3 C106,71.7 107.2,72.9 108.6,72.9 C109.7,72.9 110.6,72.2 111,71.3 C111.4,72.3 112.3,72.9 113.4,72.9 C114.8,72.9 116,71.6 116,70.2 C115.6,70.6 115,71 114.4,71 C113.1,71 112.1,70 112.1,68.7 C112.1,67.5 113,66.5 114.2,66.4 C114.1,66.2 114.1,65.9 114.1,65.6 C114.1,64.3 115.1,63.3 116.4,63.3 C117.7,63.3 118.7,64.3 118.7,65.6 C118.7,65.9 118.6,66.1 118.6,66.4 L118.7,66.4 C120,66.4 121,67.4 121,68.7 C121,70 120,71 118.7,71 C118.3,71 117.9,70.9 117.6,70.7 L117.6,70.7 C117.4,70.6 117.2,70.4 117,70.2 L117,70.2 C117,71.6 118.1,72.7 119.5,72.7 C120.6,72.7 121.5,72 121.9,71.1 C122.3,72 123.2,72.7 124.3,72.7 C125.3,72.7 126.2,72.1 126.6,71.3 C125.3,70.9 124.3,69.4 124.7,68.1 C125,67.1 126.3,65.9 127.8,66.3 L127.9,66.3 C127.9,66 127.9,65.7 128,65.4 C128.4,64 129.7,63.2 131.8,63.8 L131.9,63.8 C126.9,66.9 127.4,74.7 127.4,74.7 L84.2,74.7 C84.2,74.7 84.7,66.9 79.7,63.8 L79.6,63.8 C81.3,63.3 82.6,64.2 83,65.5 L83,65.5 Z M126.9,80.8 L127.1,82.5 L83.4,82.5 L83.6,80.8 L126.9,80.8 L126.9,80.8 Z M84.8,77.7 C84.8,77.1 85.3,76.7 85.8,76.7 C86.4,76.7 86.8,77.2 86.8,77.7 C86.8,78.3 86.4,78.7 85.8,78.7 C85.3,78.8 84.8,78.3 84.8,77.7 L84.8,77.7 Z M88.4,77.7 C88.4,77.1 88.9,76.7 89.4,76.7 C90,76.7 90.4,77.2 90.4,77.7 C90.4,78.3 89.9,78.7 89.4,78.7 C88.8,78.8 88.4,78.3 88.4,77.7 L88.4,77.7 Z M91.9,77.7 C91.9,77.1 92.4,76.7 92.9,76.7 C93.5,76.7 93.9,77.2 93.9,77.7 C93.9,78.3 93.4,78.7 92.9,78.7 C92.4,78.8 91.9,78.3 91.9,77.7 L91.9,77.7 Z M95.4,77.7 C95.4,77.1 95.9,76.7 96.4,76.7 C96.9,76.7 97.4,77.2 97.4,77.7 C97.4,78.3 96.9,78.7 96.4,78.7 C95.8,78.8 95.4,78.3 95.4,77.7 L95.4,77.7 Z M98.9,77.7 C98.9,77.1 99.4,76.7 99.9,76.7 C100.5,76.7 100.9,77.2 100.9,77.7 C100.9,78.3 100.4,78.7 99.9,78.7 C99.4,78.8 98.9,78.3 98.9,77.7 L98.9,77.7 Z M102.4,77.7 C102.4,77.1 102.9,76.7 103.4,76.7 C104,76.7 104.4,77.2 104.4,77.7 C104.4,78.3 103.9,78.7 103.4,78.7 C102.9,78.8 102.4,78.3 102.4,77.7 L102.4,77.7 Z M106,77.7 C106,77.1 106.4,76.7 107,76.7 C107.6,76.7 108,77.2 108,77.7 C108,78.3 107.5,78.7 107,78.7 C106.4,78.8 106,78.3 106,77.7 L106,77.7 Z M109.5,77.7 C109.5,77.1 110,76.7 110.5,76.7 C111.1,76.7 111.5,77.2 111.5,77.7 C111.5,78.3 111.1,78.7 110.5,78.7 C109.9,78.8 109.5,78.3 109.5,77.7 L109.5,77.7 Z M113,77.7 C113,77.1 113.5,76.7 114,76.7 C114.6,76.7 115,77.2 115,77.7 C115,78.3 114.6,78.7 114,78.7 C113.4,78.8 113,78.3 113,77.7 L113,77.7 Z M116.5,77.7 C116.5,77.1 117,76.7 117.5,76.7 C118.1,76.7 118.5,77.2 118.5,77.7 C118.5,78.3 118,78.7 117.5,78.7 C117,78.8 116.5,78.3 116.5,77.7 L116.5,77.7 Z M120,77.7 C120,77.1 120.5,76.7 121,76.7 C121.5,76.7 122,77.2 122,77.7 C122,78.3 121.5,78.7 121,78.7 C120.5,78.8 120,78.3 120,77.7 L120,77.7 Z M123.5,77.7 C123.5,77.1 124,76.7 124.5,76.7 C125.1,76.7 125.5,77.2 125.5,77.7 C125.5,78.3 125.1,78.7 124.5,78.7 C124,78.8 123.5,78.3 123.5,77.7 L123.5,77.7 Z M87.2,189.9 L82.1,189.9 L82.1,189.3 L82.3,189.2 C83.3,189 83.5,188.8 83.5,187.2 L83.5,177.2 C83.5,176.5 83.5,176 83.4,175.7 C83.3,175.4 83.2,175.4 82.8,175.4 C82.6,175.4 82.4,175.5 82.2,175.6 L82,175.7 L81.9,175.5 L81.6,175.1 L85.1,172.2 L85.7,172.2 L85.7,187.1 C85.7,188.3 85.7,188.9 86.9,189.1 L87,189.1 L87,189.9 L87.2,189.9 Z M103.2,173 L94.4,190 L92.7,190 L100.6,174.7 L94.2,174.7 C92.8,174.7 92.4,174.6 92,176 L91.9,176.2 L91.3,176.2 L91.3,172.5 L103.1,172.5 L103.1,173 L103.2,173 Z M109.2,189.9 L109.2,189.9 C106.7,189.9 105.3,188.7 104.6,188.1 L104.4,188 L104.5,187.9 L104.8,187.4 L105,187.5 C105.6,187.9 106.7,188.5 108.2,188.5 C110.8,188.5 112.7,186.8 112.7,184.4 C112.7,183.1 112.2,182.3 111.4,181.6 C110.3,180.6 109.2,180.6 108,180.6 L107.9,180.6 L107.9,180.5 L107.8,180 L108,179.9 C108.6,179.7 109.2,179.5 109.7,179.3 C110.5,178.8 111.8,177.7 111.8,176 C111.8,174.8 111.1,173.7 109.5,173.7 C107.7,173.7 106.8,174.9 106.3,175.7 L106.2,175.8 L106.1,175.7 L105.7,175.6 L105.5,175.5 L105.6,175.3 C106.1,174.2 106.5,173.3 107.4,172.6 C108.2,172 109.2,171.7 110.1,171.7 C112.4,171.7 114.1,173.3 114.1,175.4 C114.1,175.9 114,176.4 113.9,176.9 C113.5,178.1 112.7,178.8 112,179.3 C112.5,179.5 112.9,179.7 113.3,180 C114.1,180.6 115.4,182 115.4,184.2 C115.3,187.2 112.8,189.9 109.2,189.9 L109.2,189.9 Z M122.7,189.9 C120.5,189.9 119.1,188.9 118.4,188.3 L118.3,188.2 L118.8,187.5 L119,187.6 C120.1,188.2 120.7,188.5 122,188.5 C125,188.5 126.4,186.6 126.4,184.6 C126.4,183.4 126,182.4 125.1,181.6 C123.7,180.2 121.7,179.8 119.4,179.5 L119.2,179.5 L120.6,172.1 L128.5,172.1 L128.5,174.1 L121.7,174.1 L121.1,177.6 C121.9,177.7 122.5,177.9 123.2,178 C124.1,178.2 125.4,178.7 126.5,179.5 C128.1,180.7 128.8,182.5 128.8,184.2 C128.8,187 126.7,189.9 122.7,189.9 L122.7,189.9 Z M155.5,158.1 C147.2,159.9 142.4,155.1 138.3,150.6 C138.1,150.4 137.9,150.1 137.7,149.9 L137.2,149.4 L131.6,143 L118,127.5 L118,156.9 L122.5,156.9 L122.5,158.8 L107.3,158.8 L107.3,156.9 L110,156.9 L110,127.4 L100.5,127.4 L100.5,156.9 L103.3,156.9 L103.3,158.8 L88.1,158.8 L88.1,156.9 L92.6,156.9 L92.6,127.5 L78.9,143 L73.3,149.4 L72.8,149.9 C72.6,150.1 72.4,150.4 72.2,150.6 C68.1,155.1 63.4,159.9 55.1,158.1 C51.6,157.4 48.3,155.3 46.3,152 C44,148.4 43.9,145 43.9,141.9 L45,142 C45.1,145.4 45.4,152.9 52.3,154.4 C57.9,155.6 61.3,151.6 65.3,147 L88.4,120.4 L73.6,99.5 C71.3,96.1 68.8,92.8 64.6,91.9 C59.9,90.9 58.4,93.9 57.8,95.4 C58.9,94.8 60,94.2 61.7,94.5 C64.3,95 65.6,97.3 65.1,99.6 C64.6,101.9 62.3,103.7 59.8,103.1 C57.2,102.5 55.1,99.5 55.8,96 C56.5,92.5 59.9,89.2 65,90.2 C69.5,91.1 72.1,94.6 73.2,96.2 L92.4,123.2 L92.3,94.5 L87.9,94.5 L87.9,92.6 L103.1,92.6 L103.1,94.5 L100.3,94.5 L100.3,122 L109.8,122 L109.8,94.5 L107,94.5 L107,92.6 L122.2,92.6 L122.2,94.5 L117.8,94.5 L117.7,123.2 L136.9,96.2 C138.1,94.5 140.6,91.1 145.1,90.2 C150.2,89.1 153.5,92.4 154.3,96 C155.1,99.5 153,102.5 150.3,103.1 C147.8,103.6 145.5,101.9 145,99.6 C144.5,97.3 145.8,95 148.4,94.5 C150.1,94.2 151.2,94.8 152.3,95.4 C151.6,93.9 150.2,90.9 145.5,91.9 C141.3,92.8 138.9,96.2 136.6,99.5 L121.9,120.4 L145,147 C149,151.6 152.4,155.6 158,154.4 C164.9,152.9 165.3,145.4 165.3,142 L166.5,141.9 C166.4,145 166.4,148.4 164.1,152 C162.2,155.4 159,157.4 155.5,158.1 L155.5,158.1 Z"></path>
                <path d="M192.6,166.5 L179.9,166.7 L179.8,166.9 L188.9,176.4 C189.7,177.2 190.1,177.7 189.9,178.5 L190.1,178.6 L191.4,175.5 L191.2,175.4 C190.9,175.9 190.5,176 190.1,175.9 C189.8,175.8 189.4,175.4 189.1,175.1 L187,173 L188.9,168.4 L192.1,168.4 C192.4,168.4 193,168.4 193.2,168.5 C193.8,168.7 193.8,169.3 193.6,169.8 L193.8,169.9 L195.4,166 L195.2,165.9 C194.6,166.4 194.1,166.5 192.6,166.5 L192.6,166.5 Z M186.4,172.1 L182.8,168.3 L188,168.3 L186.4,172.1 L186.4,172.1 Z"></path>
                <path d="M160,50.1 C146,35.9 126.6,29.8 105.3,29.8 C84,29.8 64.6,35.9 50.6,50.1 C36.6,64.3 28,86.6 28,119 C28,151.4 36.3,173.7 49.9,187.9 C63.5,202.1 82.5,208.2 103.8,208.2 C125.1,208.2 144.9,202.1 159.3,187.9 C173.7,173.7 182.7,151.4 182.7,118.9 C182.6,86.6 174,64.3 160,50.1 M103.7,207.5 C61.3,207.5 28.6,183.6 28.6,119 C28.6,54.4 62.8,30.6 105.2,30.5 C147.6,30.5 181.8,54.4 181.9,119 C181.9,183.5 146.1,207.5 103.7,207.5"></path>
                <path d="M199,142 L188,140.3 L188.4,137.3 C188.5,136.4 188.7,135.9 189.7,135.9 L189.7,135.7 L187.6,135.4 L185.9,146.7 L188,147 L188,146.8 C187.1,146.5 186.9,146.1 187.1,144.9 L187.5,142.1 L198.4,143.7 C199.7,143.9 199.8,144.5 199.8,145.2 L200,145.2 L200.6,141 L200.4,141 C200.4,141.6 200.2,142.2 199,142"></path>
                <path d="M196.8,152 L191.2,153.4 C191.1,152.7 190.7,150.8 188.7,150.3 C187.7,150 186.7,150.3 186,150.8 C185,151.6 184.6,152.9 184.3,154.1 L183.1,158.8 L183.3,158.9 C183.8,157.8 184.3,157.9 185.5,158.2 L194.6,160.5 C195.9,160.8 196.3,161 196.3,162.1 L196.5,162.2 L197.6,158.1 L197.3,158 C196.7,159.1 196.4,159.1 195,158.7 L190.8,157.6 L191.2,156.2 C191.4,155.6 191.4,155.3 191.4,155 L196.6,153.7 C198.2,153.2 198.9,153.1 199.3,151.5 L199.5,150.8 L199.3,150.7 C198.7,151.4 198.6,151.6 196.8,152 M190.2,156.1 L189.8,157.5 L184.7,156.2 L185.2,154.3 C185.4,153.7 185.6,152.9 186.4,152.3 C186.8,152 187.5,151.8 188.5,152 C189.4,152.2 189.9,152.7 190.1,153.2 C190.6,154.3 190.3,155.5 190.2,156.1"></path>
                <path d="M164.5,192.1 C161.6,194.8 161.1,199.4 164.1,202.7 C166.7,205.4 170.9,206.2 174.4,202.9 C176,201.4 176.9,199.7 176.9,197.6 C176.9,195.2 175.8,193.6 174.9,192.7 C172.1,189.6 167.7,189.1 164.5,192.1 M173.9,202 C171.3,204.4 167.5,203.6 165.3,201.2 C162.7,198.4 162.9,195 165.1,192.9 C167.9,190.3 171.4,191.5 173.5,193.8 C176.4,196.8 176,200.1 173.9,202"></path>
                <path d="M182,190.9 L177.9,187.9 L179.8,185.3 C180.3,184.6 180.7,184.2 181.7,184.7 L181.8,184.5 L179.1,182.5 L179,182.7 C179.8,183.5 179.6,183.9 179,184.7 L177.1,187.3 L173.1,184.4 L175.2,181.5 C175.9,180.6 176.3,180.5 177.2,180.8 L177.4,180.6 L175.7,179.3 L170.7,186.2 L170.9,186.3 C171.7,185.5 172.2,185.8 173.1,186.5 L180.6,191.9 C181.9,192.8 182.2,193 181.7,194.2 L181.9,194.3 L184.4,190.9 L184.2,190.8 C183.4,191.4 183,191.7 182,190.9"></path>
                <path d="M188.1,97 C187,97.1 186.5,97 186.3,96 L186.1,96 L186.4,99.4 L186.6,99.4 C186.7,98.5 187,98.2 188.3,98.1 L198.2,97.2 L187,108.9 L187,109.1 L198.9,108 C200.2,107.9 200.6,108.1 200.8,109 L201,109 L200.7,105.6 L200.5,105.6 C200.4,106.8 199.8,106.9 198.7,107 L190.3,107.8 L199.9,97.6 L199.6,94.8 L199.4,94.8 C199.3,95.9 198.9,96 197.9,96.1 L188.1,97 L188.1,97 Z"></path>
                <path d="M95.6,18.4 L96.9,19 C97.9,19.5 99.1,20.1 99.2,21.7 C99.3,23.3 98.2,24.6 96.3,24.8 C94.1,25 93.5,23.5 93.2,23 L93,23 L93.2,25.3 C94.1,25.6 94.9,25.9 96.4,25.8 C97.3,25.7 98.6,25.6 99.6,24.5 C100.3,23.8 100.9,22.7 100.8,21.3 C100.6,19.1 99,18.3 97.7,17.6 L96.5,17 C95.4,16.5 94.4,15.9 94.3,14.6 C94.2,13.1 95.3,12.2 96.7,12.1 C97.5,12 98.1,12.2 98.5,12.5 C99,12.8 99.3,13.3 99.6,13.9 L99.8,13.9 L99.6,11.6 C98.8,11.3 97.8,11.1 96.4,11.2 C93.6,11.4 92.5,13.3 92.7,15.1 C92.9,17 94.3,17.8 95.6,18.4"></path>
                <path d="M46.4,44.8 C46,45.2 46,45.8 46.4,46.2 C46.8,46.6 47.4,46.6 47.8,46.2 C48.2,45.8 48.2,45.2 47.8,44.8 C47.4,44.5 46.7,44.5 46.4,44.8"></path>
                <path d="M31.6,211.1 C31.4,210.9 31.2,210.8 31,210.6 C31.2,210.7 31.4,210.9 31.6,211.1"></path>
                <path d="M104.4,12.1 L107.2,12.1 L107,23.1 C107,24.4 106.4,24.6 105.8,24.7 L105.8,25 L110,25.1 L110,24.8 C109.4,24.6 108.8,24.4 108.8,23.3 L109,12.2 L112,12.3 C112.9,12.3 113.4,12.4 113.5,13.4 L113.7,13.4 L113.7,11.3 L102.3,11.1 L102.3,13.3 L102.5,13.3 C102.8,12.3 103.2,12.1 104.4,12.1"></path>
                <path d="M47.3,30.7 L52.8,38.9 C53.5,39.9 53.9,40.4 53,41.3 L53.1,41.5 L56.6,39.1 L56.5,38.9 C55.3,39.3 55,38.9 54.2,37.8 L51.6,34 L58.9,35.4 C60.9,35.8 61.5,35.8 62.9,34.9 L63.5,34.5 L63.4,34.3 C62.6,34.5 62.3,34.4 60.3,34 L52.8,32.5 L54.2,26.3 C54.4,25 54.6,24.3 55.1,23.8 L55,23.6 L51.9,25.7 L52,25.9 C52.2,25.8 52.7,25.6 52.9,26 C53.1,26.3 53,26.7 52.8,27.5 L51.4,33.8 L49,30.1 C48.3,29.2 48,28.7 48.9,27.9 L48.8,27.7 L45.4,30 L45.6,30.2 C46.1,29.9 46.7,29.8 47.3,30.7"></path>
                <path d="M76.7,16.5 L78.7,26.3 C78.9,27.4 78.9,27.9 77.9,28.3 L78,28.5 L81.3,27.8 L81.2,27.6 C80.3,27.6 80,27.3 79.7,26.1 L77.7,16.4 L90.6,26 L90.8,26 L88.4,14.3 C88.1,13 88.3,12.6 89.2,12.3 L89.1,12.1 L85.8,12.8 L85.9,13 C87.1,13 87.2,13.6 87.5,14.6 L89.2,22.8 L78,14.3 L75.3,14.9 L75.4,15.1 C76.4,15.1 76.5,15.5 76.7,16.5"></path>
                <path d="M70.1,32.1 C72.1,31.2 73.5,30 74.3,27.9 C75.1,25.6 74.6,23.7 74.1,22.6 C72.5,18.8 68.5,16.8 64.6,18.5 C60.9,20 58.8,24.1 60.6,28.3 C62,31.7 65.7,33.9 70.1,32.1 M64.8,19.5 C68.3,18 71.2,20.4 72.4,23.2 C74,27 72.5,29.9 69.9,31.1 C66.6,32.5 63.4,30.4 62.1,27.3 C60.6,23.8 62,20.7 64.8,19.5"></path>
                <path d="M118.7,25.5 C117.6,25 117.7,24.6 117.9,23.2 L118.5,18.8 L126.1,19.9 L125.4,24.5 C125.2,25.8 125.1,26.3 124,26.3 L124,26.5 L128,27.1 L128,26.9 C126.9,26.4 126.9,26 127.1,24.6 L128.5,15.6 C128.7,14.3 128.8,13.8 130,13.7 L130,13.5 L126,12.9 L126,13.1 C127.1,13.4 127,13.9 126.8,15.3 L126.2,19 L118.6,17.9 L119.2,14 C119.4,12.8 119.5,12.3 120.6,12.3 L120.6,12.1 L116.6,11.5 L116.5,11.7 C117.6,12.1 117.5,12.7 117.4,13.6 L116,22.9 C115.8,24.4 115.7,24.8 114.5,24.9 L114.5,25.1 L118.5,25.7 L118.7,25.5 L118.7,25.5 Z"></path>
                <path d="M0.9,118.8 C0.9,162.6 12.3,192 30.9,210.4 C12.3,191.9 0.9,162.6 0.9,118.8 L0.9,118.8 L0.9,118.8 Z"></path>
                <path d="M104.3,1.5 C113.4,1.5 122.3,2.3 130.8,3.8 C122.3,2.3 113.4,1.5 104.3,1.5 C43.5,1.5 1.6,38.2 0.9,116.8 C1.6,38.2 43.5,1.5 104.3,1.5"></path>
                <path d="M136.1,30 C138.1,30.7 140.1,30.7 142,29.7 C144.1,28.5 145,26.8 145.4,25.6 C146.7,21.7 145.1,17.6 140.9,16.2 C137.1,14.9 132.9,16.6 131.4,20.9 C130.2,24.4 131.6,28.5 136.1,30 M133.2,21.2 C134.4,17.5 137.5,16.1 140.4,17.1 C144,18.3 144.6,22 143.6,25 C142.3,28.9 139.2,30.1 136.5,29.2 C133.1,28 132.1,24.4 133.2,21.2"></path>
                <path d="M165,37.8 C165.3,38.8 165.7,40.1 164.5,41.3 C163.4,42.5 161.6,42.5 160.3,41.2 C158.7,39.7 159.3,38.3 159.6,37.7 L159.4,37.5 L157.8,39.2 C158.2,40.1 158.5,40.9 159.6,41.9 C160.3,42.5 161.2,43.4 162.7,43.4 C163.7,43.5 164.9,43.2 165.9,42.1 C167.4,40.5 166.9,38.8 166.5,37.3 L166.1,36.1 C165.7,34.9 165.5,33.8 166.4,32.9 C167.5,31.8 168.9,32.1 169.9,33 C170.5,33.5 170.7,34.1 170.8,34.6 C170.9,35.2 170.7,35.7 170.5,36.3 L170.7,36.4 L172.3,34.7 C171.9,33.9 171.5,33 170.5,32.1 C168.5,30.2 166.4,30.6 165.1,31.9 C163.7,33.4 164.1,34.9 164.5,36.3 L165,37.8 L165,37.8 Z"></path>
                <path d="M150.5,35.4 C152.4,36.7 154.4,37.2 155.5,37.5 L156.8,35.7 C157.4,34.8 157.8,34.4 158.8,34.9 L158.9,34.7 L155.6,32.4 L155.5,32.6 C156.2,33.4 156.2,33.8 155.6,34.7 L154.7,36 C153.6,36 152.6,35.6 151.7,34.9 C149.7,33.5 149.3,31.8 149.2,30.7 C149,28.9 149.6,27.5 150.5,26.2 C151.1,25.4 152.4,23.6 155,23.4 C157,23.2 158.6,24.2 159.4,24.7 C159.8,25 160.1,25.2 160.5,25.6 C161.9,27 161.7,28 161.6,28.8 L161.8,28.9 L163.2,27.1 C162.5,26.2 161.7,25.1 160.1,24 C156.1,21.2 151.6,21.7 148.9,25.5 C146.5,29 147.9,32.1 148.8,33.4 C149.1,34.3 149.9,35 150.5,35.4"></path>
                <path d="M22,149.3 C23,149.1 23.9,148.4 24.3,147.7 C24.9,146.6 24.6,145.2 24.4,144.1 L23.5,139.3 L23.3,139.3 C23.3,140.5 22.8,140.6 21.6,140.8 L12.3,142.5 C11,142.7 10.6,142.8 10.1,141.7 L9.9,141.8 L10.7,145.9 L10.9,145.9 C11,144.7 11.3,144.5 12.7,144.2 L17,143.4 L17.3,144.8 C17.4,145.4 17.5,145.7 17.6,146 L13.4,149.4 C12.2,150.4 11.6,150.9 11.9,152.5 L12,153.3 L12.2,153.3 C12.4,152.6 12.4,152.4 13.9,151.3 L18.3,147.7 C18.8,148.1 19.9,149.7 22,149.3 L22,149.3 Z M17.9,143.3 L23,142.3 L23.3,144.2 C23.4,144.8 23.6,145.6 23,146.5 C22.8,146.9 22.2,147.4 21.3,147.6 C20.4,147.8 19.7,147.5 19.3,147.2 C18.4,146.5 18.2,145.3 18.1,144.7 L17.9,143.3 L17.9,143.3 Z"></path>
                <path d="M31,48.1 L37.7,53.4 C39.1,54.5 39.5,54.8 39,56 L39.2,56.2 L45.3,48.4 L43.6,47 L43.5,47.2 C44.2,48.1 44,48.6 43.2,49.6 L41.5,51.7 C41,52.3 40.7,52.7 40.1,52.7 C39.7,52.7 39.3,52.3 38.8,51.9 L32.1,46.6 C30.9,45.7 30.6,45.4 31.1,44.3 L30.9,44.2 L28.3,47.5 L28.5,47.6 C29.4,46.9 29.8,47.1 31,48.1"></path>
                <path d="M23.3,168.1 C27.2,166.9 29.6,163.2 28.4,159 C27.3,155.2 23.4,152.7 19.1,154 C15.5,155.1 12.9,158.5 14.3,163.1 C14.9,165.2 16,166.7 18,167.7 C20.1,168.8 22,168.5 23.3,168.1 M15.2,163 C14.2,159.6 16.6,156.6 19.8,155.7 C23.5,154.6 26.4,156.3 27.3,159.2 C28.4,162.8 25.7,165.5 22.8,166.4 C18.9,167.5 16.1,165.8 15.2,163"></path>
                <path d="M73.7,210.7 L73.8,210.5 L70.7,209 L70.6,209.2 C71.6,209.9 71.4,210.4 70.9,211.4 L67.4,219.1 L63.4,205.6 L60.9,204.4 L60.8,204.6 C61.7,205.2 61.6,205.6 61.1,206.5 L56.9,215.5 C56.4,216.5 56.1,216.9 55.1,216.6 L55,217 L58.1,218.4 L58.2,218.2 C57.4,217.6 57.4,217.2 57.9,216.1 L62.1,207.1 L66.7,222.6 L66.9,222.7 L72,211.8 C72.4,210.7 72.7,210.5 73.7,210.7"></path>
                <path d="M204.9,162.2 C203.6,167.4 202.1,172.3 200.3,176.9 C202.1,172.3 203.6,167.5 204.9,162.2"></path>
                <path d="M38.8,183 L38.7,182.9 L25.6,184.8 C24.5,185 23.9,185 23.3,184.4 L23.1,184.5 L25,187.4 L25.2,187.3 C25,186.8 25.1,186.3 25.5,186.1 C25.8,185.9 26.4,185.8 26.8,185.8 L29.7,185.3 L32.4,189.5 L30.6,192.1 C30.4,192.4 30.1,192.8 29.9,193 C29.4,193.3 28.9,193 28.6,192.6 L28.4,192.7 L30.6,196.2 L30.8,196.1 C30.6,195.1 30.9,194.7 31.7,193.5 L38.8,183 L38.8,183 Z M30.7,185.1 L35.9,184.3 L33,188.6 L30.7,185.1 L30.7,185.1 Z"></path>
                <path d="M57.3,204.6 C58.1,203.4 58.4,203 59.4,203.5 L59.5,203.3 L56.2,201 L56.1,201.2 C57,202 56.6,202.6 55.9,203.7 L50.8,211.1 C49.9,212.3 49.7,212.6 48.5,212.2 L48.4,212.4 L51.8,214.7 L51.9,214.5 C51.2,213.6 51.3,213.2 52.1,212 L57.3,204.6 L57.3,204.6 Z"></path>
                <path d="M42.8,189.6 C43.4,190.7 43.2,191 42,192 L35.8,197.8 C34.5,199.1 34.1,199.4 33,198.7 L32.8,198.9 L39.5,206.1 L41.1,204.6 L40.9,204.4 C39.9,205 39.4,204.6 38.6,203.7 L36.8,201.7 C36.3,201.2 35.9,200.8 36,200.2 C36.1,199.8 36.5,199.5 36.9,199 L43.1,193.2 C44.2,192.2 44.5,191.9 45.5,192.6 L45.7,192.4 L42.8,189.3 L42.8,189.6 L42.8,189.6 Z"></path>
                <path d="M33.4,177.1 C34.3,177.2 34.6,177.2 35.1,177.9 L35.3,177.8 L33.9,174.7 L33.7,174.8 C33.9,175.4 33.8,175.7 33.4,175.9 C33.1,176 32.8,176 32.2,175.9 L26.9,175.2 L29.9,170.7 C30.2,170.2 30.5,169.9 30.8,169.7 C31.4,169.5 31.7,170 31.8,170.2 L32,170.1 L30.3,166.3 L30.1,166.4 C30.2,167 30.1,167.3 29.4,168.3 L25.5,174.4 L21.7,176.1 C20.8,176.5 20.1,176.7 19.6,175.7 L19.4,175.8 L21.1,179.6 L21.3,179.5 C21.1,178.6 21.3,178.2 22.5,177.6 L26,176 L33.4,177.1 L33.4,177.1 Z"></path>
                <path d="M16.1,78.3 L25.6,81.5 C26.7,81.9 27.1,82.1 26.9,83.2 L27.1,83.3 L28.2,80.1 L28,80 C27.5,80.8 27.1,80.9 26,80.5 L16.6,77.3 L31.5,71.1 L31.6,70.9 L20.2,67 C19,66.6 18.7,66.2 18.8,65.3 L18.6,65.2 L17.5,68.4 L17.7,68.5 C18.3,67.5 18.8,67.6 19.9,68 L27.9,70.7 L14.9,76.1 L14,78.8 L14.2,78.9 C14.7,77.8 15.2,77.9 16.1,78.3"></path>
                <path d="M26.4,65.6 C30.2,67.6 33.1,65.8 34.2,64.8 C35.1,64 35.6,63.1 35.9,62.5 C37,60.4 37.2,58.4 37.4,57.2 L35.5,56.2 C34.5,55.7 34.1,55.4 34.5,54.4 L34.3,54.3 L32.4,57.9 L32.6,58 C33.3,57.2 33.7,57.2 34.7,57.7 L36.1,58.4 C36.3,59.5 35.9,60.6 35.4,61.5 C34.2,63.7 32.6,64.3 31.6,64.5 C29.8,64.9 28.4,64.5 27,63.7 C26.1,63.2 24.2,62.1 23.7,59.6 C23.3,57.6 24,56 24.5,55.1 C24.7,54.7 25,54.3 25.2,53.9 C26.4,52.4 27.4,52.4 28.2,52.5 L28.3,52.3 L26.3,51.2 C25.5,52 24.5,53 23.6,54.7 C21.2,59 22.3,63.4 26.4,65.6"></path>
                <path d="M13.1,124.2 C13.1,125.6 14.3,126.8 15.7,126.8 C17.1,126.8 18.3,125.6 18.3,124.2 C18.3,122.8 17.1,121.6 15.7,121.6 C14.3,121.6 13.1,122.7 13.1,124.2"></path>
                <path d="M104.5,236.5 C120.3,236.5 135.2,234.2 148.7,229.2 C135.2,234.2 120.2,236.5 104.5,236.5 L104.5,236.5 L104.5,236.5 Z"></path>
                <path d="M20.7,108.8 C21.9,108.9 22.6,108.9 22.7,110.2 L22.9,110.2 L23.3,106 L23.1,106 C22.7,107.2 22.1,107.2 20.8,107 L16.2,106.5 L22,101.8 C23.6,100.6 24,100.1 24.2,98.4 L24.3,97.7 L24.1,97.7 C23.7,98.4 23.5,98.6 21.9,99.9 L15.9,104.7 L12,99.6 C11.2,98.6 10.8,98 10.6,97.3 L10.4,97.3 L10,101 L10.2,101 C10.3,100.8 10.4,100.3 10.9,100.4 C11.3,100.4 11.5,100.8 12,101.4 L15.9,106.5 L11.5,106 C10.4,105.9 9.8,105.8 9.8,104.7 L9.6,104.7 L9.2,108.8 L9.4,108.8 C9.6,108.1 9.8,107.6 10.9,107.7 L20.7,108.8 L20.7,108.8 Z"></path>
                <path d="M13,94 L19.5,95.3 C22.9,96 25.2,94.4 25.9,90.8 C26.1,90 26.4,88.1 25.4,86.6 C24.4,85 22.7,84.7 21.3,84.4 L15.1,83.1 C14,82.9 13.5,82.8 13.5,81.6 L13.3,81.6 L12.6,84.9 L12.8,84.9 C13.2,83.8 13.8,83.9 14.9,84.1 L21.2,85.3 C22.1,85.5 23.6,85.8 24.4,86.9 C25,87.6 25.3,88.8 25,90.3 C24.5,92.9 22.7,94.1 19.9,93.6 L13.4,92.3 C12.4,92.1 11.8,92 11.7,90.8 L11.4,90.8 L10.6,94.8 L10.8,94.8 C11.4,93.7 11.7,93.8 13,94"></path>
            </g>
        </g>
    </g>
</svg>