<?xml version="1.0" encoding="UTF-8"?>
<svg width="290px" height="141px" viewBox="0 0 290 141" version="1.1" xmlns="http://www.w3.org/2000/svg" xmlns:xlink="http://www.w3.org/1999/xlink">
    <!-- Generator: Sketch 43.2 (39069) - http://www.bohemiancoding.com/sketch -->
    <title>konstfack</title>
    <desc>Created with Sketch.</desc>
    <defs></defs>
    <g id="Page-1" stroke="none" stroke-width="1" fill="none" fill-rule="evenodd">
        <g id="konstfack" fill-rule="nonzero" fill="#231F20">
            <g id="Shape">
                <path d="M13.6,25.1 L11.8,26.9 L11.9,41 C11.9,43.9 13.8,44.3 17.1,44.3 L17.2,46.2 L0.4,46.3 L0.3,44.3 C3.7,44.4 5,44 5,41 L4.9,6.7 C4.8,3.8 2.9,3.4 0.2,3.4 L0.1,1.5 L16.9,1.4 L17,3.4 C13.7,3.3 11.8,3.7 11.8,6.7 L11.7,23.9 L25.1,9.6 C26.1,8.4 27.7,6.8 27.7,5.4 C27.7,3.4 24.4,3.5 23.1,3.4 L23,1.5 L38.5,1.4 L38.6,3.4 C34.6,3.3 31.6,5.6 29.1,8.3 L18.3,20 L36.3,42.8 C37.3,44 39.1,44.3 40.9,44.2 L41,46.1 L30.5,46.2 L13.6,25.1 L13.6,25.1 Z"></path>
                <path d="M53,19 C47,18.9 45.2,27.2 45.2,32.1 C45.2,37 47,45 52.8,45 C58.6,45 60.5,38.7 60.5,33.6 C60.6,28.1 59.8,19.1 53,19 L53,19 L53,19 Z M52.6,46.8 C44,46.8 39.2,40 39.2,31.8 C39.2,23.9 44.6,17.2 52.6,17.2 C61,17.2 66.4,23.8 66.4,32 C66.5,40.6 61.3,46.8 52.6,46.8 L52.6,46.8 L52.6,46.8 Z"></path>
                <path d="M85.6,44.4 C86.2,44.3 86.5,44.3 86.8,44.3 C87.2,44.3 87.4,44.3 87.6,44.2 C88,44.1 88.4,44 88.6,43.8 C89,43.5 89.3,42.8 89.3,41.1 L89.2,27 C89.2,23.1 87.1,20.6 83.2,20.6 C80.6,20.6 76.9,23.2 76.9,25.9 L77,41.1 C77,42.8 77.3,43.5 77.6,43.8 C77.9,44.1 78.2,44.1 78.6,44.2 C78.9,44.3 79.1,44.3 79.4,44.3 C79.7,44.3 80,44.3 80.5,44.4 L80.6,46.1 L67.9,46.2 L67.8,44.4 C68.4,44.3 68.8,44.3 69.1,44.3 C69.4,44.3 69.7,44.3 69.9,44.2 C70.3,44.1 70.7,44 70.9,43.8 C71.3,43.5 71.7,42.8 71.7,41.1 L71.6,25.2 C71.5,23 70.8,22.1 68.5,21.4 L68.4,20.2 C71.5,19.3 74,18.2 77.1,17 L77,21.5 C79.5,19 81.5,17.1 85.4,17.1 C90.1,17.1 94.8,20.8 94.9,25.8 L95,41 C95,42.7 95.3,43.3 96,43.7 C96.9,44.2 97.8,44.1 98.8,44.3 L98.9,46 L85.8,46.1 L85.6,44.4 L85.6,44.4 Z"></path>
                <path d="M108.7,46.8 C105.9,46.9 103.2,46.2 100.6,44.7 L100.5,36.7 L101.8,36.6 C102.9,40.2 104,45 108.7,45 C112.2,45 113.9,43.1 113.9,39.6 C113.9,36.8 111.8,35.5 109.5,34.3 C108.7,33.9 108,33.5 107.3,33.1 C105.6,32.1 104,31.2 102.6,29.9 C101.3,28.7 100.6,27.1 100.6,24.8 C100.6,19.7 105.1,17.3 109.4,17.3 C112.3,17.3 115.2,18.3 117.8,19.3 L117.9,26.5 L116.4,26.6 C115.6,22.6 113.2,19 109.2,19 C106.8,19 105.2,20.8 105.2,23.2 C105.2,25.4 107.8,26.7 109.5,27.6 C113.8,29.8 119.2,32 119.2,37.9 C119.2,44 114.1,46.8 108.7,46.8 L108.7,46.8 L108.7,46.8 Z"></path>
                <path d="M129.8,21.7 L129.9,38.3 C129.9,41.4 130.7,43 133.9,43 C135.6,43 137.6,41.6 139,40.7 C140.5,41.4 139.4,42.5 138.7,43.2 C138.6,43.3 138.6,43.3 138.5,43.4 C136.7,45.4 133.9,46.8 131.2,46.8 C126.5,46.8 124.5,43.2 124.5,38.9 L124.6,21.6 L121.3,21.7 L121.2,20.7 C123.9,18 126.8,15.6 129.3,12.8 L129.9,12.7 L129.8,17.9 L139.3,17.8 L137.6,21.6 L129.8,21.7 L129.8,21.7 Z"></path>
                <path d="M153.8,3.4 C151.2,3.4 150.2,6 150.1,9.4 L150,18.4 L156.8,18.3 L156,21.7 L150,21.6 L150.1,41.1 C150.1,42.8 150.3,43.4 150.9,43.8 C151.2,44 151.9,44.1 152.2,44.2 C152.5,44.3 152.9,44.3 153.3,44.3 C153.7,44.3 154.2,44.3 154.8,44.4 L154.9,46.1 L140.4,46.2 L140.3,44.4 C141,44.3 141.4,44.3 141.7,44.3 C142,44.2 142.3,44.2 142.6,44.2 C142.9,44.1 143.4,44 143.7,43.8 C144.2,43.5 144.4,42.8 144.4,41.1 L144.5,21.6 L139.8,21.7 L140.6,18.3 L144.4,18.4 L144.5,16.1 C144.9,2.6 152.6,0.9 156.1,0.9 C158.9,0.9 163.2,2.1 163.2,5.9 C163.2,7.7 162.1,8.9 160.3,8.9 C156.9,8.9 157.6,3.4 153.8,3.4 L153.8,3.4 Z"></path>
                <path d="M167,34 C164.9,35.2 163.2,36.6 163.2,38.4 C163.2,40.9 164.9,42.9 167.4,42.9 C169.7,42.9 171,41.9 172.8,40.6 L172.7,31.5 C170.8,32.2 168.8,33 167,34 L167,34 Z M177.3,46.8 C175.1,46.8 173.2,44.8 172.9,42.6 C172.3,43 171.7,43.5 171.2,43.9 C169.1,45.6 167.2,46.7 164.3,46.7 C161.2,46.7 158.4,44.3 158.4,41 C158.4,37.3 160.8,34.9 163.8,33.3 C165.4,32.4 167,31.7 168.6,31.1 C170.1,30.5 171.6,29.9 172.9,29.4 L172.8,22.6 C172.7,20.3 171.5,19.6 169.2,19.6 C166.9,19.6 164,21 164,22.4 L164,23 C164,23.3 164.1,23.5 164,23.8 C164.1,26.2 163.5,28.2 160.5,28.2 C159.1,28.2 158.3,26.9 158.3,25.8 C158.2,24.3 159.3,22.8 160.6,21.6 C163.5,19.2 168.2,17.2 171.9,17.2 C175.9,17.2 178,19.6 178,23.7 L178.1,40.9 C178.1,42.1 178.1,43.7 179.3,43.6 C180.1,43.7 180.5,42.6 180.8,41.5 L182.3,41.4 C182,44.9 180.7,46.8 177.3,46.8 L177.3,46.8 L177.3,46.8 Z"></path>
                <path d="M195.7,46.8 C187.2,46.8 183,39.2 183,31.4 C183,23.7 189.1,17.2 196.8,17.2 C200.3,17.2 207.3,19.2 207.3,24 C207.3,25.7 206.6,26.9 204.7,26.9 C202.8,26.9 202.2,25.6 201.9,24.1 C201.7,23.7 201.6,23.1 201.5,22.7 C201,20.8 200.1,18.9 196.8,18.9 C190.8,18.9 188.9,25.7 188.9,30.8 C188.9,36.7 191.7,42.8 198.1,42.8 C201.8,42.8 204.8,40.2 206.4,36.7 L207.9,37.1 C205.4,43.1 202.2,46.8 195.7,46.8 L195.7,46.8 L195.7,46.8 Z"></path>
                <path d="M225.4,44.4 C226.1,44.4 226.9,44.4 227.7,44.2 C228.4,44.1 228.9,43.8 228.9,43.2 C229,42.2 227.6,41.1 227,40.3 L219.4,30.4 L217.1,32.1 L217.2,41.1 C217.2,42.8 217.5,43.5 217.8,43.8 C218.1,44.1 218.4,44.1 218.8,44.2 C219.1,44.3 219.3,44.3 219.6,44.3 C219.9,44.3 220.2,44.3 220.7,44.4 L220.8,46.1 L208,46.2 L207.9,44.4 C208.5,44.3 208.9,44.3 209.2,44.3 C209.5,44.3 209.8,44.3 210,44.2 C210.4,44.1 210.8,44 211,43.8 C211.4,43.5 211.8,42.8 211.8,41.1 L211.7,8.2 C211.6,6.2 210.9,5.6 208.6,5.2 L208.5,4.2 C211.4,3.1 214.1,1.9 217.2,0.7 L217,29.7 L225.2,23.9 C226,23.4 227.5,22.4 227.4,21.3 C227.5,20 223.6,19.7 222.3,19.8 L222.2,18 L236.9,17.9 L237,19.7 C231.5,20.2 227.9,24.5 223.6,27.3 L233.8,40.1 C235.8,42.7 237.3,44.4 240.5,44.3 L240.6,46.1 L225.4,46.2 L225.4,44.4 L225.4,44.4 Z"></path>
                <path d="M21.8,92.6 C21.8,97.1 20.1,100.5 13.4,100.5 C6.9,100.5 5,97 5,92.9 L5,80.9 C5,78.9 4.8,78.7 2.7,78.6 L2.7,77.7 L11.2,77.7 L11.3,78.7 C8.8,78.7 8.5,79.4 8.5,81 L8.5,93.8 C8.5,96.1 9.3,99.5 14.5,99.5 C19.7,99.5 20.8,96.3 20.8,92.6 L20.8,81 C20.8,78.9 19.8,78.8 17.5,78.7 L17.5,77.8 L24.6,77.8 L24.6,78.8 C22.8,78.8 21.9,79.4 21.9,81.1 L21.9,92.6 L21.8,92.6 Z"></path>
                <path d="M33.5,99.1 C33.8,99.1 33.9,99.1 34.1,99 L34.5,99 C34.7,99 34.9,98.9 35,98.8 C35.2,98.6 35.4,98.3 35.4,97.5 L35.4,90.5 C35.4,88.5 34.3,87.3 32.4,87.3 C31.1,87.3 29.3,88.6 29.3,90 L29.3,97.6 C29.3,98.4 29.4,98.8 29.6,98.9 C29.7,99 29.9,99.1 30.1,99.1 C30.2,99.1 30.4,99.1 30.5,99.2 L31,99.2 L31,100.1 L24.6,100.1 L24.6,99.2 C24.9,99.2 25.1,99.2 25.2,99.1 L25.6,99.1 C25.8,99.1 26,99 26.1,98.9 C26.3,98.7 26.5,98.4 26.5,97.6 L26.5,89.7 C26.5,88.6 26.1,88.1 25,87.8 L25,87.2 C26.5,86.8 27.8,86.2 29.4,85.6 L29.4,87.9 C30.6,86.7 31.7,85.7 33.6,85.7 C35.9,85.7 38.3,87.6 38.3,90.1 L38.3,97.7 C38.3,98.5 38.5,98.9 38.8,99 C39.2,99.3 39.7,99.2 40.2,99.3 L40.2,100.2 L33.7,100.2 L33.5,99.1 L33.5,99.1 Z"></path>
                <path d="M42.3,81.7 C42.3,80.7 43.1,79.9 44,79.9 C44.9,79.9 45.6,80.8 45.6,81.7 C45.6,82.6 44.9,83.5 44,83.5 C43.1,83.5 42.3,82.7 42.3,81.7 L42.3,81.7 Z M41.1,100 L41.1,99.2 C41.4,99.2 41.5,99.2 41.7,99.1 L42.1,99.1 C42.3,99.1 42.5,99 42.6,98.9 C42.8,98.7 42.9,98.4 42.9,97.6 L42.9,89.9 C42.9,89.4 42.9,88.4 42.4,88.1 C42,87.8 41.7,87.8 41.2,87.8 L41.2,87.3 C42.6,86.7 44,86.1 45.6,85.5 L45.6,97.7 C45.6,98.5 45.7,98.9 45.9,99 C46,99.1 46.2,99.2 46.3,99.2 C46.4,99.2 46.6,99.2 46.7,99.3 L47.2,99.3 L47.2,100.2 L41.1,100 L41.1,100 L41.1,100 L41.1,100 Z"></path>
                <path d="M55.2,100.4 L54.5,100.4 L49.9,88.6 C49.8,88.3 49.7,88.1 49.6,87.8 C49.5,87.6 49.4,87.4 49.2,87.2 C48.9,86.9 48.6,86.8 47.7,86.8 L47.7,85.9 L54.6,85.9 L54.6,86.8 C54.2,86.8 53.7,86.8 53.3,86.9 C52.9,87 52.5,87.2 52.6,87.5 C52.6,87.7 52.7,88.2 53,88.9 L55.9,96.5 L59.4,88.8 C59.6,88.4 59.7,88 59.7,87.6 C59.7,86.8 58.4,86.9 57.7,86.9 L57.7,86 L62.9,86 L62.9,86.9 C61.7,86.9 61.1,87.6 60.6,88.6 L55.2,100.4 L55.2,100.4 Z"></path>
                <path d="M69.2,86.5 C67.3,86.5 66.3,87.9 65.7,89.6 L71.9,89.6 C71.7,87.9 71,86.5 69.2,86.5 L69.2,86.5 L69.2,86.5 Z M69.4,100.4 C65.1,100.4 62.5,97.4 62.5,93 C62.5,89.1 65.4,85.6 69.4,85.6 C72.6,85.6 75.2,87.2 76,90.7 L65.3,90.7 C65.2,91.3 65.2,91.9 65.2,92.4 C65.2,95.7 67.4,98 70.6,98 C72.6,98 74.4,96.8 75.3,94.8 L76.1,95 C75,98.2 72.8,100.4 69.4,100.4 L69.4,100.4 L69.4,100.4 Z"></path>
                <path d="M84.6,88 C84.3,87.9 84,87.7 83.6,87.8 C83.1,87.8 82,88.6 82,89 L82,97.5 C82,98.3 82.1,98.7 82.3,98.8 C82.4,98.9 82.7,99 82.8,99 C83,99 83.1,99 83.3,99.1 L83.9,99.1 L83.9,100 L77.4,100 L77.4,99.1 C77.8,99.1 78.1,99.1 78.4,99 C78.6,99 78.8,98.9 78.8,98.8 C79,98.6 79.2,98.3 79.2,97.5 L79.2,89.4 C79.2,88.8 79.1,88.5 78.9,88.3 C78.8,88.2 78.6,88.1 78.5,88 C78.3,87.9 78.1,87.8 77.8,87.6 L77.8,87.1 C79.2,86.6 80.5,85.9 82,85.4 L82,87.5 C82.8,86.6 83.7,85.4 85,85.4 C85.9,85.4 86.8,85.9 86.8,87 C86.8,87.8 86.2,88.4 85.5,88.3 C85.2,88.3 84.9,88.1 84.6,88 L84.6,88 Z"></path>
                <path d="M92,100.4 C90.6,100.4 89.2,100.1 87.9,99.3 L87.9,95.3 L88.5,95.3 C89,97.1 89.6,99.5 92,99.5 C93.7,99.5 94.6,98.5 94.6,96.8 C94.6,95.4 93.5,94.8 92.4,94.1 C92,93.9 91.6,93.7 91.3,93.5 C90.5,93 89.6,92.6 89,91.9 C88.4,91.3 88,90.5 88,89.3 C88,86.8 90.2,85.6 92.4,85.6 C93.9,85.6 95.3,86.1 96.6,86.6 L96.6,90.2 L95.8,90.2 C95.4,88.2 94.2,86.4 92.2,86.4 C91,86.4 90.2,87.3 90.2,88.5 C90.2,89.6 91.5,90.3 92.3,90.7 C94.4,91.8 97.2,92.9 97.2,95.9 C97.2,99 94.7,100.4 92,100.4 L92,100.4 L92,100.4 Z"></path>
                <path d="M100.6,81.7 C100.6,80.7 101.4,79.9 102.3,79.9 C103.2,79.9 103.9,80.8 103.9,81.7 C103.9,82.6 103.2,83.5 102.3,83.5 C101.4,83.5 100.6,82.7 100.6,81.7 L100.6,81.7 Z M99.3,100 L99.3,99.2 C99.6,99.2 99.7,99.2 99.9,99.1 L100.3,99.1 C100.5,99.1 100.7,99 100.8,98.9 C101,98.7 101.1,98.4 101.1,97.6 L101.1,89.9 C101.1,89.4 101.1,88.4 100.6,88.1 C100.2,87.8 99.9,87.8 99.4,87.8 L99.4,87.3 C100.8,86.7 102.2,86.1 103.8,85.5 L103.8,97.7 C103.8,98.5 103.9,98.9 104.1,99 C104.2,99.1 104.4,99.2 104.5,99.2 C104.6,99.2 104.8,99.2 104.9,99.3 L105.4,99.3 L105.4,100.2 L99.3,100 L99.3,100 L99.3,100 L99.3,100 Z"></path>
                <path d="M111.2,87.8 L111.2,96.1 C111.2,97.7 111.6,98.5 113.2,98.5 C114,98.5 115.1,97.8 115.7,97.3 C116.5,97.7 115.9,98.2 115.5,98.5 C115.5,98.5 115.4,98.5 115.4,98.6 C114.5,99.6 113.1,100.3 111.8,100.3 C109.4,100.3 108.4,98.5 108.4,96.4 L108.4,87.8 L106.8,87.8 L106.8,87.3 C108.1,86 109.6,84.8 110.9,83.3 L111.2,83.3 L111.2,85.9 L115.9,85.9 L115,87.8 L111.2,87.8 L111.2,87.8 Z"></path>
                <path d="M124.3,103.4 C123.8,104.9 123.1,106.9 121.2,106.9 C120.4,106.9 119.9,106.2 119.9,105.5 C119.9,104.7 120.4,104.1 121.2,104.1 C121.6,104.1 121.9,104.2 122.2,104.3 C123,104.4 123.4,103.6 123.5,102.9 L124.5,99.8 C123.7,98.4 120.5,92 118.3,88.3 C118.2,88.1 118.1,87.9 118,87.7 C117.8,87.3 117.7,87.2 117.3,87.1 C117.1,87 116.8,87 116.4,86.9 L116.4,86 L123.5,86 L123.5,86.9 C123.1,86.9 122.5,86.9 122,87 C121.5,87.1 121.1,87.3 121.2,87.6 C121.2,87.7 121.3,88 121.5,88.5 L125.7,96.4 L128.1,89.3 C128.4,88.6 128.4,88.1 128.4,87.8 C128.4,87.1 127.7,87 127,86.9 L126.2,86.9 L126.1,86 L131.7,86 L131.7,86.9 C130.1,86.9 129.7,87.4 129.3,88.7 L124.3,103.4 L124.3,103.4 Z"></path>
                <path d="M158.3,99.6 L158.3,99.9 L157.4,98.3 C155.3,99.7 152.9,100.6 150.3,100.6 C143.3,100.6 139,96.2 139,89.2 C139,82.4 143.8,77.5 150.6,77.5 C153.2,77.5 155.2,78.4 157.3,79.8 L158.3,78.5 L159,78.5 L159,86.2 L158.1,86.2 C157.6,81.9 154.9,78.5 150.6,78.5 C147.7,78.5 145.2,80.6 144,83.1 C143.1,84.9 142.9,87.4 142.9,89.4 C142.9,92.2 143.4,94 144.9,96.3 C146,98.2 148.1,99.6 150.5,99.6 C154.9,99.6 157.5,96.4 158.3,92.3 L159.1,92.3 L159.1,99.8 L158.3,99.6 L158.3,99.6 L158.3,99.6 Z"></path>
                <path d="M169,86.4 C166,86.4 165.1,90.5 165.1,92.9 C165.1,95.4 166,99.4 168.9,99.4 C171.8,99.4 172.8,96.2 172.8,93.7 C172.7,91 172.4,86.5 169,86.4 L169,86.4 L169,86.4 Z M168.8,100.4 C164.5,100.4 162.1,97 162.1,92.9 C162.1,89 164.8,85.6 168.8,85.6 C173,85.6 175.7,88.9 175.7,93 C175.7,97.2 173.1,100.4 168.8,100.4 L168.8,100.4 L168.8,100.4 Z"></path>
                <path d="M177.4,100 L177.4,99.2 C177.7,99.2 177.8,99.2 178,99.1 L178.4,99.1 C178.6,99.1 178.8,99 178.9,98.9 C179.1,98.7 179.2,98.4 179.2,97.6 L179.2,82 L179.2,80.8 C179.1,80.5 179,80.2 178.8,80.1 C178.5,79.8 178.2,79.7 177.4,79.6 L177.4,79 C179,78.6 180.4,78 181.9,77.5 L181.9,97.7 C181.9,98.5 182,98.9 182.2,99 C182.3,99.1 182.5,99.2 182.6,99.2 C182.7,99.2 182.9,99.2 183,99.3 L183.5,99.3 L183.5,100.2 L177.4,100 L177.4,100 L177.4,100 L177.4,100 Z"></path>
                <path d="M185.5,100 L185.5,99.2 C185.8,99.2 185.9,99.2 186.1,99.1 L186.5,99.1 C186.7,99.1 186.9,99 187,98.9 C187.2,98.7 187.3,98.4 187.3,97.6 L187.3,82 L187.3,80.8 C187.2,80.5 187.1,80.2 186.9,80.1 C186.6,79.8 186.3,79.7 185.5,79.6 L185.5,79 C187.1,78.6 188.5,78 190,77.5 L190,97.7 C190,98.5 190.1,98.9 190.3,99 C190.4,99.1 190.6,99.2 190.8,99.2 C190.9,99.2 191.1,99.2 191.2,99.3 L191.7,99.3 L191.7,100.2 L185.5,100 L185.5,100 L185.5,100 L185.5,100 Z"></path>
                <path d="M200.2,86.5 C198.3,86.5 197.3,87.9 196.7,89.6 L202.9,89.6 C202.7,87.9 202,86.5 200.2,86.5 L200.2,86.5 L200.2,86.5 Z M200.5,100.4 C196.2,100.4 193.6,97.4 193.6,93 C193.6,89.1 196.5,85.6 200.5,85.6 C203.7,85.6 206.3,87.2 207.1,90.7 L196.4,90.7 C196.3,91.3 196.3,91.9 196.3,92.4 C196.3,95.7 198.5,98 201.7,98 C203.7,98 205.5,96.8 206.4,94.8 L207.2,95 C206.1,98.2 203.8,100.4 200.5,100.4 L200.5,100.4 L200.5,100.4 Z"></path>
                <path d="M214.9,86.5 C212.9,86.5 212.3,88.7 212.3,90.5 C212.3,92.2 212.9,94.2 214.8,94.2 C216.8,94.2 217.4,92.2 217.4,90.4 C217.5,88.6 216.9,86.5 214.9,86.5 L214.9,86.5 L214.9,86.5 Z M214.6,101 C213.5,101 212.5,100.9 211.8,100.7 C211.1,101 210.3,102.3 210.3,103.2 C210.3,106 213.4,106 215.6,106 C217.6,106 220.7,105.7 220.7,103.2 C220.7,101.6 219.5,101.1 218,101 C217,101.1 215.8,101.1 214.6,101 L214.6,101 Z M214.9,106.9 C213,106.9 208.3,106.7 208.3,103.8 C208.3,102.1 209.5,100.9 210.9,100.3 C210,99.7 209.5,98.8 209.5,97.6 C209.5,95.9 210.4,95.1 211.6,94.4 C210.1,93.5 209.5,92.1 209.5,90.3 C209.5,87.4 212,85.6 214.6,85.6 C216.1,85.6 217.4,86 218.6,86.8 C219.3,86.4 220.3,85.7 221.1,85.7 C221.9,85.7 222.5,86.2 222.5,87.1 C222.5,87.8 222.1,88.2 221.4,88.2 C220.5,88.2 220,87 219.2,87.5 C219.8,88.4 220.1,89 220.1,90.2 C220.1,93.4 217.6,95.2 214.6,95.2 C213.9,95.2 213.2,95 212.4,94.9 C211.8,95.3 211,95.8 211,96.7 C211,98.3 212.8,98.4 213.9,98.4 L215.2,98.4 C217.9,98.6 222.5,98.6 222.5,102.5 C222.7,106.6 217.8,106.9 214.9,106.9 L214.9,106.9 L214.9,106.9 Z"></path>
                <path d="M230.2,86.5 C228.3,86.5 227.3,87.9 226.7,89.6 L232.9,89.6 C232.7,87.9 232.1,86.5 230.2,86.5 L230.2,86.5 L230.2,86.5 Z M230.5,100.4 C226.2,100.4 223.6,97.4 223.6,93 C223.6,89.1 226.5,85.6 230.5,85.6 C233.7,85.6 236.3,87.2 237.1,90.7 L226.4,90.7 C226.3,91.3 226.3,91.9 226.3,92.4 C226.3,95.7 228.5,98 231.7,98 C233.7,98 235.5,96.8 236.4,94.8 L237.2,95 C236.1,98.2 233.9,100.4 230.5,100.4 L230.5,100.4 L230.5,100.4 Z"></path>
                <path d="M251.2,86.4 C248.2,86.4 247.3,90.5 247.3,92.9 C247.3,95.4 248.2,99.4 251.1,99.4 C254,99.4 255,96.2 255,93.7 C255,91 254.6,86.5 251.2,86.4 L251.2,86.4 L251.2,86.4 Z M251,100.4 C246.7,100.4 244.3,97 244.3,92.9 C244.3,89 247,85.6 251,85.6 C255.2,85.6 257.9,88.9 257.9,93 C258,97.2 255.4,100.4 251,100.4 L251,100.4 L251,100.4 Z"></path>
                <path d="M269.8,81.4 C270.7,81.4 271.2,80.8 271.2,79.9 C271.2,78 269,77.4 267.6,77.4 C265.9,77.4 262,78.3 261.8,85 L261.8,86.2 L259.9,86.2 L259.5,87.9 L261.8,87.9 L261.8,97.6 C261.8,98.4 261.7,98.8 261.4,98.9 C261.3,99 261,99.1 260.9,99.1 C260.7,99.1 260.6,99.1 260.5,99.2 L259.8,99.2 L259.8,100.1 L267,100.1 L266.9,99.2 L266.1,99.2 C265.9,99.2 265.7,99.2 265.6,99.1 C265.4,99.1 265.1,99 264.9,98.9 C264.6,98.7 264.5,98.4 264.5,97.6 L264.5,87.9 L267.5,87.9 L267.9,86.2 L264.5,86.2 L264.5,81.7 C264.5,80 265,78.7 266.3,78.7 C268.4,78.7 268,81.4 269.8,81.4 L269.8,81.4 Z"></path>
                <path d="M7.2,124.5 L13.7,124.5 L10.3,116 L7.2,124.5 L7.2,124.5 Z M13.6,133.1 C14.8,133.1 16.3,133.1 16.3,132 C16.3,131.6 15.9,130.4 15.4,129 C15,127.8 14.4,126.4 14.2,125.7 L6.8,125.7 C6.6,126.3 6.1,127.7 5.6,128.9 C5.4,129.6 5.1,130.2 5,130.7 C4.8,131.2 4.7,131.7 4.7,131.9 C4.7,132.7 5.6,133 6.3,133.1 C6.6,133.1 6.9,133.2 7.2,133.2 L7.2,134.1 L1.2,134.1 L1.2,133.1 C2.2,133 3,132.5 3.3,131.6 L9.7,114.6 L9.1,113.6 C10.3,112.9 11,112 11.9,110.9 L19.4,130.2 C20.1,132 20.5,132.8 22.2,133.1 L22.2,134 L13.7,134 L13.6,133.1 L13.6,133.1 Z"></path>
                <path d="M29.6,122 C29.3,121.9 29,121.7 28.6,121.8 C28.1,121.8 27,122.6 27,123 L27,131.5 C27,132.3 27.1,132.7 27.3,132.8 C27.4,132.9 27.7,133 27.8,133 C28,133 28.1,133 28.3,133.1 L28.9,133.1 L28.9,134 L22.4,134 L22.4,133.1 C22.8,133.1 23.1,133.1 23.4,133 C23.6,133 23.8,132.9 23.8,132.8 C24,132.6 24.2,132.3 24.2,131.5 L24.2,123.4 C24.2,122.8 24.1,122.5 23.9,122.3 C23.8,122.2 23.6,122.1 23.5,122 C23.3,121.9 23.1,121.8 22.8,121.6 L22.8,121.1 C24.2,120.6 25.5,119.9 27,119.4 L27,121.5 C27.8,120.6 28.7,119.4 30,119.4 C30.9,119.4 31.8,119.9 31.8,121 C31.8,121.8 31.2,122.4 30.5,122.3 C30.1,122.3 29.8,122.1 29.6,122 L29.6,122 Z"></path>
                <path d="M36.7,121.8 L36.7,130.1 C36.7,131.7 37.1,132.5 38.7,132.5 C39.5,132.5 40.6,131.8 41.2,131.3 C42,131.7 41.4,132.2 41,132.5 C41,132.5 40.9,132.5 40.9,132.6 C40,133.6 38.6,134.3 37.3,134.3 C34.9,134.3 33.9,132.5 33.9,130.4 L33.9,121.8 L32.3,121.8 L32.3,121.3 C33.6,120 35.1,118.8 36.4,117.3 L36.7,117.3 L36.7,119.9 L41.4,119.9 L40.5,121.8 L36.7,121.8 L36.7,121.8 Z"></path>
                <path d="M46.8,134.4 C45.4,134.4 44,134.1 42.7,133.3 L42.7,129.3 L43.3,129.3 C43.8,131.1 44.4,133.5 46.8,133.5 C48.5,133.5 49.4,132.5 49.4,130.8 C49.4,129.4 48.3,128.8 47.2,128.1 C46.8,127.9 46.4,127.7 46.1,127.5 C45.3,127 44.4,126.6 43.8,125.9 C43.2,125.3 42.8,124.5 42.8,123.3 C42.8,120.8 45,119.6 47.2,119.6 C48.7,119.6 50.1,120.1 51.4,120.6 L51.4,124.2 L50.6,124.2 C50.2,122.2 49,120.4 47,120.4 C45.8,120.4 45,121.3 45,122.5 C45,123.6 46.3,124.3 47.1,124.7 C49.2,125.8 52,126.9 52,129.9 C52,133 49.4,134.4 46.8,134.4 L46.8,134.4 L46.8,134.4 Z"></path>
                <path d="M55.1,139.1 C57,137.9 58.6,136.2 58.6,133.8 C58.6,132.3 57.8,130.4 56,130.4 C55,130.4 54.2,131.1 54.2,132.2 C54.2,133.1 54.5,133.5 55,133.7 C55.1,133.8 55.2,133.8 55.4,133.9 C55.8,134.1 56.2,134.1 56.6,134.3 C57,134.5 57,134.8 57,135.1 C57,136.2 55.8,137.5 54.7,138.3 L55.1,139.1 L55.1,139.1 Z"></path>
                <path d="M85.1,133.6 L85.1,133.9 L84.2,132.3 C82.1,133.7 79.7,134.6 77.1,134.6 C70.1,134.6 65.8,130.2 65.8,123.2 C65.8,116.4 70.6,111.5 77.4,111.5 C80,111.5 82,112.4 84.1,113.8 L85.1,112.5 L85.8,112.5 L85.8,120.2 L84.9,120.2 C84.4,115.9 81.7,112.5 77.3,112.5 C74.5,112.5 71.9,114.6 70.7,117.1 C69.8,118.9 69.6,121.4 69.6,123.4 C69.6,126.2 70.1,128 71.6,130.3 C72.7,132.2 74.8,133.6 77.2,133.6 C81.6,133.6 84.2,130.4 85,126.3 L85.8,126.3 L85.8,133.8 L85.1,133.6 L85.1,133.6 L85.1,133.6 Z"></path>
                <path d="M95.2,122 C94.9,121.9 94.6,121.7 94.2,121.8 C93.7,121.8 92.6,122.6 92.6,123 L92.6,131.5 C92.6,132.3 92.7,132.7 92.9,132.8 C93,132.9 93.3,133 93.4,133 C93.6,133 93.7,133 93.9,133.1 L94.5,133.1 L94.5,134 L88,134 L88,133.1 C88.4,133.1 88.7,133.1 89,133 C89.2,133 89.4,132.9 89.4,132.8 C89.6,132.6 89.8,132.3 89.8,131.5 L89.8,123.4 C89.8,122.8 89.7,122.5 89.5,122.3 C89.4,122.2 89.2,122.1 89.1,122 C88.9,121.9 88.7,121.8 88.4,121.6 L88.4,121.1 C89.8,120.6 91.1,119.9 92.6,119.4 L92.6,121.5 C93.4,120.6 94.3,119.4 95.6,119.4 C96.5,119.4 97.4,119.9 97.4,121 C97.4,121.8 96.8,122.4 96.1,122.3 C95.8,122.3 95.5,122.1 95.2,122 L95.2,122 Z"></path>
                <path d="M102.5,127.9 C101.4,128.5 100.6,129.2 100.6,130.1 C100.6,131.3 101.5,132.3 102.7,132.3 C103.9,132.3 104.5,131.8 105.4,131.1 L105.4,126.6 C104.5,127.1 103.5,127.5 102.5,127.9 L102.5,127.9 Z M107.7,134.4 C106.6,134.4 105.7,133.4 105.5,132.3 C105.2,132.5 104.9,132.7 104.6,133 C103.5,133.8 102.6,134.4 101.1,134.4 C99.6,134.4 98.2,133.2 98.2,131.6 C98.2,129.7 99.4,128.6 100.9,127.7 C101.7,127.3 102.5,126.9 103.3,126.6 C104.1,126.3 104.8,126 105.4,125.8 L105.4,122.4 C105.4,121.2 104.7,120.9 103.6,120.9 C102.4,120.9 101,121.6 101,122.3 L101,122.6 L101,123 C101,124.2 100.7,125.2 99.3,125.2 C98.6,125.2 98.2,124.5 98.2,124 C98.2,123.2 98.7,122.5 99.4,121.9 C100.8,120.7 103.2,119.7 105.1,119.7 C107.1,119.7 108.1,120.9 108.2,122.9 L108.2,131.5 C108.2,132.1 108.2,132.9 108.8,132.8 C109.2,132.8 109.4,132.3 109.6,131.7 L110.4,131.7 C110,133.4 109.4,134.4 107.7,134.4 L107.7,134.4 L107.7,134.4 Z"></path>
                <path d="M118.1,112.7 C116.8,112.7 116.3,114 116.3,115.7 L116.3,120.2 L119.7,120.2 L119.3,121.9 L116.3,121.9 L116.3,131.6 C116.3,132.4 116.4,132.8 116.7,132.9 C116.8,133 117.2,133.1 117.4,133.1 C117.6,133.1 117.8,133.1 117.9,133.2 L118.7,133.2 L118.8,134.1 L111.6,134.1 L111.6,133.2 L112.3,133.2 C112.5,133.2 112.6,133.2 112.7,133.1 C112.9,133.1 113.1,133 113.2,132.9 C113.5,132.7 113.6,132.4 113.6,131.6 L113.6,121.9 L111.3,121.9 L111.7,120.2 L113.6,120.2 L113.6,119 C113.8,112.2 117.7,111.4 119.4,111.4 C120.8,111.4 123,112 123,113.9 C123,114.8 122.5,115.4 121.6,115.4 C119.6,115.4 120,112.7 118.1,112.7 L118.1,112.7 Z"></path>
                <path d="M124.9,121.8 L124.9,130.1 C124.9,131.7 125.3,132.5 126.9,132.5 C127.7,132.5 128.8,131.8 129.4,131.3 C130.2,131.7 129.6,132.2 129.2,132.5 C129.2,132.5 129.1,132.5 129.1,132.6 C128.2,133.6 126.8,134.3 125.5,134.3 C123.1,134.3 122.1,132.5 122.1,130.4 L122.1,121.8 L120.5,121.8 L120.5,121.3 C121.8,120 123.3,118.8 124.6,117.3 L124.9,117.3 L124.9,119.9 L129.6,119.9 L128.7,121.8 L124.9,121.8 L124.9,121.8 Z"></path>
                <path d="M135,134.4 C133.6,134.4 132.2,134.1 130.9,133.3 L130.9,129.3 L131.5,129.3 C132,131.1 132.6,133.5 135,133.5 C136.7,133.5 137.6,132.5 137.6,130.8 C137.6,129.4 136.5,128.8 135.4,128.1 C135,127.9 134.6,127.7 134.3,127.5 C133.5,127 132.6,126.6 132,125.9 C131.4,125.3 131,124.5 131,123.3 C131,120.8 133.2,119.6 135.4,119.6 C136.9,119.6 138.3,120.1 139.6,120.6 L139.6,124.2 L138.8,124.2 C138.4,122.2 137.2,120.4 135.2,120.4 C134,120.4 133.2,121.3 133.2,122.5 C133.2,123.6 134.5,124.3 135.3,124.7 C137.4,125.8 140.2,126.9 140.2,129.9 C140.3,133 137.7,134.4 135,134.4 L135,134.4 L135,134.4 Z"></path>
                <path d="M153,127.9 C151.9,128.5 151.1,129.2 151.1,130.1 C151.1,131.3 152,132.3 153.2,132.3 C154.4,132.3 155,131.8 155.9,131.1 L155.9,126.6 C154.9,127.1 153.9,127.5 153,127.9 L153,127.9 Z M158.1,134.4 C157,134.4 156.1,133.4 155.9,132.3 C155.6,132.5 155.3,132.7 155,133 C153.9,133.8 153,134.4 151.5,134.4 C150,134.4 148.6,133.2 148.6,131.6 C148.6,129.7 149.8,128.6 151.3,127.7 C152.1,127.3 152.9,126.9 153.7,126.6 C154.5,126.3 155.2,126 155.8,125.8 L155.8,122.4 C155.8,121.2 155.1,120.9 154,120.9 C152.8,120.9 151.4,121.6 151.4,122.3 L151.4,122.6 L151.4,123 C151.4,124.2 151.1,125.2 149.7,125.2 C149,125.2 148.6,124.5 148.6,124 C148.6,123.2 149.1,122.5 149.8,121.9 C151.2,120.7 153.6,119.7 155.5,119.7 C157.5,119.7 158.5,120.9 158.6,122.9 L158.6,131.5 C158.6,132.1 158.6,132.9 159.2,132.8 C159.6,132.8 159.8,132.3 160,131.7 L160.8,131.7 C160.4,133.4 159.8,134.4 158.1,134.4 L158.1,134.4 L158.1,134.4 Z"></path>
                <path d="M170.4,133.1 C170.7,133.1 170.8,133.1 171,133 L171.4,133 C171.6,133 171.8,132.9 171.9,132.8 C172.1,132.6 172.3,132.3 172.3,131.5 L172.3,124.5 C172.3,122.5 171.2,121.3 169.3,121.3 C168,121.3 166.2,122.6 166.2,124 L166.2,131.6 C166.2,132.4 166.3,132.8 166.5,132.9 C166.6,133 166.8,133.1 167,133.1 C167.1,133.1 167.3,133.1 167.4,133.2 L167.9,133.2 L167.9,134.1 L161.5,134.1 L161.5,133.2 C161.8,133.2 162,133.2 162.1,133.1 L162.5,133.1 C162.7,133.1 162.9,133 163,132.9 C163.2,132.7 163.4,132.4 163.4,131.6 L163.4,123.7 C163.4,122.6 163,122.1 161.9,121.8 L161.9,121.2 C163.4,120.8 164.7,120.2 166.3,119.6 L166.3,121.9 C167.5,120.7 168.6,119.7 170.5,119.7 C172.8,119.7 175.2,121.6 175.2,124.1 L175.2,131.7 C175.2,132.5 175.4,132.9 175.7,133 C176.1,133.3 176.6,133.2 177.1,133.3 L177.1,134.2 L170.6,134.2 L170.4,133.1 L170.4,133.1 Z"></path>
                <path d="M184.9,120.5 C181.8,120.5 180.9,123.8 180.9,126.5 C180.9,131.8 184,132.8 185.3,132.8 C186.5,132.8 187.7,132.2 188.6,131.2 L188.6,124.9 C188.5,121 185.8,120.5 184.9,120.5 L184.9,120.5 Z M188.5,132.3 C187.4,133.6 186,134.3 184.2,134.3 C180.2,134.3 178,130.8 178,127.1 C178,122.8 180.6,119.5 185,119.5 C186.2,119.5 187.4,119.9 188.5,120.4 L188.5,115.6 C188.5,114.9 188.5,114.2 187.8,113.9 C187.4,113.7 187.1,113.7 186.6,113.7 L186.6,113.2 C188.2,112.6 189.6,111.9 191.3,111.3 L191.3,132.2 L193,132.7 L193,133.1 L188.6,134.4 L188.5,132.3 L188.5,132.3 Z"></path>
                <path d="M209.2,112.4 C206.8,112.4 205.9,112.7 205.9,114.6 L205.9,130.8 C205.9,133.1 207.2,133.2 209.7,133.2 C215.7,133.3 219.4,129.2 219.4,123.2 C219.5,116.4 216.2,112.4 209.2,112.4 L209.2,112.4 L209.2,112.4 Z M209.4,134.2 C206.4,134.2 203.3,134 200.2,134 L200.2,133 C201.9,133 202.5,132.9 202.5,131.4 L202.5,114.2 C202.5,112.7 201.5,112.5 200.2,112.6 L200.2,111.6 C203.7,111.6 207,111.4 210.3,111.4 C220.3,111.4 223.5,116.7 223.5,122.9 C223.3,130.5 218.6,134.2 209.4,134.2 L209.4,134.2 L209.4,134.2 Z"></path>
                <path d="M232,120.5 C230.1,120.5 229.1,121.9 228.5,123.6 L234.7,123.6 C234.5,121.9 233.8,120.5 232,120.5 L232,120.5 L232,120.5 Z M232.3,134.4 C228,134.4 225.4,131.4 225.4,127 C225.4,123.1 228.3,119.6 232.3,119.6 C235.5,119.6 238.1,121.2 238.9,124.7 L228.2,124.7 C228.1,125.3 228.1,125.9 228.1,126.4 C228.1,129.7 230.3,132 233.5,132 C235.5,132 237.3,130.8 238.2,128.8 L239,129 C237.9,132.2 235.6,134.4 232.3,134.4 L232.3,134.4 L232.3,134.4 Z"></path>
                <path d="M244.9,134.4 C243.5,134.4 242.1,134.1 240.8,133.3 L240.8,129.3 L241.4,129.3 C241.9,131.1 242.5,133.5 244.9,133.5 C246.6,133.5 247.5,132.5 247.5,130.8 C247.5,129.4 246.4,128.8 245.3,128.1 C244.9,127.9 244.5,127.7 244.2,127.5 C243.4,127 242.5,126.6 241.9,125.9 C241.3,125.3 240.9,124.5 240.9,123.3 C240.9,120.8 243.1,119.6 245.3,119.6 C246.8,119.6 248.2,120.1 249.5,120.6 L249.5,124.2 L248.7,124.2 C248.3,122.2 247.1,120.4 245.1,120.4 C243.9,120.4 243.1,121.3 243.1,122.5 C243.1,123.6 244.4,124.3 245.2,124.7 C247.3,125.8 250.1,126.9 250.1,129.9 C250.2,133 247.6,134.4 244.9,134.4 L244.9,134.4 L244.9,134.4 Z"></path>
                <path d="M255.3,117.5 C256.3,117.5 256.9,116.6 256.9,115.7 C256.9,114.8 256.2,113.9 255.3,113.9 C254.4,113.9 253.6,114.7 253.6,115.7 C253.6,116.7 254.4,117.5 255.3,117.5 L255.3,117.5 Z M252.3,133.9 L252.3,133.9 L258.5,134 L258.5,133.1 L258,133.1 C257.9,133.1 257.7,133.1 257.6,133 C257.4,133 257.3,132.9 257.2,132.8 C257,132.6 256.9,132.3 256.9,131.5 L256.9,119.3 C255.3,119.9 253.9,120.5 252.5,121.1 L252.5,121.6 C252.9,121.7 253.3,121.7 253.6,121.9 C254.1,122.2 254.1,123.2 254.1,123.7 L254.1,131.4 C254.1,132.2 254,132.6 253.8,132.7 C253.7,132.8 253.5,132.9 253.3,132.9 L252.9,132.9 C252.7,132.9 252.6,132.9 252.3,133 L252.3,133.9 L252.3,133.9 L252.3,133.9 Z"></path>
                <path d="M265.5,120.5 C263.5,120.5 262.9,122.7 262.9,124.5 C262.9,126.2 263.5,128.2 265.4,128.2 C267.4,128.2 268,126.2 268,124.4 C268.1,122.6 267.5,120.5 265.5,120.5 L265.5,120.5 L265.5,120.5 Z M265.2,135 C264.1,135 263.1,134.9 262.4,134.7 C261.7,135 260.9,136.3 260.9,137.2 C260.9,140 264,140 266.2,140 C268.2,140 271.3,139.7 271.3,137.2 C271.3,135.6 270.1,135.1 268.6,135 C267.6,135.1 266.4,135.1 265.2,135 L265.2,135 Z M265.5,140.9 C263.6,140.9 258.9,140.7 258.9,137.8 C258.9,136.1 260.1,134.9 261.5,134.3 C260.6,133.7 260.1,132.8 260.1,131.6 C260.1,129.9 261,129.1 262.2,128.4 C260.7,127.5 260.1,126.1 260.1,124.3 C260.1,121.4 262.6,119.6 265.2,119.6 C266.7,119.6 268,120 269.2,120.8 C269.9,120.4 270.9,119.7 271.7,119.7 C272.5,119.7 273.1,120.2 273.1,121.1 C273.1,121.8 272.7,122.2 272,122.2 C271.1,122.2 270.6,121 269.8,121.5 C270.4,122.4 270.7,123 270.7,124.2 C270.7,127.4 268.2,129.2 265.2,129.2 C264.5,129.2 263.8,129 263,128.9 C262.4,129.4 261.6,129.8 261.6,130.7 C261.6,132.3 263.4,132.4 264.5,132.4 L265.8,132.4 C268.5,132.6 273.1,132.6 273.1,136.5 C273.3,140.6 268.4,140.9 265.5,140.9 L265.5,140.9 L265.5,140.9 Z"></path>
                <path d="M283.1,133.1 C283.4,133.1 283.5,133.1 283.7,133 L284.1,133 C284.3,133 284.5,132.9 284.6,132.8 C284.8,132.6 285,132.3 285,131.5 L285,124.5 C285,122.5 283.9,121.3 282,121.3 C280.7,121.3 278.9,122.6 278.9,124 L278.9,131.6 C278.9,132.4 279,132.8 279.2,132.9 C279.3,133 279.5,133.1 279.7,133.1 C279.8,133.1 280,133.1 280.1,133.2 L280.6,133.2 L280.6,134.1 L274.2,134.1 L274.2,133.2 C274.5,133.2 274.7,133.2 274.8,133.1 L275.2,133.1 C275.4,133.1 275.6,133 275.7,132.9 C275.9,132.7 276.1,132.4 276.1,131.6 L276.1,123.7 C276.1,122.6 275.7,122.1 274.6,121.8 L274.6,121.2 C276.1,120.8 277.4,120.2 279,119.6 L279,121.9 C280.2,120.7 281.3,119.7 283.2,119.7 C285.5,119.7 287.9,121.6 287.9,124.1 L287.9,131.7 C287.9,132.5 288.1,132.9 288.4,133 C288.8,133.3 289.3,133.2 289.8,133.3 L289.8,134.2 L283.3,134.2 L283.1,133.1 L283.1,133.1 Z"></path>
            </g>
        </g>
    </g>
</svg>