<?xml version="1.0" encoding="UTF-8"?>
<svg width="180px" height="240px" viewBox="0 0 180 240" version="1.1" xmlns="http://www.w3.org/2000/svg" xmlns:xlink="http://www.w3.org/1999/xlink">
    <!-- Generator: Sketch 43.2 (39069) - http://www.bohemiancoding.com/sketch -->
    <title>malmostad</title>
    <desc>Created with Sketch.</desc>
    <defs></defs>
    <g id="Page-1" stroke="none" stroke-width="1" fill="none" fill-rule="evenodd">
        <g id="malmostad" fill-rule="nonzero" fill="#000000">
            <g>
                <g id="Group" transform="translate(0.000000, 34.000000)">
                    <path d="M166.6,205.8 C165.9,205.5 165.3,205.3 164.7,205 C162.8,204 161.7,202.3 161.1,200.3 C160.3,197.4 160.5,194.5 162,191.7 C164.4,187.4 170.2,186.8 173.1,190.1 L173.1,185.3 L173.1,180.6 L177.4,180.6 L177.4,205.3 L173.7,205.3 C173.6,204.5 173.6,203.8 173.4,202.7 C172.3,204.5 170.8,205.3 169.1,205.7 C168.3,205.8 167.4,205.8 166.6,205.8 Z M173.1,196.8 C173.1,196.8 173,196.8 173.1,196.8 C173,196.2 173,195.6 173,195 C172.9,193.3 171.8,191.9 170.3,191.5 C168.6,191 166.9,191.6 166,193.1 C164.6,195.5 164.5,198 165.9,200.4 C166.7,201.9 168.1,202.4 169.8,202.2 C171.3,202 172.6,200.9 172.9,199.3 C173,198.5 173,197.7 173.1,196.8 Z" id="Shape"></path>
                    <path d="M94.4,205.8 C94.1,205.7 93.8,205.6 93.5,205.5 C89.3,204.4 87.2,200.8 87.4,196.5 C87.4,195.6 87.6,194.7 87.9,193.8 C89,190 92.5,187.8 96.7,188 C101.7,188.3 104.8,192 104.5,197.4 C104.3,201.8 101.9,204.7 97.6,205.6 C97.5,205.6 97.4,205.7 97.3,205.8 L94.4,205.8 Z M91.5,196.9 C91.9,198.2 92.1,199.4 92.6,200.5 C93.2,201.9 94.4,202.7 96,202.7 C97.6,202.7 98.7,201.9 99.3,200.5 C100.5,198.1 100.5,195.5 99.2,193.1 C97.8,190.5 94.2,190.4 92.8,193.1 C92.1,194.2 91.9,195.6 91.5,196.9 Z" id="Shape"></path>
                    <path d="M146.9,205.8 C146.8,205.8 146.8,205.7 146.7,205.7 C144.5,205.1 143.1,203.8 142.8,201.5 C142.5,199 143.4,197.1 145.6,195.9 C147.5,194.8 149.5,194.5 151.6,194.4 C152.8,194.4 153,194.1 152.6,193 C152.1,191.8 151.2,191.3 150,191.2 C148.2,191.1 146.5,191.5 144.8,192.4 C144.5,191.6 144.3,190.8 144.1,190 C144.1,189.8 144.2,189.5 144.4,189.4 C147.4,188 150.6,187.5 153.7,188.8 C155.7,189.6 156.6,191.4 156.9,193.4 C157,194.2 157,195.1 157.1,196 L157.1,205.4 L153.5,205.4 C153.4,204.8 153.3,204.3 153.1,203.5 C152,204.9 150.7,205.4 149.2,205.8 L146.9,205.8 Z M152.8,197.2 C151.1,197.1 149.5,197.2 148.1,198.1 C147.2,198.7 146.9,199.5 147,200.6 C147.1,201.5 147.5,202.2 148.3,202.6 C150.1,203.4 152.5,202 152.8,200.1 C152.9,199.1 152.8,198.2 152.8,197.2 Z" id="Shape"></path>
                    <path d="M33.1,205.8 L33,205.7 C30.4,204.9 29.2,203.4 29,201.1 C28.8,198.6 30.1,196.6 32.4,195.5 C34.1,194.7 35.9,194.4 37.7,194.4 C38.1,194.4 38.5,194.3 38.9,194.3 C39.1,192.5 38.1,191.3 36.2,191.2 C34.4,191 32.7,191.5 31,192.4 C30.7,191.6 30.5,190.8 30.3,190 C30.3,189.8 30.5,189.4 30.7,189.4 C33.5,188.1 36.4,187.7 39.4,188.6 C41.9,189.4 43.3,191.7 43.3,194.7 L43.3,202.5 C43.3,203.5 43.4,204.5 43.5,205.5 L39.7,205.5 C39.6,205 39.5,204.4 39.4,204 C38.1,204.6 36.9,205.3 35.6,205.9 C34.8,205.8 34,205.8 33.1,205.8 Z M39.1,197.2 C37.3,197.2 35.7,197.2 34.2,198.3 C33.3,198.9 33.1,199.9 33.2,200.9 C33.3,201.7 33.8,202.3 34.6,202.6 C36.5,203.3 38.9,201.9 39,199.8 C39.2,199 39.1,198.1 39.1,197.2 Z" id="Shape"></path>
                    <path d="M118.2,205.8 C117.2,205.5 116.1,205.2 115.1,204.9 C114.6,204.8 114.5,204.5 114.7,204 C115,203.2 115.2,202.4 115.4,201.7 C116.7,202 118,202.5 119.3,202.7 C120,202.8 120.7,202.7 121.4,202.5 C122.7,202 123,200.3 121.8,199.5 C121.2,199 120.4,198.8 119.7,198.4 C118.9,198 118,197.6 117.2,197.1 C114.1,195.1 114.7,191.1 117.2,189.4 C120,187.5 123,187.9 126.1,189 C125.8,190 125.6,191 125.3,192 C124.4,191.7 123.6,191.4 122.8,191.3 C122,191.2 121.1,191.2 120.4,191.4 C119.1,191.8 118.9,193.5 120.1,194.2 C120.8,194.6 121.5,194.9 122.3,195.2 C123,195.5 123.8,195.8 124.5,196.2 C126.2,197.2 127,198.7 126.9,200.6 C126.8,202.6 125.8,204.2 123.9,205 C123.1,205.3 122.3,205.5 121.4,205.8 C120.1,205.8 119.1,205.8 118.2,205.8 Z" id="Shape"></path>
                    <path d="M135.5,205.8 C135.4,205.7 135.2,205.7 135.1,205.6 C133.1,205.1 131.9,203.7 131.8,201.8 C131.6,199 131.6,196.1 131.6,193.2 L131.6,191.6 L129.3,191.6 L129.3,188.4 L131.6,188.4 L131.6,185.2 C133,184.8 134.4,184.4 135.9,184 L135.9,188.4 L139.9,188.4 L139.9,191.6 L136,191.6 L136,192.6 L136,198.9 C136,201.8 136.8,202.5 139.8,202 C139.9,202.9 139.9,203.9 139.9,204.8 C139.9,205 139.7,205.2 139.5,205.3 C139.1,205.5 138.6,205.5 138.2,205.6 C137.2,205.8 136.3,205.8 135.5,205.8 Z" id="Shape"></path>
                    <path d="M12.5,199.4 C13.4,196.4 14.2,193.6 15.1,190.8 C16,188.1 17,185.3 17.9,182.6 C18.1,182.1 18.3,181.9 18.8,181.9 L23.7,181.9 C24.2,189.8 24.6,197.6 25,205.4 L20.8,205.4 C20.5,199.1 20.3,192.7 20,186.2 C19.6,187.4 19.4,188.4 19,189.5 C17.3,194.5 15.7,199.5 14,204.6 C13.8,205.1 13.6,205.2 13.1,205.2 C10.5,205.3 10.4,205.3 9.7,202.8 C8.2,197.5 6.7,192.2 5.2,186.9 C5.2,186.8 5.1,186.7 5,186.5 C4.7,192.9 4.4,199.2 4,205.5 L-1.42108547e-14,205.5 C0.5,197.7 1,189.8 1.6,182 L6.8,182 C7,182 7.3,182.3 7.4,182.6 C9,188 10.6,193.4 12.2,198.8 C12.3,198.9 12.4,199.1 12.5,199.4 Z" id="Shape"></path>
                    <path d="M83.3,205.4 L79.2,205.4 L79.2,204.4 L79.2,195.9 C79.2,195.3 79.1,194.6 79,194 C78.6,192.4 77.6,191.5 76.2,191.5 C74.8,191.5 73.5,192.6 73.2,194.1 C73.1,194.6 73,195.2 73,195.8 L73,205.3 L68.9,205.3 L68.9,204.4 L68.9,195.7 C68.9,194.8 68.7,193.9 68.4,193.1 C67.7,191.4 65.8,190.9 64.3,192 C63.1,192.9 62.7,194.1 62.7,195.5 L62.7,205.3 L58.6,205.3 L58.6,188.5 L62.1,188.5 C62.2,189.2 62.2,190 62.3,190.8 C65.5,186.6 70.9,187.6 72.3,191.1 C72.5,190.9 72.7,190.7 72.9,190.4 C74.1,189 75.5,188.1 77.4,188 C80.1,187.8 82.3,189.3 83,192 C83.3,193.1 83.5,194.2 83.5,195.3 C83.6,198.5 83.5,201.7 83.5,204.9 C83.4,205.1 83.4,205.2 83.3,205.4 Z" id="Shape"></path>
                    <path d="M52.9,205.4 L48.7,205.4 L48.7,180.7 L52.9,180.7 L52.9,205.4 Z" id="Shape"></path>
                    <path d="M92.6,182 C93.8,182 94.6,182.9 94.6,184.1 C94.6,185.3 93.8,186.2 92.6,186.2 C91.4,186.2 90.5,185.3 90.5,184 C90.5,182.9 91.4,182 92.6,182 Z" id="Shape"></path>
                    <path d="M99.3,182 C100.5,182 101.4,182.9 101.3,184.1 C101.3,185.3 100.4,186.2 99.2,186.2 C98,186.2 97.2,185.3 97.2,184.1 C97.3,182.9 98.1,182 99.3,182 Z" id="Shape"></path>
                    <path d="M69.5,126.5 C67.6,124.5 65.1,125.2 62.8,125 C64.7,123.9 66.8,124.1 68.9,124.3 C66.6,123.4 64.4,122.4 61.8,123.1 C60.6,123.4 59.8,124.1 59.2,125.2 C59,125.5 58.8,125.9 58.7,126.2 L58.5,126.2 C57.1,124.1 56,121.9 56.2,119.3 C56.4,116.1 58.4,114.1 61.9,113.8 C64.1,113.6 66.3,113.7 68.5,113.7 L69.4,113.7 C68.9,112.2 69.7,111.2 70.5,110.2 C70,109.4 70,108.7 70.6,108 C70.7,107.9 70.7,107.7 70.7,107.6 C70.4,106.8 70.6,106.3 71.3,105.9 C70.8,104.7 70.9,104.4 71.8,103.5 C71.1,102.1 70.4,100.8 69.6,99.4 C67.6,100.4 66.6,98.5 64.9,97.7 C65.8,96.8 66.7,95.9 67.5,95 C67.6,94.9 67.8,94.7 67.8,94.5 C67.8,93.6 68.1,93 68.7,92.3 C69.1,91.9 69.3,91.4 69.7,90.9 C70.5,91.5 71.4,91.9 72,92.7 C72.6,93.5 73.2,94.1 74.2,94.4 C75.1,94.7 75.7,95.5 76.6,96.1 C75.4,96.9 75.2,98.6 73.5,99 C73.7,99.8 73.7,100.6 74.7,100.7 C75.6,100.9 76.2,100.3 76.6,99.6 C77.1,98.8 77.5,97.9 77.2,96.9 C77,96.1 77.5,95.1 78.3,94.7 C79.1,94.3 80.2,94.5 80.9,95.1 C81.5,95.8 81.7,96.9 81.2,97.7 C80.5,98.7 80.7,99.8 81,100.9 C81.7,103 83.9,103.4 85.5,101.6 C83.4,101.1 83.6,98.9 82.5,97.5 C84.1,97.1 85.3,95.6 87.1,96.4 C87.6,94.2 89.9,94.7 91.2,93.3 C91.6,95.1 93.5,96.2 92.6,98.3 C94.6,98.7 94.3,100.9 95.6,102.1 C93.9,102.4 92.6,104.3 90.5,103.3 C90.5,104.5 90.9,105.3 91.8,105.8 C92.7,106.3 93.6,106.2 94.4,105.6 C95,105.2 95.5,104.6 96,104.1 C96.1,103.9 96.2,103.6 96.2,103.4 C96.1,102.1 96.7,101.2 97.9,101.1 C99.1,100.9 100.4,101.8 100.5,103 C100.6,103.9 100.4,104.8 99.5,105.3 C98.7,105.7 98.3,108.2 98.7,108.9 C99.2,109.7 100,109.7 100.8,109 L100.8,104.6 C102.2,104.8 103.7,104.3 104.9,105.6 C106.2,104.2 107.7,105.1 109.2,105 C109.1,106.5 109.6,108.1 108.2,109.2 C108.8,110.5 108.8,110.5 108.4,113.3 C106.8,112.9 104.8,113.9 103.8,111.9 C102.3,112.5 100.9,113.1 99.4,113.8 C99.3,114.1 99.1,114.6 99.1,115 C99.1,115.4 99.4,115.9 99.7,116 C100.4,116.3 101.3,116.4 102.1,116.8 C103.8,117.6 105.4,117.5 107.1,116.9 C107.8,116.7 108.5,116.4 109.2,116.2 C109.6,116.1 110,116 110.4,116 L110.6,116.2 C110.3,116.8 110,117.5 109.7,118 C108.5,119.9 106.6,120.8 104.6,121.6 C103.4,122.1 102.2,122.5 100.8,123 C102.1,123.1 103.3,123.3 104.5,123.4 C107.1,123.7 109.3,124.6 110.9,126.7 C112.3,128.5 113.7,129.2 115.8,127.7 C115.7,131.8 113.5,133.6 108.3,134.2 C109.6,136.2 110.3,138.4 109.7,140.7 C109.4,141.6 108.8,142.4 108.1,143.2 C107.5,141.4 106.5,140.1 104.6,139.3 C104.8,139.8 104.9,140.2 105,140.5 C105.8,142.5 106.2,144.6 105.6,146.8 C105.2,148.3 104.4,149.4 102.9,150.2 C101.8,147.2 100.3,144.6 97.1,143.6 C96.8,147.9 95.7,151.6 91,153.3 C91.4,149.8 89.1,147.7 87.2,145.1 C87.1,149.6 84,150.8 80.5,152 C80.8,150.3 80.3,148.9 79.6,147.5 C78.6,145.5 78,143.5 78.3,141 C77,141.8 75.9,142.7 75.7,144 C75.5,145.2 75.7,146.5 75.7,147.8 C71.7,146.5 69,143.7 70.5,138.5 C69.7,139 69.3,139.8 69.3,140.9 L69.3,143.7 C65.7,141.4 64.7,136.1 68,133.3 C68.5,132.9 69.1,132.5 69.6,132 C70.1,131.6 70.5,131.2 71.2,130.6 C69.5,129.9 68.1,129.2 66.6,128.7 C65.1,128.2 63.5,127.9 61.7,127.5 C62.4,127.1 62.9,126.6 63.4,126.6 C65.1,126.5 66.8,126.6 68.5,126.7 C68.8,126.4 69.2,126.5 69.5,126.5 Z M58.4,124 C60.2,122.2 61.6,121.6 63.5,121.7 C67.1,122 70.3,123.2 72.9,125.8 C73.6,126.5 74.2,127.4 74.8,128.2 C74.7,128.3 74.7,128.4 74.6,128.4 C74.3,128.4 73.9,128.4 73.6,128.3 C71.9,127.9 70.2,127.6 68.6,127.2 C67.1,126.8 65.6,126.6 63.8,126.9 C64,127 64.1,127.1 64.2,127.1 C66.7,127.5 69.1,128.3 71.4,129.3 C73.1,130 74.8,130.5 76.7,130.2 C77.9,130.1 78.1,130.3 78,131.4 C77.2,131.3 76.3,131.1 75.4,131 C74.8,130.9 74.2,130.9 73.7,130.7 C72.6,130.3 71.8,130.4 71,131.4 C70.5,132.1 69.7,132.5 69.1,133.2 C68.5,133.8 67.8,134.5 67.4,135.2 C66.4,136.9 66.9,140 68.4,141.1 C68.3,138.5 69.5,136.5 72,135.6 C72,135.8 71.9,136 71.9,136.1 C71.7,137.8 71.4,139.5 71.3,141.1 C71.2,143.1 72.7,145.1 74.5,145.8 C74.1,143.8 74.7,142.1 76.2,141 C77.6,140 78.4,138.7 79.3,137.3 C80.3,135.7 81.3,134.3 81.3,132.3 C81.5,132.7 81.6,133 81.6,133.4 C81.6,134.8 81.2,136.1 80.5,137.2 C78.9,139.5 78.7,142 79.7,144.5 C80.4,146.4 81.2,148.2 81.9,150.1 C85.4,148.8 86.4,145.9 86.3,142 C87.3,143.3 88.1,144.3 88.9,145.3 C90.4,147 92,148.7 92,151.2 C92.2,151.2 92.2,151.2 92.3,151.1 C92.4,151.1 92.5,151 92.5,151 C94.9,149 95.9,146.3 96,143.3 C96,143 96,142.5 95.8,142.4 C94.4,141.5 93.4,140.3 92.6,138.7 C92,139.5 91.5,140.1 91,140.8 C90,139.8 89.1,138.9 88.3,137.9 C87.5,136.9 87.1,135.7 87.2,134.3 C88,136.2 89,138.1 90.8,139.3 C92.5,138 92.8,136.3 92.9,134.4 C93.1,135.2 93.4,136.1 93.2,136.8 C92.9,137.9 93.3,138.7 94,139.3 C95.3,140.4 96.8,141.6 98.3,142.5 C100.4,143.7 101.9,145.3 103,147.4 C103.1,147.6 103.2,147.8 103.3,148 C104.1,147.5 104.5,146.8 104.5,145.9 C104.6,144.7 104.6,143.5 104.4,142.4 C104.1,140.8 103.5,139.2 103,137.5 C105.2,137.5 106.7,138.8 108.1,140.5 C109.2,138.2 108.4,136.2 107.3,134.4 C106.2,132.6 104.8,131.1 103,129.9 C104.1,130.4 105.3,130.8 106.1,131.6 C107.1,132.6 108.2,132.7 109.4,132.5 C109.8,132.4 110.3,132.4 110.7,132.3 C112.4,131.8 113.6,130.7 114.3,128.8 C112.4,129.8 111.4,128.8 110.4,127.5 C108.7,125.3 106.3,124.3 103.6,124 C101.1,123.7 98.5,123.3 96,122.9 C95.1,122.7 94.2,122.3 93.3,121.9 C93.3,121.8 93.3,121.7 93.4,121.6 C96.2,122.5 98.8,122.1 101.4,121.1 C105.9,119.5 107.9,118.4 108.5,117 C105.8,118.3 103.1,118.3 100.4,117.2 C98.5,116.5 96.6,116.3 94.6,116.2 C93,116.2 91.3,116.1 89.8,117.6 C89.9,116.9 90,116.4 90,115.9 C89.9,115.9 89.8,115.8 89.7,115.7 C84,113.4 78.2,111.5 72.2,110.1 C71.2,109.9 70.7,110.2 70.3,111 C70.2,111.2 70.1,111.5 70,111.7 C69.7,112.8 70.1,113.2 71.2,113.1 C71.8,113 72.5,112.9 72.9,113.1 C74.7,114 76.4,115 78.2,116 C77.9,116.1 77.7,116.2 77.5,116.1 C76.7,115.9 76.1,116.2 75.4,116.6 C74.7,117.1 73.7,117.4 72.8,117.5 C71,117.7 69.9,116.7 69.7,115 C69.7,114.5 69.5,114.2 69,114.2 C66.7,114.1 64.4,113.9 62.2,114 C59.2,114.2 57.4,115.7 56.9,118.2 C56.9,120.5 57.6,122.2 58.4,124 Z M95.1,108.3 L95.1,108.8 C95.2,111.4 96.8,112.9 99.4,112.3 C100.7,112 102,111.2 103.3,110.6 C103.9,110.3 104.2,110.2 104.5,111 C104.7,111.5 105.3,111.9 105.7,112.1 C106.2,112.3 106.7,112.1 107.3,112.1 C107.3,111.1 107.8,110.1 106.9,109.2 C106.8,109.1 106.9,108.6 107,108.5 C108.2,107.8 107.9,106.7 107.9,105.7 C106.8,105.6 105.6,105.3 104.9,106.5 C104.8,106.6 104.4,106.6 104.3,106.5 C103.6,105.3 102.4,105.7 101.2,105.5 C101.3,106.4 101.2,107.4 101.7,108.1 C102.2,108.9 102,109.2 101.4,109.6 C100.9,109.9 100.3,110.2 99.7,110.4 C98.8,110.6 98,110.2 97.6,109.4 C96.9,108 97.6,105.4 98.8,104.4 C99.3,104 99.5,103.5 99.2,102.8 C98.9,102.1 98.3,101.9 97.6,102.1 C97,102.3 96.7,102.8 96.7,103.5 C96.7,103.8 96.7,104.2 96.6,104.3 C95.8,105.1 95,106 94.1,106.6 C92.9,107.3 91.6,107.2 90.5,106.3 C89.4,105.3 89.2,104 89.4,102.6 C89.5,102.1 89.8,102.1 90.2,102.3 C90.8,102.5 91.4,102.6 92,102.5 C92.7,102.4 93.3,102 93.9,101.7 C93.7,101.2 93.5,100.7 93.2,100.3 C92.8,99.8 92.4,99.3 91.9,99 C91.4,98.7 91.4,98.5 91.5,98 C91.6,97.5 91.5,96.8 91.4,96.3 C91.2,95.8 90.9,95.3 90.6,94.7 C90.2,94.9 89.9,95.1 89.6,95.2 C88.7,95.5 88,95.9 87.8,96.9 C87.8,97 87.4,97.3 87.3,97.2 C85.9,96.5 84.9,97.6 83.7,97.9 C84,98.4 84.2,98.8 84.4,99.3 C84.7,100.1 85.2,100.6 86.1,100.8 C86.9,101 87,101.2 86.5,101.9 C85.3,103.7 83.2,104.3 81.6,103.1 C79.9,101.9 79.4,98.9 80.5,97.4 C80.7,97 80.7,96.3 80.5,95.9 C80.2,95.3 79.5,95.1 79,95.5 C78.6,95.7 78.2,96.4 78.3,96.8 C78.6,98.4 78,99.7 77,100.8 C75.7,102.4 74,102.1 73.2,100.2 C73,99.8 72.9,99.3 72.8,98.8 C72.8,98.6 73,98.2 73.1,98.2 C74.4,98.2 74.8,97 75.5,96.3 C74.6,95.7 73.9,94.7 72.6,95.2 C72.5,95.2 72.1,94.9 72.2,94.8 C72.4,93.4 71.2,93 70.3,92.3 C69.7,93.2 68.7,94 69.3,95.2 C69.3,95.3 69.1,95.7 68.9,95.7 C67.7,95.8 67.4,96.9 66.7,97.7 C67.1,98 67.5,98.3 67.8,98.6 C68.4,99 68.9,99.1 69.5,98.7 C70.4,98.2 70.4,98.2 70.7,99.3 C71.1,100.9 71.8,102.3 73,103.4 C74.5,104.7 76.1,104.7 77.6,103.4 C77.9,103.1 78.2,102.8 78.6,102.5 C80.2,106.5 82.7,107.2 87.1,105.1 C88.1,109 91.6,110.3 95.1,108.3 Z M72.7,104.3 C72.5,104.5 72.3,104.6 72.1,104.8 C72.3,105 72.5,105.3 72.7,105.4 C72.9,105.5 73.1,105.5 73.3,105.6 C81.4,107.3 89.1,110.1 96.4,113.7 C96.8,113.9 97.1,114.1 97.5,114.3 C97.6,114.4 97.9,114.3 98,114.2 C98.1,114.1 98.1,113.7 98,113.7 C97.7,113.4 97.3,113.2 97,113 C90.9,109.9 84.5,107.5 78,105.7 C76.3,105.1 74.5,104.7 72.7,104.3 Z M93,115.5 C92.6,115.3 92.3,115.2 92.1,115.1 C88.8,113.8 85.5,112.4 82.1,111.3 C78.9,110.3 75.7,109.5 72.5,108.7 C72.2,108.6 71.8,108.9 71.4,109 C71.7,109.2 72,109.6 72.3,109.7 C78.3,110.9 84.1,112.9 89.8,115.2 C90.7,115.5 91.7,115.8 93,115.5 Z M84,109.1 C82.5,108.6 81.1,108.2 79.8,107.7 C80.2,108.4 81.2,109.1 79.7,109.8 C80.4,110 81,110.2 81.6,110.4 C82.2,110.6 82.8,110.8 83.5,111 C82.7,109.9 82.7,109.9 84,109.1 Z M86.2,112 C87.4,112.4 88.4,112.8 89.7,113.3 C88.8,112.1 90,112.1 90.4,111.6 C89.3,111.1 88.2,110.7 87.1,110.3 C87.7,111.2 87,111.6 86.2,112 Z M92.5,114.5 C93.3,114.9 94.1,115.2 94.6,115.5 C95.2,115.1 95.7,114.7 96.3,114.3 C95.3,113.8 94.4,113.4 93.2,112.8 C93.9,114 93,114.1 92.5,114.5 Z M74.3,108.4 C75.1,108.6 75.9,108.8 77,109 C75.5,107.7 76.8,107.5 77.5,107 C76.3,106.7 75.2,106.4 73.9,106.1 C74.2,107 75.6,107.4 74.3,108.4 Z M72.2,117 C73.5,117.4 74.4,116.9 75.2,116.2 C74.8,115.3 74.1,114.7 73.1,114.6 C73.5,115.9 73.4,116.2 72.2,117 Z M92.5,113 C92.4,112.4 92.1,112 91.4,112 C90.7,112 90.3,112.4 90.3,113 C90.3,113.7 90.7,114.1 91.4,114.1 C92,114.1 92.4,113.7 92.5,113 Z M86.2,110.5 C86.1,109.9 85.8,109.5 85.1,109.5 C84.4,109.5 84.1,109.9 84,110.6 C84,111.3 84.4,111.7 85.1,111.7 C85.8,111.6 86.1,111.2 86.2,110.5 Z M79.4,108.5 C79.4,107.8 79,107.5 78.3,107.5 C77.6,107.5 77.3,107.9 77.2,108.5 C77.2,109.1 77.7,109.7 78.3,109.6 C79.1,109.5 79.4,109.2 79.4,108.5 Z M73.8,107.1 C73.7,106.4 73.4,106 72.7,106 C72,106 71.7,106.4 71.7,107.1 C71.7,107.8 72.1,108.2 72.8,108.2 C73.4,108.2 73.7,107.8 73.8,107.1 Z M87.7,108.1 C87.3,107.3 86.9,106.6 86.6,106 C85.8,106.3 85.1,106.5 84.2,106.8 C85.4,107.3 86.4,107.7 87.7,108.1 Z M73.1,127.2 C73.2,127.1 73.2,127 73.3,126.9 C72.2,126.3 71,125.7 69.9,125.1 C69.9,125.2 69.8,125.3 69.8,125.3 C70.6,126.6 71.6,127.3 73.1,127.2 Z M94.9,111.2 C94.7,110.5 94.5,109.9 94.3,109.4 C93.6,109.6 93.1,109.8 92.3,110 C93.3,110.4 94,110.8 94.9,111.2 Z M78.2,103.6 C77.7,104 77.2,104.3 76.7,104.7 C77.6,104.9 78.4,105.2 79.3,105.4 C78.9,104.6 78.6,104.1 78.2,103.6 Z M96.1,115.6 L98.1,115.6 C97.5,114.6 96.7,114.6 96.1,115.6 Z" id="Shape"></path>
                    <path d="M87.7,28.8 C87.5,27.5 87.9,26.8 89.1,26.5 C90.4,26.1 91.8,26 93.2,25.8 C95.7,25.4 98.1,25.1 100.6,24 C100,25 99.2,25.4 98.4,25.6 C95.9,26.2 93.5,26.7 91,27.2 C90.3,27.4 89.7,27.6 89,27.9 L89,28.1 C89.3,28.2 89.6,28.4 90,28.6 C89.2,28.6 88.4,28.7 87.7,28.8 Z" id="Shape"></path>
                    <path d="M62.5,25.8 C59.6,25.1 59.4,25.1 58.8,26.5 C58.5,26.1 58.1,25.7 58.2,25.5 C58.3,25.2 58.7,24.9 59.1,24.8 C60.3,24.6 61.4,25 62.5,25.8 Z" id="Shape"></path>
                    <path d="M136.8,90.6 C134.5,92.6 131.8,93.5 128.7,93.5 C131.4,92.6 134.1,91.6 136.8,90.6 Z" id="Shape"></path>
                    <path d="M99.7,64.1 C105.4,64.4 107.5,60.8 108.4,56 C108.8,60.1 106.2,65.5 99.7,64.1 Z" id="Shape"></path>
                    <path d="M64.8,1.8 C64.8,2.7 64.2,3.3 63.3,3.4 C62.4,3.4 61.7,2.8 61.7,1.9 C61.7,1 62.4,0.3 63.3,0.3 C64.1,0.3 64.8,0.9 64.8,1.8 Z M63,2.9 L63.4,2.9 C63.6,2.5 64.1,2.1 64,1.8 C64,1.5 63.5,1 63.1,1 C62.5,0.9 62.1,1.4 62.2,1.9 C62.4,2.2 62.8,2.6 63,2.9 Z" id="Shape"></path>
                    <path d="M104.1,14.2 C104.1,15.1 103.4,15.8 102.5,15.7 C101.6,15.7 101,15 101,14.1 C101,13.2 101.7,12.5 102.6,12.6 C103.5,12.7 104.1,13.3 104.1,14.2 Z M101.6,14 L101.6,14.4 C101.9,14.6 102.2,15 102.6,15.1 C103.2,15.2 103.6,14.8 103.5,14.2 C103.5,13.6 103.1,13.2 102.5,13.3 C102.2,13.3 101.9,13.7 101.6,14 Z" id="Shape"></path>
                    <path d="M84,5.9 C83.1,5.9 82.5,5.2 82.5,4.3 C82.5,3.4 83.2,2.8 84,2.8 C84.9,2.8 85.6,3.4 85.6,4.3 C85.5,5.3 84.9,5.9 84,5.9 Z M84.2,3.3 L83.8,3.3 C83.6,3.7 83.2,4 83.1,4.4 C83,5 83.5,5.4 84,5.3 C84.3,5.2 84.8,4.7 84.8,4.4 C84.9,4 84.4,3.7 84.2,3.3 Z" id="Shape"></path>
                    <path d="M93.5,119.3 C92.8,119.1 92.2,118.9 91.6,118.7 C91.6,117.8 92.2,117.4 92.9,117.3 C93.7,117.3 94.4,117.4 95.2,117.6 C97.9,118.2 100.5,118.8 103.1,119.3 C102.6,119.7 101.7,119.7 101,119.5 C99.6,119.3 98.1,119 96.7,118.8 C96.5,118.8 96.2,118.9 96,119.1 C95.1,118.7 94.2,118 93,118.4 C93.1,118.8 93.2,119 93.5,119.3 Z" id="Shape"></path>
                    <path d="M68.9,116.2 C66.6,115.8 66.3,115.8 65.6,117.2 C65.4,116.7 65,116.1 65.1,116 C65.5,115.7 66.1,115.2 66.5,115.3 C67.3,115.4 68.1,115.8 68.9,116.2 Z" id="Shape"></path>
                    <path d="M70.8,97.9 C70.1,97.9 69.5,97.3 69.5,96.5 C69.5,95.7 70.1,95.2 70.9,95.2 C71.6,95.2 72.2,95.8 72.2,96.6 C72.2,97.3 71.5,97.9 70.8,97.9 Z M70.8,95.4 C70.5,96 70.1,96.3 70.1,96.6 C70.1,96.9 70.6,97.1 70.8,97.4 C71.1,97.1 71.5,96.8 71.5,96.5 C71.6,96.2 71.2,95.9 70.8,95.4 Z" id="Shape"></path>
                    <path d="M105.7,108.8 C105.7,109.6 105.1,110.1 104.4,110.1 C103.7,110.1 103,109.5 103.1,108.7 C103.1,108 103.8,107.3 104.5,107.3 C105.2,107.4 105.7,108 105.7,108.8 Z M105.5,108.7 C105,108.3 104.6,107.9 104.4,108 C104.1,108.1 103.9,108.5 103.6,108.8 C103.9,109 104.2,109.5 104.4,109.5 C104.7,109.5 105,109.1 105.5,108.7 Z" id="Shape"></path>
                    <path d="M88.7,100.9 C87.9,100.9 87.4,100.3 87.4,99.5 C87.4,98.7 88,98.2 88.7,98.2 C89.5,98.2 90.1,98.8 90,99.6 C90.1,100.3 89.4,100.9 88.7,100.9 Z M88.8,98.4 C88.4,98.9 88,99.2 88,99.5 C88.1,99.8 88.5,100.1 88.7,100.4 C89,100.1 89.4,99.9 89.4,99.6 C89.5,99.3 89.1,98.9 88.8,98.4 Z" id="Shape"></path>
                </g>
                <path d="M83,0.8 L85.7,0.8 C85.8,0.9 85.9,0.9 86,1 C88.9,1.6 90.7,3.3 91.5,6.1 C91.7,6.7 91.8,7.2 92,7.9 C92.3,7.5 92.5,7.2 92.7,6.9 C94.7,4.1 97.4,2.6 101,2.6 C105.2,2.6 108.9,7.1 106.6,11 C110,11.3 113,12.1 113.7,16 C114.2,18.9 113.4,21.4 110.5,22.5 C111,23.6 111.6,24.6 111.9,25.7 C112.8,29 110.3,32.7 106.7,32.4 L105.1,32.4 C102.3,32.6 100.8,31.3 100.6,28.5 C100.6,28.5 100.5,28.4 100.5,28.3 L100.3,28.3 C97.9,28.6 96.4,30.3 94.9,32 C94.8,32.1 94.8,32.3 94.8,32.5 C94.8,34.1 94.1,35.5 93,36.6 C92.6,37 92.5,37.3 92.5,37.8 C92.4,39.2 92.2,40.6 90.7,41.3 C90.6,41.4 90.5,41.5 90.4,41.6 C90.1,43 89.7,44.4 89.4,45.7 C91.2,45.5 92.7,44 92.8,42.1 C92.9,41 93.6,40.2 94.6,39.9 C95.6,39.7 96.7,40.1 97.2,41 C97.7,41.9 97.5,43.2 96.8,43.8 C95.5,44.7 95.3,46.1 95.3,47.4 C95.3,49.3 96.7,50 98.3,49.1 C98.6,48.9 98.8,48.7 99.1,48.5 C97.5,47 98.4,45.1 98.1,43.3 C99.8,43.9 101.6,42.9 103,44.3 C104.5,42.8 106.3,43.8 108.1,43.3 C107.4,45.1 108.6,47 107.2,48.1 C107.3,49.9 107.4,51.4 107.5,53 C105.5,52.5 103.2,53.7 102.2,51.4 C100.3,52.2 98.5,53 96.7,53.8 C97.3,54.6 96.9,55.3 96.2,56.1 C96.6,56.2 96.9,56.4 97.2,56.4 C99.3,56.1 101.3,55.6 103.1,54.3 C103.4,54 103.8,53.8 104.2,53.5 C104.7,55.3 104.4,57.5 103.4,59.9 C102.2,62.6 100,64 97.3,64.9 C97.9,65.2 98.5,65.4 99.1,65.4 C100.3,65.5 101.5,65.4 102.7,65.6 C104.1,65.8 105.1,66.7 105.6,68.1 C103.7,67.8 102.1,68 100.5,68.9 C103.9,70.1 105.4,72.6 104.3,74.9 C102.9,73.5 101.7,73.1 100.1,73.9 C100.6,74.7 101,75.6 101.6,76.3 C102.1,76.9 102.9,77.4 103.5,78 C104.9,79.4 104.6,81.8 103,82.9 C102.3,81.2 101.9,80.9 100.6,81.2 C101,83.2 101.4,85.2 99.6,86.6 C99,86 98.4,85.5 97.8,84.9 C97.7,85 97.7,85 97.6,85.1 C97.9,85.6 98.3,86.1 98.6,86.6 C99.6,88.1 99.9,89.8 99.5,91.6 C99,93.6 98.8,93.7 97.1,92.6 L96.9,92.6 C97.5,93.8 98.6,94.4 99.9,94.3 C101.1,94.2 102.1,93.4 102.3,92.1 C102.5,91.2 102.4,90.3 102.3,89.4 C102.3,88.4 102.1,87.4 102.2,86.5 C102.4,84.9 103.1,83.4 104.2,82 C105.1,82.8 105.8,83.6 106.7,84.4 C107.2,82.2 108.1,80.2 110.2,79 C110.6,79.7 110.9,80.3 111.3,81 C111.5,80.7 111.6,80.4 111.8,80.2 C113.8,76.5 116.7,74 120.9,73 C122.2,72.7 123.4,72 124.5,71.4 C126.2,70.4 128,69.7 130.1,69.6 C130.9,69.6 131.2,69.9 131.3,70.7 C131.3,72 131.3,73.3 130.3,74.4 L131,74.4 C133.6,74.5 136.1,75 138.5,76.3 C139.3,76.7 140.2,77 141,77.4 C141.7,77.7 142.2,77.6 142.8,77.1 C153.9,68.7 165,60.4 176.1,52.1 C177.4,51.1 178.2,51.2 179.1,52.5 L179.1,202.9 C178.6,203.7 177.9,203.9 176.9,203.9 L131,203.9 C128.9,203.9 128.6,203.5 128.6,201.4 L128.6,135.7 C128.6,135 128.4,134.6 127.9,134.1 C126.3,132.8 124.4,132 122.4,131.8 C120,131.5 117.6,131.5 115.4,130.3 C114.1,129.6 112.9,128.8 111.7,128 C111.6,129.4 111.5,130.9 111.4,132.4 C108.5,131.8 106.6,130.3 106,127.5 C105.7,126.2 105.7,124.7 105.6,123.3 L105.6,122.3 C104,123.4 102.4,123.8 100.8,123.3 C100.9,121 101.1,118.7 101,116.5 C101,114.2 100.6,112 99.7,109.8 C96.8,111.4 93.8,111.2 90.7,110.8 C90.9,111.2 91.1,111.4 91.3,111.6 C101,124.2 110.7,136.8 120.3,149.4 C123,153 124.7,157 125,161.4 C125.4,166.7 123.6,171.3 120.4,175.5 C117,179.9 113.4,184.3 112.3,189.8 C110.9,189.9 109.5,189.9 108.2,190.1 C104,190.9 100.1,192.5 96.2,194.2 C92.5,195.8 88.6,196.7 84.6,196 C79.3,195.1 75.1,192.3 71.8,188.2 C65,179.6 58.4,170.8 51.7,162.1 C51.5,161.9 51.4,161.7 51.1,161.4 L51.1,162.6 L51.1,201.4 C51.1,203.2 50.6,203.7 48.8,203.7 L2.7,203.7 C1.8,203.7 1,203.5 0.5,202.7 L0.5,52.3 C1.4,51 2.2,50.9 3.5,51.9 C19.1,63.6 34.7,75.4 50.3,87.1 C50.9,87.5 51,87.9 51,88.6 L51,134.9 L51,136.1 C58.7,130.2 66.2,124.3 73.7,118.5 C70.9,117.5 70.1,115.8 71.5,113.3 C72.2,112.1 73.1,111 74.2,110.2 C75.1,109.4 75.4,108.6 75.2,107.6 C74.8,105.8 73.8,104.4 72,103.9 C70.7,103.6 69.4,103.3 68.1,103.2 C64.1,102.7 60,102.3 56,101.8 C55,101.7 54.3,101.1 54.1,100.2 C53.9,99.5 53.8,98.7 53.8,98 C53.9,96 54.8,94.1 55.9,92.5 C57.3,90.5 58.9,88.6 60.3,86.6 C60.5,86.3 60.6,85.9 60.5,85.6 C59.2,82.2 61.1,79.8 64.7,80.3 C64.9,80.3 65.3,80.2 65.5,80.1 C67.3,78.1 69,76.1 70.8,74.2 C69.9,74 68.8,73.8 67.8,73.5 C65.7,72.8 63.6,72.1 61.5,71.4 C60.5,71.1 59.5,70.8 58.5,70.5 C58.2,70.4 57.9,70.1 57.7,69.8 C58,69.6 58.2,69.3 58.5,69.1 C58.7,69 58.9,69 59.1,68.9 C60.6,68.5 62.1,68.5 63.6,68.8 C63.9,68.9 64.2,68.9 64.5,69 C64.8,69 65,69.1 65.3,69.1 C63.5,67.6 61.3,68 59.3,67.7 C61,66.9 62.7,67 64.4,67.2 C64.1,67 63.8,66.9 63.5,66.8 C62.3,66.5 61.1,66.1 59.9,66 C57.5,65.8 55.6,66.6 55.1,68.7 C55.1,68.7 55,68.8 54.9,68.8 C54.7,68.7 54.5,68.6 54.4,68.5 C52.4,66.4 51.8,64 52.6,61.2 C53.3,58.6 55.3,57.5 57.7,57.2 C59.2,57 60.8,57 62.3,56.9 C61.2,54.4 63.2,53 64.6,51.5 C63.4,50.4 63.5,49.7 64.8,48.6 C63.8,47.4 63.8,47.4 65.3,46.3 C64.5,45 64.6,44.8 65.4,43.7 C64.5,42.1 63.6,40.5 62.6,38.9 C60.3,40.2 59.1,37.9 57.3,37.3 C57.8,36.6 58.2,36 58.7,35.4 C59.2,34.8 59.7,34.2 60.4,33.5 C59.9,31.7 61.9,30.7 62.3,28.9 C63.5,30.4 65.6,30.5 65.9,32.7 C67.9,32.3 68.8,34.1 70.4,34.6 C69.9,35.4 69.5,36.2 68.9,36.9 C68.4,37.5 67.6,38 66.8,38.7 C67.1,39.1 67.3,39.8 67.8,40.2 C68.2,40.5 68.9,40.6 69.4,40.5 C70.7,40 71.8,37.5 71.4,36.1 C71,35 71.4,33.9 72.4,33.3 C73.4,32.7 74.6,32.9 75.3,33.7 C76,34.5 76.1,35.7 75.4,36.7 C74.4,38.1 75.1,40.8 76.6,41.6 C76.6,40.1 76.8,38.6 77.6,37.3 C77.7,37.2 77.7,37 77.7,37 C77.1,36.4 77.5,35.6 77.5,34.9 C77.5,34.1 77.6,33.3 78,32.7 C78.3,32.2 78.3,31.8 78.2,31.2 C78,29.5 78.2,28 79.6,26.8 C79.8,26.7 79.9,26.4 79.9,26.2 L79.9,21.5 C79.9,21 79.6,20.5 79.3,20.1 C78.9,19.5 78.2,19.7 77.7,20 C77.5,20.1 77.1,20.5 77.2,20.7 C77.5,22.2 77.1,23.3 75.9,24.1 C74.7,25 73.4,24.8 72.1,24.1 C71.8,24 71.5,23.9 71.2,23.9 C69.9,24 69.1,23.5 68.5,22.4 C67.1,19.8 67.6,17.1 69.9,15.2 C70.5,14.7 71.2,14.4 71.8,14 C71.1,11.8 71.5,9.6 73,7.8 C74.6,5.9 77,6 79.3,5.9 L79.3,5.3 C79.4,3.1 80.5,1.6 82.6,0.9 C82.3,1 82.6,0.9 83,0.8 Z M68.3,78.3 C69.8,78.7 70.8,79.7 71.4,81.1 C72,82.4 72.4,83.9 72.8,85.3 C73,86.1 73.4,86.5 74.2,86.7 C74.3,85.5 74.7,84.5 75.7,83.8 C76.7,83.2 77.8,83.4 78.7,83.7 C77.9,81.9 77.1,80.2 76.2,78.4 C75.1,79.2 74,80 72.8,80.8 C71.3,79.4 70.4,77.8 70.8,75.7 L70.5,75.7 C69.9,76.6 69.1,77.4 68.3,78.3 C67.5,79.2 66.6,80.1 65.7,81.1 C66.2,81.4 66.6,81.6 66.8,81.8 C67.1,81 67.3,80.3 67.6,79.5 C67.8,79.1 68.1,78.7 68.3,78.3 Z M126,132.4 C128.4,133.8 129.9,136.1 131.8,138.1 C133.3,136.6 133.4,134.6 132.1,133 C131.3,132 130.4,131.1 129.5,130.2 C130.8,129.7 132.2,129.5 133.5,129.8 C134.7,130.1 135.9,130.4 137.1,130.7 C138.8,131.2 140.4,130.9 141.9,130.5 C141.9,128.2 140,127.8 138.5,127 C139.6,126.1 140.6,125.6 141.9,125.4 C146.3,124.8 149.9,126.3 152.8,129.6 C154.8,131.8 155.9,134.4 155.9,137.5 C155.7,136.9 155.5,136.2 155.3,135.6 C155.1,135 154.8,134.4 154.5,133.9 C153.6,135.5 152.8,137.1 151.8,138.5 C150.1,140.7 147.8,141.7 145,141.1 C143.9,140.9 143.3,140.2 143.1,139.1 C143,138.1 143.4,137.3 144.3,136.8 C144.5,136.7 144.7,136.6 144.9,136.4 C142.9,135.5 140.5,136.3 139.7,138.2 C139.4,139 139.4,140 139.5,140.9 C139.8,142.5 141.3,142.9 142.7,143.4 C142,144 141.4,144.6 140.8,145.1 C139.8,146 138.9,147.1 138.5,148.4 C137.7,151.1 139.5,153.7 142.1,153.8 C143.5,153.9 144.7,153.2 145.2,152.1 C145.7,151 145.5,149.9 144.7,149 L144.7,149.7 C144.6,150.5 144.2,151 143.4,151.2 C142.6,151.4 142,151 141.7,150.4 C141.3,149.7 141.5,149 142.1,148.6 C143.9,147.3 145.6,146.2 147.5,144.9 C147.8,148.6 150.1,150.6 153.4,150.1 C155.7,149.8 157.2,147.1 156.1,145.2 C155.7,145.6 155.4,146.2 155,146.5 C154,147.4 152.5,147.4 151.7,146.6 C150.8,145.7 150.8,144.4 151.8,143.3 C152.4,142.6 153.1,142 153.8,141.4 C160.4,135.4 157.9,125.2 150.7,121.8 C147.8,120.4 144.8,120.4 141.7,120.7 C141.2,120.8 140.7,120.8 140.2,120.9 C139.7,121 139.2,121.1 138.5,121.2 C139.8,119.7 141.7,119 141.9,116.9 C139.6,116.3 137.5,117.3 136.3,119.1 C135.6,120.1 134.7,121 133.8,121.9 C133.5,122.2 133.1,122.3 132.6,122.5 C134.5,119.2 134.1,116.1 131.7,114.9 C131.3,116.4 130.8,117.9 130.6,119.4 C130.3,121.2 129.9,123 128.4,124.2 C126.9,125.5 125.2,126.5 123.1,126.8 C122.2,126.9 121.2,127.1 120.1,127.2 C120.8,127.9 121.4,128.4 122,128.9 C123.3,130 124.6,131 125.9,132.1 C121.4,130.1 117.8,127 115.2,122.9 C115.8,123 116.4,123 117,123.1 L118.9,123.1 C120.8,122.9 122,121.9 122.1,120.3 C120.5,120 118.8,119.9 117.2,119.5 C115.6,119.1 114.2,118.2 113.3,116.8 C114.3,116.5 115.3,116.3 116.2,115.8 C117.1,115.3 117.6,114.4 117.5,113.4 C113.4,113.3 110,112.1 107.6,108.7 C106.8,107.6 105.9,106.6 105.1,105.6 C104.9,105.4 104.6,105.2 104.3,105.2 C103.5,105.1 102.7,105.2 101.8,105.2 C103.6,107.4 104.8,110 105.6,112.7 C105.3,112.3 105,111.9 104.8,111.5 C104,110 103.3,108.5 102.3,107.1 C101.1,105.4 99.6,104 98.2,102.4 C97.5,104.3 97.5,104.3 98.2,105.9 C98.2,106 98.3,106 98.3,106.1 C100.7,110.9 101.9,116 101.2,121.4 C101.1,121.9 101.1,122.5 101,123 C103.9,123 105.4,121.9 105.1,118.1 C105.3,118.5 105.6,119 105.6,119.5 C105.7,121.4 105.8,123.3 105.9,125.2 C105.9,126.5 106,127.9 106.7,129.1 C107.4,130.3 108.4,131.1 109.9,131.5 L109.9,126 C110.7,126.7 111.4,127.4 112.2,128 C114.4,129.8 116.7,131 119.6,131.2 C121.7,131.3 123.7,131.6 125.6,132.5 C125.7,132.5 125.9,132.4 126,132.4 Z M110.4,189.3 C111.1,187.7 111.5,186 112.4,184.6 C114.4,181.6 116.4,178.6 118.6,175.8 C121.8,171.8 123.5,167.4 123.1,162.3 C122.7,157.7 121.1,153.6 118.3,150 C110,139.2 101.8,128.5 93.5,117.7 C91.6,115.2 89.7,112.7 87.7,110.1 C87.4,110.3 87.1,110.5 86.9,110.7 C85.2,112.1 83.5,113.5 81.7,114.8 C79.9,116.1 78,117.1 76.1,118.3 C75.6,118.6 75,118.8 74.5,119.2 C64.2,127.2 53.8,135.2 43.5,143.2 C42.2,144.2 41,145.2 39.7,146.2 C39.9,146.5 40.1,146.8 40.3,147 C48.1,157.2 56,167.4 63.8,177.6 C66.7,181.3 69.4,185.2 72.6,188.7 C78.8,195.6 87,197.7 95.9,193.5 C98.7,192.2 101.7,191.1 104.7,190 C106.6,189.4 108.6,188.9 110.4,189.3 Z M64.2,58.4 C61.7,58 59.2,57.8 56.6,58.4 C52.7,59.3 51.2,64.4 54,67.4 C55.7,65.6 56.8,65.1 59.3,65.4 C63.3,65.8 66.7,67.8 69.7,70.3 C69.8,70.4 69.9,70.6 70.2,71 C67.6,70.6 65.2,70.3 62.9,69.9 C61.4,69.7 59.9,69.5 58.2,70 C58.6,70.1 58.8,70.2 58.9,70.3 C61.1,71 63.3,71.7 65.5,72.4 C68.2,73.3 70.9,73.8 73.7,73.6 C74.4,73.6 75.1,73.5 75.8,73.5 C75.6,73.8 75.3,74 75,74.1 C74.2,74.2 73.5,74.3 72.7,74.4 C72.4,74.5 72,74.6 71.9,74.8 C71.2,76.2 71.5,78.3 72.9,79.6 C74.5,78.3 76.1,76.9 77.8,75.6 C77.7,75.9 77.5,76.2 77.4,76.6 C77.3,76.9 77,77.2 77.1,77.5 C77.7,79.2 78.3,80.8 79,82.5 C80.9,81.2 82.1,79.7 82.6,77.7 C82.8,77.2 82.7,76.6 82.6,76 C82.5,75.4 82.3,74.8 83.1,74.2 C83.7,75.3 84.3,76.3 85,77.4 C85.3,77 85.7,76.6 85.9,76.2 C86.7,74.7 86.6,73 86.4,71.1 C87.9,74.6 87,76.6 84.7,79.1 C84.4,78.6 84,78.1 83.7,77.6 C83.6,77.6 83.5,77.6 83.3,77.7 C83.2,78.7 82.8,79.8 83.1,80.7 C83.9,83 85.8,84.5 87.8,86 C88,85 88.1,84.1 88.2,83.3 C88.2,82.9 88.2,82.5 88.1,82.1 C87.8,81 87.4,79.9 87,78.8 C87.1,78.8 87.1,78.8 87.2,78.7 C88.9,82.2 91.4,85.5 93.6,87.1 C95.1,84.3 94.3,81.4 93.9,78.5 C95.4,80.8 96.2,83.6 99,85.4 C99,84.3 99.1,83.4 99,82.5 C99,82 98.8,81.6 98.7,81.1 C98.6,80.6 98.8,80.4 99.3,80.3 C100.6,80.1 101.7,80.4 102.6,81.3 C103,80.5 102.9,79.8 102.4,79.2 C102,78.8 101.6,78.3 101.1,78 C99.8,77.2 99.1,76.1 98.8,74.8 C98.7,74.6 98.6,74.3 98.5,74.1 C95.5,75 93.4,74.5 92.8,72.7 C94.5,74 96.2,73.8 97.9,73 C99.3,72.4 100.8,72.3 102.3,72.6 C102.5,72.6 102.6,72.6 103,72.7 C101.9,70.1 99.8,69.7 97.5,69.8 C98.9,67.8 100.9,67.4 103,67 C102.4,66.8 101.9,66.6 101.4,66.6 C100.3,66.5 99.2,66.6 98.1,66.6 C97.2,66.6 96.3,66.2 95.7,65.5 C95.4,65.2 95,65 94.5,64.9 C93.3,64.6 92,64.4 90.7,64.2 C93.7,64.2 96.6,64.6 99.3,62.8 C101.9,61.1 103.6,57.2 103,55.3 C101.7,56.4 100.3,57.1 98.7,57.3 C96.7,57.5 94.7,57.6 92.7,57.7 C90.5,57.8 88.2,57.4 86.7,59.6 C86.6,59.5 86.5,59.5 86.4,59.4 C86.5,58.8 86.6,58.3 86.7,57.6 C86.5,57.5 86.2,57.4 85.9,57.3 C83.1,56.4 80.4,55.3 77.5,54.6 C73.7,53.6 69.8,52.8 65.9,52 C65.6,51.9 65.2,51.9 65,52.1 C63.8,52.9 62.9,53.9 62.5,55.3 C62.1,56.6 63,57.7 64.3,57.2 C67.5,56.2 69.7,58.3 72.4,59.4 C70.9,59 70,59.9 69,60.7 C66.7,62.1 64.4,61.1 64.2,58.4 Z M130.7,101.6 C136.7,99.4 138.4,94.5 139.2,89 C139.3,91.7 138.7,94.3 137.6,96.8 C137.8,96.6 138.1,96.4 138.4,96.1 C139.5,98.6 141.7,99.6 143.9,98.8 C145.9,98 147.2,95.3 146.5,93.2 C145.1,94.1 144.4,94.3 143.5,94.1 C142.1,93.8 141.4,92.6 141.8,91.3 C142.7,88.1 142.5,85.1 140.6,82.3 C140.3,81.9 140,81.4 139.7,80.9 C141.3,82.1 143,82.9 144.9,82 C145.9,81.5 146.5,80.6 146.9,79.5 C141.5,79.2 141.5,79.1 136.5,76.8 C135.5,76.3 134.4,76 133.4,75.7 C133.4,75.8 133.3,75.9 133.3,75.9 C136.8,77.5 138.9,80.1 139.1,84 C139,84 139,83.9 139,83.9 C138.9,83.6 138.8,83.3 138.8,83 C137.9,79.4 135.6,77.1 132.1,75.9 C129.9,75.2 127.7,75.2 125.4,75.4 C123.8,75.6 122.2,75.8 120.6,76 L120.6,75.7 C122.7,75.4 124.8,75 126.9,74.8 C129.1,74.6 130.5,72.7 129.9,70.5 C128.5,70.4 127.3,70.9 126.2,71.6 C124.3,72.8 122.3,73.7 120.1,74.3 C117.8,74.9 115.9,76.2 114.4,78.1 C112.4,80.5 111.2,83.1 112.3,86.3 C112.5,85.9 112.7,85.5 112.9,85.1 C115,80.7 119.4,78.1 124.2,78.4 C127.3,78.6 130,80.6 130.8,83.3 C131.2,84.4 130.9,85 129.9,85.6 C128.8,86.2 127.7,86 126.6,84.9 C125.9,84.2 125.1,83.6 124.4,82.9 C123.4,84.6 123.4,86.4 124.3,87.9 C125.2,89.3 126.6,89.5 128,89.3 C128.9,89.2 129.8,88.9 130.7,88.7 C130.7,88.9 130.6,89.1 130.6,89.3 C129.6,92 126.6,93.6 123.8,92.8 C122.4,92.4 120.9,92.1 119.2,92.2 C119.7,93.5 120.1,94.7 120.7,95.8 C121.4,97.1 122.6,97.9 124.2,98 C126.7,98.2 129,97.5 131.1,96.4 C131.3,96.3 131.6,96.2 131.8,96 C130.2,97.4 128.5,98.3 126.4,98.7 C126.1,98.8 125.7,98.8 125.5,99 C122.6,101.3 121,104.2 121.6,108 C122.2,112.2 127.1,114.3 130.5,111.8 C132.5,110.4 132.6,107.4 130.7,106 C130.7,106.3 130.8,106.6 130.8,106.8 C131,108.1 130.4,109.1 129.1,109.5 C126.8,110.4 124.7,108.7 125,106.2 C125.3,104.1 126.7,103.1 128.4,102.3 C128.9,102 129.4,101.7 129.9,101.3 C131.8,99.5 133.3,97.4 133.8,94.6 C134,96.4 133.4,97.9 130.7,101.6 Z M117.7,91.2 C119.8,90.9 121.7,91.3 123.6,91.8 C124.9,92.1 126.2,91.9 127.4,91.3 C127.6,91.2 127.7,91 127.9,90.8 C125.6,91 123.7,90.5 122.7,88.3 C121.6,86 122.1,83.7 123.4,81.4 C124.3,82 125.1,82.5 126,83.1 C126.7,83.6 127.2,84.1 127.9,84.5 C128.2,84.7 128.8,84.6 129.1,84.4 C129.3,84.3 129.3,83.6 129.2,83.3 C128.6,81.7 127.4,80.6 125.7,80 C122.3,78.8 119.2,79.5 116.4,81.7 C115,82.8 114,84.2 113.3,86 C113.6,85.9 113.8,85.9 114,85.9 C114.8,85.6 115.4,85.9 115.5,86.7 C115.6,87.6 115.8,88.5 115.7,89.3 C115.4,91.4 114.4,93.2 113.1,94.8 C112.8,95.2 112.4,95.6 112,96.1 C112.8,96.2 113.5,96.3 114.1,96.4 C114.3,97.8 114,99.1 113.1,100.1 C111,102.5 108.3,102.7 105.4,102.3 C105.8,103.1 106.2,103.8 106.5,104.6 C106.1,104.8 105.9,104.9 105.7,105 C106.6,106.1 107.4,107.2 108.2,108.2 C108.9,109 109.6,109.9 110.5,110.5 C112.7,111.9 115,112.6 117.6,112.3 L118.1,112.3 C118.4,113.5 118.4,114.6 117.8,115.7 C117.2,116.8 116.2,117.2 115,117.6 C116.3,118.1 117.5,118.6 118.8,118.9 C120.1,119.2 121.5,119.3 122.9,119.4 C123,120.5 122.8,121.4 122.2,122.3 C121,124 119.1,124.2 117.1,124.4 C117.7,125.1 118.4,126.1 119.1,126.1 C122.1,126.4 124.8,125.7 127.2,123.8 C127.5,123.6 127.7,123.1 127.7,122.7 L127.7,114.7 C127.7,114.5 127.7,114.2 127.6,114 C125.7,114.1 124,113.8 122.5,112.6 C120.1,110.7 119,106.9 120.3,103.6 C120.9,102 121.9,100.6 122.7,99.1 C119.5,97.7 117.7,95 117.7,91.2 Z M104,83.5 C102.6,85.6 102.2,87.8 102.6,89.9 C102.9,91.5 102.7,93 101.7,94.3 C101.2,95.1 100.4,95.5 99.4,95.5 C96.6,95.5 94.6,93.4 94.7,90.3 C95.6,91.1 96.6,91.9 97.6,92.7 C98.5,91 98.5,89.5 97.6,88 C97,87 96.2,86 95.5,85 C94.9,86.1 94.3,87.2 93.7,88.3 C92.2,86.6 90.7,85.1 89.3,83.6 C89.2,83.6 89.1,83.7 89.1,83.7 C88.9,84.9 88.7,86.2 88.6,87.5 C88.1,87.2 87.7,86.9 87.2,86.6 C86.4,88.4 85.8,90.1 86.4,92 C86.5,92.4 86.8,92.7 87,93.1 C87.4,92.9 87.9,92.7 88.1,92.4 C88.6,91.6 88.9,90.8 89.4,89.8 C89.5,90.1 89.7,90.3 89.7,90.6 C89.9,92.2 90,93.8 90.1,95.4 C90.2,97 90.2,98.6 90.4,100.1 C90.5,101.1 91.1,102 92.5,102.4 C92.7,101.3 93,100.2 93.3,98.9 C93.7,99.9 94,100.7 94.4,101.5 C94.8,102.3 95.4,102.9 96.5,103.1 C96.7,102.3 96.8,101.5 97,100.4 C98.9,103.6 101.4,105.4 105.3,104 C104.4,103 103.5,102 102.7,101 C103.1,101.1 103.5,101.2 103.9,101.2 C105.7,101.6 107.5,101.9 109.4,101.4 C111.5,100.9 113.1,99 113,97 L109.6,97 C109.9,96.7 110.1,96.5 110.3,96.2 C111.9,94.7 113.2,93 114,91 C114.6,89.6 114.9,88.2 114.4,86.7 C112.6,86.6 111.8,88.2 110.2,88.9 C111.1,85.8 111,83 109.3,80.3 C106.8,82.2 106.8,85.1 106.4,87.8 C106,87 105.7,86.2 105.3,85.5 C105,85 104.5,84.3 104,83.5 Z M77.9,36.8 C78.2,37.3 78.6,37.8 78.8,38.4 C79.2,39.3 79.9,39.8 80.8,39.9 C81.6,40 81.7,40.3 81.3,41 C80.4,42.5 79.2,43.5 77.4,43.4 C75.6,43.3 74.5,42.1 73.9,40.5 C73.8,40.1 73.7,39.8 73.6,39.4 C73.4,38.3 73.2,37.2 74.1,36.1 C74.6,35.6 74.4,34.8 73.9,34.3 C73.4,33.8 72.8,33.6 72.1,34 C71.5,34.3 71.2,34.9 71.4,35.6 C71.9,36.9 71.4,37.9 70.9,39 C70.2,40.7 68.9,41.6 67.8,41.5 C66.6,41.4 65.6,40.2 65.2,38.4 L65.2,38.3 C65.1,37.8 65.3,37.5 65.8,37.3 C66.3,37.1 66.8,36.8 67.2,36.5 C67.6,36.1 67.8,35.6 68.2,35.1 L67.6,34.8 C66.8,34.1 66,33.6 64.8,34.1 C64.3,34.3 64.2,33.8 64.1,33.3 C64,32.8 63.7,32.2 63.4,31.8 C63,31.4 62.5,31.1 61.9,30.8 C61.8,31 61.7,31.2 61.6,31.4 C61,32.3 60.4,33.1 60.9,34.3 C61,34.4 60.7,34.9 60.6,34.9 C59.2,35.1 58.9,36.4 58.2,37.3 C58.7,37.6 59.1,37.9 59.5,38.3 C60.2,38.8 60.9,38.8 61.6,38.3 C62.4,37.7 62.6,37.8 62.9,38.8 C63.4,40.5 64.2,42.1 65.5,43.3 C67.4,45.1 69.6,45.1 71.4,43.2 C71.7,42.9 71.9,42.6 72.2,42.3 C74.2,47.2 78.9,47.4 82.2,44.7 C82.8,46.8 83.9,48.5 86,49.3 C88.1,50.1 90,49.6 91.8,48.3 C91.8,48.7 91.8,48.9 91.9,49.2 C92.2,52.1 94.2,53.5 97,52.9 C98.7,52.6 100.1,51.7 101.5,50.6 C102.2,50.1 102.4,50.1 102.7,50.9 C103,51.7 103.5,52.1 104.3,52.2 L106.1,52.2 C106.1,51.4 106.4,50.4 106,49.9 C105.2,48.8 105.4,48.1 106.3,47.1 C106.7,46.6 106.5,45.5 106.6,44.7 L106.1,44.7 C105,44.6 103.8,44.5 103.1,45.8 C103,45.9 102.4,45.9 102.3,45.8 C101.5,44.4 100.1,44.9 98.9,44.8 L98.9,45.5 C98.8,46.5 98.7,47.5 99.7,48.3 C99.8,48.4 99.7,48.9 99.5,49.1 C98.4,50.3 96.7,50.9 95.7,50.4 C94.6,49.9 94,48.4 94.4,46.6 C94.6,45.5 94.8,44.4 95.8,43.6 C96.5,43.1 96.7,42.4 96.3,41.7 C96,41.1 95.2,40.7 94.5,41 C93.7,41.3 93.4,41.8 93.5,42.7 C93.5,43 93.6,43.4 93.4,43.6 C92.7,44.5 92,45.4 91.2,46.1 C89.9,47.1 88.4,47.4 86.9,46.5 C85.3,45.6 84.9,44.1 85,42.4 C85,41.5 85.2,41.5 86.1,41.7 C86.7,41.9 87.5,41.9 88.2,41.8 C88.9,41.6 89.6,41.1 90.3,40.8 C90,40.3 89.7,39.9 89.5,39.4 C89.1,38.5 88.6,37.9 87.6,37.7 C87.1,37.6 87.1,37.3 87.2,36.8 C87.3,36.2 87.4,35.5 87.2,34.9 C87,34.2 86.4,33.5 86,32.9 C85.4,33.2 84.9,33.5 84.4,33.7 C83.6,34 83,34.5 82.9,35.4 C82.8,36 82.5,36.1 81.9,36 C81.3,35.9 80.7,35.9 80.1,36.1 C79.2,36 78.6,36.4 77.9,36.8 Z M61.2,101.7 C61.7,101.8 62.2,101.8 62.7,101.9 C65.7,102.3 68.7,102.5 71.7,103 C72.6,103.2 73.6,103.8 74.3,104.4 C76.1,106.2 76.3,108.9 75.1,111.1 C74.7,111.8 74.4,112.5 74.1,113.2 C74,113.5 74.1,113.9 74.3,114.1 C74.5,114.3 74.9,114.2 75.2,114.1 C76,113.7 76.7,113.3 77.4,112.8 C80.5,110.8 83.6,108.6 86.9,106.7 C89.1,105.4 91.5,104.6 93.8,103.6 C94.1,103.5 94.5,103.4 94.9,103.3 C94.4,102.8 94.1,102.4 93.7,102 C93.6,102.2 93.5,102.3 93.5,102.5 C93,103.5 92.7,103.6 91.8,103 C90.5,102.3 89.9,101.2 89.7,99.8 C89.6,98.8 89.5,97.8 89.4,96.6 C87.1,97.6 84.7,97.8 82.4,96.8 C80.6,96 79.1,96.3 77.3,96.9 C72.1,99.1 66.9,101 61.2,101.7 Z M101,13.1 C100.2,12.7 99.6,12.3 98.8,11.9 C97.1,12.9 96.4,14.8 95,16.2 C95.8,14.7 96.6,13.2 97.8,11.9 C98.6,11.1 98.4,10.4 98,9.4 C94.4,12.4 93.6,16.8 91.4,20.5 C92.7,17.2 94,14 95.5,10.8 C95.8,10.1 96.3,9.6 96.8,9 C97.4,8.4 98,7.9 99,8.2 C99,8.7 98.9,9.2 99,9.6 C99.2,10.2 99.3,10.9 99.8,11.2 C101.7,13 105.6,11.8 106.2,9.2 C106.7,7.2 105.7,5 103.6,4 C100.8,2.6 98.1,3 95.7,4.8 C93.4,6.5 92,8.9 91.1,11.6 C89.9,15.2 88.8,18.8 87.7,22.4 C87.1,24.3 86.5,26.2 85.9,28.2 C87.6,28.8 89.2,29.4 90.8,30 C93.7,24.2 96.3,18 101,13.1 Z M93.1,31.3 C94.2,29.8 95.2,28.2 96.3,26.8 C98.4,24.2 100.5,21.5 103.8,20.4 C103.6,19.8 103.4,19.2 103.2,18.6 C102.2,18.5 101.3,19.1 100.5,19.8 C99.7,20.4 98.9,21.1 98.1,21.8 C99.7,19.4 102.5,17.3 104.9,17.7 C104.7,18.5 104,19.4 104.9,19.9 C105.5,20.3 106.4,20.2 107.2,20.3 C107,20.5 106.7,20.7 106.3,21 C107.7,21.7 109.1,22.1 110.5,21.3 C111.6,20.7 111.5,19.6 111.4,18.6 C111.6,19.1 111.8,19.5 112.1,20 C112.9,18.9 112.9,17.8 112.3,16.7 C112.5,16.8 112.7,17 113,17.2 C113,15.5 112.4,14.2 111.2,13.3 C108.3,11 104.1,11.4 101.5,14.1 C98.6,17.2 96.4,20.7 94.4,24.4 C93.3,26.4 92.3,28.4 91.3,30.4 C91.5,30.5 91.6,30.6 91.7,30.6 C92.1,30.9 92.6,31.1 93.1,31.3 Z M73.9,14.1 L74,14.1 C74,14.2 74.1,14.4 74.1,14.5 C74.5,15.7 75.1,16.2 75.9,16.2 C76.7,16.2 77.2,15.6 77.4,14.4 C77.5,13.7 77.6,13 77.7,12.3 C77.9,11 78.9,10.3 80.1,10.8 C81.5,11.3 83,13.2 83.2,14.8 C83.1,14.6 83,14.4 82.8,14.2 C82.2,13.4 81.6,12.5 80.8,11.8 C79.8,11 78.9,11.5 78.6,12.7 C78.5,13.1 78.5,13.5 78.4,13.8 C78.3,14.3 78.4,14.5 78.9,14.8 C80.2,15.6 81.1,16.8 81.5,18.3 C82,20.2 82,22.1 81.7,24 C81.6,25 81.4,26 81.3,27.1 C82.3,27.4 83.3,27.6 84.3,27.8 C85.7,23.4 86.7,19 86,14.4 C85.7,12.8 85.3,11.3 84.3,10.1 C84.1,9.8 83.7,9.7 83.3,9.5 C82.2,9.1 81,8.9 79.9,8.5 C79.6,8.4 79.3,8.1 79.2,7.8 C79,6.6 78.2,6.7 77.3,6.8 C77,6.8 76.7,6.9 76.4,6.9 C72.3,7.3 71.1,10.9 72,13.8 C72.3,14.8 73,15.3 74,15.4 C73.9,15 73.9,14.6 73.9,14.1 Z M62.4,87.4 C62.5,86.9 62.6,86.3 62.8,85.9 C63.3,84.5 64.3,83.9 65.7,84.4 C66.4,84.6 67.1,84.9 67.6,85.4 C69.7,87.2 71.8,88.9 73.9,90.8 C76.3,93 78.7,95 81.8,96.1 C84.1,96.9 86.4,97.1 88.7,96.2 C88.9,96.1 89.3,95.9 89.3,95.7 C89.4,94.8 89.3,93.9 89.3,92.9 C88.1,93.4 87.4,94.4 85.9,94.3 C83.6,94.1 81.6,93.4 79.8,91.9 C77.3,89.7 76.9,87.6 78.4,84.7 C77.6,84.3 76.8,84.2 76,84.6 C74.6,85.5 75,86.9 75,88.3 C74.3,88 73.8,87.7 73,87.4 C73.2,88.4 73.4,89.3 73.6,90.1 C73.5,90.1 73.4,90.2 73.3,90.2 C72.8,88.9 72.3,87.5 71.8,86.2 C71.4,85 71.1,83.7 70.7,82.4 C70.3,81.2 69.6,80.2 68.5,79.4 C67.4,80.7 67.5,82.2 68,83.8 C67.5,83.5 67.1,83.1 66.7,83 C65.6,82.5 64.4,82 63.2,81.7 C62,81.4 61.1,82 60.6,83.2 C60.2,84.5 60.8,86.2 62.4,87.4 Z M85,6.5 C88.2,9.7 88.1,13.5 87.9,17.3 C87.8,16.8 87.9,16.3 87.8,15.7 C87.5,13.9 87.2,12.1 86.9,10.3 C86.8,9.8 86.4,9.4 86,9 C85.8,8.8 85.4,9 85,9 L85,9.8 C85.4,11 86,12.2 86.3,13.4 C87.2,16.9 86.8,20.4 85.9,23.9 C85.5,25.3 85.2,26.7 84.8,28.1 C84.9,28.2 85,28.2 85.1,28.3 C85.3,28 85.5,27.7 85.6,27.4 C87.2,22.1 88.8,16.7 90.5,11.4 C91.1,9.5 90.9,7.8 90.3,6 C89.3,3.1 86.3,1.3 83.2,1.8 C80.5,2.2 79,4 79.3,6.5 C79.4,7.3 79.6,7.9 80.5,8.1 C80.8,7 81.1,5.9 81.5,4.8 C81.6,5.6 81.4,6.4 81.4,7.1 C81.4,7.8 81.6,8.5 82.5,8.6 C83.7,8.6 84.8,7.9 85,6.5 Z M60.8,87.3 C59.5,89.1 58.2,90.9 56.9,92.8 C56.6,93.2 56.6,93.7 56.5,94.2 C56.3,95.6 56.8,96 58.2,95.8 C62.3,95.3 66.2,93.9 69.9,92.1 C70.7,91.7 71.7,91.4 71.5,90.1 C71.5,90 71.7,89.8 71.8,89.7 C71.1,89 70.4,88.4 69.7,87.8 C68.6,87 67.6,86.1 66.4,85.4 C64.8,84.5 63.5,85.3 63.3,87.1 C63.2,87.7 63.3,88.3 63.3,89.1 C62.4,88.5 61.7,88 60.8,87.3 Z M109.6,30.4 C109.9,30 110.2,29.7 110.5,29.4 C111.8,27.4 111.5,25.2 109.5,23.1 C109.2,22.8 108.8,22.6 108.5,22.6 C107.4,22.4 106.3,22.2 105.4,21.4 C105.2,21.2 104.8,21.2 104.5,21.3 C102.6,21.7 101.1,22.7 99.9,24.1 C97.9,26.5 96,29 94,31.4 C94,31.4 94,31.5 93.9,31.8 C94.2,31.4 94.4,31.2 94.6,31 C96.2,29.4 97.7,27.8 99.3,26.3 C99.9,25.8 100.7,25.5 101.5,26 C102.3,26.5 101.9,27.3 101.8,28 C101.7,28.6 101.7,29.2 101.7,29.8 C101.7,30.1 102.1,30.5 102.3,30.5 C102.5,30.6 102.9,30.3 103.1,30.1 C103.3,29.9 103.5,29.6 103.7,29.3 C103.8,29.3 103.8,29.4 103.9,29.4 C103.8,29.7 103.6,30.1 103.5,30.4 C103.2,31.2 103.6,31.8 104.4,31.6 C105,31.4 105.8,31 106.1,30.5 C107.1,29.1 107.3,27.5 106.4,25.9 C106.2,25.6 106,25.2 105.8,24.7 C107.9,26.2 108.1,28.1 106.6,31.3 C108.2,31.8 108.7,31 109.3,27.8 C109.4,28.7 109.5,29.5 109.6,30.4 Z M70.5,20.2 C70.6,20.2 70.7,20.2 70.8,20.3 L70.8,21.7 C70.9,23.2 71.8,24 73.4,23.8 C75,23.6 75.9,22.6 75.7,21.1 C75.5,20 75.8,19.7 76.8,19.2 C78.3,18.6 79.4,19 79.9,20.6 C80,21 80.1,21.3 80.1,21.7 L80.1,26.8 C80.1,26.8 80.4,26.9 80.7,26.9 C80.8,26.1 81,25.4 81.1,24.7 C81.3,22.4 81.5,20.2 80.7,18 C80.2,16.8 79.5,15.8 78.5,15.4 C77.8,16 77.2,16.8 76.7,16.8 C75.2,16.8 73.6,16.6 72.3,15.7 L72.2,15.6 C71.8,14.8 71.2,15 70.7,15.3 C70.4,15.5 70,15.7 69.7,15.9 C67.7,17.6 67.4,21 69.3,22.5 C69.5,22.7 69.9,22.8 70.2,22.9 C70.3,22.6 70.3,22.3 70.4,21.9 C70.3,21.5 70.4,20.9 70.5,20.2 Z M86.3,31.3 C86.9,33.5 88.2,34.9 90.3,35.5 C90.5,35.5 90.6,35.7 90.8,35.7 C92,36.3 92,36.3 92.8,35.3 C93,35 93.2,34.8 93.3,34.5 C93.9,33.3 93.7,32.7 92.5,32.1 C88.7,30.2 84.7,28.8 80.5,27.9 C79.3,27.6 78.8,27.9 78.5,29.1 C78.3,29.9 78.5,30.7 78.6,31.6 C78.6,31.8 78.9,32 79.1,32 C80,32.2 80.9,32.2 81.7,32.6 C83.2,33.2 84.3,32.7 85.5,31.9 C85.8,31.6 86,31.5 86.3,31.3 Z M73.6,112.1 L73.5,112 C73,112.8 72.4,113.5 72,114.3 C71.5,115.1 71.3,116 71.9,116.8 C72.5,117.6 73.4,117.7 74.4,117.6 C76.3,117.3 78,116.4 79.5,115.3 C81.6,113.8 83.6,112.2 85.5,110.6 C88.9,107.8 92.6,105.9 97.1,106 C96.6,104.8 96.5,104.7 95.2,104.7 C94.8,104.7 94.3,104.8 93.9,104.9 C90.3,105.7 87.1,107.2 84.2,109.4 C81.8,111.2 79.4,113 77,114.7 C76.2,115.2 75.3,115.6 74.3,115.9 C73.4,116.2 72.9,115.8 73,114.8 C73.1,113.8 73.4,112.9 73.6,112.1 Z M70.4,94.3 C69.1,94.9 68,95.4 66.8,95.8 C63.6,97 60.4,97.9 57,98.2 C55.5,98.3 55.1,97.9 55,96.5 L55,96.1 C54.8,96.4 54.7,96.7 54.6,97.1 C53.9,99.9 54.8,101 57.6,101 C60.8,101 63.9,100.1 66.9,99.3 C67.1,99.2 67.3,99.1 67.5,98.9 C68.8,97.7 69.7,96.2 70.4,94.3 Z M85.3,89.4 C85.6,88.3 85.9,87.4 86.2,86.4 C86.3,86.2 86.2,85.8 86,85.7 C84.4,84.5 83.2,83 82.4,81.1 C81.3,82 80.3,83 79.2,83.9 C79.4,84.1 79.5,84.3 79.6,84.4 C78.4,85.8 78.1,86.5 78.1,87.5 C78.1,88.9 78.5,89.4 79.9,89.4 L85.3,89.4 Z M66.1,44.6 C65.7,44.9 65.4,45.1 65.1,45.3 C65.4,45.5 65.7,45.8 66,46 C66.1,46.1 66.2,46.1 66.3,46.1 C74.8,47.4 83,49.9 91,53.1 C92.2,53.6 93.4,54.2 94.7,54.7 C94.9,54.8 95.3,54.6 95.6,54.6 C95.5,54.3 95.5,54 95.3,53.8 C95,53.5 94.6,53.4 94.3,53.3 C89,50.9 83.5,48.9 77.8,47.4 C73.9,46.4 70,45.5 66.1,44.6 Z M79,95.7 C78,95 77.2,94.5 76.5,93.9 C75.5,93.1 74.5,92.2 73.5,91.3 C72.9,90.8 72.5,90.8 72.3,91.6 C72.2,92.2 72,92.8 71.9,93.3 C71.3,95.3 70.3,97.1 69.1,98.9 C72.2,97.8 75.5,96.8 79,95.7 Z M89.9,56.4 C86.9,55.4 84,54.3 81,53.3 C76,51.7 71,50.4 65.9,49.6 C65.4,49.5 64.6,49.3 64.5,50 C64.4,50.8 65.2,50.7 65.7,50.8 C72.7,51.9 79.4,53.8 86,56.2 C87.3,56.7 88.5,57 89.9,56.4 Z M97.9,107.8 C95.6,109 93.1,109.3 90.6,108.8 C89.8,108.6 89.2,109 88.6,109.6 C89,109.9 89.3,110.3 89.7,110.4 C92.3,111 94.8,110.9 97.3,110 C98.4,109.5 98.5,109 97.9,107.8 Z M79.4,90.3 C80.9,92.4 84.2,93.9 86,93.4 C85.8,92.3 85.5,91.3 85.3,90.3 L79.4,90.3 Z M82.5,33.3 C81.5,33.1 80.6,32.9 79.7,32.7 C78.7,32.4 78.2,32.6 77.9,34 C77.8,34.5 77.9,35.1 77.9,35.6 C79.3,35.2 80.5,34.8 81.8,34.4 C81.8,34.5 81.8,34.5 81.9,34.6 C82,34.2 82.2,33.8 82.5,33.3 Z M79.2,49.7 C77.4,49.2 75.8,48.7 74,48.3 C75.2,50 75.2,50 74.3,50.8 C75.6,51.2 76.9,51.5 78.2,51.8 L78.6,51.8 C77.7,50.6 77.7,50.6 79.2,49.7 Z M80.4,40.8 C79.8,40.4 79.2,40.2 78.8,39.7 C78.4,39.3 78.1,38.7 77.7,38.1 L77.4,38.1 C77.2,39.3 77,40.4 76.9,41.6 C76.8,42.2 77.2,42.4 77.7,42.4 C78.9,42.3 79.8,41.8 80.4,40.8 Z M127.8,103.9 C126.2,104.7 125.4,106 125.7,107.3 C126,108.3 126.7,108.8 127.8,108.7 L127.8,103.9 Z M85.8,42.6 C85.8,44 86.5,45 87.9,45.6 C88.7,44.6 89.1,43.4 89.2,42.3 C87.9,42.4 86.9,42.5 85.8,42.6 Z M86.6,52.2 C85.2,51.7 83.8,51.2 82.5,50.8 C82.6,51.3 82.9,51.7 82.8,52.1 C82.7,52.4 82.2,52.7 81.8,53 C83,53.4 84.2,53.8 85.6,54.3 C84.8,52.8 85.9,52.7 86.6,52.2 Z M90.7,39.7 L91,39.7 C91.1,39.1 91.4,38.4 91.4,37.8 C91.4,37.4 91.3,36.9 91,36.7 C90.2,36.2 89.3,35.8 88.3,35.3 C88.2,35.8 88.2,36.2 88.1,36.7 C89.6,37.1 89.9,38.6 90.7,39.7 Z M70.9,50 C69.4,48.7 70.4,48.2 71.5,47.7 C69.9,47.4 68.6,47.1 67.2,46.8 C67.5,47.7 69.3,48.1 67.8,49.4 C68.8,49.6 69.6,49.7 70.9,50 Z M91.6,56.5 C92.3,56 92.9,55.5 93.6,55.1 C92.4,54.6 91.3,54.1 89.9,53.5 C90.8,54.8 89.7,54.9 89.2,55.5 C90,55.8 90.9,56.2 91.6,56.5 Z M89,53.8 C89,53.1 88.4,52.6 87.7,52.6 C87,52.6 86.5,53.1 86.5,53.8 C86.5,54.5 87,55.1 87.7,55 C88.4,55.1 89,54.5 89,53.8 Z M81.6,51.3 C81.6,50.6 81.1,50.1 80.3,50.1 C79.6,50.1 79.1,50.6 79.1,51.3 C79.1,52 79.6,52.5 80.3,52.5 C81.1,52.5 81.7,51.9 81.6,51.3 Z M73.8,49.3 C73.8,48.6 73.3,48.1 72.6,48.1 C71.9,48.1 71.4,48.6 71.4,49.3 C71.4,50 71.9,50.5 72.6,50.6 C73.2,50.5 73.8,50 73.8,49.3 Z M67.2,48 C67.2,47.3 66.6,46.8 65.9,46.8 C65.2,46.8 64.7,47.4 64.7,48.1 C64.7,48.8 65.2,49.3 66,49.3 C66.7,49.2 67.2,48.7 67.2,48 Z M83.2,48.3 C82.7,47.4 82.2,46.7 81.8,46 C80.9,46.3 80,46.7 79,47 C80.5,47.5 81.8,47.9 83.2,48.3 Z M69.3,58.8 C68.6,58.5 67.9,58.2 67.2,57.9 C67.2,58.5 67.3,58.9 67.2,59.3 C67.1,59.6 66.8,59.9 66.6,60.2 C67.7,60.5 68.5,60.1 69.3,58.8 Z M88.8,50.3 C89.8,50.7 90.7,51.1 91.7,51.5 C91.4,50.7 91.2,50.1 91,49.5 C90.4,49.7 89.7,50 88.8,50.3 Z M70.4,44.9 C71.4,45.1 72.4,45.3 73.5,45.6 C73,44.8 72.6,44.3 72.1,43.6 C71.6,44 71,44.4 70.4,44.9 Z M93.2,56.8 C94.1,56.8 94.8,56.7 95.6,56.7 C95.5,55.8 95,55.6 94.4,55.6 C93.8,55.6 93.4,56 93.2,56.8 Z M97.7,28 C97.7,28.1 97.8,28.1 97.8,28.2 C98.8,27.9 99.8,27.6 100.9,27.3 C101.1,26.7 100.6,26.5 100.1,26.7 C99.3,27.1 98.5,27.6 97.7,28 Z M68.1,69.9 C68.1,69.8 68.2,69.7 68.2,69.7 C67.3,69.3 66.3,68.8 65.2,68.3 C65.9,69.8 67,69.9 68.1,69.9 Z" id="Shape"></path>
            </g>
        </g>
    </g>
</svg>