<?xml version="1.0" encoding="UTF-8"?>
<svg width="390px" height="88px" viewBox="0 0 390 88" version="1.1" xmlns="http://www.w3.org/2000/svg" xmlns:xlink="http://www.w3.org/1999/xlink">
    <!-- Generator: Sketch 43.2 (39069) - http://www.bohemiancoding.com/sketch -->
    <title>vasteras</title>
    <desc>Created with Sketch.</desc>
    <defs></defs>
    <g id="Page-1" stroke="none" stroke-width="1" fill="none" fill-rule="evenodd">
        <g id="vasteras" fill-rule="nonzero" fill="#000000">
            <g id="Shape">
                <path d="M197.3,0.1 C200.2,0.6 201.5,2.6 202.5,5.2 C205.2,12.9 208,20.5 210.7,28.1 C211.6,30.7 211.1,32.4 209.1,33.1 C207,33.8 205.3,32.8 204.5,30.2 C203.6,27.3 203.6,27.3 200.5,27.3 L198,27.3 C196.2,27.2 195.1,25.9 195.2,24.2 C195.3,22.5 196.5,21.4 198.2,21.3 L201.7,21.3 C200.2,16.7 198.8,12.2 197.3,7.5 C197,8.3 196.8,8.9 196.6,9.4 C194.4,16.4 192.1,23.3 189.9,30.3 C189.4,31.8 188.8,33.1 187,33.3 C184.1,33.7 182.3,31.4 183.3,28.6 C185,23.8 186.8,19 188.6,14.3 C189.7,11.3 190.9,8.4 191.8,5.4 C192.7,2.7 194.1,0.7 197.1,0.2 C197.1,0.1 197.2,0.1 197.3,0.1 Z"></path>
                <path d="M44.9,0.1 C47.9,0.6 49.2,2.6 50.2,5.3 C52.9,13.1 55.8,20.8 58.5,28.6 C59.5,31.4 58,33.6 55.2,33.2 C54.3,33.1 53.5,32.3 52.7,31.7 C52.5,31.5 52.4,31.1 52.3,30.8 C51.9,29.6 51.7,28 50.9,27.5 C50,26.9 48.5,27.3 47.2,27.3 L45.7,27.3 C43.8,27.2 42.8,26.1 42.8,24.3 C42.8,22.6 44,21.4 45.8,21.4 L49.2,21.4 C47.7,16.8 46.3,12.3 44.7,7.5 C42.9,13.1 41.2,18.3 39.5,23.5 C38.7,25.9 38,28.3 37.2,30.7 C36.4,33.1 34.8,34 32.7,33.3 C30.7,32.6 30,30.9 30.9,28.5 C33.9,20.5 36.9,12.4 39.8,4.4 C40.6,2.1 42.2,0.8 44.6,0.3 C44.8,0.1 44.8,0.1 44.9,0.1 Z"></path>
                <path d="M0.4,2.9 C1.9,-0.1 5.4,0.1 6.6,2 C6.9,2.5 7.1,3.1 7.4,3.6 C9.5,8.8 11.5,14 13.5,19.2 C13.6,19.5 13.7,19.8 14,20.3 C14.7,18.5 15.4,16.9 16,15.4 C17.7,11.1 19.3,6.9 21,2.6 C21.6,1 22.8,0.4 24.4,0.5 C26,0.7 27.3,1.7 27.5,3.2 C27.6,3.9 27.5,4.7 27.2,5.3 C23.9,13.7 20.6,22.1 17.3,30.5 C16.6,32.2 15.7,32.8 13.9,32.8 C12.1,32.8 11.2,32.2 10.5,30.3 C7.3,22.2 4.1,14 0.9,5.9 C0.7,5.5 0.5,5.1 0.3,4.6 C0.4,4.2 0.4,3.5 0.4,2.9 Z"></path>
                <path d="M212.6,0.1 C214.6,1.1 216.2,2.4 216.6,4.9 C217,7.8 215.3,10.4 212.5,11.1 C209.7,11.8 206.8,10.3 205.8,7.7 C204.8,5 205.9,2 208.5,0.7 C208.9,0.5 209.2,0.3 209.6,0.1 L212.6,0.1 Z"></path>
                <path d="M63.9,0.1 C64.6,0.9 65.5,1.7 65.8,2.7 C66.3,4.3 65.3,5.9 63.7,6.4 C62.2,6.9 60.5,6.2 59.8,4.7 C59.1,3.2 59.6,1.5 61,0.6 C61.2,0.4 61.5,0.3 61.7,0.1 L63.9,0.1 Z"></path>
                <path d="M56.1,0.1 C58.3,1.3 59,3.1 58,4.9 C57.3,6.1 56.2,6.7 54.7,6.5 C53.3,6.3 52.4,5.4 52,4 C51.7,2.7 52.1,1.5 53.2,0.7 C53.5,0.5 53.8,0.3 54.1,0.1 L56.1,0.1 Z"></path>
                <path d="M197.6,66.6 C196.5,70.5 195.3,74.5 194.2,78.4 C193.6,80.4 193.1,82.4 192.5,84.4 C191.9,86.5 190.7,87.4 188.7,87.4 C186.7,87.4 185.6,86.5 185,84.5 C183.3,78.8 181.7,73 180,67.3 C179.9,67.1 179.9,66.9 179.5,66.6 C179.2,68.8 178.8,71 178.5,73.2 C177.9,77 177.4,80.7 176.8,84.5 C176.5,86.7 175.1,87.6 173,87.4 C171,87.2 169.8,85.8 170.1,83.7 C170.7,79.6 171.4,75.5 172.1,71.3 C172.8,67.1 173.5,62.9 174.2,58.7 C174.6,56.4 176.2,54.8 178.3,54.7 C180.6,54.5 182.6,55.9 183.3,58.2 C184.9,63.6 186.5,69 188.1,74.4 C188.2,74.7 188.3,75 188.5,75.6 C189.4,72.5 190.3,69.7 191.1,66.9 C192,64 192.8,61.1 193.7,58.2 C194.4,55.8 196.4,54.4 198.8,54.5 C201,54.6 202.5,56.2 203,58.6 C204.4,66.6 205.7,74.6 207,82.6 C207.5,85.8 205.8,87.6 202.8,87.1 C201.2,86.8 200.5,85.8 200.3,84.3 C199.7,79.9 199,75.6 198.4,71.2 C198.2,69.6 197.9,67.9 197.7,66.3 C197.8,66.6 197.7,66.6 197.6,66.6 Z"></path>
                <path d="M371.4,75.7 C373.2,69.7 374.9,64 376.6,58.4 C377.3,55.9 379.2,54.6 381.6,54.7 C383.8,54.8 385.4,56.4 385.8,59 C387.1,67 388.5,75 389.8,83 C390.3,86.1 388.6,87.9 385.6,87.4 C384.1,87.2 383.3,86.2 383.1,84.8 C382.5,81.2 382,77.6 381.5,74.1 C381.1,71.6 380.8,69.1 380.2,66.5 C379.3,69.5 378.5,72.4 377.6,75.4 C376.7,78.4 375.9,81.5 375,84.5 C374.4,86.6 373.2,87.5 371.3,87.5 C369.3,87.5 368.2,86.6 367.5,84.5 C365.9,78.8 364.2,73.1 362.6,67.4 C362.5,67.1 362.4,66.9 362.1,66.6 C361.7,69.2 361.3,71.8 360.9,74.4 C360.4,77.7 360,81 359.5,84.3 C359.1,86.7 357.8,87.7 355.5,87.4 C353.5,87.1 352.5,85.7 352.8,83.4 C353.8,76.8 355,70.1 356.1,63.5 C356.4,61.9 356.6,60.4 356.9,58.8 C357.3,56.4 358.9,54.8 361.1,54.7 C363.4,54.5 365.4,55.9 366.1,58.2 C367.7,63.4 369.2,68.6 370.8,73.8 C371,74.3 371.1,74.8 371.4,75.7 Z"></path>
                <path d="M98.1,74.7 L98.1,73 L98.1,58.4 C98.1,56.1 99.3,54.8 101.4,54.7 C103.5,54.7 104.9,55.9 104.9,58 L104.9,84.2 C104.9,85.6 104.3,86.7 102.9,87.2 C101.4,87.8 99.8,87.3 98.7,85.9 C97,83.8 95.3,81.6 93.6,79.4 C90.6,75.6 87.6,71.7 84.4,67.6 C84.4,68.4 84.3,68.9 84.3,69.4 L84.3,83.7 C84.3,86 83.2,87.2 81.2,87.4 C79,87.6 77.6,86.2 77.5,83.8 L77.5,72.4 L77.5,58.8 C77.5,56.6 78.2,55.4 79.7,54.9 C81.3,54.4 82.9,55 84.2,56.6 C88.5,62.2 92.8,67.8 97.1,73.4 C97.3,73.7 97.6,74 98.1,74.7 Z"></path>
                <path d="M169.8,21.1 C171.8,23.2 173.7,25.3 175.7,27.4 C177.2,29.1 177.2,31.1 175.6,32.4 C174.1,33.7 172,33.4 170.7,31.8 C167.8,28.4 165,25 162.2,21.5 C160.3,19.2 161.4,16.6 164.3,16.2 C167,15.8 168.6,13.9 168.4,11 C168.2,8.5 166.4,6.7 163.7,6.7 L159.2,6.7 L159.2,8.2 L159.2,29.5 C159.2,32.2 157.1,33.8 154.6,32.8 C153.7,32.5 153.1,31.4 152.6,30.6 C152.3,30.1 152.4,29.3 152.4,28.7 L152.4,5 C152.4,1.6 153.4,0.5 156.9,0.6 C159.9,0.6 162.9,0.5 165.8,0.8 C170.8,1.3 174.3,4.4 175.3,8.9 C176.4,13.7 174.6,18 170.3,20.7 C170,20.8 169.9,21 169.8,21.1 Z"></path>
                <path d="M244.4,66.8 C244.4,70.2 244.8,73.6 244.3,76.9 C243.3,83.4 237,88.1 230.4,87.6 C222.9,87.1 217.5,82.1 217.3,75.1 C217.1,69.5 217.2,64 217.2,58.4 C217.2,55.9 218.5,54.7 220.7,54.6 C222.9,54.6 224.3,55.9 224.3,58.1 L224.3,73 C224.3,74.1 224.4,75.1 224.6,76.2 C225.3,79.3 227.9,81.2 231.1,81.1 C234.3,81 236.8,78.7 237.3,75.5 C237.4,74.7 237.5,73.8 237.5,73 L237.5,58.3 C237.5,55.5 239.9,53.9 242.5,54.9 C244,55.5 244.6,56.6 244.6,58.1 L244.6,66.7 C244.6,66.8 244.5,66.8 244.4,66.8 Z"></path>
                <path d="M343,66.8 L343,74.5 C343,82 336.5,88.1 329,87.7 C322.1,87.3 317,83.1 315.8,76.7 C315.6,75.8 315.6,74.9 315.6,73.9 L315.6,58.3 C315.6,56.9 316.1,55.7 317.4,55.1 C318.7,54.5 320,54.5 321.3,55.2 C322.6,56 322.8,57.2 322.8,58.6 L322.8,73.2 C322.8,73.9 322.8,74.6 322.9,75.3 C323.3,78.8 325.7,81.1 329.2,81.2 C332.6,81.3 335.3,79 335.7,75.6 C335.9,73.7 335.9,71.7 335.9,69.8 L335.9,58.4 C335.9,56.1 337.2,54.8 339.4,54.8 C341.7,54.8 343,56.1 343,58.4 C343,61.1 343,64 343,66.8 Z"></path>
                <path d="M9.8,67.7 C13.4,63.8 16.8,60.2 20.2,56.7 C21.1,55.7 22,54.7 23.6,54.7 C24.9,54.7 25.9,55.3 26.6,56.4 C27.2,57.5 27.2,58.7 26.4,59.7 C25.4,60.9 24.3,62 23.3,63.1 C21.1,65.4 18.8,67.8 16.5,70.2 C19.7,73.6 23.1,77.1 26.5,80.6 C27,81.1 27.5,81.6 27.9,82.2 C29,83.7 28.9,85.5 27.8,86.5 C26.6,87.7 24.4,87.8 23.1,86.6 C21.5,85.1 20,83.4 18.5,81.8 C15.8,78.9 13.1,75.9 10.2,72.9 C10.1,73.4 10.1,73.8 10.1,74.1 L10.1,83.8 C10.1,86 8.8,87.4 6.7,87.4 C4.5,87.4 3.3,86.1 3.3,83.8 L3.3,58.5 C3.3,56.1 4.5,54.7 6.8,54.7 C9,54.7 10.1,56 10.2,58.4 C9.9,61.3 9.8,64.3 9.8,67.7 Z"></path>
                <path d="M264.6,87.8 C262.3,87.3 260,86.9 257.7,86.4 C256.8,86.2 256,85.6 255.3,85 C254.1,84 253.9,82.3 254.6,80.9 C255.2,79.7 256.5,79.1 258.1,79.5 C259.4,79.8 260.6,80.4 261.8,80.6 C263.4,80.8 265,81 266.6,80.8 C268.3,80.5 269.3,79.1 269.4,77.5 C269.5,75.8 268.4,75 267,74.5 C265.6,74 264.2,73.6 262.8,73.1 C262,72.9 261.3,72.7 260.5,72.4 C257.2,71.2 254.6,69.4 254.3,65.5 C254,61.5 255.5,58.3 259,56.2 C263.3,53.7 267.7,54 272.1,56.1 C272.9,56.5 273.8,57.5 274,58.4 C274.7,60.7 272.6,62.6 270.2,62 C268.9,61.7 267.6,61 266.3,60.9 C265.1,60.8 263.7,61 262.6,61.5 C260.9,62.4 261,64.7 262.7,65.6 C263.6,66.1 264.6,66.4 265.5,66.7 C267.2,67.3 268.9,67.7 270.5,68.4 C274,69.8 276.1,72.3 276.4,76.1 C276.6,80.1 275.2,83.3 271.8,85.5 C269.8,87 267.3,87.6 264.6,87.8 Z"></path>
                <path d="M76.1,33.4 C74.8,33.1 72.1,32.6 69.6,31.7 C67.7,31 67,29.6 67.2,27.9 C67.4,26.2 68.6,25.1 70.3,25.3 C71.4,25.4 72.5,25.8 73.6,26.2 C75.4,26.7 77.2,27.4 79.2,26.8 C79.9,26.6 80.7,26.2 81.2,25.7 C82.9,24.1 82.6,21.7 80.5,20.6 C79.1,19.9 77.6,19.5 76.1,19 C75,18.6 73.9,18.3 72.8,17.9 C66.8,15.5 65.2,8.6 69.7,3.8 C74.3,-1.1 82,-0.2 85.5,2.1 C87.1,3.1 87.5,4.6 86.8,6.2 C86.2,7.7 84.8,8.3 83,7.8 C82,7.5 81,7 79.9,6.9 C78.6,6.8 77.2,6.9 76,7.2 C75,7.5 74.2,8.5 74.5,9.6 C74.7,10.4 75.3,11.3 76,11.7 C77.5,12.4 79.1,12.8 80.7,13.4 C81.7,13.7 82.7,14.1 83.7,14.5 C87.1,15.9 89.2,18.3 89.4,22 C89.7,25.7 88.5,28.8 85.4,31.1 C83,32.9 80.3,33.4 76.1,33.4 Z"></path>
                <path d="M229.1,33.4 C227.9,33.2 225.8,32.9 223.7,32.3 C222.6,32 221.5,31.3 220.7,30.5 C219.7,29.6 219.6,27.9 220.3,26.8 C221,25.6 222.1,25.2 223.4,25.4 C224.6,25.6 225.8,26.2 227,26.4 C228.5,26.7 230.1,27 231.6,26.9 C233.7,26.7 234.9,25.3 235,23.6 C235.1,21.9 234.5,20.9 232.3,20.1 C230.8,19.6 229.3,19.2 227.8,18.7 C227,18.5 226.3,18.2 225.6,17.9 C219.4,15.4 218,7.9 223,3.3 C227.7,-1 234.8,-0.1 238.2,2 C239.8,3 240.3,4.6 239.6,6.2 C238.9,7.7 237.6,8.2 235.7,7.7 C234.7,7.4 233.7,6.8 232.7,6.8 C231.4,6.7 229.9,6.7 228.7,7.2 C226.7,8.1 226.8,10.6 228.7,11.5 C229.9,12.1 231.3,12.5 232.6,12.9 C233.9,13.4 235.3,13.7 236.5,14.3 C239.7,15.6 241.9,17.9 242.2,21.5 C242.6,25.4 241.3,28.6 238.1,31 C235.6,32.9 232.9,33.4 229.1,33.4 Z"></path>
                <path d="M126.1,87.9 C123.4,87.2 120.7,86.6 118.1,85.8 C117.3,85.5 116.5,84.7 116,83.9 C115.3,82.8 115.6,81.5 116.4,80.5 C117.2,79.4 118.4,79.2 119.7,79.6 C121.3,80 122.8,80.7 124.4,80.9 C125.8,81.1 127.4,81 128.7,80.6 C130.1,80.2 130.9,78.9 130.9,77.4 C131,75.9 130,75.1 128.8,74.6 C127.6,74.1 126.4,73.7 125.1,73.3 C123.9,72.9 122.7,72.6 121.5,72.2 C118.6,71.1 116.3,69.4 115.9,66.1 C115.4,62.5 116.5,59.3 119.4,56.9 C123.1,54 129.8,53.6 133.8,56.1 C135.5,57.1 136.1,58.7 135.4,60.4 C134.7,62 133.3,62.5 131.3,62 C130.2,61.7 129.1,61.1 128,61.1 C126.8,61 125.5,61.1 124.5,61.6 C123.8,61.9 123.1,63.1 123.1,63.9 C123.1,64.6 123.8,65.6 124.5,66 C125.6,66.6 126.9,66.9 128.1,67.4 C129.6,67.9 131.1,68.4 132.6,69 C139.9,72 139,81.3 134.9,84.8 C132.4,86.9 129.4,87.8 126.2,87.8 C126.2,87.7 126.2,87.8 126.1,87.9 Z"></path>
                <path d="M294,61.3 L294,67.8 L299.6,67.8 C301.8,67.8 303.1,68.9 303.1,70.8 C303.1,72.8 301.8,74 299.6,74 L294,74 L294,80.8 L302.9,80.8 C304.7,80.8 305.9,81.8 306.1,83.5 C306.3,85.3 305.2,87 303.4,87 C299,87.1 294.5,87.1 290,87 C288.3,87 287.3,85.8 287.1,84.1 C287,83.5 287,82.9 287,82.3 L287,60.3 C287,59.5 287,58.7 287.1,57.9 C287.3,55.9 288.5,54.8 290.5,54.8 L302.3,54.8 C304.3,54.8 305.5,55.9 305.6,57.8 C305.7,59.7 304.4,61 302.4,61.1 C300.1,61.2 297.8,61.1 295.4,61.1 C295.1,61.2 294.6,61.3 294,61.3 Z"></path>
                <path d="M130.8,7.1 L130.8,13.6 L136.3,13.6 C137.5,13.6 138.6,13.8 139.4,14.9 C140.1,15.9 140.2,17 139.7,18.1 C139.2,19.3 138.2,19.9 137,19.9 L130.9,19.9 L130.9,26.6 C131.4,26.6 131.9,26.7 132.3,26.7 L139.7,26.7 C141.7,26.7 143,28 143,29.9 C143,31.8 141.6,33 139.6,33 L127.5,33 C125.2,33 124,31.8 124,29.5 L124,4.7 C124,2.2 125.2,0.9 127.6,0.9 C131.5,0.8 135.4,0.8 139.3,0.9 C141.3,0.9 142.5,2 142.6,3.8 C142.7,5.8 141.6,7.1 139.6,7.2 C137.2,7.3 134.9,7.2 132.5,7.2 C131.9,7.1 131.4,7.1 130.8,7.1 Z"></path>
                <path d="M150.5,61.2 L145.9,61.2 C143.7,61.2 142.5,60 142.5,58 C142.5,56.1 143.8,54.9 146,54.9 L161.9,54.9 C164,54.9 165.3,56.1 165.4,58 C165.4,60 164.2,61.1 162,61.1 L157.4,61.1 L157.4,62.8 L157.4,83.5 C157.4,86.2 155.6,87.7 153.1,87.1 C151.5,86.7 150.6,85.5 150.6,83.4 L150.6,62.8 C150.5,62.5 150.5,61.9 150.5,61.2 Z"></path>
                <path d="M101.7,7.1 L96.9,7.1 C94.8,7.1 93.7,6 93.6,4.1 C93.5,2.2 94.8,0.8 96.8,0.8 C102.3,0.7 107.7,0.7 113.2,0.8 C115.2,0.8 116.5,2.2 116.4,4 C116.4,5.9 115.1,7 113,7.1 L108.3,7.1 L108.3,8.8 L108.3,29.7 C108.3,31.9 107.1,33.2 105.1,33.3 C102.9,33.4 101.6,32.1 101.6,29.8 L101.6,8.9 C101.7,8.3 101.7,7.8 101.7,7.1 Z"></path>
                <path d="M50.8,54.1 C62.3,54.1 70.5,65.5 66.6,76.4 C66.3,77.3 65.8,78.3 65.2,79.1 C64.3,80.3 62.9,80.6 61.6,80.1 C60.3,79.5 59.4,78.2 59.6,76.8 C59.7,76 60,75.2 60.2,74.4 C61.4,70.5 60.7,67 57.8,64 C54.9,61 51.4,60.3 47.5,61.4 C46.8,61.6 46.1,61.9 45.4,62 C43.7,62.3 42.2,61.6 41.6,60.2 C41,58.8 41.5,57.2 42.9,56.2 C45.4,54.5 48.1,54 50.8,54.1 Z"></path>
                <path d="M50.6,87.8 C40.4,88.4 30.6,77.9 34.7,65.6 C35,64.6 35.6,63.7 36.2,62.8 C37.1,61.7 38.3,61.5 39.6,62 C40.8,62.4 41.7,63.7 41.6,65 C41.5,66 41.2,67 40.9,67.9 C39.1,73.7 42.5,79.6 48.4,81 C50.8,81.5 53.1,81 55.3,80.2 C57.2,79.6 58.8,80.3 59.5,81.8 C60.2,83.4 59.7,85 57.9,86 C55.7,87.5 53.1,88 50.6,87.8 Z"></path>
            </g>
        </g>
    </g>
</svg>