<?xml version="1.0" encoding="UTF-8"?>
<svg width="174px" height="195px" viewBox="0 0 174 195" version="1.1" xmlns="http://www.w3.org/2000/svg" xmlns:xlink="http://www.w3.org/1999/xlink">
    <!-- Generator: Sketch 43.2 (39069) - http://www.bohemiancoding.com/sketch -->
    <title>wahlstrom</title>
    <desc>Created with Sketch.</desc>
    <defs></defs>
    <g id="Page-1" stroke="none" stroke-width="1" fill="none" fill-rule="evenodd">
        <g id="wahlstrom" fill-rule="nonzero" fill="#231F20">
            <g>
                <g id="Group" transform="translate(0.000000, 7.000000)">
                    <path d="M110.7,184.5 C111.5,182.4 112.3,180.3 113.1,178.2 C113.4,177.3 113.1,177 112.1,176.8 C111.9,176.8 111.6,176.6 111.4,176.5 C111.6,176.4 111.9,176.3 112.1,176.3 L115.2,176.3 C115.4,176.3 115.6,176.3 115.9,176.4 L115.9,176.6 C115.7,176.7 115.6,176.8 115.4,176.8 C114.6,176.9 114.2,177.3 113.9,178 C112.7,181 111.5,184 110.3,186.9 C110.2,187.1 110,187.3 109.9,187.5 C109.7,187.3 109.5,187.1 109.4,186.9 C108.7,184.6 107.9,182.2 107.2,179.7 C107,179.9 106.9,180 106.9,180.2 C106,182.5 105,184.7 104.1,187 C104,187.2 103.8,187.4 103.6,187.6 C103.4,187.4 103.2,187.2 103.1,187 C102.1,184.1 101.1,181.2 100.1,178.3 C99.8,177.5 99.5,176.8 98.4,176.8 C98.3,176.8 98.2,176.7 98.1,176.6 C98.3,176.5 98.5,176.4 98.6,176.4 L102.9,176.4 C103,176.4 103.2,176.5 103.3,176.6 C103.2,176.7 103,176.9 102.9,176.9 C101.7,177.1 101.5,177.3 101.9,178.5 C102.6,180.6 103.4,182.8 104.1,184.9 L104.3,184.9 C105,183.1 105.7,181.3 106.4,179.5 C106.6,179 106.5,178.5 106.5,178 C106.4,177.3 106,176.9 105.2,176.9 C105.1,176.9 104.9,176.8 104.8,176.6 C104.9,176.5 105.1,176.4 105.2,176.4 L109.2,176.4 C109.3,176.4 109.5,176.6 109.6,176.6 C109.5,176.7 109.4,176.8 109.2,176.8 C107.9,177 107.9,177.1 108.3,178.4 C108.9,180.5 109.6,182.5 110.3,184.6 C110.5,184.5 110.6,184.5 110.7,184.5 Z" id="Shape"></path>
                    <path d="M9.7,179.8 C8.8,181.9 8,184 7.1,186 C7,186.3 6.9,186.6 6.8,186.8 C6.7,187 6.5,187.2 6.3,187.4 C6.1,187.2 5.9,187.1 5.8,186.8 C4.9,184.2 4,181.7 3.1,179.1 C2.7,178 2.7,176.5 0.8,176.5 C1.2,176.1 4.1,175.9 6,176.3 C5.8,176.4 5.7,176.5 5.5,176.5 C4.4,176.6 4.2,176.9 4.5,177.9 C5.2,180.1 6,182.3 6.7,184.4 L6.9,184.4 C7.2,183.7 7.5,183 7.8,182.3 C8.2,181.2 8.7,180.1 9,179 C9.1,178.5 9.1,177.9 9,177.4 C8.9,176.8 8.5,176.5 7.9,176.5 C7.7,176.5 7.6,176.4 7.4,176.2 C7.5,176.1 7.7,176 7.8,176 L11.8,176 C12,176 12.1,176.1 12.3,176.2 C12.2,176.3 12,176.4 11.9,176.5 C10.8,176.7 10.6,176.8 11,177.9 C11.7,180 12.4,182.1 13.1,184.5 C13.5,183.6 13.8,182.9 14,182.3 C14.5,180.9 15.1,179.5 15.6,178.1 C15.9,177.1 15.6,176.8 14.7,176.6 C14.5,176.6 14.3,176.6 14.2,176.5 C14.1,176.5 14,176.3 14,176.2 C14,176.1 14.1,176 14.2,176 L18.5,176 C18.5,176.1 18.5,176.2 18.6,176.3 C18.5,176.4 18.3,176.5 18.2,176.5 C17.4,176.6 17,177 16.7,177.7 C15.5,180.6 14.3,183.6 13.1,186.6 C13,186.9 12.8,187.1 12.6,187.3 C12.4,187.1 12.2,186.9 12.1,186.6 C11.4,184.3 10.7,182 10,179.7 C9.8,179.8 9.7,179.8 9.7,179.8 Z" id="Shape"></path>
                    <path d="M85.3,180.6 C85.2,180.5 85.1,180.4 85,180.2 C83.9,178.9 84,177.8 85.2,176.6 C86.5,175.4 87.6,175.3 88.6,176.3 C89.5,177.2 89.5,178.4 88.5,179.2 C88.1,179.5 87.7,179.8 87.5,179.9 C88.5,180.8 89.4,181.8 90.4,182.8 C90.7,182.3 91.3,181.5 91.8,180.7 C92.2,180 92.1,179.8 91.3,179.5 C91.2,179.5 91.1,179.4 91,179.2 L95.2,179.2 L95.2,179.4 C95.1,179.5 95,179.6 94.9,179.6 C93.6,179.8 92.7,180.6 92,181.5 C91.7,181.9 91.4,182.4 91,182.8 C90.3,183.4 90.5,184 91,184.5 C91.3,184.9 91.6,185.3 92,185.6 C92.8,186.3 93.7,186.4 94.6,185.9 C94.7,185.8 94.9,185.8 95.1,185.7 C94.8,186.7 93.5,187.4 92.3,187.3 C91.4,187.2 90.7,187 90.3,186.1 C90.1,185.6 89.8,185.2 89.5,184.8 C88.9,185.4 88.4,185.9 87.8,186.4 C86.8,187.1 85.8,187.6 84.5,187.3 C83.3,187.1 82.5,186.4 82.1,185.2 C81.7,184 82,182.9 82.9,182.1 C83.7,181.6 84.6,181.2 85.3,180.6 Z M89.4,184.5 C88.5,183 87.4,182 86.1,181.1 C86,181 85.8,181 85.6,181 C84.2,181.3 83.3,183.1 83.8,184.5 C84.3,186 85.9,186.7 87.3,186 C88,185.7 88.7,185.1 89.4,184.5 Z M88.3,178.2 C88.1,177.8 87.9,177.3 87.5,177 C87,176.5 86.4,176.5 85.8,176.8 C85.2,177.1 85.1,177.7 85.3,178.2 C85.6,178.8 86.2,179.3 86.7,179.8 C86.8,179.9 86.9,179.9 87,179.8 C87.6,179.8 88.1,178.9 88.3,178.2 Z" id="Shape"></path>
                    <path d="M76.4,11.2 C73.7,11.2 72.4,9.8 72.7,7.6 C72.8,7.1 73.1,6.6 73.5,6.1 C74.3,5.1 74.3,5 73.6,4 C73.4,3.7 73.3,3.2 73.4,2.8 C73.6,1.4 74.4,0.6 75.7,0.3 C76.9,1.45716772e-14 77.9,0.5 78.7,1.3 C79.3,1.9 79.4,2.6 79.1,3.4 C79,3.7 78.9,4 78.7,4.3 C78.5,4.8 78.5,5.2 78.9,5.6 C79.8,6.5 80.1,8.2 79.5,9.4 C78.7,10.7 77.4,11.1 76.4,11.2 Z M78.1,8 C78.1,6.9 77.2,5.9 76.2,5.9 C75.4,5.9 74.5,7 74.5,7.9 C74.5,8.9 75.4,10 76.4,10 C77.3,10 78.1,9.2 78.1,8 Z M77.5,2.6 C77.5,2.1 76.9,1.5 76.4,1.5 C75.7,1.5 75.1,2.2 75.2,3 C75.2,3.6 75.8,4.1 76.4,4.1 C77,4.1 77.5,3.4 77.5,2.6 Z" id="Shape"></path>
                    <path d="M89,5.2 C88.8,5 88.7,4.9 88.6,4.7 C87.7,3.6 87.8,2.3 88.8,1.4 C89.9,0.5 91.1,-5.55111512e-17 92.5,0.6 C94.2,1.3 94.7,2.9 93.6,4.4 C93.1,5.1 93.1,5.6 93.7,6.3 C95.2,8.1 94.3,10.8 92,11.2 C91.2,11.4 90.2,11.3 89.4,11 C87.6,10.3 87.1,8.4 88.1,6.6 C88.3,6.1 88.7,5.7 89,5.2 Z M91.1,9.8 C92.2,9.8 93.1,9.1 93.1,8.1 C93.1,7.3 91.9,6.2 91,6.2 C90.1,6.2 89.4,7 89.4,8.1 C89.3,9.2 90,9.8 91.1,9.8 Z M92.5,2.9 C92.5,2 91.8,1.4 90.9,1.5 C90.2,1.5 89.7,2 89.7,2.7 C89.7,3.7 90.4,4.4 91.2,4.4 C92,4.4 92.5,3.8 92.5,2.9 Z" id="Shape"></path>
                    <path d="M78.7,187.1 C78.2,187.5 75.1,187.5 74.6,187.1 C74.6,187.1 74.6,187 74.7,187 C76,186.6 76,186.6 76.1,185.3 L76.1,182.3 C76.1,181.6 75.7,181.1 75,180.9 C74.2,180.7 73.5,180.9 72.8,181.4 C72.7,181.5 72.7,181.8 72.7,181.9 L72.7,185.6 C72.7,186.4 72.9,186.9 73.7,186.9 C73.8,186.9 73.9,187 74,187 C73.6,187.4 70.5,187.4 70,187.1 C70,187.1 70,187 70.1,187 C71.4,186.6 71.4,186.6 71.4,185.3 L71.4,182.3 C71.4,181.1 70.5,180.5 69.4,180.7 C68.2,180.9 67.9,181.3 67.9,182.5 L67.9,185.7 C67.9,186.5 68.1,186.9 69,187 C69.1,187 69.2,187.1 69.3,187.1 C69,187.5 65.9,187.6 65.3,187.2 L65.3,187.1 C66.5,186.7 66.5,186.7 66.5,185.4 C66.5,184.3 66.4,183.2 66.5,182 C66.5,181.3 66.3,180.9 65.7,180.7 C65.6,180.7 65.5,180.6 65.2,180.4 C66.2,180 67,179.7 67.9,179.4 C67.9,180 68,180.4 68,180.8 C68.9,180.4 69.7,179.8 70.5,179.6 C71.5,179.4 72.2,180.1 72.7,181.1 C73.1,180.8 73.5,180.5 73.9,180.2 C75.5,179.1 77.2,179.7 77.6,181.6 C77.8,182.4 77.7,183.3 77.7,184.1 C77.7,184.4 77.6,184.7 77.6,185.1 C77.3,186.6 77.3,186.6 78.7,187.1 Z" id="Shape"></path>
                    <path d="M33.5,187.2 L29.7,187.2 C29.7,187.1 29.8,187 29.8,187 C30.9,186.9 31.1,186.1 31.1,185.2 C31.1,184.2 31.1,183.3 31,182.3 C30.9,181.6 30.6,181 29.9,180.8 C29.1,180.6 28.4,180.9 27.7,181.3 C27.6,181.4 27.6,181.7 27.5,181.9 L27.5,185.6 C27.5,186.3 27.7,186.8 28.5,186.8 C28.6,186.8 28.7,186.9 28.8,186.9 C28.4,187.3 25.7,187.3 24.8,187 C25.1,186.9 25.2,186.8 25.4,186.8 C26,186.7 26.2,186.4 26.2,185.8 L26.2,177.4 C26.2,176.6 26.3,175.7 25,175.7 C25,175.6 25.1,175.6 25.1,175.5 C25.9,175.2 26.6,174.8 27.5,174.4 L27.5,180.9 C27.9,180.6 28.1,180.4 28.4,180.3 C30.1,179.1 32,179.8 32.3,181.9 C32.4,182.8 32.4,183.7 32.3,184.6 C32.3,186.4 32.3,186.4 33.5,187.2 Z" id="Shape"></path>
                    <path d="M126.3,187.7 C126.2,187.2 126.2,186.8 126.2,186.3 C125.7,186.6 125.3,186.8 124.8,187 C123.6,187.6 122.5,187.4 121.6,186.5 C120,184.9 120.3,182.2 122.2,180.9 C123.1,180.3 124.1,180 125.1,179.9 L126.2,179.9 C126.2,178.7 126.3,177.6 126.2,176.5 C126.2,176.2 125.6,175.9 125.3,175.5 C126,175.2 126.8,174.8 127.7,174.4 L127.7,176.6 C127.7,179.5 127.6,182.4 127.6,185.3 C127.6,186 127.7,186.5 128.6,186.4 C128.7,186.4 128.8,186.5 129.1,186.7 C127.9,187.1 127.1,187.4 126.3,187.7 Z M126.2,183.6 L126.2,183.6 L126.2,181.9 C126.2,181.7 126.1,181.4 125.9,181.2 C124.8,180 123.1,180.2 122.4,181.7 C122.1,182.4 121.9,183.3 122,184.1 C122.1,185.4 123.3,186.4 124.5,186.4 C125.6,186.4 126.1,185.9 126.2,184.8 C126.2,184.4 126.2,184 126.2,183.6 Z" id="Shape"></path>
                    <path d="M171.2,174.5 L171.2,180.6 C171.2,182.2 171.2,183.8 171.1,185.5 C171.1,186.2 171.2,186.6 172,186.6 C172.1,186.6 172.2,186.7 172.4,186.9 C171.6,187.2 170.8,187.4 169.9,187.7 C169.8,187.2 169.8,186.8 169.8,186.3 C169.3,186.6 168.8,186.8 168.4,187.1 C167.3,187.7 166.2,187.5 165.3,186.7 C163.8,185.3 163.8,182.9 165.2,181.5 C166.1,180.5 167.3,180.1 168.6,180 L169.8,180 C169.8,178.8 169.9,177.7 169.8,176.6 C169.8,176.3 169.2,176 168.9,175.7 C169.6,175.2 170.4,174.9 171.2,174.5 Z M169.9,183.6 C169.8,183.6 169.8,183.6 169.9,183.6 L169.9,181.9 C169.9,181.6 169.8,181.3 169.6,181.2 C168.5,180 166.8,180.2 166.1,181.6 C165.8,182.3 165.6,183.2 165.7,184 C165.8,185.4 167.1,186.4 168.3,186.3 C169.4,186.2 169.8,185.8 169.9,184.7 L169.9,183.6 Z" id="Shape"></path>
                    <path d="M107.8,3.6 C107.7,4.1 107.6,4.6 107.4,5 C106.9,6 106.7,6.9 107.8,7.6 C107.9,7.6 107.9,7.8 107.9,8 C106.5,8.1 106.2,9 106.1,10.1 C106.1,10.4 106,10.7 105.8,10.8 C105.6,11 105.2,11.2 104.9,11.1 C104.7,11 104.4,10.6 104.4,10.4 C104.4,10 104.5,9.5 104.6,9.1 C104.8,8.1 104.4,7.6 103.4,7.6 C102.8,7.6 102.2,7.7 101.6,7.8 C100.6,7.8 100.4,7.4 100.4,6.5 C100.5,4.9 100.6,3.3 100.6,1.7 C100.6,0.9 100.8,0.6 101.4,0.6 C102.1,0.6 102.6,1 102.6,1.7 C102.6,2.5 102.5,3.3 102.4,4.1 C102.4,4.4 102.3,4.7 102.3,5.1 C102.4,6 102.8,6.5 103.5,6.6 C104.7,6.7 105.3,6.4 105.5,5.4 C105.6,5 105.8,4.7 106,4.3 C106.5,3.5 107,3.2 107.8,3.6 Z" id="Shape"></path>
                    <path d="M163.7,187.2 L159.7,187.2 L159.7,187.1 C159.8,187 159.9,187 160,186.9 C161,186.7 161.1,186.6 161.1,185.5 C161.1,184.5 161.2,183.5 161.1,182.4 C161.1,181.6 160.8,181 160,180.7 C159.1,180.4 158.4,180.7 157.7,181.2 C157.6,181.3 157.5,181.5 157.5,181.7 L157.5,185.7 C157.5,186.2 157.7,186.6 158.3,186.7 C158.5,186.7 158.7,186.8 158.8,186.9 L158.8,187.1 L154.8,187.1 L154.9,186.9 C156.1,186.5 156.1,186.5 156.1,185.1 L156.1,181.9 C156.1,181.2 156,180.7 155.3,180.6 C155.2,180.6 155.1,180.5 154.8,180.3 C155.8,179.9 156.6,179.6 157.5,179.3 L157.5,180.9 C158,180.6 158.3,180.3 158.6,180.1 C160.4,178.9 162.2,179.7 162.4,181.8 C162.5,182.5 162.4,183.2 162.4,183.9 C162.4,184.5 162.4,185 162.3,185.6 C162.3,186.3 162.4,186.7 163.2,186.7 C163.3,186.7 163.4,186.8 163.5,186.8 C163.7,187.1 163.7,187.2 163.7,187.2 Z" id="Shape"></path>
                    <path d="M60.6,187.5 C58.4,187.5 56.7,185.7 56.7,183.6 C56.7,181.7 58.7,179.8 60.8,179.8 C62.9,179.8 64.7,181.6 64.7,183.6 C64.6,185.7 62.7,187.5 60.6,187.5 Z M63.2,183.7 C62.9,182.8 62.7,182 62.3,181.2 C61.5,179.9 59.9,179.9 59,181.1 C57.9,182.5 58.1,185.1 59.3,186.4 C60.3,187.4 61.6,187.3 62.3,186.2 C62.7,185.4 62.9,184.6 63.2,183.7 Z" id="Shape"></path>
                    <path d="M18.9,182 L18.3,182 C18.1,182 17.9,182 17.5,181.9 C17.7,181.6 17.8,181.4 18,181.2 C18.7,180.7 19.3,180.1 20.1,179.8 C21.5,179.1 22.9,179.8 23,181.4 C23.1,182.6 23.1,183.8 23.1,185 C23.1,186.4 23.1,186.4 24.4,186.2 C24.2,186.7 23,187.6 22.6,187.4 C22.2,187.2 21.9,186.8 21.6,186.4 C20.9,186.7 20.2,187 19.4,187.3 C18.5,187.6 18,187.3 17.9,186.3 C17.8,184.9 18,184.5 19.4,184 C19.8,183.8 20.3,183.7 20.8,183.6 C21.9,183.3 22.1,182.9 21.8,181.5 C21.6,180.6 21,180.2 20.1,180.3 C19,180.6 19,181.3 18.9,182 Z M21.7,183.8 C20.9,184.1 20.3,184.3 19.7,184.5 C19.1,184.8 18.8,185.3 19.1,185.8 C19.3,186.1 19.8,186.5 20.2,186.5 C20.9,186.6 21.7,185.9 21.7,185.5 L21.7,183.8 Z" id="Shape"></path>
                    <path d="M148.7,182 L147.3,182 C147.5,181.7 147.7,181.4 147.8,181.3 C148.4,180.9 148.9,180.4 149.6,180 C151.3,179.1 152.8,180 152.8,181.9 L152.8,185 C152.8,186.5 152.8,186.5 154.2,186.3 C153.7,186.8 153.1,187.4 152.3,187.5 C152,187.5 151.7,186.9 151.3,186.6 C150.7,186.9 149.9,187.2 149.2,187.5 C148.2,187.8 147.7,187.5 147.7,186.5 C147.6,185.2 147.9,184.8 149.1,184.3 C149.6,184.1 150.1,184 150.5,183.9 C151.6,183.6 151.8,183.2 151.5,181.8 C151.3,180.9 150.7,180.5 149.8,180.6 C149.1,180.6 149,180.8 148.7,182 Z M151.5,183.8 C150.7,184.1 149.9,184.4 149.3,184.7 C148.8,185 148.6,185.5 148.9,186.1 C149.2,186.6 149.6,186.8 150.2,186.6 C151.3,186.3 151.4,186.1 151.4,184.9 C151.5,184.6 151.5,184.3 151.5,183.8 Z" id="Shape"></path>
                    <path d="M34.2,187.1 C35.6,186.6 35.6,186.6 35.6,185 L35.6,177.7 C35.6,176.9 35.8,175.9 34.6,175.6 C35.4,175.3 36.1,174.9 37,174.5 L37,177.3 L37,185.5 C37,186.7 37,186.7 38.2,186.9 C38.3,186.9 38.4,187 38.5,187 C38,187.4 34.8,187.5 34.2,187.1 Z" id="Shape"></path>
                    <path d="M146.5,181.6 C146.1,181.4 145.9,181.3 145.6,181.2 C144.7,180.8 143.9,181.4 143.8,182.3 L143.8,186 C143.8,186.5 144.1,186.8 144.6,186.9 C144.9,186.9 145.2,187 145.5,187.1 C145.1,187.6 141.7,187.6 141.2,187.2 C141.2,187.2 141.2,187.1 141.3,187.1 C142.5,186.8 142.5,186.8 142.5,185.5 L142.5,182.2 C142.5,181.5 142.4,181 141.7,180.9 C141.6,180.9 141.5,180.8 141.3,180.6 C142.2,180.3 143,180 143.9,179.6 C143.9,180.2 144,180.6 144,181.2 C144.4,180.9 144.6,180.5 145,180.3 C145.3,180.1 145.8,179.8 146.1,179.9 C146.4,179.9 147,180.2 147,180.5 C147,180.7 146.7,181.1 146.5,181.6 Z" id="Shape"></path>
                    <path d="M49.9,186.2 C49.5,187.1 48.2,187.7 47.1,187.5 C46.3,187.3 45.8,186.7 45.8,185.7 L45.8,180.8 C45.5,180.8 45.2,180.7 44.7,180.7 C45.6,179.9 46.3,179.3 47.2,178.5 C47.2,179.1 47.3,179.5 47.3,179.9 L49.8,179.9 C49.9,180.7 49.4,180.8 48.8,180.7 L47.3,180.7 L47.3,185.5 C47.3,186.3 48,186.7 48.9,186.5 C49.2,186.5 49.5,186.4 49.9,186.2 Z" id="Shape"></path>
                    <path d="M53.3,181.1 C53.7,180.8 54,180.4 54.3,180.2 C54.6,180 55.1,179.7 55.4,179.8 C56.5,179.9 56.6,180.6 55.8,181.6 C55.6,181.5 55.3,181.4 55.1,181.2 C54.2,180.8 53.3,181.3 53.3,182.3 C53.2,183.5 53.3,184.8 53.3,186 C53.3,186.5 53.6,186.8 54.1,186.8 C54.4,186.8 54.7,186.9 55,187 C54.6,187.4 51.4,187.5 50.6,187.2 C50.7,187.1 50.8,187 50.9,187 C51.8,187 52,186.4 52,185.6 L52,182 C52,181.4 51.9,181 51.2,180.8 C51.1,180.8 51,180.7 50.7,180.5 C51.6,180.2 52.4,179.9 53.3,179.5 C53.2,180.1 53.2,180.6 53.3,181.1 Z" id="Shape"></path>
                    <path d="M138,180.8 L138,185.4 C138,186.5 138.8,187 139.9,186.6 C140.1,186.5 140.3,186.4 140.6,186.3 C140.2,187.2 138.9,187.8 137.9,187.6 C137.1,187.5 136.6,186.9 136.6,185.9 C136.6,184.5 136.6,183.1 136.7,181.7 L136.7,180.9 C136.4,180.9 136.1,180.8 135.6,180.7 C136.5,179.9 137.2,179.3 138.1,178.5 C138.1,179.1 138.2,179.5 138.2,179.9 L140.7,179.9 C140.7,180.7 140.3,180.8 139.7,180.7 C139,180.7 138.5,180.8 138,180.8 Z" id="Shape"></path>
                    <path d="M65.8,5.7 L65.8,10 C65.8,10.5 65.6,10.9 65.1,11 C64.5,11.1 64.4,10.6 64.4,10.2 C64.3,9.4 64.2,8.6 64.2,7.7 C64.2,6.1 64.2,4.5 64.3,2.9 C64.3,2.3 64.5,1.7 64.7,1.1 C64.8,0.9 65.2,0.6 65.3,0.6 C65.6,0.8 65.9,1.1 65.9,1.4 C66,2.3 65.9,3.1 65.9,4 C65.8,4.5 65.8,5.1 65.8,5.7 L65.8,5.7 Z" id="Shape"></path>
                    <path d="M134.1,179.9 C134.2,180.4 134.3,180.9 134.3,181.4 C134.3,181.5 134.2,181.6 134.1,181.8 C134,181.7 133.8,181.7 133.8,181.6 C133.5,181.3 133.3,180.8 133,180.5 C132.4,179.9 131.5,180 131.1,180.5 C130.6,181.1 130.8,181.9 131.5,182.4 C132.1,182.8 132.7,183.1 133.3,183.5 C134.1,184 134.5,184.7 134.4,185.7 C134.2,186.6 133.6,187.2 132.7,187.4 C131.9,187.5 131.1,187.4 130.3,187.3 C130.1,187.3 129.9,186.8 129.9,186.5 C129.9,186.1 129.9,185.7 130,185.3 C130.2,185.6 130.4,185.9 130.7,186.2 C131,186.5 131.3,186.9 131.7,187 C132.3,187.2 132.9,187 133.2,186.5 C133.5,186 133.4,185.4 133,185 C132.6,184.6 132.1,184.3 131.7,184 C131.5,183.8 131.2,183.7 131,183.6 C130.1,183 129.7,182.2 129.9,181.3 C130.1,180.4 131,179.7 132,179.7 C132.6,179.8 133.3,179.9 134.1,179.9 Z" id="Shape"></path>
                    <path d="M43.6,180 C43.7,180.5 43.8,181 43.8,181.5 C43.8,181.6 43.7,181.8 43.7,181.9 C43.6,181.8 43.4,181.8 43.3,181.7 C43,181.4 42.8,181 42.5,180.7 C41.9,180.1 40.9,180.2 40.5,180.8 C40.1,181.4 40.3,182.2 41,182.6 C41.6,183 42.2,183.3 42.8,183.7 C43.6,184.2 44,185 43.8,185.9 C43.6,186.8 43,187.4 42.1,187.5 C41.3,187.6 40.5,187.5 39.7,187.5 C39.6,187.5 39.4,187.3 39.3,187.1 C39.2,186.8 39.2,186.6 39.2,186.3 C39.2,186 39.3,185.8 39.3,185.5 C39.5,185.7 39.7,185.9 39.8,186.1 C40,186.4 40.2,186.7 40.4,186.9 C40.9,187.4 41.7,187.3 42.2,186.9 C42.7,186.5 42.8,185.8 42.4,185.2 C42.2,184.9 41.9,184.7 41.6,184.5 C41.2,184.2 40.7,184 40.3,183.7 C39.4,183.1 39,182.3 39.2,181.4 C39.4,180.5 40.3,179.9 41.4,179.9 C42.1,179.8 42.8,179.9 43.6,180 Z" id="Shape"></path>
                    <path d="M120.1,187.2 L116.1,187.2 L116.1,187 C116.3,186.9 116.4,186.8 116.6,186.8 C117.3,186.8 117.5,186.4 117.5,185.8 L117.5,181.7 C117.5,181.5 117.3,181.2 117.1,181 C116.9,180.8 116.6,180.8 116.2,180.5 C117.2,180.1 118,179.8 118.9,179.4 L118.9,182.6 L118.9,185.5 C118.9,186.2 119.1,186.7 119.9,186.7 C120,186.7 120.1,186.8 120.3,186.9 C120.1,187.1 120.1,187.2 120.1,187.2 Z" id="Shape"></path>
                    <path d="M117,177.2 C117.3,177 117.6,176.6 118,176.5 C118.5,176.4 118.9,176.9 118.9,177.3 C118.9,177.8 118.5,178.2 118,178.1 C117.6,178 117.3,177.7 117,177.5 L117,177.2 Z" id="Shape"></path>
                    <path d="M3.9,58.9 L3.9,54.4 C4.5,55.3 4.5,56.7 3.9,58.9 Z" id="Shape"></path>
                    <path d="M61.9,178.3 C61.7,178 61.4,177.7 61.3,177.4 C61.2,176.9 61.6,176.6 62.1,176.6 C62.6,176.6 62.9,176.9 62.9,177.4 C62.8,177.7 62.5,178 62.3,178.3 L61.9,178.3 Z" id="Shape"></path>
                    <path d="M58.9,178.3 C58.7,178 58.3,177.7 58.3,177.4 C58.2,176.9 58.6,176.6 59.1,176.6 C59.6,176.6 60,176.9 59.9,177.4 C59.8,177.7 59.5,178 59.3,178.3 L58.9,178.3 Z" id="Shape"></path>
                    <path d="M109.2,10 C109.5,10.3 109.7,10.5 109.9,10.7 C109.6,10.9 109.4,11.2 109.1,11.3 C109,11.3 108.5,11 108.6,10.8 C108.7,10.6 108.9,10.4 109.2,10 Z" id="Shape"></path>
                    <path d="M106.2,73.6 C106.9,73.8 107.1,74.4 107.1,74.9 C107.2,75.9 107.6,76.6 108.3,77.3 C108.7,77.7 109,78.1 109.4,78.5 C110,79.1 110.5,79.7 110.5,80.7 C110.5,81.3 111,82 111.5,82.4 C112.3,83.1 113.2,83.7 114.1,84.2 C114.3,84.3 114.8,84.1 115.1,84 C115.3,83.9 115.5,83.5 115.7,83.3 C115.9,83.1 116.2,83.1 116.5,83.1 C116.6,83.4 116.8,83.7 116.7,84 C116.6,84.5 116.3,85.1 116.1,85.6 C115.7,86.8 115.9,87.3 117,88 C117.5,88.3 117.3,88.6 117,88.7 C116.6,88.9 116.1,89 115.7,89.1 C115.1,89.2 114.7,89.5 114.6,90.2 C114.5,91.5 114.4,92.9 114.2,94.2 C114.1,94.7 113.9,95.3 113.7,95.8 C113.6,96 113.4,96.2 113.2,96.3 C112.4,96.5 112.1,97.1 111.8,97.7 C111.6,98.2 111.3,98.7 111,99.3 C110.5,97.2 111.2,95.4 112.6,94.4 C112.9,94.2 113.1,93.9 113.2,93.6 C113.4,92.8 113.4,92 113.5,91.2 C113.6,90.3 113.9,89.4 113.9,88.5 C113.9,87.5 113.9,86.4 113.7,85.4 C113.6,84.9 112.9,84.4 112.4,84.1 C111.4,83.6 110.3,83.2 109.2,82.7 C108.5,82.4 108.4,82.9 108.4,83.4 C108.5,83.8 108.7,84.2 108.9,84.5 C110.7,87.1 110.9,91 109.1,93.7 C108.5,94.6 108.3,95.5 108.2,96.5 C108.1,98.1 108.1,99.8 108.1,101.4 C108.1,103.3 107.8,105.1 106.8,106.7 C106.7,106.9 106.7,107.2 106.8,107.4 C107.1,108 107,108.5 106.8,109.1 C105.5,114 103,118.2 99.5,121.9 C99.1,122.3 98.8,122.8 98.6,123.2 C98,124.5 97.4,125.9 96.8,127.2 C96.6,127.5 96.3,127.8 96.1,128.1 C96,128 95.9,128 95.8,127.9 C95.9,127.1 96,126.3 96.2,125.5 C96.9,122.7 98.7,120.6 100.6,118.6 C103.6,115.5 105.5,111.9 106.1,107.5 C105.9,107.7 105.7,107.8 105.5,108 C104.6,109.3 103.6,110.7 102.7,112.1 C101.7,113.8 100.8,115.6 99.8,117.3 C99.6,117.6 99.3,117.9 99.1,118.2 C99,118.2 99,118.1 98.9,118.1 C99,117.7 99,117.2 99.2,116.8 C99.7,115.6 100.3,114.5 100.9,113.3 C102.3,110.5 103.9,107.7 105.2,104.8 C106.5,102 107.2,99 106.3,95.9 C106.2,95.7 106.4,95.3 106.5,95.1 C107.6,93.2 108.2,91.1 107.7,88.9 C107.5,88.1 107.1,87.4 106.7,86.7 C106.3,86.1 105.8,85.5 105.3,84.8 C105.8,84.8 106.1,84.7 106.5,84.7 C106.7,83.9 106.4,83.3 106,82.7 C105.4,82 104.7,81.3 104.1,80.6 C103.7,80.2 103.2,79.9 102.8,79.5 C102.9,79.4 103,79.3 103,79.2 C103.3,79.3 103.6,79.3 103.8,79.5 C104.4,79.8 104.9,80.2 105.4,80.5 C105.8,80.7 106.2,81 106.7,81.1 C107.4,81.3 108,81 108.5,80.5 C109,80 108.9,79.4 108.6,79 C108.3,78.5 107.9,78 107.5,77.5 C107,77 106.4,76.6 105.9,76 C105.2,75.5 105.2,74.6 106.2,73.6 Z" id="Shape"></path>
                    <path d="M147.1,68.1 C147,67.9 146.8,67.7 146.7,67.4 C146,65.5 145.4,63.5 144.7,61.6 C144.2,60.3 143.7,58.9 143,57.7 C142.3,56.5 141.4,55.2 140.3,54.4 C138.5,53 137.3,51.2 136.4,49.2 C136,48.2 135.5,47.3 134.9,46.4 C134.1,45.2 132.9,44.5 131.5,44.3 C131.3,44.3 131,44.3 130.8,44.4 C130,44.8 129.3,45.3 128.5,45.8 C128.3,46 128.1,46.3 128,46.5 C127.5,47.4 127.2,48.4 126.6,49.2 C126.1,50 125.2,50.6 124.2,50.6 C123.9,50.6 123.6,50.5 123.3,50.4 C123.3,50.3 123.3,50.2 123.2,50.2 C123.6,49.9 124,49.5 124.5,49.2 C125.3,48.7 125.9,48.1 126.2,47.2 C126.7,45.8 127.7,44.6 128.9,43.7 C129.2,43.5 129.4,43.1 129.4,42.7 C129.6,41.4 128.9,40.2 128.2,39.2 C127.9,38.7 127.6,38.3 127.3,37.8 C128.5,37.9 129.4,38.4 130,39.3 C130.5,40 131,40.8 131.5,41.5 C132.3,42.7 133.3,43.7 134.8,44.2 C136.3,44.7 137,46.1 137.5,47.4 C138.7,50.6 140.7,53.3 143,55.7 C143.9,56.6 144.6,57.7 144.9,58.9 C145.4,60.7 145.8,62.4 146.2,64.2 C146.4,65.1 146.7,66 147,66.9 C147.1,67.2 147.1,67.6 147.2,67.9 C147.3,68.1 147.2,68.1 147.1,68.1 Z" id="Shape"></path>
                    <path d="M88.3,107.6 C88,108.5 87.9,109.4 87.4,110.2 C84.7,114.7 82,119.3 79.2,123.8 C77.1,127.2 74.7,130.3 71.8,133.1 C71,133.9 69.9,134.4 68.9,135.1 C68.6,135.3 68.3,135.5 68.1,135.8 C67.7,136.3 67.3,136.9 66.8,137.4 C66.6,137.7 66.3,138 65.9,138.1 C65.5,138.3 65.1,138.2 64.7,138.3 C64.7,137.9 64.6,137.5 64.7,137.2 C64.9,136.5 65.2,135.8 65.4,135.2 C65.5,135.1 65.6,134.9 65.8,134.9 C69.4,132.9 72.4,130.1 74.8,126.8 C78,122.5 81,118.2 84.1,113.8 C85.4,112 86.2,110 86.8,107.8 C86.8,107.7 86.8,107.6 86.9,107.5 C87.2,107.3 87.5,107.2 87.7,107 C88,107.1 88.2,107.4 88.3,107.6 Z" id="Shape"></path>
                    <path d="M61.7,142.4 C61.3,143.8 60.5,144.3 59.4,144.3 C58.3,144.3 57.3,144.2 56.2,144.2 C55.1,144.2 54.1,144.1 53,143.7 C51.5,143.1 49.9,143.4 48.3,143.8 C47.2,144.1 46.1,144.4 45.1,144.7 C44.1,144.9 42.7,144.4 42.2,143.6 C42.1,143.5 42.1,143.3 42.2,143.3 C42.3,143.2 42.5,143.2 42.7,143.1 C43.9,143 45.1,143.1 46.2,142.9 C48,142.6 49.7,142.1 51.4,141.7 C51.7,141.6 52.1,141.6 52.4,141.8 C53.8,142.4 55.3,142.5 56.7,142.5 C58.3,142.4 59.9,142.4 61.7,142.4 Z" id="Shape"></path>
                    <path d="M108.8,114.1 C108.9,113.9 108.9,113.6 109,113.4 C110.2,111.6 110.6,109.5 110.6,107.4 C110.6,106.2 110.9,105.1 111.6,104.1 C111.7,104 111.7,103.9 111.8,103.8 C114.9,100.6 115.6,96.6 116.1,92.4 L116.1,92 C116.3,91.8 116.4,91.5 116.7,91.4 C116.9,91.4 117.2,91.6 117.4,91.7 C117.5,91.9 117.6,92.2 117.6,92.4 C117,95.1 116.4,97.8 115.6,100.4 C115,102.3 113.9,103.9 112.6,105.4 C112.4,105.7 112.2,106.1 112.1,106.4 C111.6,109.2 110.5,111.7 109,114.1 C108.9,114.2 108.8,114.2 108.8,114.1 Z" id="Shape"></path>
                    <path d="M30.1,134.6 C29.7,135 29.5,134.7 29.2,134.5 C27.9,133.2 27.1,131.6 26.7,129.9 C26.3,128.2 25.9,126.5 25,124.9 C23.9,122.8 23.9,120.4 23.6,118.1 C23.5,117.3 23.4,116.6 23.8,115.9 C23.9,115.7 24,115.5 24.2,115.4 C24.4,115.3 24.8,115.1 25,115.2 C25.2,115.3 25.3,115.7 25.3,116 C24.9,118 24.9,119.9 25.4,121.9 C25.8,123.6 26.6,125.1 27.8,126.5 C28,126.7 28.1,127 28,127.2 C27.4,128.8 27.6,130.4 28.3,131.8 C28.9,132.6 29.5,133.6 30.1,134.6 Z" id="Shape"></path>
                    <path d="M44.9,60 C44.9,59.1 45.3,58.7 46,58.6 C46.3,58.6 46.7,58.5 46.9,58.3 C48.9,56.5 51.3,55.9 53.7,55.4 C55.7,54.9 57.7,54.8 59.7,55.1 C60,55.1 60.4,55.3 60.5,55.5 C60.6,55.7 60.4,56.1 60.2,56.3 C60,56.5 59.6,56.7 59.3,56.8 C58.9,56.9 58.5,56.8 58.1,56.7 C55.2,56 52.4,56.5 49.7,57.7 C48.2,58.4 46.7,59.1 45.2,59.8 C45.2,59.9 45,59.9 44.9,60 Z" id="Shape"></path>
                    <path d="M73.7,144 L73.6,144.1 C72,144.2 71.1,145.7 69.6,146 C68.1,146.4 66.7,146.8 65.2,147.2 C64.6,147.3 63.9,147.4 63.2,147.3 C62.9,147.3 62.6,147.1 62.4,147 L62.4,146.8 C63,146.6 63.7,146.5 64.3,146.3 C65.2,146 66.1,145.9 66.9,145.5 C67.5,145.2 68,144.6 68.5,144.1 C68.9,143.7 69.1,143.2 69.6,142.9 C69.9,142.7 70.5,142.4 70.8,142.6 C71.7,143 72.7,143.5 73.7,144 Z" id="Shape"></path>
                    <path d="M136.3,67.6 C136.2,67.1 135.9,66.7 135.9,66.2 C135.8,64.8 135.9,63.3 135.6,62 C135.3,60.6 135.3,59.4 136.2,58.2 C136.4,57.9 136.4,57.4 136.4,57.1 C136.4,56.1 136.3,55.1 136.3,54.1 C136.3,53.7 136.5,53.3 136.6,52.9 C136.7,52.9 136.8,52.8 136.8,52.8 C137,53.2 137.3,53.6 137.4,54 C137.5,54.3 137.5,54.7 137.5,55.1 C137.5,56.1 137.5,57 137.4,58 C137.3,58.7 137,59.5 136.7,60.2 C136.2,61.4 136,62.5 137,63.5 C137.1,63.6 137.1,64 137,64.3 C136.8,65.4 136.6,66.4 136.3,67.5 C136.3,67.5 136.3,67.5 136.3,67.6 Z" id="Shape"></path>
                    <path d="M61.1,129.2 C61.2,129.1 61.4,128.9 61.7,128.8 C63.3,128.1 64.8,127.3 66,126.1 C66.5,125.6 66.9,124.9 67.4,124.4 C67.6,124.2 68,124.2 68.2,124.3 C68.4,124.4 68.5,124.9 68.4,125 C66.9,127.2 65.4,129.4 62.9,130.6 C62,131 61.1,130.3 61.1,129.2 Z" id="Shape"></path>
                    <path d="M86.3,135.6 C85.8,135.5 85.6,135.1 85.9,134.8 C86.2,134.3 86.5,133.8 86.9,133.5 C88.3,132.2 89.7,130.9 90.7,129.3 C90.8,129.1 91.1,128.8 91.4,128.7 C91.7,128.6 92,128.8 92.3,128.9 C92.4,128.9 92.3,129.4 92.2,129.5 C91,131.9 89.4,133.9 87.1,135.3 C86.7,135.4 86.5,135.5 86.3,135.6 Z" id="Shape"></path>
                    <path d="M138.7,45.9 C139.1,45.8 139.6,45.6 140,45.5 C140.3,45.4 140.7,45.5 140.9,45.6 C142.5,46.3 144.1,46.5 145.8,46.3 C146.1,46.3 146.4,46.4 146.7,46.6 C147.6,47.2 148.6,47.9 149.5,48.6 C149,49.2 148.6,49.2 148,48.8 C147.5,48.5 147.1,48 146.6,47.7 C145.9,47.1 145.2,47 144.4,47.5 C143.3,48.2 142.3,47.9 141.2,47.4 C140.5,46.8 139.7,46.4 138.7,45.9 Z" id="Shape"></path>
                    <path d="M144.4,38.3 L143.7,38.3 C141.1,37.9 138.7,38.6 136.6,40.1 C136.5,40.2 136.4,40.3 136.2,40.3 C136,40.3 135.7,40.4 135.6,40.3 C135.5,40.2 135.4,39.8 135.4,39.7 C135.5,39.4 135.7,39.2 135.9,39 C137.8,37.3 142,36.8 144.2,38 C144.3,38 144.3,38.1 144.4,38.1 C144.4,38.2 144.4,38.2 144.4,38.3 Z" id="Shape"></path>
                    <path d="M32.6,89 C32.9,88.6 33.1,88.3 33.4,88 C33.8,87.5 34.1,87.1 34.5,86.7 C34.9,86.3 35.3,85.9 35.8,85.6 C36.2,85.4 36.7,85.8 36.5,86.1 C35.9,87.3 35.2,88.5 34.5,89.7 C34.3,90.1 33.9,90.5 33.4,90.1 C33.1,89.8 32.9,89.4 32.6,89 Z" id="Shape"></path>
                    <path d="M80.7,110.9 C80.2,112.6 79.5,114 78.1,114.9 C77.9,115 77.5,115 77.4,114.9 C77.3,114.7 77.2,114.4 77.3,114.2 C77.5,113.7 77.9,113.3 78.1,112.8 C78.5,112.2 78.7,111.5 79.1,110.9 C79.3,110.6 79.6,110.4 79.9,110.4 C80.3,110.3 80.5,110.7 80.7,110.9 Z" id="Shape"></path>
                    <path d="M70,122.1 C70.3,121.5 70.5,120.9 70.8,120.4 C71.4,119.7 72.1,119.1 72.8,118.6 C73,118.4 73.5,118.6 73.9,118.6 C73.8,118.9 73.9,119.2 73.7,119.4 C72.9,120.4 72.2,121.5 71.3,122.4 C71.1,122.6 70.7,122.7 70.4,122.7 C70.3,122.8 70.2,122.4 70,122.1 Z" id="Shape"></path>
                    <path d="M43.9,77.7 C43,78.9 42.1,79.9 40.7,80.3 C40.3,79.7 40.4,79.1 41,78.8 C41.7,78.2 42.4,77.2 43.9,77.7 Z" id="Shape"></path>
                    <path d="M47.4,74.5 C47.4,73.8 48.2,72.7 48.6,72.6 C49,72.5 49.6,72.8 49.4,73.2 C49.2,73.8 48.9,74.3 48.6,74.8 C48.5,75 48,75.1 47.7,75 C47.6,75 47.4,74.6 47.4,74.5 Z" id="Shape"></path>
                    <path d="M112.7,77 C113,77.4 113.4,77.6 113.4,77.8 C113.4,78.2 113.2,78.5 113.1,78.9 C113,78.9 112.9,78.9 112.8,78.8 C112.7,78.3 112.7,77.8 112.7,77 Z" id="Shape"></path>
                    <path d="M122.1,8 C122.4,7 122.9,6.8 123.6,6.8 C126.5,6.9 129.3,7.4 131.9,8.8 C133.6,9.7 135.4,10.4 137.1,11.1 C137.7,11.3 138.4,11.4 139,11.4 C141.1,11.3 143.2,11.3 145.3,11.1 C146.3,11 147.3,10.5 148.3,10.2 C148.6,10.1 148.9,10.2 149.2,10.2 C149.1,10.5 149,10.9 148.8,11 C148.3,11.3 147.8,11.5 147.2,11.6 C143.5,12.7 139.7,12.9 135.9,11.8 C134.6,11.4 133.5,10.8 132.3,10.3 C130.9,9.7 129.6,9.1 128.2,8.5 C126.9,8 125.5,7.7 124.1,8 C123.4,8.2 122.8,8 122.1,8 Z" id="Shape"></path>
                    <path d="M124.2,16.6 C124.9,16.9 125.2,17.4 125.3,18.1 C125.5,18.7 125.6,19.3 125.7,19.8 C125.7,20 125.6,20.2 125.6,20.5 C125.3,20.5 125,20.5 124.8,20.3 C124.2,19.8 123.9,19.1 123.8,18.3 C123.8,17.8 123.5,17.1 124.2,16.6 Z" id="Shape"></path>
                </g>
                <path d="M40.3,158.2 C34.3,158.3 28.4,158.3 22.4,158.5 C18.8,158.6 15.1,158.7 11.5,158.8 C10.5,158.8 9.5,158.7 8.5,158.5 C7.6,158.3 7.1,157.8 6.8,156.9 C6.3,155.3 6.1,153.6 6.1,152 C6,150.8 5.7,149.6 5.5,148.4 C5.1,145.6 5.3,142.9 5.5,140.1 C5.7,135 6,129.8 6.1,124.7 C6.2,120.4 6,116.2 6,111.9 C6,106.9 6.1,101.9 6.2,97 C6.2,95.2 6.4,93.4 6.4,91.5 C6.4,89 6.1,86.5 6.2,84 C6.3,78.8 6.4,73.6 6.5,68.4 C6.6,65.1 6.5,61.8 6.6,58.5 C6.7,54.1 6.9,49.7 7,45.4 C7.2,38.5 7.5,31.5 7.6,24.6 C7.7,20.2 7.4,15.8 7.2,11.4 L7.2,6.6 C7.2,5.3 7.8,4.7 9.2,4.8 C12.1,4.9 15.1,5.2 18,5.3 C23.3,5.5 28.7,5.5 34,5.7 C39.2,5.9 44.4,6.2 49.6,6.4 C51.6,6.5 53.7,6.4 55.7,6.5 C56.7,6.5 57.7,6.8 58.7,6.9 C59.3,7 59.6,7.3 59.7,7.9 C59.8,9 59.8,10 59.8,11.1 C59.7,13.9 59.4,16.7 59.3,19.5 C59.3,20.2 59.6,20.5 60.4,20.6 C61.7,20.7 63.1,20.8 64.4,20.9 C71,21.3 77.6,21.5 84.2,21.2 C87.5,21.1 90.8,21.3 94.1,21.3 C97.1,21.3 100.1,21.1 103.1,21.1 C105.6,21.1 108.2,21.2 110.7,21.3 C111.4,21.3 111.7,21.1 111.9,20.5 C112,20.1 112.2,19.7 112.2,19.3 C112.6,16.4 113,13.4 113.5,10.5 C114.2,6.9 113.7,7.4 117.3,6.9 C119.5,6.6 121.8,6.6 124.1,6.7 C130.1,6.9 136.1,6.9 142,6.8 C143.5,6.8 145,7 146.5,7.1 L146.8,7.1 C148.4,6.5 150,7 151.5,7.2 C152,7.3 152.5,7.3 153.1,7.3 C155,7.3 156.9,7.3 158.8,7.2 C160,7.2 161.1,7 162.3,6.8 C163,6.7 163.6,6.9 163.9,7.5 C164.3,8.4 164.7,9.3 164.7,10.2 C164.6,13.4 164.2,16.5 164.2,19.7 C164.1,23.5 164.3,27.2 164.3,31 C164.2,38.9 163.9,46.8 163.8,54.7 C163.7,60.3 163.9,66 163.9,71.6 C163.9,77.7 163.7,83.7 163.7,89.8 C163.7,99.2 163.8,108.6 163.9,118.1 C164,122.5 164.3,126.9 164.3,131.3 C164.4,136.1 164.3,140.9 164.4,145.7 C164.4,148.1 164.8,150.5 164.7,152.9 C164.7,154.7 164.4,156.6 164.1,158.4 C164.1,158.6 163.8,158.8 163.7,158.8 C163.3,158.9 162.9,159.1 162.5,159.1 C160.9,158.9 159.3,159.4 157.8,159.6 C155.6,159.9 153.3,159.9 151,159.9 C147.6,159.9 144.3,159.8 140.9,159.8 C138.7,159.8 136.4,160 134.2,160.1 C133.5,160.1 132.8,160.1 132.1,159.9 C130.8,159.6 129.6,159.7 128.3,160 C127.2,160.3 126.2,160.3 125.1,160 C123.8,159.7 122.4,159.7 121.1,159.7 C117.7,159.8 114.3,159.7 111,159.3 C109.8,159.1 108.5,159.4 107.2,159.5 C107,159.5 106.8,159.6 106.5,159.6 C100.6,159.5 94.6,159.4 88.7,159.4 C86.2,159.4 83.6,159.6 81.1,159.6 C79.9,159.6 78.7,159.6 77.4,159.5 C65.6,159.2 53.8,159 42,158.7 C41.5,158.7 40.9,158.6 40.4,158.6 C40.3,158.3 40.3,158.3 40.3,158.2 Z M142.9,82.8 C143.1,82.5 143.3,82.4 143.4,82.2 C145.7,79.7 147.4,77 148.8,73.9 C150.8,69.5 151.8,64.8 152.4,60 C152.7,57.9 153,55.8 152.9,53.8 C152.4,47 148.7,42.3 142.6,39.3 C142.3,39.2 142,39.1 141.7,39 C135.8,38.1 130.1,38.3 124.8,41.6 C124.2,42 124,41.6 123.7,41.2 C122.5,39.6 121.3,38 120,36.4 C119.2,35.5 118.3,34.7 117.4,33.8 C116.5,32.9 115.5,32.2 114.3,31.9 C109.8,30.6 105.4,30.8 101.2,33.1 C100,33.8 98.9,34.6 97.6,35.3 C96.5,35.9 95.3,36.5 94.1,37 C93.9,37.1 93.4,37.1 93.3,37 C93.2,36.8 93.2,36.4 93.2,36.1 C93.2,35.9 93.4,35.7 93.5,35.4 C95.1,32.3 97.2,29.7 99.5,27.2 C99.7,26.9 99.9,26.6 100.1,26.3 C100.2,26.1 100.1,25.8 100,25.7 C99.8,25.6 99.5,25.5 99.2,25.6 C99,25.6 98.9,25.8 98.7,26 C97.2,27.7 95.7,29.3 94.3,31 C93.3,32.3 92.4,33.7 91.4,34.9 C91.2,35.2 90.5,35.4 90.2,35.3 C89.8,35.1 89.5,34.6 89.7,34 C90.2,32.8 90.2,31.5 90.1,30.2 C90,29.1 90,27.9 89.9,26.8 C89.9,26.5 89.8,26.1 89.6,25.8 C89.2,25.3 88.7,25.3 88.2,25.6 C88,25.7 87.9,26.2 87.9,26.5 C87.9,27.1 88,27.7 88,28.4 C88,30 87.6,31.5 88.1,33.1 C88.2,33.4 87.9,33.9 87.6,34.1 C87.2,34.5 86.9,34.1 86.6,33.8 C84.3,31.9 81.8,30.3 79,29.5 C77.8,29.1 76.5,29 75.2,28.7 C73.6,28.3 73.2,28.9 72.6,30.1 C72.3,30.7 72.5,31.1 73.1,31.3 C73.6,31.5 74.1,31.6 74.5,31.7 C78,32.5 81,34.2 84,36 C84.2,36.1 84.3,36.4 84.5,36.6 C85.4,38.2 86.2,39.7 87.1,41.3 C87.3,41.7 87.6,42 87.9,42.3 C89.3,43.3 89.8,44.9 90.7,46.3 C90.9,46.7 91,47.2 91.1,47.7 C91.2,48.7 91.1,49.7 91.2,50.8 C91.3,52.4 91.3,53.9 91.4,55.5 C91.4,55.7 91.4,55.9 91.3,56.1 C91.1,57.2 90.9,58.3 90.6,59.5 C90.5,60.2 90.5,60.8 90.3,61.5 C89.9,62.7 89.2,63.8 88.9,65 C88.1,67.5 86.8,69.7 85.4,71.9 C84.6,73.3 83.5,74.5 83.3,76.1 C83.2,76.8 82.7,77 82.1,76.8 C81.6,76.7 81.2,76.5 80.7,76.4 C80.4,76.3 80,76.4 79.7,76.4 C79.2,76.4 78.7,76.5 78.2,76.5 C77.5,76.4 76.9,76.1 76.2,76 C75.4,75.9 74.5,75.8 73.8,75.9 C72.2,76.2 70.7,76.7 69.1,77.1 C67.2,77.7 65.3,78.4 64.1,80.1 C64,80.3 63.7,80.5 63.6,80.5 C63.2,80.5 62.7,80.5 62.4,80.2 C62,79.9 62.2,79.4 62.6,79.1 C63.6,78.4 64.6,77.8 65.7,77.2 C66.4,76.8 67.2,76.7 67.8,76.2 C69.1,75.4 70.4,74.7 71.9,74.6 C74.8,74.4 77.8,74.3 80.7,74.3 C81.4,74.3 82,74.2 82.5,73.6 C83.5,72.5 83.9,71.1 84.1,69.6 C84.1,69.3 84,69 83.9,68.8 C83.2,67.5 82.2,66.4 81,65.6 C79.1,64.3 77.3,62.8 75.4,61.7 C72.6,60.1 69.7,58.7 66.8,57.3 C64.9,56.4 62.9,55.9 60.8,56.2 C56.8,56.8 52.8,57.5 48.9,58.4 C46.9,58.9 44.9,59.6 43.2,60.7 C39.4,63.3 36.2,66.7 33.3,70.3 C30,74.3 27.8,79 25.5,83.6 C25,84.7 24.4,85.7 24,86.8 C22.4,91.3 21.1,95.8 19.4,100.2 C17.3,105.9 15.7,111.7 15.6,117.9 C15.5,120.7 15.8,123.4 17.2,125.9 C18.1,127.5 18.9,129.2 19.9,130.8 C20.8,132.1 21.9,133.3 22.9,134.6 C23.1,134.8 23.2,135.1 23.3,135.4 C23.8,136.9 24.1,138.4 24.7,139.9 C25.4,141.8 26.6,143.4 28.4,144.4 C29.2,144.8 29.8,145.5 30.2,146.2 C30.6,147 31,147.8 31.5,148.6 C32,149.4 32.5,150.1 33.1,150.9 C33.2,151.1 33.5,151.2 33.7,151.3 C35.1,151.8 36.6,152.4 38,152.7 C39.2,153 40.5,153.1 41.8,153.3 C42.3,153.4 42.8,153.3 43.3,153.4 C44.2,153.6 45,153.8 45.9,154.1 C51.5,155.6 57.1,156.6 62.9,156.5 C64.8,156.5 66.7,156.3 68.4,155.2 C68.7,155 69.1,154.9 69.5,154.9 C72.6,155.1 75.6,155 78.6,154.3 C82.7,153.4 86.3,151.6 89.2,148.4 C91.1,146.2 93,144.1 94.8,141.9 C98.8,137.2 102.7,132.5 106.7,127.8 C106.9,127.6 107,127.3 107.2,127.1 C109.4,123 111.7,119 114.3,115.2 C115.2,113.8 116.1,112.4 116.9,110.9 C119.3,106.3 120.4,101.6 118.9,96.4 C117.7,92.3 116.5,88.2 114.3,84.4 C114,83.9 113.7,83.7 113.1,83.7 C111.6,83.7 110.4,83.1 109.4,82 C109.9,82 110.3,82.1 110.8,82.1 C111.2,82.1 111.9,82 112,81.7 C112.1,81.4 111.9,80.9 111.7,80.4 C111.6,80.2 111.4,80.1 111.2,80 C109.5,78.8 107.8,77.6 106.1,76.5 C103.5,74.7 100.8,73.1 97.9,72 C96.9,71.6 95.8,71.4 94.8,71.6 C93.5,71.8 92.2,72 91,72.1 C90.5,72.2 90.1,72.5 90,73.1 C89.9,74.1 89.8,75.2 89.7,76.2 L89.7,77.3 C91.3,77.3 92.7,77.5 94.2,77.3 C96,77.1 97.6,77.4 99.1,78.4 C100.2,79.1 101.4,79.8 102.4,80.7 C102.8,81 103,81.6 103.2,82.1 C103.3,82.3 103,82.6 102.8,82.9 C102.6,82.7 102.4,82.6 102.2,82.3 C101.9,81.8 101.7,81.2 101.2,80.9 C99.8,80 98.3,79.3 96.9,78.5 L96.8,78.5 L93.3,78.5 C92.5,78.5 91.8,78.9 91.3,79.6 C90.7,80.4 90.9,80.9 91.9,81.1 C93.2,81.4 94.5,81.8 95.4,82.9 C95.5,83.1 95.5,83.3 95.6,83.5 C95.3,83.5 95.1,83.6 94.8,83.5 C93.9,83.3 93,83 92.2,82.8 C92,82.8 91.8,82.8 91.6,82.9 C92.4,84.3 93.3,85.6 94,87 C95.7,90.4 96.4,93.9 95.2,97.6 C95.1,97.8 95.2,98.1 95.3,98.3 C96.3,100.1 96.8,102 96.8,104.1 C96.8,108.4 94.9,112.1 93,115.9 C92.9,116.1 92.4,116.1 92.1,116.2 C92,115.9 91.8,115.5 91.9,115.2 C92,114.7 92.4,114.3 92.5,113.9 C93.2,110.8 94,107.8 94.5,104.7 C94.8,102.9 94.3,101.2 92.9,99.9 C91.8,98.9 91.9,98.8 93,97.9 C93.4,97.6 93.7,97.1 93.8,96.7 C93.9,94.7 93.9,92.6 93.8,90.6 C93.7,88.8 93.3,87 92.3,85.5 C90.4,82.5 87,81.5 83.6,82.8 C82.8,83.1 82.1,83.6 81.7,84.5 C81.6,84.7 81.4,84.9 81.2,85.1 C80.8,85.4 80.5,85.3 80.5,84.8 C80.5,84.3 80.6,83.7 80.9,83.3 C81.3,82.7 81.9,82.4 82.2,81.8 C82.5,81.3 82.9,80.7 82.9,80.2 C82.9,79.4 83.2,79.3 83.8,79.2 C84.2,79.2 84.7,79.2 85.1,79.1 C85.4,79 85.7,78.8 85.9,78.5 C86.4,77.7 86.8,77 87.2,76.2 C87.5,75.7 87.9,75.1 87.9,74.6 C87.9,73.6 88.4,72.8 88.8,71.9 C89.2,70.9 89.7,69.9 90.1,68.9 C92.2,64.1 93.5,59.2 93.5,53.9 C93.5,52.2 93.8,50.4 94.3,48.7 C94.5,47.7 94.5,46.8 94.3,45.9 C94,44.8 93.8,43.6 93.7,42.5 C93.6,41.7 93.8,40.7 94.5,40.3 C96.9,38.7 99.3,37.1 101.9,35.8 C105.4,34.1 109.2,33.5 113,34.9 C114.3,35.4 115.5,36.3 116.7,36.9 C118.1,37.6 119,38.6 119.6,40.1 C120,41.1 120.4,42.2 120.8,43.2 C121.1,43.9 120.9,44.1 120.3,44.4 C118.2,45.3 116.2,46.5 114.5,48 C112.7,49.6 111.4,51.6 110.8,54 C110.4,55.8 110.3,57.6 110.5,59.3 C110.7,60.6 110.8,61.9 111.3,63.1 C112,64.7 113.1,66.2 114.1,67.7 C115.5,69.8 117.5,71.3 119.9,72.3 C121.1,72.8 122.5,73.1 123.7,73.7 C125.2,74.3 126.6,75.1 128,75.8 C128.8,76.2 129.5,76.8 130.3,77.1 C131.3,77.5 132.3,77.9 133.3,78.2 C137,79 140.4,79.9 142.9,82.8 Z M130.8,32 L130.8,32 C133.9,31.7 137,31.7 140,31.3 C144.3,30.7 148,29.1 149.9,24.8 C150,24.7 150,24.5 150.1,24.4 C150.8,23.6 151.5,22.7 152.4,22 C154.5,20.3 156.2,18.4 156.7,15.7 C156.8,15.1 156.9,14.6 156.8,14 C156.7,13.2 156.4,13.2 155.8,13.5 C155.3,13.8 154.7,14 154.1,14.1 C151.7,14.5 149.7,14 148,12.1 C147.5,11.6 147,11.1 146.4,10.6 C145.9,10.2 145.3,9.8 144.7,9.6 C143.4,9.2 142.1,8.9 140.9,8.7 C139,8.4 137,8.4 135.3,9.5 C134.9,9.8 134.6,9.8 134.1,9.7 C131.4,8.9 128.8,8.2 125.9,8.6 C123.1,9 120.6,10 118.8,12.3 C118.5,12.7 118.3,13.1 118.1,13.6 C117.4,16.4 116.8,19.2 115.1,21.7 C114.7,22.3 114.9,22.7 115.7,22.8 C116.3,22.9 116.9,22.9 117.6,23 C118.3,23.1 118.5,23.5 118.3,24.2 C118.2,24.5 118.1,24.7 118.1,25 C118.3,26.2 118.5,27.4 118.8,28.5 C119.1,29.9 119.9,30.9 121.4,31.2 C122.7,31.5 124,31.7 125.4,31.8 C127,32.1 128.9,32 130.8,32 Z M121.1,138.3 C119.7,135.9 118.4,133.7 117.1,131.5 C116.8,131 116.4,130.8 115.9,130.8 C114.5,130.8 113,130.8 111.6,131 C110.5,131.1 109.4,131.3 108.4,131.5 C108.5,132.3 108.4,132.9 108.6,133.5 C108.7,134.1 108.9,134.7 109.2,135.2 C109.3,135.5 109.7,135.8 109.8,136.1 C111.5,140.1 113.2,144.1 114.8,148.2 C115.2,149.1 115.6,149.6 116.6,149.6 C118.9,149.8 121.2,150.1 123.5,149.7 C124.1,149.6 124.5,149.3 124.9,148.8 C126.7,146.3 128.6,143.7 130.5,141.2 C131.5,139.8 131.7,139.8 132.7,141.2 C134.4,143.6 136,146 137.5,148.5 C138.1,149.4 138.6,150.1 139.8,149.9 C140,149.9 140.3,149.9 140.5,150 C142,150.1 143.4,150.2 144.9,150.2 C145.5,150.2 146,150.1 146.3,149.5 C149.3,144.3 152.4,139.1 155.4,133.9 C155.8,133.2 156,132.3 156.3,131.4 C156,131.3 155.8,131.3 155.7,131.3 C153.3,131.1 150.9,131 148.5,130.8 C147.8,130.7 147.5,131 147.1,131.5 C145.8,133.4 144.5,135.4 143.1,137.3 C142.4,138.3 142.1,138.3 141.4,137.3 C139.7,135 138.1,132.8 136.5,130.4 C136,129.6 135.4,129.3 134.5,129.3 C130.4,129.2 130,129.4 127.3,132.6 C126,134.1 124.7,135.5 123.3,136.8 C122.6,137.4 121.8,137.8 121.1,138.3 Z M36.7,37.4 C37.4,38.1 37.9,38.7 38.4,39.4 C39.2,40.4 39.9,41.4 40.7,42.4 C40.9,42.6 41.1,42.9 41.4,42.9 C44,43.2 46.6,43.6 49.2,43.3 C49.4,43.3 49.7,43 49.8,42.8 C52,38.1 54.2,33.3 56.4,28.6 C56.7,27.9 57,27.3 57.3,26.6 C57.6,25.8 57.3,25.4 56.5,25.3 C54.8,25.1 53.1,25.1 51.4,24.8 C50.1,24.6 49.4,25.3 48.9,26.2 C48.7,26.5 48.5,26.9 48.4,27.3 C47.9,29.1 46.7,30.6 45.9,32.2 C45.6,32.8 44.9,33.3 44.3,33.9 C43.6,32.7 43,31.8 42.5,30.8 C41.8,29.4 41.1,28 40.4,26.5 C40.1,25.7 39.5,25.4 38.7,25.4 C37.3,25.4 35.9,25.4 34.5,25.3 C33.5,25.2 33,25.7 32.6,26.5 C31.4,28.4 30.2,30.3 29,32.2 C28.8,32.5 28.5,32.8 28.2,33.1 C27.7,33.5 27.4,33.5 27,32.9 C26.6,32.2 26.2,31.4 25.8,30.7 C24.8,28.9 23.8,27.2 22.8,25.5 C22.7,25.2 22.3,25 22,25 C20.3,24.9 18.7,24.8 17,24.7 C16.6,24.7 16.2,24.7 15.9,24.8 C15.1,25.1 14.9,25.6 15.2,26.4 C15.6,27.4 16,28.4 16.4,29.5 C18,33.5 19.7,37.5 21.3,41.5 C21.9,42.9 22.7,43.6 24.4,43.6 C26.7,43.5 29,43.6 31.3,43.6 C31.9,43.6 32.4,43.4 32.7,42.8 C33.3,41.7 34,40.7 34.7,39.7 C35.3,38.9 36,38.2 36.7,37.4 Z M8.4,137.1 L8.4,137.1 L8.4,138.1 C8.5,143 8.6,147.9 8.8,152.8 C8.8,153.7 8.9,154.5 9.1,155.4 C9.2,155.7 9.5,155.9 9.7,156.1 C9.8,155.8 10.1,155.6 10.1,155.3 C10.2,154.9 10.2,154.5 10.2,154.1 C10.1,151.3 10,148.6 10,145.8 C9.9,141.1 9.9,136.4 9.8,131.7 C9.7,125.9 9.7,120.2 9.6,114.4 C9.6,114.2 9.6,114 9.7,113.8 C10.2,112.5 10,111.2 10,109.8 C9.9,108.6 9.9,107.5 10,106.3 C10.2,101 10.7,95.8 10.6,90.5 C10.5,82.2 10.8,73.9 11,65.6 C11.2,59 11.3,52.4 11.4,45.9 C11.4,41.9 11.2,37.9 11.2,33.9 C11.2,31.4 11.4,29 11.5,26.5 C11.6,23.7 11.6,21 11.6,18.2 C11.6,16.6 11.7,15 11.6,13.4 C11.5,12 11.5,10.7 11.8,9.3 C11.9,8.9 11.9,8.4 11.8,7.9 C11.8,7.4 11.4,7.3 10.9,7.3 C10.4,7.3 10.4,7.6 10.4,8 L10.4,9.7 C10.3,17.6 10.1,25.5 10,33.5 C9.9,38 9.9,42.4 9.8,46.9 C9.7,53.2 9.5,59.5 9.5,65.7 C9.6,72.4 9.6,79 9.3,85.7 C9.1,91.8 8.9,98 8.8,104.2 C8.7,107 8.8,109.8 8.8,112.6 C8.7,116.4 8.6,120.1 8.5,123.9 C8.3,128.4 8.4,132.8 8.4,137.1 Z M13.1,25.7 L12.8,25.7 C12.7,26.1 12.7,26.6 12.7,27 C12.6,33.6 12.5,40.1 12.4,46.7 C12.3,51.5 11.8,56.3 11.9,61.1 C12,68.9 11.9,76.8 11.8,84.6 C11.6,93.6 10.7,102.6 11.1,111.6 C11.3,116 11.1,120.4 11.1,124.8 L11.1,125.8 C10.6,129.4 10.7,133.1 10.9,136.8 C11.1,139.1 11.1,141.4 11.2,143.7 C11.2,144.7 11.3,145.8 11.4,146.8 L11.4,149.1 C11.4,149.7 11.2,150.3 11.3,150.9 C11.4,152 11.5,153.1 11.7,154.2 C11.8,154.7 11.9,155.2 11.9,155.7 L12.1,155.7 C12.2,155.4 12.2,155.1 12.2,154.9 C12.4,151 12.5,147.1 12.6,143.3 C12.7,141.4 12.6,139.4 12.6,137.5 C12.5,135.5 12.3,133.4 12.4,131.4 C12.4,129.6 12.5,127.8 12.3,126 C11.8,120.7 12.2,115.3 12.5,110 C12.6,106.9 12.9,103.9 13.1,100.8 C13.2,97.9 13.3,94.9 13.3,92 C13.3,88.2 13.1,84.4 13.1,80.6 C13.2,72.1 13.4,63.5 13.5,55 L13.5,51.1 C13.6,47.8 14,44.6 14,41.3 C14,36.6 13.7,31.8 13.5,27.1 C13.4,26.6 13.2,26.1 13.1,25.7 Z M161.4,157.3 L161.8,157.3 C161.9,156.8 162,156.3 162.1,155.8 C162.5,153.1 163,150.3 162.6,147.6 C162.3,145.6 162.4,143.7 162.6,141.8 C162.9,139.3 161.9,137 161.8,134.6 C161.8,134.1 161.7,133.6 161.7,133.2 C161.9,131.6 162.2,130 162.2,128.4 C162.3,124.4 162.3,120.3 162.3,116.3 C162.3,107 162.2,97.7 162.1,88.4 C162,78.7 161.9,69 161.8,59.2 C161.8,54.8 161.7,50.5 161.8,46.1 C161.8,44.1 162.1,42.1 162.2,40.1 C162.3,36.4 162.3,32.7 162.3,29 C162.3,25.5 162.3,22 162.2,18.5 C162.1,16.1 161.8,13.6 162.8,11.3 C162.9,11.2 162.8,10.9 162.7,10.8 C162.6,10.7 162.2,10.7 162.2,10.8 C161.9,11.2 161.6,11.7 161.5,12.1 C161.4,15.8 161.3,19.4 161.2,23.1 C161.1,31 161.1,38.9 161,46.9 C161,52.3 160.9,57.7 160.9,63.1 C160.9,65.8 161.1,68.5 161.2,71.2 C161.2,73.2 161,75.2 161,77.2 C161,83.4 161.1,89.6 161.1,95.7 L161.1,111.9 C161.1,113 161.2,114.2 161.3,115.3 C161.3,117.3 161.3,119.2 161.4,121.2 C161.4,123.5 161.7,125.8 161.5,128.1 C161.3,131.5 160.5,134.8 160.8,138.2 C161,140.5 161,142.8 161.1,145.1 C161.3,148.8 161.7,152.5 161.2,156.2 C161,156.6 161.3,157 161.4,157.3 Z M159.6,18.2 L159.3,18.2 C159.2,18.7 159.2,19.2 159.1,19.7 C158.9,20.9 158.5,22.2 158.4,23.4 C158.2,27.3 158.1,31.1 157.9,35 C157.9,36.3 157.8,37.6 157.8,39 C157.8,41.5 157.9,44 157.8,46.5 C157.6,51.5 157.3,56.4 158.1,61.3 C158.7,64.8 158.9,68.4 158.4,71.9 C157.8,75.9 157.8,79.9 157.9,83.9 C158,86.3 158.2,88.6 158.3,91 C158.3,92.6 158.2,94.2 158.2,95.8 C158.1,97.6 157.9,99.3 157.8,101.1 C157.8,102.1 158.1,103.2 158.3,104.3 C158.3,104.5 158.4,104.8 158.4,105 C158.3,107.6 158.1,110.1 158,112.7 C157.9,115.5 158,118.3 157.8,121.1 C157.6,123.5 157.9,125.9 158.1,128.3 C158.1,128.8 158.4,129.1 158.9,129.1 C159.5,129.1 159.2,128.6 159.2,128.3 C159.2,126.6 159.2,124.9 159.3,123.2 C159.4,119 159.8,114.7 159.4,110.5 L159.4,109.2 C159.5,107.7 159.7,106.1 159.7,104.6 C159.7,101.2 159.5,97.8 159.6,94.4 C159.7,92.6 159.8,90.8 159.6,89 C159.3,85.3 158.8,81.5 159.1,77.7 C159.3,75.5 159.3,73.4 159.4,71.2 C159.5,69.2 159.5,67.1 159.5,65.1 C159.5,63.3 159.4,61.6 159.3,59.8 C159.3,59.3 159.1,58.8 159.1,58.3 C159.2,54.2 159.3,50.1 159.3,46 C159.4,40.3 159.4,34.5 159.5,28.8 C159.5,26.5 159.9,24.3 160,22 C159.9,20.6 159.7,19.4 159.6,18.2 Z M141.3,89.1 L141.8,89.1 C145.5,87.6 148.2,85 150.4,81.8 C150.8,81.3 151.1,80.7 151.6,80.3 C152.9,79.5 153.7,78.3 154.2,77 C154.6,76 155,75.1 155.4,74.1 C155.6,73.7 155.7,73.3 155.7,72.9 C155.8,70 155.9,67.2 155.9,64.3 C155.9,61.4 155.6,58.6 154.9,55.8 C154.8,55.4 154.5,55 154.3,54.6 L154,54.6 C153.9,55.2 153.8,55.8 153.7,56.5 C153.6,58.1 153.5,59.8 153.3,61.4 C152.7,66.4 151.1,71 149,75.6 C147.3,79.3 145.6,83 142.9,86.1 C142.4,86.9 142,88 141.3,89.1 Z M15.6,32.6 L15.4,32.6 C15.3,32.9 15.2,33.2 15.1,33.5 C15,35.2 14.7,36.9 14.9,38.6 C15.1,41.3 15,44 14.9,46.7 C14.8,50.9 14.7,55.1 14.7,59.3 C14.7,61.6 14.6,64 14.5,66.3 L14.5,85.3 C14.5,86.4 14.5,87.5 14.4,88.6 C13.9,92.2 14.1,95.9 14.2,99.5 L14.2,104 C14.5,102.4 14.8,100.7 14.8,99.1 C14.9,96.5 14.8,93.9 14.9,91.3 C15.1,83.1 15.4,74.8 15.6,66.6 C15.7,64.5 15.6,62.3 15.7,60.2 C15.8,57.8 16.2,55.3 16.2,52.9 C16.2,47.9 16.1,42.9 16,38 L16,33.5 C15.9,33.1 15.7,32.9 15.6,32.6 Z M155.9,79.5 C155.1,80.1 155,80.8 154.9,81.4 C154.8,82.3 154.8,83.2 154.8,84.2 C154.8,89.5 154.7,94.7 154.8,100 C154.8,102 155.2,104.1 155.2,106.1 C155.2,108.4 154.9,110.7 154.9,113 C155,117.6 155.2,122.2 155.3,126.8 C155.3,127.3 155.5,127.8 155.6,128.2 L155.9,128.2 C156,127.8 156.2,127.4 156.3,127 C156.4,125 156.4,122.9 156.4,120.9 C156.4,118.8 156.4,116.6 156.5,114.5 C156.5,113.5 156.9,112.5 156.8,111.5 C156.7,109 156.5,106.5 156.4,104 C156.3,96.5 156.3,88.9 156.2,81.4 C156.3,80.8 156.1,80.2 155.9,79.5 Z M122.7,133.6 C122.8,133.6 122.9,133.6 123.1,133.7 C123.2,133.2 123.5,132.7 123.5,132.1 C123.5,126.6 123.1,121.1 123.5,115.6 C123.8,110.9 123.7,106.1 123.7,101.3 C123.8,93.3 123.8,85.3 123.9,77.2 C123.9,76.8 123.9,76.3 123.7,76 C123.5,75.5 123,75.5 122.9,76 C122.7,76.5 122.7,77 122.7,77.5 C123,80.6 123.4,83.7 123.1,86.8 C122.9,88.3 122.9,89.7 122.8,91.2 C122.6,95.4 122.4,99.6 122.2,103.7 C122.1,105 121.9,106.4 122,107.7 C122.1,111 122.3,114.3 122.4,117.5 C122.5,121.5 122.5,125.4 122.6,129.4 C122.4,130.9 122.6,132.2 122.7,133.6 Z M153.1,82.9 L153,82.8 C152.7,83.1 152.3,83.3 152.2,83.7 C152,84.5 151.8,85.3 151.8,86 C151.8,89.9 151.9,93.7 151.9,97.6 L151.9,111.2 C151.9,115.8 151.8,120.5 151.8,125.1 C151.8,126 152,126.9 152.2,127.7 C152.3,127.9 152.7,128.2 152.9,128.2 C153.1,128.2 153.4,127.8 153.4,127.5 C153.5,126 153.6,124.5 153.6,123 C153.5,118.2 153.3,113.3 153.1,108.5 C153.1,107.7 153.2,107 153.2,106.2 C153.3,105.7 153.5,105.2 153.5,104.7 C153.5,103 153.5,101.4 153.3,99.7 C153.2,98.4 152.7,97.1 152.7,95.7 C152.7,93.2 152.8,90.7 152.9,88.2 C153.1,86.6 153.1,84.7 153.1,82.9 Z M19.2,92.4 C20,91.6 20,90.8 20.1,89.9 C20.3,85.1 20.1,80.4 20.9,75.6 C21.4,72.7 21.2,69.7 21.2,66.7 C21.1,60.3 20.6,53.8 21.1,47.4 C21.1,46.7 20.7,46 20.4,45.3 C20.3,45.3 20.2,45.3 20,45.4 C19.9,47 19.9,48.5 19.8,50.1 C19.7,52 19.7,53.9 19.6,55.8 C19.6,56.8 19.5,57.7 19.5,58.7 C19.5,60 19.7,61.4 19.7,62.7 C19.6,64.5 19.4,66.3 19.3,68.1 C19.1,72.1 19,76.2 18.9,80.2 C18.9,80.4 18.9,80.5 19,80.7 C19.5,82.1 19.4,83.5 19.2,84.9 C19,86.8 18.8,88.8 18.7,90.8 C18.8,91.2 19.1,91.8 19.2,92.4 Z M150.1,86.4 L149.8,86.4 C149.7,86.8 149.6,87.2 149.6,87.6 C149.5,91 149.4,94.4 149.3,97.8 C149.3,99.7 149.5,101.7 149,103.6 C148.9,104.1 149,104.6 149,105.2 C149.1,105.9 149.2,106.5 149.3,107.2 C149.4,110.7 149.4,114.2 149.4,117.7 L149.4,124.8 C149.4,125.7 149.3,126.5 149.3,127.4 C149.3,127.8 149.6,128.1 149.8,128.4 C150,128.1 150.2,127.8 150.4,127.4 L150.4,127.2 C150.5,125.5 150.6,123.9 150.7,122.2 L150.7,116.8 C150.8,106.9 150.8,97 150.3,87.1 C150.2,86.9 150.2,86.6 150.1,86.4 Z M129.8,126.6 L130.1,126.6 C130.2,126.2 130.4,125.9 130.4,125.5 C130.5,123.7 130.6,121.9 130.5,120.1 C130.4,114.8 130.3,109.5 130.3,104.3 C130.3,98.4 130.4,92.6 130.4,86.7 C130.4,84.3 130.4,81.9 130.5,79.5 C130.5,79 130.4,78.6 129.7,78.5 C129.7,78.8 129.6,79.1 129.6,79.4 L129.6,91.5 C129.6,91.9 129.6,92.3 129.5,92.7 C128.6,94.7 128.5,96.7 128.8,98.8 C129.3,101.2 129.7,103.6 129.4,106.1 L129.4,106.6 C129.5,108 129.6,109.5 129.6,110.9 C129.5,115.2 129.2,119.5 129.1,123.8 C129.1,124.9 129.2,125.8 129.8,126.6 Z M147.6,88.5 L147.3,88.5 C147.2,89.3 147.1,90 147.1,90.8 C146.9,93.5 146.7,96.2 146.6,98.8 C146.6,99.6 147,100.5 146.8,101.2 C146.4,103 146.5,104.9 146.5,106.7 C146.5,108.2 146.7,109.7 146.7,111.2 C146.8,112.4 146.9,113.6 146.8,114.8 C146.7,117 146.6,119.2 146.5,121.4 C146.4,122.8 146.4,124.2 146.4,125.6 C146.4,126.4 146.3,127.2 146.4,128 C146.4,128.2 146.7,128.5 146.8,128.5 C147,128.5 147.4,128.3 147.4,128.1 C147.6,127.3 147.8,126.5 147.8,125.7 C147.9,121.3 147.9,117 148,112.6 C148,111.2 148.2,109.8 148,108.4 C147.4,105.5 147.4,102.5 147.5,99.5 C147.6,96.1 147.7,92.8 147.7,89.4 C147.8,89.2 147.7,88.8 147.6,88.5 Z M23.8,46.2 C23.5,46.5 23.2,46.5 23.2,46.7 C22.9,47.4 22.6,48.1 22.5,48.8 C22.3,50.1 22.3,51.4 22.3,52.8 L22.3,60.6 C22.3,61.6 22.2,62.6 22.2,63.6 C22.3,67.2 22.5,70.8 22.5,74.3 C22.6,77.2 22.5,80.1 22.5,83 C22.5,83.3 22.6,83.7 22.7,84 L23,84 C23.1,83.7 23.2,83.5 23.2,83.2 C23.3,80.5 23.6,77.7 23.6,75 C23.7,71.1 23.6,67.3 23.6,63.4 C23.6,61.9 23.4,60.5 23.5,59 C23.8,55.2 24.2,51.4 24,47.5 C23.9,47.2 23.9,46.8 23.8,46.2 Z M144.2,130.6 C144.8,130.3 145,129.9 145,129 L145,125.7 C145,123 145.1,120.4 145.1,117.7 C145.2,114.3 145.2,110.9 145.2,107.5 C145.2,104.7 145.1,101.8 145,99 C145,96.2 144.9,93.5 144.9,90.7 C144.9,90.5 144.7,90.3 144.6,90.1 C144.4,90.3 144.1,90.5 143.9,90.7 C143.8,90.8 143.9,91 143.9,91.2 L143.9,93.7 C144,98.4 144.1,103.1 144.1,107.7 C144.1,110.9 143.8,114 143.8,117.2 C143.8,120.4 144.1,123.6 144.2,126.8 L144.2,130.6 Z M141.9,132 L142.1,132 C142.2,131.5 142.2,131.1 142.3,130.6 C142.8,126.8 143,123.1 142.4,119.3 C142.3,118.4 141.9,117.5 141.9,116.6 C142,112.7 142.3,108.8 142.4,104.9 C142.5,101.8 142.5,98.8 142.4,95.7 C142.4,94.7 142.1,93.6 142,92.6 L141.8,92.6 C141.8,92.8 141.7,93.1 141.7,93.3 C141.7,95.3 141.6,97.3 141.6,99.3 C141.6,99.9 141.7,100.5 141.6,101.2 C141.5,103.5 141.5,105.8 141.4,108.1 C141.4,109.1 141.3,110.1 141.2,111.1 C141.1,112 140.9,113 141.1,113.8 C141.8,117.5 141.7,121.1 141.6,124.8 C141.5,126.8 141.5,128.7 141.5,130.7 C141.5,131.1 141.8,131.6 141.9,132 Z M18,54 L17.8,54 C17.6,55.2 17.3,56.4 17.2,57.7 C17,60.7 16.9,63.8 16.9,66.8 C16.8,75.7 16.8,84.7 16.7,93.6 L16.7,94.4 L17,94.4 C17.2,91.8 17.4,89.3 17.5,86.7 C17.6,84.5 17.5,82.2 17.6,80 C17.7,76.4 17.9,72.8 17.9,69.2 C18,64.4 18.1,59.6 18.2,54.9 C18.2,54.6 18.1,54.3 18,54 Z M97.3,42 L97,42 C96.5,43 96.5,44 96.5,45 C96.4,47.6 96.3,50.2 96.1,52.8 C95.8,56.6 95.3,60.3 95.1,64.1 C95,65.6 95.1,67.1 95.2,68.6 C95.2,69.2 95.6,69.3 96.4,69.2 C97,69.1 96.9,68.7 96.8,68.3 C96.7,68 96.6,67.6 96.6,67.3 C96.6,64.3 96.8,61.3 96.7,58.3 C96.7,55.1 97.5,52 97.3,48.8 C97.2,46.8 97.4,44.8 97.4,42.8 C97.4,42.5 97.3,42.3 97.3,42 Z M125.8,77 L125.5,77 C125.5,77.3 125.4,77.5 125.4,77.8 L125.4,81.7 C125.3,89 125.1,96.4 125.2,103.7 C125.3,109 125.2,114.4 125,119.7 C124.9,123.1 124.9,126.5 124.9,129.9 C124.9,130.2 125,130.5 125,130.8 L125.3,130.8 C125.4,130.5 125.4,130.3 125.4,130 C125.4,127.3 125.3,124.6 125.4,121.9 C125.5,118.5 125.8,115 125.9,111.6 C126,106.8 125.8,101.9 125.8,97.1 C125.8,90.8 125.9,84.4 125.9,78.1 C126,77.8 125.9,77.4 125.8,77 Z M106,72.9 L106.3,72.9 C106.3,72.3 106.4,71.6 106.4,71 C106.5,67.9 106.7,64.8 106.7,61.7 C106.8,59.1 106.6,56.5 106.7,53.9 C106.8,49.5 107,45.1 107.1,40.8 L107.1,37.7 C107.1,37.5 106.9,37.2 106.8,37.2 C106.6,37.2 106.3,37.3 106.2,37.4 C106.1,37.5 106.1,37.8 106.1,38 L106.1,47.3 C106.1,48.6 105.6,49.9 105.8,51.1 C106.2,53.1 105.9,55.1 105.9,57 L105.9,66.3 C105.9,66.6 105.8,66.9 105.8,67.2 C105.5,68.5 105.2,69.9 105.5,71.3 C105.6,71.8 105.8,72.3 106,72.9 Z M84.6,40.2 L84.3,40.2 C84.3,41.3 84.2,42.5 84.2,43.6 L84.2,50.3 C84.2,51.2 84.1,52.1 84.2,53.1 C84.4,57.2 84.6,61.2 84.8,65.3 C84.8,65.5 84.9,65.7 85,65.9 C85.1,66 85.3,66.1 85.4,66.2 C85.5,66.1 85.6,65.9 85.6,65.8 L85.6,65.1 C85.5,63.6 85.4,62 85.4,60.5 C85.4,57.9 85.5,55.4 85.5,52.8 C85.5,49.5 85.4,46.3 85.4,43 C85.4,41.9 85.2,41 84.6,40.2 Z M103.4,68.5 L103.7,68.5 C103.9,67.3 104.2,66 104.3,64.8 C104.4,62.1 104.4,59.4 104.4,56.7 C104.4,54.4 104.7,52.1 104.3,49.8 C104.2,49.3 104.4,48.7 104.5,48.1 C104.5,47.8 104.6,47.6 104.6,47.3 C104.5,44.5 104.3,41.7 104.2,38.9 C104.2,38.8 104.1,38.7 104.1,38.5 C103.2,39.1 103.4,40 103.5,40.6 C103.9,43.6 103.6,46.6 103.4,49.6 C103.3,50.5 103.3,51.4 103.4,52.3 C103.4,53.9 103.6,55.5 103.6,57.1 C103.5,59.9 103.3,62.7 103.2,65.5 C103.1,66.6 103.3,67.5 103.4,68.5 Z M99.4,41.2 C99.4,41.3 99.3,41.4 99.3,41.5 C99.2,41.8 99.1,42 99,42.3 C98.4,44.4 98.4,46.5 98.6,48.7 C98.7,49.6 98.9,50.5 98.8,51.4 C98.7,53.3 98.4,55.1 98.3,57 C98.1,60.1 98.1,63.3 98,66.4 C98,67.5 98.3,68.5 98.9,69.4 C99,69.1 99,68.9 99,68.7 C99.1,64.6 99.2,60.5 99.3,56.4 C99.3,55.5 99.3,54.5 99.5,53.6 C100.5,49.3 99.7,45.3 99.4,41.2 Z M139.5,94.5 L139.3,94.5 C139.2,95.6 139.1,96.6 139.1,97.7 C139.1,101.2 139.3,104.6 139.1,108.1 C138.7,114.5 138.7,121 139,127.4 C139,127.6 139.2,127.9 139.2,128.1 C140,126.1 140.1,96.9 139.5,94.5 Z M77.5,36.2 C77.3,36.2 77.2,36.3 77,36.3 C76.9,37 76.8,37.8 76.8,38.5 C76.8,40.9 77,43.3 77,45.7 C77,49.3 76.8,52.9 76.8,56.5 C76.8,57.5 76.9,58.6 77,59.6 C77,59.8 77.4,60 77.6,60.2 C77.7,60 77.9,59.8 77.9,59.6 C78,57 78,54.4 78.1,51.8 C78.1,51.1 78,50.3 78,49.6 L78,37.6 C78,37.1 77.7,36.6 77.5,36.2 Z M25.1,78.3 C26,77.6 26.1,77.2 25.8,76.1 C25.6,75.4 25.3,74.7 25.3,73.9 C25.5,70.2 25.8,66.6 25.9,62.9 C26.1,57.8 26.2,52.6 26.3,47.4 C26.3,47.1 26.2,46.7 26.1,46.4 L25.8,46.4 C25.8,46.6 25.7,46.8 25.7,47 C25.4,50.8 25.1,54.6 25,58.5 C24.8,64.7 24.8,70.8 24.8,77 C24.8,77.5 25,77.9 25.1,78.3 Z M13.8,123.6 C13.7,123.8 13.6,124 13.6,124.1 C13.7,125.9 13.7,127.8 13.9,129.6 C14,130.6 13.9,131.6 13.7,132.5 C13.5,133.4 13.5,134.3 13.6,135.1 C13.8,136.7 14.2,138.3 14.2,140 C14.2,144.1 13.9,148.2 13.8,152.3 C13.8,153.5 14,154.7 14.2,155.8 C14.2,156 14.5,156.2 14.6,156.3 C14.7,156.1 14.8,155.9 14.8,155.7 C14.8,153.9 14.6,152.1 14.7,150.3 C14.7,147.8 14.9,145.2 14.9,142.7 C14.9,139 14.8,135.3 14.7,131.6 C14.7,130 14.9,128.4 15,126.8 C15,125.6 14.9,124.4 13.8,123.6 Z M101.9,39.5 C101.1,40.1 100.8,40.8 101,41.9 C101.3,43.2 101.5,44.5 101.4,45.9 C101.2,48.8 101.2,51.7 101,54.6 C100.8,58.8 100.5,63 100.8,67.2 C100.9,68.1 101,68.9 100.7,69.8 C100.5,70.3 100.7,70.7 101.4,70.9 C101.5,70.2 101.8,69.6 101.8,69.1 C101.8,66.5 101.7,63.9 101.7,61.3 C101.7,58.3 101.8,55.4 101.9,52.4 C101.9,51.5 102,50.5 102,49.6 C102.1,46.8 102.2,43.9 102.2,41.1 C102.2,40.5 102,40.1 101.9,39.5 Z M134.2,123.6 L134.4,123.6 L134.5,123.5 C134.6,119.8 135.4,116.2 134.9,112.4 C134.6,109.7 134.8,106.9 134.9,104.2 C135,97.4 135.1,90.7 135.2,83.9 C135.2,83.6 135.1,83.3 135.1,83 C134.9,83.1 134.8,83.3 134.8,83.5 C134.7,84.6 134.5,85.8 134.5,86.9 C134.5,90.2 134.5,93.5 134.1,96.7 C133.6,101 134.3,105.2 134.4,109.5 C134.5,113.3 134.9,117.2 134.3,121 C134.1,121.8 134.2,122.7 134.2,123.6 Z M61.2,53.3 C62,44.7 61.1,36.2 61.2,27.6 C61,27.7 61,27.8 60.9,28 C60.3,29.1 60.4,30.3 60.4,31.5 C60.2,35.8 60.1,40.1 60.6,44.4 C60.8,45.7 60.8,47 60.5,48.3 C60.4,48.9 60.4,49.5 60.5,50.1 C60.6,50.9 60.8,51.7 60.9,52.4 C60.9,52.8 61.1,53 61.2,53.3 Z M155.8,51.1 C156,50.7 156.2,50.3 156.2,49.9 C156.3,47.6 156.4,45.3 156.4,43 C156.4,39.5 156.3,35.9 156.2,32.4 L156.2,26.3 C156.2,25.8 156.1,25.3 156,24.8 L155.8,24.8 C155.7,25 155.6,25.2 155.6,25.5 C155.4,26.6 155.2,27.8 155.2,28.9 C155.2,31.2 155.3,33.6 155.3,35.9 C155.3,37 155.2,38.2 155.3,39.3 C155.5,42.5 155.9,45.6 155.2,48.8 C155,49.5 155,50.3 155.8,51.1 Z M31.1,46.5 L30.8,46.5 C30.7,46.7 30.6,47 30.6,47.2 C30.4,49.2 30.2,51.2 30.2,53.2 C30.2,55.2 30.1,57.1 29.6,59 C29.4,59.9 29.4,60.8 29.4,61.7 C29.4,63.1 29.6,64.6 29.7,66 C29.8,67.1 29.9,68.3 30,69.4 C30,69.6 30.2,69.8 30.3,70 C30.4,69.8 30.7,69.6 30.7,69.4 C30.8,69 30.8,68.5 30.8,68.1 C30.8,65.8 30.8,63.4 31,61.1 C31.2,59.4 31.3,57.8 31,56.1 C30.9,55.8 31,55.5 31,55.2 C31.1,52.7 31.3,50.1 31.4,47.6 C31.4,47.3 31.2,46.9 31.1,46.5 Z M28.6,46.8 L28.4,46.8 C28.4,46.9 28.4,47 28.3,47.1 C27.7,52 27.5,56.9 27.8,61.8 C27.9,63.4 27.9,65.1 27.2,66.6 C27.1,66.8 27.1,67 27.1,67.3 C27.1,68.2 27.2,69.1 27.2,70.1 L27.2,73.7 C27.2,74 27.4,74.3 27.5,74.7 C28.2,74.1 28.3,73.7 28.3,72.8 C28.3,71.3 28.2,69.8 28.3,68.3 C28.4,64.8 28.5,61.3 28.6,57.8 C28.7,55 28.8,52.2 28.9,49.4 C28.9,48.4 28.7,47.6 28.6,46.8 Z M72.5,33.5 L72.3,33.5 C72.2,33.8 72.2,34.1 72.1,34.4 C71.6,37 71.9,39.6 72,42.2 C72.1,44.7 72.2,47.1 72,49.6 C71.9,51.7 71.9,53.8 72.4,55.8 C72.4,56 72.5,56.2 72.6,56.5 C73.2,55.6 73.3,54.7 73.3,53.9 C73.2,52.8 73.2,51.7 73.2,50.6 L73.2,44.8 C73.2,44.3 73.1,43.9 73.1,43.4 C73.1,42.2 73.2,41.1 73.1,39.9 C73,38 72.9,36.1 72.7,34.2 C72.7,34.1 72.6,33.8 72.5,33.5 Z M121,109.6 L120.7,109.6 C120.5,110.2 120.2,110.8 120.2,111.4 C120.1,113 119.9,114.5 119.9,116.1 C120,120.7 120.2,125.4 120.4,130 C120.4,130.5 120.8,130.9 121,131.4 C121.1,131.4 121.2,131.3 121.3,131.3 L121.3,130.8 L121.3,125.9 L121.3,120.2 C121.3,118.6 121.2,117.1 121.2,115.5 C121.2,113.9 121.3,112.2 121.4,110.6 C121.2,110.3 121,110 121,109.6 Z M58.1,53.3 L58.3,53.3 C58.9,52.5 58.8,51.6 58.8,50.7 C58.8,49.5 58.7,48.3 58.8,47.1 C58.8,46.1 59.1,45.1 59,44.1 C58.9,40.9 58.7,37.7 58.6,34.5 C58.6,34.3 58.5,34.1 58.4,33.9 C58.2,34.2 58,34.5 58,34.8 C57.8,36.9 57.7,39 57.6,41.1 C57.6,42.6 57.7,44.1 57.7,45.6 C57.7,47.9 57.7,50.3 57.8,52.6 C57.9,52.8 58.1,53.1 58.1,53.3 Z M80,61.7 C80.1,61.7 80.2,61.7 80.3,61.6 C80.4,60.8 80.5,60 80.5,59.2 C80.5,55.2 80.6,51.2 80.6,47.2 L80.6,38.6 C80.6,37.9 80.5,37.2 79.7,36.5 C79.6,37.5 79.5,38.3 79.6,39.2 C79.7,41.2 80.1,43.2 79.6,45.2 C79.2,46.6 79.4,48.2 79.5,49.7 C79.6,53.4 79.8,57.2 79.9,60.9 C79.8,61.2 79.9,61.4 80,61.7 Z M67.7,54.5 L68,54.5 C68,54.2 68.1,54 68.1,53.7 C68.1,53 68,52.4 68,51.7 C68.1,50.7 68.3,49.7 68.3,48.7 L68.3,39.2 L68.3,27.2 C68.3,26.8 68.1,26.4 68,26 C67.9,26 67.8,26 67.6,26.1 C67.5,27.7 67.4,29.3 67.4,30.8 C67.4,33.8 67.5,36.8 67.5,39.8 C67.5,42 67.3,44.1 67.3,46.3 C67.3,48.8 67.5,51.4 67.6,53.9 C67.6,54.1 67.7,54.3 67.7,54.5 Z M82.8,64.1 C82.8,63.9 82.9,63.7 82.9,63.6 C82.9,61.4 83,59.2 83,57 C82.9,51.9 82.7,46.9 82.5,41.8 C82.5,40.6 82.6,39.4 82.6,38.2 C82.6,37.7 82.4,37.3 82.3,36.8 L82.1,36.8 C82.1,37.3 82,37.8 82,38.3 L82,43.3 C82,46.4 81.9,49.5 81.9,52.6 C81.9,56 82.1,59.5 82.2,62.9 C82.1,63.4 82.2,63.9 82.8,64.1 Z M65.3,53.9 L65.6,53.9 C65.6,53.6 65.7,53.3 65.7,53 C65.8,50.8 65.9,48.6 65.9,46.4 C66,40.8 66.1,35.2 66.1,29.6 C66.1,28.9 65.9,28.1 65.8,27.4 C65.6,27.6 65.5,27.7 65.5,27.9 C65.3,29.4 65.1,30.9 65,32.3 C64.9,34.1 64.8,35.8 64.8,37.6 C64.9,39.9 65.2,42.1 65.3,44.4 C65.3,46.8 65.2,49.3 65.1,51.7 C65.1,52.3 65.2,53.1 65.3,53.9 Z M137.3,81.3 C137.2,81.3 137.1,81.3 137,81.4 C137,81.6 136.9,81.9 136.9,82.1 C136.8,83.8 136.7,85.6 136.7,87.3 L136.7,104 C136.7,105 136.6,106 136.5,107 C136.3,108.7 136.5,110.4 136.9,112 C137,111.5 137,111 137,110.4 C137.2,105.4 137.3,100.5 137.5,95.5 C137.5,94.4 137.7,93.2 137.1,92.2 C137,92.1 137.1,91.9 137.1,91.8 C137.7,90.3 137.6,88.7 137.6,87.2 C137.5,85.5 137.6,83.9 137.5,82.2 C137.5,81.9 137.4,81.6 137.3,81.3 Z M158,157.5 C158.1,157.5 158.2,157.6 158.3,157.6 C158.4,157.4 158.5,157.3 158.5,157.1 C159.8,149.8 158.9,142.4 159,135.1 C158.7,135.2 158.4,135.4 158.4,135.7 C158.2,136.1 158.1,136.6 158.1,137.1 C158.1,140.6 158.1,144.2 158.2,147.7 C158.2,150.1 158.4,152.5 158.4,154.9 C158.4,155.4 158.3,156 158.2,156.5 C158.2,156.7 158.1,157.1 158,157.5 Z M36.2,41.6 C35.7,42 35.5,42.5 35.5,43.1 C35.5,44.6 35.6,46 35.6,47.5 C35.6,48.1 35.7,48.7 35.5,49.3 C34.9,51.3 34.9,53.4 35,55.4 C35.1,56.7 35,57.9 34.9,59.2 C34.8,60.9 34.7,62.6 34.7,64.2 C34.7,64.4 35,64.9 35.1,64.9 C35.4,64.8 35.8,64.7 35.9,64.4 C36,64.1 36.1,63.7 36,63.4 C35.6,61.8 35.5,60.2 35.7,58.6 C35.9,57.1 36.1,55.7 36.1,54.2 C36.2,50.1 36.2,46 36.3,42 C36.2,41.9 36.2,41.8 36.2,41.6 Z M54.8,16.4 L54.7,16.4 L54.7,11 C54.7,10.6 54.6,10.2 54.4,9.9 C54.1,9.4 53.7,9.5 53.5,10 C53.3,10.5 53.1,11.1 53.1,11.7 C53.1,13.9 53.2,16.2 53.3,18.4 C53.4,19.8 53.4,21.3 53.6,22.7 C53.6,23 53.9,23.2 54.1,23.4 C54.3,23.2 54.5,22.9 54.5,22.7 C54.7,20.5 54.7,18.5 54.8,16.4 Z M132.4,125.9 L132.6,125.9 C132.7,125.7 132.8,125.6 132.8,125.4 C132.9,123.7 133,122 133,120.3 C133,118.6 132.8,116.9 132.8,115.2 C132.8,113.2 133,111.1 132.8,109.1 C132.6,107.3 132.6,105.4 132.6,103.6 L132.6,99.6 C132.6,98.6 132.4,97.6 132.3,96.6 L132.1,96.6 C132.1,97.4 132,98.2 132,99 C132.1,103.9 132.2,108.7 132.3,113.6 C132.3,117 132.3,120.3 132.4,123.7 C132.3,124.4 132.4,125.2 132.4,125.9 Z M27.8,9.6 C27.6,10.2 27.4,10.8 27.3,11.3 C27.2,12 27.3,12.7 27.3,13.5 C27.3,16 27.3,18.5 27.4,21 C27.4,22.8 27.5,24.5 27.6,26.3 C27.7,27 27.9,27.7 28.1,28.4 L28.4,28.4 C28.4,27.9 28.5,27.4 28.5,26.9 C28.5,25.1 28.4,23.3 28.4,21.5 C28.5,18 28.6,14.5 28.7,11 C28.7,10.3 28.5,9.9 27.8,9.6 Z M20.9,156 L21.2,156 C21.3,155.6 21.5,155.2 21.5,154.7 C22.2,149 21.9,143.3 21.1,137.7 C21.1,137.5 20.9,137.4 20.8,137.1 C20.7,137.3 20.7,137.4 20.7,137.5 L20.7,138 C20.7,140.2 21.2,142.4 20.6,144.5 L20.6,144.8 C20.6,146.1 20.6,147.4 20.7,148.7 C20.7,150.1 20.8,151.5 20.8,152.9 C20.8,153.5 20.9,154.2 20.9,154.8 C20.9,155.3 20.9,155.7 20.9,156 Z M63.6,25.7 L63.3,25.7 C63.2,26.2 63.1,26.7 63,27.3 C62.5,31 62.5,34.6 62.8,38.3 C63.1,42.1 63.2,46 63.3,49.9 C63.3,50.7 63.4,51.5 63.5,52.4 L63.7,52.4 C63.7,48.7 63.8,45 63.7,41.4 C63.6,38.3 63.3,35.3 63.6,32.2 C63.8,30.6 63.7,29 63.8,27.4 C63.7,26.8 63.6,26.3 63.6,25.7 Z M104.7,136.8 L104.4,136.8 C104.3,137.2 104.1,137.6 104.1,138.1 C103.6,141.5 103.8,144.9 103.9,148.3 C104,150.3 104.4,152.3 103.8,154.3 C103.6,155 103.8,155.7 104.4,156.4 C104.6,155.9 104.8,155.5 104.9,155.1 C105,154.1 105,153.2 105,152.2 C105,151.4 105.2,150.6 105,149.8 C104.6,148.2 104.6,146.6 104.7,145 C104.8,143.7 104.8,142.5 104.8,141.2 L104.8,138.2 C104.8,137.7 104.8,137.3 104.7,136.8 Z M156,158 C156.4,157.5 156.3,156.9 156.3,156.3 C156.4,154.1 156.5,152 156.6,149.8 C156.7,148.3 156.9,146.7 156.9,145.2 C156.9,144 156.8,142.8 156.6,141.7 C156.6,141.3 156.4,140.9 156.2,140.4 C155.3,141.8 155.2,156.5 156,158 Z M107,134.2 L106.7,134.2 C106.6,135.1 106.4,136 106.4,136.9 C106.4,137.9 106.4,138.9 106.5,139.9 C106.5,140.9 106.5,142 106.7,143 C106.9,144.4 107.2,145.8 106.6,147.2 C106.5,147.3 106.6,147.5 106.6,147.7 C106.7,149.2 106.8,150.8 106.8,152.3 C106.8,153.4 106.7,154.4 106.8,155.5 C106.8,156 107,156.4 107.1,156.9 L107.3,156.9 C107.4,156.6 107.6,156.4 107.6,156.1 C107.7,155.5 107.7,154.8 107.7,154.2 C107.6,151.2 107.5,148.1 107.4,145.1 C107.3,142.3 107.1,139.5 107.7,136.8 C107.8,135.8 107.6,134.9 107,134.2 Z M18.5,133.7 C18.4,133.7 18.3,133.7 18.1,133.8 L18.1,137 C18.2,138.9 18.4,140.7 18.4,142.6 C18.4,146.6 18.3,150.6 18.3,154.7 C18.3,155.1 18.5,155.6 18.6,156 L18.8,156 C18.9,155.7 19,155.4 19,155.2 C19,154 18.9,152.8 18.9,151.6 C18.9,151.1 18.7,150.5 18.9,150.1 C19.7,148.6 19.4,147 19.2,145.4 C19.1,144.8 19.1,144.3 19.1,143.7 C19.1,142.5 19.3,141.2 19.3,140 C19.2,138.1 19,136.3 18.8,134.4 C18.7,134.1 18.6,133.9 18.5,133.7 Z M128.1,103 L127.8,103 C127.4,105.2 127,128.3 127.4,129 C127.9,128.9 128,128.5 128,128 L128,123.1 C128,119.7 127.9,116.3 128,112.9 C128,110.7 128.3,108.4 128.4,106.2 C128.3,105.2 128.1,104.1 128.1,103 Z M18.3,9 C17.6,10.2 17.6,11.5 17.6,12.8 C17.6,14.4 17.8,15.9 17.8,17.5 C17.8,18.7 17.6,19.8 17.5,21 C17.5,21.6 17.6,22.1 17.7,22.7 C17.8,22.9 18.1,23.1 18.3,23.2 C18.4,23 18.7,22.7 18.7,22.5 C18.8,21.3 18.8,20.1 18.8,18.9 C18.9,17.2 18.9,15.4 19,13.7 L19,11.6 C19,10.7 18.9,9.9 18.3,9 Z M153.6,145.2 L153.5,145.2 C153.4,145.6 153.2,146 153.1,146.4 C152.2,150.2 153.2,153.9 153.3,157.7 C153.3,158.1 153.7,158.1 154,157.8 C154.2,157.6 154.3,157.4 154.3,157.1 C154.7,155.1 155.2,153 154.4,150.9 C154.2,150.5 154.2,150 154.1,149.6 C153.9,148.2 153.7,146.7 153.6,145.2 Z M35.4,9.6 C35.2,10.2 34.9,10.7 34.9,11.2 C34.8,12.5 34.8,13.7 34.9,15 C35,17.1 35.1,19.2 35.2,21.3 C35.2,21.9 35.4,22.5 35.5,23.2 L35.8,23.2 C35.9,23 36,22.8 36.1,22.6 C36.2,22 36.2,21.5 36.2,20.9 C36.3,19.2 36.3,17.5 36.3,15.7 C36.3,14.4 36.4,13 36.4,11.7 C36.4,11 36.2,10.2 35.4,9.6 Z M30.5,9.9 L30.2,9.9 C30.1,10.3 30,10.6 30,11 C30,12.2 30.1,13.4 30.1,14.6 C30.1,15.5 30.3,16.5 30.1,17.4 C29.6,20.2 29.8,23 30,25.7 C30,25.9 30.1,26.1 30.2,26.4 L30.5,26.4 C31.1,24.6 30.9,22.8 31.1,21 C31.5,17.2 30.9,13.6 30.5,9.9 Z M38.3,44.6 L38,44.6 C38,44.8 37.9,45.1 37.9,45.3 C37.8,47.8 37.7,50.3 37.6,52.8 C37.5,55.6 37.4,58.5 37.4,61.3 C37.4,61.5 37.6,61.8 37.7,62 C38,61.9 38.3,61.8 38.4,61.6 C38.6,61.4 38.6,61 38.6,60.7 C38.5,58.9 38.3,57 38.3,55.2 C38.3,52.2 38.4,49.2 38.5,46.2 C38.5,45.7 38.4,45.1 38.3,44.6 Z M15,16.4 L15,16.4 C15.1,18.3 15.1,20.2 15.1,22.1 C15.1,22.4 15.3,22.6 15.4,22.9 C15.6,22.6 16,22.4 16,22.1 C16.1,21.4 16.2,20.8 16.2,20.1 C16.1,17 16.1,13.9 16,10.9 L16,9.6 C16,9.4 15.8,9.2 15.8,9 C15.6,9.1 15.4,9.2 15.4,9.4 C15.3,9.8 15.1,10.2 15.1,10.6 C15,12.6 15,14.5 15,16.4 Z M153,46.2 L153.4,46.2 C153.4,45.6 153.5,44.9 153.5,44.3 C153.5,42.6 153.4,40.8 153.4,39.1 C153.4,35.4 153.4,31.6 153.5,27.9 C153.5,27.6 153.4,27.4 153.4,27.1 L153.1,27.1 C152.9,27.7 152.7,28.3 152.7,28.8 C152.7,30.9 152.8,33 152.8,35.1 C152.8,38.3 152.7,41.4 152.7,44.6 C152.6,45 152.9,45.6 153,46.2 Z M70.1,47.7 L70.4,47.7 C70.4,47.3 70.5,47 70.5,46.6 C70.5,43.1 70.4,39.7 70.5,36.2 C70.5,33.6 70.7,31 70.8,28.4 C70.8,27.7 70.8,26.9 70.2,26.2 C70.1,26.5 70,26.8 70,27 C69.9,28.4 69.8,29.8 69.8,31.2 C69.7,35.5 69.6,39.8 69.6,44.1 C69.6,44.7 69.5,45.3 69.6,45.9 C69.7,46.5 69.9,47.1 70.1,47.7 Z M46.4,27 L46.6,27 C46.7,26.5 46.8,26.1 46.8,25.6 C46.8,25.1 46.7,24.6 46.7,24 C46.9,19.6 47.2,15.1 47.4,10.7 C47.4,10.4 47.3,10.1 47.1,9.8 C47,9.7 46.7,9.6 46.5,9.6 C46.4,9.6 46.3,9.9 46.2,10.1 C46.2,13.1 46.2,16.1 46.1,19.1 C46.1,20.6 46,22 45.9,23.5 C46,24.8 45.8,25.9 46.4,27 Z M108.4,59.8 L108.2,59.8 L108.2,60.2 C108.3,64.7 108.4,69.1 108.5,73.6 C108.5,73.8 108.6,74.1 108.8,74.3 C108.9,74.4 109.1,74.5 109.2,74.6 C109.3,74.4 109.4,74.3 109.4,74.1 C109.5,70.5 109.7,66.8 109.2,63.2 C109,62.1 108.7,61 108.4,59.8 Z M101.8,156.4 C101.9,156.3 101.9,156.2 101.9,156.1 C102,154 102.2,152 102.2,149.9 C102.3,148.1 102.2,146.3 102.2,144.5 L102.2,139.5 C102.2,139.3 102.1,139 101.9,138.6 C101.1,142 101,155 101.8,156.4 Z M108,57.3 L108.2,57.3 C109.4,52.6 110.1,41.6 109.3,39.6 C109.3,39.8 109.2,39.9 109.2,40.1 C109.1,41.1 109.1,42.1 109,43.1 C108.8,45.4 108.6,47.7 108.4,50 C108.3,51.5 108,53 107.9,54.5 C107.8,55.4 107.9,56.3 108,57.3 Z M25.6,9.2 C25.5,9.2 25.4,9.3 25.3,9.3 C25.3,9.5 25.2,9.6 25.2,9.8 C25.1,11 24.9,12.1 24.9,13.3 C24.9,16.3 25,19.3 25,22.3 C25,22.7 25.4,23 25.5,23.4 C25.6,23.4 25.6,23.3 25.7,23.3 L25.7,22.9 C25.8,20.7 25.9,18.4 25.9,16.2 C25.9,14.3 25.9,12.4 25.8,10.5 C25.9,9.9 25.7,9.5 25.6,9.2 Z M55.4,53.1 L55.8,53.1 C56,52.4 56.2,51.6 56.2,50.9 C56.3,47.2 56.3,43.5 56.2,39.8 C56.2,39.5 56,39.3 55.9,39 C55.8,39 55.7,39 55.6,39.1 C54.6,43.8 55.7,48.5 55.4,53.1 Z M21.1,9.3 L20.8,9.3 C20.3,10.5 20.2,11.7 20.3,13 C20.4,14.7 20.4,16.5 20.4,18.2 C20.4,19.7 20.4,21.1 20.5,22.6 C20.5,22.8 20.8,23 21,23.2 C21.2,23 21.4,22.8 21.4,22.5 C21.4,20.1 21.4,17.7 21.3,15.3 C21.3,14 21.3,12.8 21.2,11.5 C21.2,10.7 21.2,10 21.1,9.3 Z M40.4,10.6 L40.2,10.6 C40.1,10.9 40,11.1 40,11.4 C39.8,14.6 39.6,17.8 39.4,21 C39.4,21.5 39.5,22 39.7,22.5 C39.8,22.7 40.1,22.9 40.3,23 C40.4,23 40.7,22.7 40.8,22.5 C40.9,22 40.8,21.5 40.8,21 C40.8,19.4 40.7,17.8 40.7,16.2 C40.7,14.9 40.9,13.5 40.9,12.2 C40.7,11.6 40.5,11.1 40.4,10.6 Z M132.7,80.1 C132,81.3 131.7,93.6 132.3,95.2 C132.4,94.9 132.5,94.6 132.5,94.4 C132.6,92.6 132.9,90.7 132.9,88.9 C132.9,86.3 132.8,83.8 133.4,81.3 C133.5,80.7 133.3,80.3 132.7,80.1 Z M23.3,9.7 L23,9.7 C22.9,10.5 22.8,11.3 22.8,12 C22.7,15.4 22.6,18.9 22.5,22.3 C22.5,22.6 22.8,23 23,23 C23.4,23.1 23.6,22.7 23.6,22.3 L23.6,19.6 L23.6,10.6 C23.6,10.4 23.4,10 23.3,9.7 Z M151.1,30.8 C150.3,31.3 150.2,32.1 150.2,32.8 C150.1,34.6 149.9,36.5 149.8,38.3 C149.8,39.1 149.8,39.9 149.9,40.7 C150,41.3 150.4,41.9 151.1,42.3 C151.1,38.4 151.1,34.6 151.1,30.8 Z M87.4,45.1 L87,45.1 C86.9,45.5 86.8,45.8 86.8,46.2 C86.8,47.9 87,49.6 87,51.3 C87.1,55.5 87.1,59.7 87.2,63.9 C87.2,64.2 87.3,64.5 87.3,64.8 L87.5,64.8 C87.5,64.6 87.6,64.5 87.6,64.3 C87.7,59.1 87.7,53.9 87.8,48.7 C87.8,47.5 87.6,46.3 87.4,45.1 Z M99.3,156 C99.4,156 99.5,155.9 99.7,155.9 L99.7,141 L99.5,141 C99.4,141.3 99.3,141.6 99.3,141.9 C99.3,142.8 99.3,143.7 99.2,144.6 C99,147.3 98.8,150 98.6,152.8 C98.6,153.3 98.6,153.9 98.7,154.4 C98.9,154.9 99.1,155.5 99.3,156 Z M48.6,23.8 C48.8,23.6 48.9,23.6 48.9,23.5 C49,23.3 49.1,23.1 49.2,22.8 C49.7,21.2 49.8,19.6 49.8,17.9 C49.7,15.6 49.6,13.3 49.4,11 C49.4,10.8 49.2,10.6 49.1,10.2 C48.6,11.3 48.8,12.3 48.8,13.2 C48.9,14.2 49.1,15.3 48.8,16.3 C48.2,18.8 48.7,21.2 48.6,23.8 Z M33.8,45.1 L33.6,45.1 C32.8,46.6 32.4,49.1 32.6,50.8 C32.7,51.6 32.7,52.4 32.6,53.3 C32.5,54.5 32.3,55.8 32.3,57 C32.3,57.7 32.6,58.4 32.7,59.2 L33,59.2 C33.4,54.4 33.6,49.8 33.8,45.1 Z M48.5,47 C47.7,47.1 47.3,47.6 47.3,48.3 C47.3,49.4 47.4,50.5 47.4,51.6 C47.5,52.7 47.5,53.9 47.7,55 C47.7,55.3 48,55.5 48.1,55.8 C48.3,55.5 48.5,55.3 48.6,55 L48.6,54.8 C49.1,52.2 48.6,49.6 48.5,47 Z M17.7,52 L18,52 C18.5,48.1 18.8,44.2 18.5,40.2 C18.5,39.7 18.2,39.2 18,38.7 C17.8,38.8 17.8,38.9 17.8,39 C17.7,42.8 17.5,46.6 17.4,50.4 C17.4,50.9 17.6,51.5 17.7,52 Z M44.6,14.7 L44.4,14.7 C44.1,19.1 43.5,23.4 44.7,27.7 C44.9,24 45,20.4 45.1,16.7 C45,16 44.8,15.4 44.6,14.7 Z M51.6,9.9 C51.4,10.2 51.3,10.4 51.3,10.5 C51.2,11 51.1,11.6 51,12.1 C50.5,15.6 51.6,19.1 51,22.6 C51,22.7 51.3,22.9 51.4,23.1 C51.5,22.9 51.7,22.7 51.7,22.5 L51.7,10.5 C51.8,10.5 51.7,10.3 51.6,9.9 Z M75.1,34.9 C75,34.9 75,34.9 74.9,35 L74.9,53.4 L75.2,53.4 L75.2,52.5 C75.3,50.7 75.4,48.9 75.4,47 C75.5,43.4 75.5,39.7 75.5,36.1 C75.4,35.7 75.2,35.3 75.1,34.9 Z M50.6,54.8 C51.4,54 51.6,53.1 51.6,52.2 C51.7,50.7 51.8,49.2 51.9,47.7 C51.9,47.1 51.5,47 51,46.9 C50.5,46.8 50.2,46.9 50.2,47.5 C50.2,49 50.2,50.6 50.3,52.1 C50.4,52.9 50.5,53.8 50.6,54.8 Z M42.7,10.4 L42.3,10.4 C42.2,11.8 42.2,13.3 42.1,14.7 C42.1,15.5 41.9,16.3 41.8,17.1 C41.8,17.2 41.7,17.4 41.7,17.5 C41.8,19 41.8,20.5 41.9,22 C42,22.7 42.2,23.3 42.3,24 L42.7,24 C42.7,22.6 42.8,21.2 42.7,19.7 C42.6,17.6 42.4,15.6 42.8,13.5 C43.2,12.5 43.1,11.4 42.7,10.4 Z M33.2,23.1 C33.4,23.1 33.5,23.1 33.7,23 L33.7,21.9 C33.6,20.3 33.4,18.7 33.4,17.1 C33.4,15.1 33.5,13 33.6,11 C33.6,10.4 33.5,9.8 32.8,9.5 C32.3,10.4 32.3,11.3 32.5,12.1 C33.1,14.6 33.1,17.2 32.8,19.7 C32.7,20.1 32.7,20.5 32.8,20.8 C32.8,21.6 33,22.4 33.2,23.1 Z M12.9,23.7 C13.5,22.1 13.7,20.4 13.7,18.6 C13.7,15.6 13.8,12.7 13.8,9.7 C13.8,9.5 13.6,9.2 13.6,9 C13.5,9 13.5,9 13.4,9.1 C13,14 12.5,18.9 12.9,23.7 Z M45.2,56.7 C46,56.6 45.9,56.2 45.9,55.8 L45.9,48 C45.9,47.8 45.9,47.5 45.8,47.3 C45.7,47.2 45.6,46.9 45.5,46.9 C45.3,46.9 45.1,47.1 45,47.2 C44.8,47.7 44.6,48.1 44.6,48.6 C44.6,49.9 44.7,51.1 44.8,52.4 C44.9,53.9 45,55.3 45.2,56.7 Z M109.4,156.8 C110.3,155.9 110.1,144.3 109.3,142.1 L109.3,146.4 C109.2,149.5 109.1,152.6 109.1,155.6 C109.1,156 109.2,156.4 109.4,156.8 Z M121,91.5 C121,86.4 121.5,81.3 120.8,76.2 C120.6,77.6 120.5,79 120.5,80.4 C120.6,83 120.7,85.5 120.3,88.1 C120.1,89.3 120.2,90.5 121,91.5 Z M40.5,46.9 C40.4,46.9 40.3,47 40.2,47 L40.2,47.5 C40.2,49.1 40.2,50.8 40.1,52.4 C40,54.5 39.9,56.6 39.8,58.7 C39.8,59 40.2,59.3 40.4,59.6 C40.6,59.3 40.9,59.1 41,58.8 C41.1,58.7 41,58.5 41,58.4 C40.9,57.6 40.8,56.7 40.7,55.9 C40.5,54 40.1,52.1 40.7,50.1 C40.9,49.3 40.8,48.5 40.8,47.7 C40.9,47.4 40.7,47.2 40.5,46.9 Z M38.3,11.3 L37.9,11.3 C37.4,15.1 37.5,19 37.9,22.8 C38.6,19 38.7,15.2 38.3,11.3 Z M150.8,149.1 C149.9,149.9 149.9,156.6 150.8,157.4 C151.8,155.6 151.8,150.3 150.8,149.1 Z M127.7,99.7 C128.2,98.6 128.4,97.5 128.4,96.3 C128.3,94.8 128.3,93.4 128.2,91.9 C128.1,90.6 128.1,89.2 128,87.9 L127.8,87.9 C127,91.9 127.4,95.8 127.7,99.7 Z M26,146.5 C25.9,146.5 25.8,146.6 25.6,146.6 C25.6,147.5 25.5,148.3 25.6,149.2 C25.8,151 25.9,152.8 25.5,154.5 C25.4,154.9 25.4,155.4 25.5,155.8 C25.5,156 25.7,156.2 25.9,156.3 C26.1,156.1 26.4,155.9 26.4,155.7 C26.4,152.9 26.5,150.2 26.4,147.4 C26.5,147.1 26.2,146.8 26,146.5 Z M42.7,58.1 C42.8,58.1 42.9,58 42.9,58 C43.3,57 43,47.5 42.6,47.1 C42.6,47.3 42.5,47.5 42.5,47.7 C42.4,48.9 42.3,50.1 42.3,51.4 C42.2,53.3 42.2,55.1 42.2,57 C42.3,57.3 42.6,57.7 42.7,58.1 Z M132.1,146.2 L131.8,146.2 C131.3,147.6 131.3,149.2 131.3,150.7 C131.3,152.6 131.2,154.5 131.2,156.4 C131.2,156.6 131.2,156.8 131.3,157 C131.4,157.1 131.6,157.3 131.6,157.3 C131.8,157.3 132,157.1 132,157 C132.1,156.8 132,156.6 132,156.4 L132,150.6 C132.1,149.2 132.1,147.7 132.1,146.2 Z M111.5,146 C111,147.3 111,148.7 111.1,150 C111.2,151.8 111.4,153.6 111.5,155.4 C111.5,155.6 111.6,155.9 111.6,156.1 C111.8,155.7 111.8,155.3 111.8,154.9 C111.9,152.5 112,150.1 112.1,147.7 C112.2,147.2 112.2,146.5 111.5,146 Z M118.3,116.8 C117.3,118.7 117.4,126.9 118.4,127.5 C118.4,124 118.8,120.5 118.3,116.8 Z M53.9,44.3 L53.5,44.3 C53.4,44.9 53.2,45.6 53.1,46.2 C53,46.8 53.1,47.4 53.1,48.1 C53,49.9 52.9,51.6 52.9,53.4 C52.9,53.6 53.1,53.8 53.1,54 C53.2,53.8 53.5,53.6 53.5,53.4 C53.7,51.3 53.9,49.2 54,47.1 C54.1,46.2 54,45.3 53.9,44.3 Z M93.8,156.4 C93.9,156.4 94,156.5 94.1,156.5 C94.2,156.2 94.5,155.9 94.5,155.6 C94.8,153.3 94.7,151.1 94.2,148.9 C94.2,148.8 94.1,148.6 94,148.4 C93.3,151.1 93.4,153.7 93.8,156.4 Z M136.1,150.7 C136,151.9 135.8,152.9 135.7,153.9 C135.7,154.8 135.7,155.7 135.8,156.6 C135.8,156.9 136.1,157.1 136.3,157.4 C136.5,157.1 136.9,156.8 137,156.5 C137.1,155.3 137.1,154.1 137.1,152.8 C137,152.1 136.8,151.3 136.1,150.7 Z M111.3,47.7 C111.4,47.7 111.5,47.8 111.6,47.8 C111.8,47.6 112,47.5 112,47.3 C112.1,46.7 112.3,46.1 112.2,45.6 C111.9,43.2 111.5,40.8 111.8,38.4 C111.8,38.1 111.6,37.9 111.5,37.6 C111.4,37.6 111.4,37.7 111.3,37.7 L111.3,47.7 Z M96.7,144.7 C96.2,145.4 95.9,147.7 96.2,148.5 C96.6,149.7 96.5,150.9 96.4,152.2 C96.3,153.4 96.3,154.7 96.3,155.9 C96.3,156.1 96.5,156.3 96.6,156.6 C96.8,154.9 96.9,153.3 96.9,151.7 L96.9,145.7 C96.9,145.4 96.8,145.1 96.7,144.7 Z M16.7,145.3 C15.9,147.5 15.9,155.2 16.7,156.2 C17,155 17,145.7 16.7,145.3 Z M148.3,39.2 L148.4,39.1 C148.5,37.2 148.5,35.3 148.6,33.5 C148.6,33.4 148.3,33.1 148.1,33.1 C147.9,33.1 147.6,33.4 147.5,33.6 C147.4,34.9 147.3,36.3 147.3,37.6 C147.2,38.2 147.5,38.9 148.3,39.2 Z M33,60.7 L32.7,60.7 C32.1,63 31.9,65.3 32.2,67.6 C33,67.6 33.3,67.4 33.3,66.7 C33.2,65.5 33.2,64.4 33.2,63.2 C33.2,62.4 33.1,61.6 33,60.7 Z M137,114.8 C137,118.7 136.1,122.5 136.7,126.4 C137.3,125.2 137.5,115.8 137,114.8 Z M115.9,120.3 C115.4,122.8 114.7,125.1 115.8,127.5 C116.5,126.8 116.6,121.6 115.9,120.3 Z M116.9,39.9 C116.4,40.8 116.3,41.7 116.5,42.7 C116.6,43.1 116.7,43.6 117.3,43.5 C118.1,43.4 118.7,42.9 118.6,42.3 C118.5,41.7 118.4,41.2 118.1,40.7 C117.9,40.2 117.6,39.9 116.9,39.9 Z M23.7,143 C23.6,143 23.5,143 23.4,143.1 L23.4,146.6 C23.4,146.9 23.3,147.2 23.2,147.5 C22.6,148.9 22.9,151.6 23.8,153 C23.8,152.8 23.9,152.6 23.9,152.4 C23.9,149.6 24,146.8 23.9,144.1 C24,143.7 23.8,143.3 23.7,143 Z M70.1,50.3 C69.1,52.2 69.2,54.9 70.4,55.7 C71,53.8 70.4,52.1 70.1,50.3 Z M28.9,148.8 L28.7,148.8 L28.7,155.4 C28.7,155.5 28.7,155.6 28.8,155.7 C28.9,155.8 29.1,155.9 29.2,156 C29.3,155.8 29.4,155.7 29.4,155.5 C29.3,153.9 29.3,152.3 29.2,150.7 C29.1,150.1 29,149.5 28.9,148.8 Z M118.5,73.2 C118.4,73.2 118.3,73.3 118.2,73.3 C118.2,75.2 117.8,77.2 118.5,79.1 C118.8,77.5 119,75.8 119.1,74.2 C119.1,73.9 118.7,73.5 118.5,73.2 Z M16.4,136.7 C15.7,138.1 15.9,142.3 16.7,143.1 C16.9,140.2 17.1,137.9 16.4,136.7 Z M129.8,147.6 L129.6,147.6 C129.6,148.5 129.5,149.3 129.5,150.2 C129.5,151.8 129.5,153.4 129.4,155 C129.4,155.3 129.5,155.6 129.5,155.8 L129.7,155.8 C130.4,153 130.2,150.3 129.8,147.6 Z M127.9,84.9 L128.1,84.9 L128.1,77.8 C127.3,80.1 127.7,82.5 127.9,84.9 Z M118.3,157.1 C118.5,157 118.6,156.9 118.6,156.9 C118.7,155.5 118.9,154 118.9,152.5 C118.9,152.3 118.5,152.1 118.2,151.9 C118.1,152.2 117.8,152.5 117.8,152.7 C118.2,153.7 117.9,154.7 117.9,155.7 C118,156.2 118.2,156.6 118.3,157.1 Z M89.6,49.8 C89.5,50.1 89.5,50.2 89.5,50.4 C89.4,52.5 89.4,54.6 89.3,56.7 L89.3,56.8 C89.4,57.1 89.5,57.4 89.6,57.8 C90.3,56 90.2,52.1 89.6,49.8 Z M113.6,78.1 C114.3,77.1 114,70.6 113.2,70.1 C113.4,72.9 113.5,75.5 113.6,78.1 Z M120.9,156.9 C121,156.9 121.1,156.9 121.2,157 C121.3,156.7 121.5,156.3 121.6,156 C121.7,155.2 121.7,154.4 121.8,153.6 C121.8,153.3 121.9,153 121.8,152.8 C121.6,152.5 121.2,152.3 120.9,152.2 C120.4,152.2 120.6,152.6 120.6,152.9 C120.7,153.8 120.7,154.6 120.8,155.5 C120.9,156 120.9,156.4 120.9,156.9 Z M113.7,157.1 C114.4,155.5 114.2,152 113.4,151.5 C113.3,153 113.2,154.5 113.2,156 C113.2,156.4 113.5,156.7 113.7,157.1 Z M116.1,79.4 C116,77 116.5,74.7 116.1,72.3 C115.1,74.7 115.9,77.1 116.1,79.4 Z M86.9,25.5 L86.7,25.5 L86.7,26.2 L86.7,30.2 C86.7,30.5 86.9,30.7 86.9,31 C87,31 87.1,31 87.1,30.9 C87.2,29.2 88.2,27.3 86.9,25.5 Z M139.5,88 C139.6,86.4 139.7,84.8 139.7,83.2 C139.7,83 139.5,82.8 139.4,82.6 C138.8,83.9 138.7,87.5 139.5,88 Z M91.4,156.4 C92.6,155.4 92.6,153 91.4,152 C91.5,153.5 91,154.9 91.4,156.4 Z M110.8,28.6 C110.9,28.6 111,28.6 111.2,28.7 C111.4,28.3 111.7,28 111.7,27.6 C111.7,26.6 111.6,25.6 111.5,24.7 C111.5,24.6 111.3,24.4 111.2,24.3 C111.1,24.4 110.9,24.5 110.9,24.6 C110.8,25 110.8,25.5 110.8,25.9 L110.8,27.5 L110.8,28.6 Z M155.8,10.8 C155.8,10.7 155.7,10.6 155.7,10.5 C154.5,10.6 153.3,10.7 152.1,10.9 C152,10.9 151.8,11.3 151.9,11.5 C152,12 152.6,12.2 153.1,11.9 C153.8,11.5 154.4,11.2 155.2,11.2 C155.4,11.2 155.6,10.9 155.8,10.8 Z M94.1,25.9 C94.3,26.4 94.4,26.9 94.5,27.3 C94.6,27.5 94.7,27.7 94.9,27.9 C95.1,27.7 95.5,27.6 95.5,27.4 C95.5,26.8 95.4,26.2 95.3,25.7 C95.2,25.5 94.8,25.3 94.5,25.3 C94.4,25.3 94.3,25.7 94.1,25.9 Z M58.6,21.5 C58.5,21.5 58.4,21.6 58.3,21.6 C58.3,22.2 58.2,22.8 58.3,23.4 C58.4,23.9 59.2,24.2 59.6,24 C60.1,23.7 59.8,23.3 59.6,23 C59.4,22.5 59,22 58.6,21.5 Z M145.3,37.3 C145.8,36.4 145.8,35.5 145.7,34.6 C145.7,34.4 145.5,34.1 145.5,34.1 C145.3,34.1 145.1,34.2 144.9,34.3 C144.4,34.9 144.6,36.7 145.3,37.3 Z M123.7,36.9 C124.2,35.4 123.9,34.6 122.9,34.3 C122.7,34.2 122.5,34.3 122.3,34.3 C122.3,34.5 122.2,34.8 122.3,35 C122.7,35.6 123.2,36.2 123.7,36.9 Z M138.9,157.2 C139.8,156.8 139.8,154.1 138.9,153 L138.9,157.2 Z M16,130 L15.8,130 C15.9,131.7 16.1,133.5 16.2,135.2 L16.4,135.2 C16.4,133.5 17,131.7 16,130 Z M56.6,15.7 C57,14.2 56.7,12.8 56.3,11.4 C56,12.8 55.8,14.3 56.6,15.7 Z M144.1,153.5 C143.7,154.2 143.8,156.7 144.3,157.1 C145,156.4 144.8,154 144.1,153.5 Z M141.6,157.2 C142.4,156 142.3,154 141.6,153.3 C141.1,154.7 141.4,156 141.6,157.2 Z M31.8,156 C32.2,154.8 32.2,153.7 31.9,152.5 C31.2,153.1 31,155.4 31.8,156 Z M106.5,29.4 C107.2,28 107.2,26.3 106.5,25.5 C106,26.8 106.4,28.1 106.5,29.4 Z M113.7,127.1 C114.4,126.3 114.3,124.5 113.5,123.6 C113.3,124.8 113.2,125.9 113.7,127.1 Z M123.6,153.2 C122.9,154.6 123,156.1 123.8,156.8 C124.1,155.6 123.9,154.5 123.6,153.2 Z M111.4,76.2 L111.8,76.2 C111.7,75.1 111.7,73.9 111.6,72.8 L111.3,72.8 C111.1,73.9 110.4,75.1 111.4,76.2 Z M72.1,27 C72.1,27.1 72,27.1 72,27.2 C72.2,27.4 72.4,27.7 72.6,27.7 C73.1,27.7 73.6,27.1 73.5,26.6 C73.4,26.3 73.1,26.1 72.9,25.8 C72.7,26 72.5,26.2 72.3,26.4 C72.1,26.5 72.1,26.8 72.1,27 Z M134,150.4 L133.7,150.4 C133.6,151.9 133.5,153.5 133.4,155 L133.7,155 C133.7,153.5 134.6,152 134,150.4 Z M84.5,25.5 C84,26.8 84.6,28 84.5,29.4 C85.3,28.1 85.3,26.4 84.5,25.5 Z M116.3,12.9 L116.1,12.9 C115.8,14.3 115.4,15.6 115.1,17 L115.1,17.6 C115.9,16.1 116.2,14.5 116.3,12.9 Z M146.6,157.1 C146.9,156 147.2,155 146.6,154 C145.9,154.6 145.9,156.2 146.6,157.1 Z M116,157.1 C116,155.7 117,154.3 116.3,152.9 L116,152.9 L116,157.1 Z M81.9,156 C81.8,155.9 81.6,155.7 81.4,155.5 C81.1,155.8 80.8,156.1 80.6,156.5 C80.5,156.6 80.9,157.1 81.2,157.2 C81.8,157.3 81.8,156.6 81.9,156 Z M34.8,154.3 L34.5,154.3 C34.4,154.8 34.1,155.3 34.1,155.7 C34.1,155.9 34.4,156.1 34.6,156.4 C34.8,156.2 35.1,156 35.1,155.8 C34.9,155.3 34.8,154.8 34.8,154.3 Z M89.1,156.4 C89.8,155.6 89.8,154.6 89.3,153.9 C88.7,155 88.7,155.6 89.1,156.4 Z M148.9,152.7 C148.3,153.8 148.8,155 148.8,156.1 C148.9,155 149.4,153.9 148.9,152.7 Z M140.5,34.7 C139.8,35.7 139.9,36.7 140.7,36.9 C140.6,36.2 141.3,35.5 140.5,34.7 Z M138.6,35.7 C138.4,35.3 138.2,35 138,34.7 C137.9,35 137.6,35.3 137.7,35.6 C137.7,36 138,36.3 138.1,36.7 C138.2,36.4 138.4,36.1 138.6,35.7 Z M44.8,13.5 C45.3,12.4 45.3,11.2 44.7,10.8 C44.3,12.5 44.3,12.9 44.8,13.5 Z M143.3,36.7 C143.4,35.9 143.5,35.4 143.5,34.8 C143.5,34.7 143.3,34.6 143.2,34.5 C143.2,34.5 143,34.6 142.9,34.7 C142.6,35.2 142.7,36 143.3,36.7 Z M128.2,36.6 C127.9,36.3 127.7,36 127.5,35.8 C127.4,36.1 127.1,36.4 127.1,36.6 C127.1,36.9 127.3,37.2 127.5,37.5 C127.8,37.3 128,37 128.2,36.6 Z M58,14.3 L58.4,14.3 L58.4,11 L58.2,11 C58.1,12.1 58.1,13.2 58,14.3 Z M72.6,156.8 C72.2,156.5 72,156.2 71.9,156.2 C71.6,156.3 71.3,156.6 71.2,156.8 C71.2,157 71.5,157.3 71.7,157.6 C71.9,157.4 72.2,157.2 72.6,156.8 Z M113.8,28 L113.8,25.2 C113.3,26 113.2,27.1 113.8,28 Z M79.5,26.6 C79.8,27 80,27.2 80.2,27.5 C80.4,27.2 80.6,26.9 80.6,26.6 C80.6,26.4 80.3,26.1 80.1,25.9 C80,26 79.8,26.2 79.5,26.6 Z M125.5,35.3 C125.1,36.7 125.1,37.3 125.7,37.8 C125.9,37 126,36.2 125.5,35.3 Z M115.9,28.9 C116.2,28 116.1,26.8 115.6,26.2 C115.4,27.2 115.3,28 115.9,28.9 Z M78.2,155.9 C78.1,155.9 78,155.9 77.9,156 C77.7,156.4 77.1,156.6 77.7,157.1 C77.9,157.2 78.3,157.1 78.6,157.1 C78.5,156.7 78.3,156.3 78.2,155.9 Z M104.8,30.2 L104.8,27.5 C104.2,29.1 104.2,29.5 104.8,30.2 Z M38.9,154.9 L38.9,156.4 C38.9,156.5 39.1,156.6 39.3,156.6 C39.4,156.6 39.6,156.4 39.6,156.3 C39.6,155.9 39.7,155.4 38.9,154.9 Z M100.6,30 C99.9,30.4 99.8,30.9 100.2,31.6 C100.9,31.4 101,30.9 100.6,30 Z M102.5,30.6 C103,29.8 103,29.2 102.5,28.5 C102.4,29.2 101.9,29.9 102.5,30.6 Z M84.4,157.2 C84.4,156.7 84.5,156.3 84.5,155.9 C84.5,155.8 84.1,155.7 84,155.7 C83.6,156 83.8,156.9 84.4,157.2 Z M82.5,28.6 L82.5,26.5 C81.8,27.8 81.8,28.1 82.5,28.6 Z M56.7,19.4 L56.3,19.4 C56.4,20.6 56.4,21.9 56.5,23.1 L56.7,23.1 C56.7,21.9 56.7,20.7 56.7,19.4 Z M108.6,28.5 L108.8,28.5 L108.8,26.6 L108.6,26.6 L108.6,28.5 Z M23.5,155.9 L23.5,154.2 C22.9,154.9 22.9,155.4 23.5,155.9 Z M133.8,148.9 C134.3,147.9 134.3,147.9 133.8,147.4 L133.8,148.9 Z M133.1,36.6 C133.1,36.2 133,35.7 133,35.3 C132.4,35.9 132.4,36.1 133.1,36.6 Z" id="Shape"></path>
                <path d="M4.1,67.5 C4.2,69.2 4.4,70.9 4.4,72.5 C4.4,79 4.3,85.6 4.3,92.1 C4.3,93.3 4.2,94.4 4.2,95.6 L4.2,107.5 C4.2,108.2 4,109 3.8,109.7 C3.3,111.3 3.3,113 3.6,114.7 C4.3,118.3 4.1,121.9 3.9,125.6 C3.8,127.9 3.4,130.3 3.4,132.6 C3.4,135 3.7,137.5 3.8,139.9 C3.9,141.6 3.7,143.3 3.7,145 C3.7,146.3 3.6,147.5 3.5,148.8 C3.4,150.5 3.1,152.2 3.1,153.9 C3.1,155.6 3.3,157.3 3.5,158.9 C3.7,160.1 4.3,160.7 5.6,160.7 C10.6,160.7 15.6,160.7 20.6,160.6 C27.7,160.5 34.8,160.4 41.9,160.4 C45.7,160.4 49.6,160.7 53.4,160.8 C55.5,160.8 57.7,160.6 59.8,160.5 C61.3,160.5 62.7,160.5 64.2,160.7 C71.3,161.3 78.5,161.6 85.6,161.3 C90.2,161.1 94.8,161.2 99.4,161.4 C100.5,161.5 101.6,161.2 102.7,161.2 C105,161.2 107.2,161.2 109.5,161.1 C114.2,160.9 118.8,161.5 123.5,161.7 C128,161.9 132.4,162.1 136.9,161.9 C142.5,161.7 148,161.7 153.6,161.9 C157.2,162 160.8,161.9 164.4,161.1 C165.3,160.9 165.7,160.5 165.7,159.7 C165.7,158.2 165.6,156.6 165.7,155.1 C166,149.3 165.7,143.4 165.7,137.6 C165.6,132 165.8,126.4 165.8,120.8 C165.8,115.9 165.8,111 165.7,106.1 C165.6,94.2 165.6,82.4 165.4,70.5 C165.2,61.4 165.5,52.4 165.9,43.3 C166,40.9 166.2,38.4 166.3,36 C166.3,34.2 166.1,32.4 166.1,30.6 L166.1,16.6 C166.1,16 166.1,15.5 166,14.9 C165.9,13.8 166,12.8 166.3,11.8 C166.6,11 166.8,10.1 166.9,9.3 C167.1,8.3 166.8,7.4 166.1,6.6 C165.9,6.4 165.7,6.2 165.6,6 C165.1,4.8 164.2,4.5 162.9,4.5 C159.1,4.7 155.4,4.7 151.6,5 C149,5.2 146.5,4.9 143.9,4.8 C142.4,4.7 140.9,4.9 139.4,4.9 L137.2,4.9 C129.9,4.9 122.6,4.8 115.4,4.8 C111.4,4.8 107.5,5.3 103.5,5.4 C100.3,5.5 97.2,5.3 94,5.2 C85.9,5.1 77.8,5.1 69.7,5 C66.1,5 62.6,4.9 59,4.8 C54.6,4.6 50.3,4.4 45.9,4.2 C42.5,4.1 39.1,4.2 35.7,4.1 C26.9,3.8 18.1,3.5 9.3,3.1 C8,3 6.9,3.5 5.9,4.4 C5.1,5.1 4.8,5.8 4.9,7 C5.1,9.9 5.2,12.8 5.2,15.7 C5.2,19.9 5.2,24.1 5.1,28.3 C5.1,29.3 4.9,30.4 4.8,31.4 L4.8,36.5 C4.7,39 4.6,41.4 4.6,43.9 C4.5,47.1 4.5,50.3 4.4,53.5 C4.3,55.4 4.1,57.3 3.9,59.2 L3.7,59.2 C3.6,56.4 3.5,53.6 3.5,50.9 C3.5,43.3 3.6,35.6 3.6,28 C3.6,20.5 3.4,13 3.3,5.5 C3.3,4.7 3.5,4.2 4,3.6 C5,2.5 6.1,1.7 7.4,1.1 C7.6,1 7.9,0.9 8.1,1 C15.5,1.8 23,2.1 30.5,2.3 C37.9,2.5 45.4,2.6 52.8,3 C61.2,3.5 69.7,3.4 78.1,3.5 C80.7,3.5 83.2,3.7 85.8,3.6 C86.6,3.6 87.5,3.5 88.3,3.6 C94,4.3 99.6,3.8 105.3,3.7 C108.1,3.6 110.9,3.7 113.7,3.6 C114.2,3.6 114.7,3.5 115.3,3.5 C116.8,3.4 118.4,3.5 119.9,3.6 C122.4,3.7 125,3.5 127.5,3.4 C131.8,3.3 136.2,3.2 140.5,3.1 C142.8,3.1 145,3.3 147.3,3.3 C148.1,3.3 148.9,3.2 149.7,3.1 C152.4,2.8 155.2,2.4 157.9,2.1 C159.5,1.9 161,1.6 162.6,1.3 C163.8,1.1 165,1.1 166.1,1.6 C166.7,1.9 167.4,2.3 167.7,2.9 C169.1,5.1 170.8,7 172.6,8.9 C173,9.4 173.1,9.8 173.1,10.4 C172.5,15.1 171.9,19.9 171.4,24.6 C171.1,27.8 170.7,30.9 170.6,34.1 C170.5,36.1 170.6,38 170.7,40 C170.8,48.9 170.6,57.8 169.8,66.7 C169.4,70.4 169.7,74.1 169.8,77.8 C170.1,87.2 170.4,96.5 170.1,105.9 C170,108 169.8,110.2 169.8,112.3 C169.8,114.5 169.8,116.8 169.9,119 C170.2,122.6 170.1,126.2 170.1,129.7 C170.1,136.1 170.3,142.5 170.5,148.9 C170.6,154.1 170.6,159.4 170,164.6 C169.9,165.7 169.3,166.2 168.3,165.8 C167,165.4 165.7,165.4 164.3,165.5 C162.9,165.6 161.6,165.5 160.2,165.5 C156.1,165.5 152,165.6 147.9,165.6 C142.6,165.5 137.3,165.4 132,165.2 C126.1,165 120.2,164.7 114.3,164.4 C112,164.3 109.8,164.4 107.5,164.4 C104.3,164.3 101.1,164.1 97.9,164.1 C92.8,164 87.6,164.3 82.5,164.9 C81.7,165 80.8,164.9 80,164.9 C75.4,164.8 70.8,164.6 66.2,164.4 C64.4,164.3 62.6,164.1 60.8,164 C60.4,164 60.1,164 59.7,164.1 C58.2,164.2 56.6,164.3 55.1,164.3 C51.3,164.3 47.6,164.2 43.8,164.2 C40.4,164.2 37,164.3 33.6,164.6 C30.1,164.9 26.5,165.4 23,165.7 C20.2,165.9 17.3,166 14.5,166.1 C13.1,166.1 11.8,166.2 10.5,166.7 C8.7,167.4 7,167.3 5.5,165.8 C5.4,165.7 5.2,165.6 5.1,165.5 C2.6,163.8 1.5,161.5 1.4,158.4 C1.2,153.8 1.6,149.3 1.9,144.7 C2.1,142.5 2,140.4 1.9,138.2 C1.8,135.2 1.5,132.2 1.9,129.1 C2.2,126.1 1.9,122.9 1.9,119.8 C2,113.7 2.1,107.7 2.3,101.6 C2.6,92.4 3,83.2 3.3,74 C3.4,71.7 3.5,69.3 3.6,67 C3.9,67.5 4,67.5 4.1,67.5 Z" id="Shape"></path>
            </g>
        </g>
    </g>
</svg>