<?xml version="1.0" encoding="utf-8"?>
<!-- Generator: Adobe Illustrator 21.0.2, SVG Export Plug-In . SVG Version: 6.00 Build 0)  -->
<!DOCTYPE svg PUBLIC "-//W3C//DTD SVG 1.1//EN" "http://www.w3.org/Graphics/SVG/1.1/DTD/svg11.dtd">
<svg version="1.1" id="Layer_1" xmlns="http://www.w3.org/2000/svg" xmlns:xlink="http://www.w3.org/1999/xlink" x="0px" y="0px"
	 viewBox="0 0 1347.8 528.2" style="enable-background:new 0 0 1347.8 528.2;" xml:space="preserve">
<style type="text/css">
	.st0{fill:#231F20;}
	.st1{fill:#FFFFFF;stroke:#231F20;stroke-width:3;stroke-miterlimit:10;}
</style>
<g>
	<path class="st0" d="M118.7,179.1c46.3,9.6,68.7,31.2,68.7,68.7c0,38.5-37.6,69.2-92.5,69.2C42.1,317,0.9,290,0,237.8h41.2
		c0.9,31.2,25.7,46.3,54.1,46.3c27.5,0,50.9-12.8,50.9-35.7c0-18.8-10.5-29.8-41.7-35.7L66,204.8c-38-7.8-60-29.3-60-66
		c0-37.1,34.8-66.4,85.7-66.4c44,0,87.5,22.4,88.4,75.1h-41.2c-0.9-30.7-22-42.1-46.7-42.1c-25.7,0-45.8,13.7-45.8,33
		c0,18.3,10.1,27.9,33,32.5L118.7,179.1z"/>
	<path class="st0" d="M436.1,276.3v35.3h-69.6l-0.9-43.1h-1.8c-12.8,33-38.5,48.6-73.3,48.6c-22.9,0-42.6-7.3-55.9-21.1
		c-11.9-12.4-19.2-30.2-19.2-48.6c0-36.7,23.4-66,69.6-70.1l76.1-6.9v-18.8c0-36.2-19.7-46.3-48.6-46.3s-48.1,12.4-48.1,42.1h-41.2
		c0-44,39.9-75.1,89.8-75.1c50.4,0,88.4,24.7,88.4,79.7v124.2H436.1z M361,212.6V202l-82.9,7.8c-17,1.4-19.2,9.2-19.2,22.4v20.6
		c0,21.5,16,31.2,42.1,31.2C338.1,284.1,361,254.7,361,212.6z"/>
	<path class="st0" d="M505.3,311.5h-41.2V0h41.2V311.5z M505.8,181l91.6-103.1h49.9L553.4,181l100.3,130.6h-47.2L505.8,181z"/>
	<path class="st0" d="M878.7,276.3v35.3h-69.6l-0.9-43.1h-1.8c-12.8,33-38.5,48.6-73.3,48.6c-22.9,0-42.6-7.3-55.9-21.1
		c-11.9-12.4-19.2-30.2-19.2-48.6c0-36.7,23.4-66,69.6-70.1l76.1-6.9v-18.8c0-36.2-19.7-46.3-48.6-46.3c-28.9,0-48.1,12.4-48.1,42.1
		h-41.2c0-44,39.9-75.1,89.8-75.1c50.4,0,88.4,24.7,88.4,79.7v124.2H878.7z M803.6,212.6V202l-82.9,7.8c-17,1.4-19.2,9.2-19.2,22.4
		v20.6c0,21.5,16,31.2,42.1,31.2C780.7,284.1,803.6,254.7,803.6,212.6z"/>
	<path class="st0" d="M901.5,77.9h112.2v35.7h-71v197.9h-41.2V77.9z"/>
	<path class="st0" d="M1093.3,43.1h-43.1V0h43.1V43.1z M1051.1,311.5V77.9h41.2v233.7H1051.1z"/>
	<path class="st0" d="M1347.8,276.3v35.3h-69.6l-0.9-43.1h-1.8c-12.8,33-38.5,48.6-73.3,48.6c-22.9,0-42.6-7.3-55.9-21.1
		c-11.9-12.4-19.2-30.2-19.2-48.6c0-36.7,23.4-66,69.6-70.1l76.1-6.9v-18.8c0-36.2-19.7-46.3-48.6-46.3c-28.9,0-48.1,12.4-48.1,42.1
		h-41.2c0-44,39.9-75.1,89.8-75.1c50.4,0,88.4,24.7,88.4,79.7v124.2H1347.8z M1272.7,212.6V202l-82.9,7.8
		c-17,1.4-19.2,9.2-19.2,22.4v20.6c0,21.5,16,31.2,42.2,31.2C1249.8,284.1,1272.7,254.7,1272.7,212.6z"/>
	<path class="st1" d="M6,433.5c18.1,38.7,44.6,74.5,94.6,74.5c22.6,0,49-7.3,49-38.2c0-30.5-25-33.4-61.8-43
		c-35.8-9.2-74-22.7-74-62.4c0-33.9,27.9-55.1,73-55.1c29.9,0,58.8,9.2,73,30.5l14.2-33.4l1.5,75c-4.9-10.6-27-62.4-78.9-62.4
		c-22.1,0-47.1,9.2-47.1,32.9c0,26.6,31.4,36.8,54.4,41.6c27.9,5.8,80.9,12.1,80.9,59.5c0,47.9-54.4,64.8-83.3,64.8
		c-22.6,0-58.8-10.2-78.9-31.4L6,521.5V433.5z"/>
	<path class="st1" d="M246.2,461.2V222.5l-63.7,37.3l108.3-83.3v134.8h91.7l-12.3,9.8h-79.4v132.9c0,36.3,7.4,51.5,30.4,51.5
		s39.2-9.8,74.5-36.3h2.9c-44.6,39.7-59.3,50.5-90.2,50.5C276.6,519.6,246.2,500,246.2,461.2z"/>
	<path class="st1" d="M438.4,471.5v-126L384,382.3l101-80.9v157.9c0,26,7.4,39.2,35.3,40.7c3.9,0,15.2-8.3,57.8-31.4V345.5
		l-53.4,36.8l100-80.9v202l54.9,11.3H578.1v-36.3c-52.9,27.9-55.9,41.2-95.6,41.2C452.1,519.6,438.4,500,438.4,471.5z"/>
	<path class="st1" d="M684.5,413.2c0-67.7,52-106.9,104.4-106.9c31.4,0,57.4,13.7,67.2,41.2V215.1l-74.5,40.2l120.1-79.4v329
		l54.9,9.8H856.1l0.5-36.8c-11.8,20.1-27,41.7-68.6,41.7C725.2,519.6,685,470.5,684.5,413.2z M856.6,411.2
		c0-52.5-17.2-95.1-62.8-95.1c-46.1,0-72.6,43.6-72.6,95.6c0,36.8,13.2,92.7,69.1,92.7C828.6,504.4,856.6,477.9,856.6,411.2z"/>
	<path class="st1" d="M1014,504.9V346.5l-52.5,35.8l97.6-80.9v203.4l58.8,9.8H963.5L1014,504.9z M1008.1,245.5
		c0-17.2,12.3-31.9,27.9-31.9c15.7,0,28.4,14.7,28.4,31.9c0,17.6-12.7,31.9-28.4,31.9C1020.3,277.4,1008.1,263.2,1008.1,245.5z"/>
	<path class="st1" d="M1132.6,412.7c0-58.8,35.8-106.4,104.9-106.4c54.9,0,103.4,30.4,103.4,101.5c0,65.2-40.7,111.8-105.4,111.8
		C1171.3,519.6,1132.6,473.5,1132.6,412.7z M1301.7,411.2c-1.5-57.8-28.9-95.1-66.7-95.1c-39.7,0-61.8,40.7-61.8,96.1
		c0,54.4,21.1,97.6,65.2,97.6C1285.5,509.8,1302.7,460.2,1301.7,411.2z"/>
</g>
</svg>
